<svg width="56" height="57" viewBox="0 0 56 57" fill="none" xmlns="http://www.w3.org/2000/svg">
<path d="M52 28.5C52 15.2452 41.2548 4.5 28 4.5C14.7452 4.5 4 15.2452 4 28.5C4 41.7548 14.7452 52.5 28 52.5C41.2548 52.5 52 41.7548 52 28.5Z" fill="url(#paint0_linear_11_207)"/>
<path d="M28 50.625C40.2193 50.625 50.125 40.7193 50.125 28.5C50.125 16.2807 40.2193 6.375 28 6.375C15.7807 6.375 5.875 16.2807 5.875 28.5C5.875 40.7193 15.7807 50.625 28 50.625Z" fill="url(#paint1_linear_11_207)"/>
<path d="M28 46.875C38.1482 46.875 46.375 38.6482 46.375 28.5C46.375 18.3518 38.1482 10.125 28 10.125C17.8518 10.125 9.625 18.3518 9.625 28.5C9.625 38.6482 17.8518 46.875 28 46.875Z" fill="url(#paint2_linear_11_207)"/>
<path d="M28.9375 27.5625C28.9375 27.0447 28.5178 26.625 28 26.625C27.4822 26.625 27.0625 27.0447 27.0625 27.5625V38.8125C27.0625 39.3303 27.4822 39.75 28 39.75C28.5178 39.75 28.9375 39.3303 28.9375 38.8125V27.5625Z" fill="url(#paint3_linear_11_207)"/>
<path d="M29.029 35.99C29.1631 36.4902 29.6773 36.7869 30.1775 36.6528C30.6776 36.5187 30.9744 36.0046 30.8403 35.5044L28.655 27.3538C28.5209 26.8536 28.0067 26.5569 27.5065 26.691C27.0064 26.8251 26.7096 27.3392 26.8437 27.8394L29.029 35.99Z" fill="url(#paint4_linear_11_207)"/>
<path d="M28 31.3125C29.5533 31.3125 30.8125 30.0533 30.8125 28.5C30.8125 26.9467 29.5533 25.6875 28 25.6875C26.4467 25.6875 25.1875 26.9467 25.1875 28.5C25.1875 30.0533 26.4467 31.3125 28 31.3125Z" fill="url(#paint5_linear_11_207)"/>
<path d="M28 30.375C29.0355 30.375 29.875 29.5355 29.875 28.5C29.875 27.4645 29.0355 26.625 28 26.625C26.9645 26.625 26.125 27.4645 26.125 28.5C26.125 29.5355 26.9645 30.375 28 30.375Z" fill="url(#paint6_linear_11_207)"/>
<path d="M43 29.4375H44.4062C44.924 29.4375 45.3438 29.0178 45.3438 28.5C45.3438 27.9822 44.924 27.5625 44.4062 27.5625H43C42.4822 27.5625 42.0625 27.9822 42.0625 28.5C42.0625 29.0178 42.4822 29.4375 43 29.4375Z" fill="url(#paint7_linear_11_207)"/>
<path d="M11.5938 29.4375H13C13.5178 29.4375 13.9375 29.0178 13.9375 28.5C13.9375 27.9822 13.5178 27.5625 13 27.5625H11.5938C11.076 27.5625 10.6562 27.9822 10.6562 28.5C10.6562 29.0178 11.076 29.4375 11.5938 29.4375Z" fill="url(#paint8_linear_11_207)"/>
<path d="M41.4599 21.812L42.6777 21.1089C43.1261 20.85 43.2797 20.2766 43.0208 19.8283C42.7619 19.3799 42.1886 19.2263 41.7402 19.4851L40.5224 20.1883C40.074 20.4471 39.9204 21.0205 40.1793 21.4689C40.4381 21.9173 41.0115 22.0709 41.4599 21.812Z" fill="url(#paint9_linear_11_207)"/>
<path d="M14.2606 37.5156L15.4784 36.8125C15.9268 36.5536 16.0804 35.9803 15.8215 35.5319C15.5626 35.0835 14.9893 34.9299 14.5409 35.1888L13.3231 35.8919C12.8747 36.1508 12.721 36.7241 12.9799 37.1725C13.2388 37.6209 13.8122 37.7745 14.2606 37.5156Z" fill="url(#paint10_linear_11_207)"/>
<path d="M36.312 15.9777L37.0151 14.7599C37.274 14.3115 37.1204 13.7381 36.672 13.4792C36.2236 13.2204 35.6502 13.374 35.3913 13.8224L34.6882 15.0402C34.4293 15.4886 34.583 16.0619 35.0313 16.3208C35.4797 16.5797 36.0531 16.4261 36.312 15.9777Z" fill="url(#paint11_linear_11_207)"/>
<path d="M20.6094 43.1769L21.3125 41.9591C21.5714 41.5107 21.4178 40.9374 20.9694 40.6785C20.521 40.4196 19.9477 40.5732 19.6888 41.0216L18.9857 42.2394C18.7268 42.6878 18.8804 43.2611 19.3288 43.52C19.7772 43.7789 20.3505 43.6253 20.6094 43.1769Z" fill="url(#paint12_linear_11_207)"/>
<path d="M28.9375 13.5V12.0938C28.9375 11.576 28.5178 11.1562 28 11.1562C27.4822 11.1562 27.0625 11.576 27.0625 12.0938V13.5C27.0625 14.0178 27.4822 14.4375 28 14.4375C28.5178 14.4375 28.9375 14.0178 28.9375 13.5Z" fill="url(#paint13_linear_11_207)"/>
<path d="M28.9375 44.9062V43.5C28.9375 42.9822 28.5178 42.5625 28 42.5625C27.4822 42.5625 27.0625 42.9822 27.0625 43.5V44.9062C27.0625 45.424 27.4822 45.8438 28 45.8438C28.5178 45.8438 28.9375 45.424 28.9375 44.9062Z" fill="url(#paint14_linear_11_207)"/>
<path d="M21.312 15.0407L20.6088 13.8229C20.35 13.3745 19.7766 13.2209 19.3282 13.4797C18.8798 13.7386 18.7262 14.312 18.9851 14.7604L19.6882 15.9782C19.9471 16.4266 20.5205 16.5802 20.9688 16.3213C21.4172 16.0624 21.5708 15.4891 21.312 15.0407Z" fill="url(#paint15_linear_11_207)"/>
<path d="M37.0157 42.2389L36.3125 41.0211C36.0537 40.5727 35.4803 40.4191 35.0319 40.678C34.5835 40.9369 34.4299 41.5102 34.6888 41.9586L35.3919 43.1764C35.6508 43.6248 36.2242 43.7784 36.6725 43.5195C37.1209 43.2607 37.2745 42.6873 37.0157 42.2389Z" fill="url(#paint16_linear_11_207)"/>
<path d="M15.4782 20.188L14.2604 19.4849C13.812 19.226 13.2386 19.3796 12.9798 19.828C12.7209 20.2764 12.8745 20.8497 13.3229 21.1086L14.5407 21.8117C14.9891 22.0706 15.5624 21.917 15.8213 21.4686C16.0802 21.0202 15.9266 20.4469 15.4782 20.188Z" fill="url(#paint17_linear_11_207)"/>
<path d="M42.6764 35.8906L41.4586 35.1875C41.0102 34.9286 40.4368 35.0822 40.1779 35.5306C39.919 35.979 40.0727 36.5524 40.5211 36.8112L41.7389 37.5144C42.1873 37.7733 42.7606 37.6196 43.0195 37.1712C43.2784 36.7229 43.1248 36.1495 42.6764 35.8906Z" fill="url(#paint18_linear_11_207)"/>
<defs>
<linearGradient id="paint0_linear_11_207" x1="11.0294" y1="11.5294" x2="44.9706" y2="45.4706" gradientUnits="userSpaceOnUse">
<stop stop-color="#8D8CF2"/>
<stop offset="1" stop-color="#5654DD"/>
</linearGradient>
<linearGradient id="paint1_linear_11_207" x1="12.355" y1="12.855" x2="43.645" y2="44.145" gradientUnits="userSpaceOnUse">
<stop stop-color="#CFCFFA"/>
<stop offset="1" stop-color="#7A7AF0"/>
</linearGradient>
<linearGradient id="paint2_linear_11_207" x1="15.0072" y1="15.5072" x2="40.9928" y2="41.4928" gradientUnits="userSpaceOnUse">
<stop stop-color="white"/>
<stop offset="1" stop-color="#E3E3FF"/>
</linearGradient>
<linearGradient id="paint3_linear_11_207" x1="24.5247" y1="29.7122" x2="31.4753" y2="36.6628" gradientUnits="userSpaceOnUse">
<stop stop-color="#FFBDCD"/>
<stop offset="1" stop-color="#FF94AF"/>
</linearGradient>
<linearGradient id="paint4_linear_11_207" x1="25.5936" y1="28.4323" x2="32.0882" y2="34.927" gradientUnits="userSpaceOnUse">
<stop stop-color="#FF94AE"/>
<stop offset="1" stop-color="#FF3866"/>
</linearGradient>
<linearGradient id="paint5_linear_11_207" x1="26.0116" y1="26.5116" x2="29.9884" y2="30.4884" gradientUnits="userSpaceOnUse">
<stop stop-color="#8D8CF2"/>
<stop offset="1" stop-color="#6361DD"/>
</linearGradient>
<linearGradient id="paint6_linear_11_207" x1="26.6744" y1="29.8256" x2="29.3256" y2="27.1744" gradientUnits="userSpaceOnUse">
<stop stop-color="white"/>
<stop offset="1" stop-color="#E3E3FF"/>
</linearGradient>
<linearGradient id="paint7_linear_11_207" x1="42.6888" y1="27.4856" x2="44.7175" y2="29.5144" gradientUnits="userSpaceOnUse">
<stop stop-color="#8D8CF2"/>
<stop offset="1" stop-color="#6361DD"/>
</linearGradient>
<linearGradient id="paint8_linear_11_207" x1="11.2825" y1="27.4856" x2="13.3113" y2="29.5144" gradientUnits="userSpaceOnUse">
<stop stop-color="#8D8CF2"/>
<stop offset="1" stop-color="#6361DD"/>
</linearGradient>
<linearGradient id="paint9_linear_11_207" x1="40.8072" y1="19.8566" x2="42.3906" y2="21.4409" gradientUnits="userSpaceOnUse">
<stop stop-color="#8D8CF2"/>
<stop offset="1" stop-color="#6361DD"/>
</linearGradient>
<linearGradient id="paint10_linear_11_207" x1="13.6091" y1="35.5596" x2="15.1925" y2="37.1439" gradientUnits="userSpaceOnUse">
<stop stop-color="#8D8CF2"/>
<stop offset="1" stop-color="#6361DD"/>
</linearGradient>
<linearGradient id="paint11_linear_11_207" x1="35.059" y1="14.1084" x2="36.6433" y2="15.6918" gradientUnits="userSpaceOnUse">
<stop stop-color="#8D8CF2"/>
<stop offset="1" stop-color="#6361DD"/>
</linearGradient>
<linearGradient id="paint12_linear_11_207" x1="19.3571" y1="41.3065" x2="20.9415" y2="42.8898" gradientUnits="userSpaceOnUse">
<stop stop-color="#8D8CF2"/>
<stop offset="1" stop-color="#6361DD"/>
</linearGradient>
<linearGradient id="paint13_linear_11_207" x1="26.9856" y1="11.7825" x2="29.0144" y2="13.8112" gradientUnits="userSpaceOnUse">
<stop stop-color="#8D8CF2"/>
<stop offset="1" stop-color="#6361DD"/>
</linearGradient>
<linearGradient id="paint14_linear_11_207" x1="26.9856" y1="43.1887" x2="29.0144" y2="45.2175" gradientUnits="userSpaceOnUse">
<stop stop-color="#8D8CF2"/>
<stop offset="1" stop-color="#6361DD"/>
</linearGradient>
<linearGradient id="paint15_linear_11_207" x1="19.0047" y1="13.7577" x2="21.2921" y2="16.0442" gradientUnits="userSpaceOnUse">
<stop stop-color="#8D8CF2"/>
<stop offset="1" stop-color="#6361DD"/>
</linearGradient>
<linearGradient id="paint16_linear_11_207" x1="34.7077" y1="40.9548" x2="36.9951" y2="43.2413" gradientUnits="userSpaceOnUse">
<stop stop-color="#8D8CF2"/>
<stop offset="1" stop-color="#6361DD"/>
</linearGradient>
<linearGradient id="paint17_linear_11_207" x1="13.2578" y1="19.5044" x2="15.5442" y2="21.7918" gradientUnits="userSpaceOnUse">
<stop stop-color="#8D8CF2"/>
<stop offset="1" stop-color="#6361DD"/>
</linearGradient>
<linearGradient id="paint18_linear_11_207" x1="40.4547" y1="35.2064" x2="42.7412" y2="37.4938" gradientUnits="userSpaceOnUse">
<stop stop-color="#8D8CF2"/>
<stop offset="1" stop-color="#6361DD"/>
</linearGradient>
</defs>
</svg>
