<svg width="64" height="64" viewBox="0 0 64 64" fill="none" xmlns="http://www.w3.org/2000/svg">
<rect width="64" height="64" rx="8" fill="#E1F3FD"/>
<path d="M47.1125 8.75L16.8875 34.325H26.1875L16.8875 55.25L47.1125 29.675H37.8125L47.1125 8.75Z" fill="#F8B234"/>
<path d="M16.8875 55.9999C16.7252 55.9999 16.5673 55.9472 16.4375 55.8499C16.3015 55.7475 16.2044 55.6018 16.1621 55.4369C16.1199 55.272 16.135 55.0976 16.205 54.9424L25.0325 35.0749H16.8875C16.7342 35.0749 16.5845 35.0279 16.4587 34.9403C16.3329 34.8526 16.237 34.7285 16.1839 34.5847C16.1308 34.4409 16.123 34.2842 16.1617 34.1359C16.2003 33.9875 16.2835 33.8545 16.4 33.7549L46.625 8.17988C46.7546 8.06998 46.9178 8.00736 47.0876 8.00229C47.2575 7.99721 47.4241 8.04998 47.56 8.15195C47.696 8.25392 47.7933 8.39904 47.836 8.56354C47.8787 8.72804 47.8642 8.90216 47.795 9.05738L38.9675 28.9249H47.1125C47.2658 28.9249 47.4155 28.9718 47.5413 29.0595C47.6671 29.1471 47.763 29.2712 47.8161 29.415C47.8692 29.5589 47.877 29.7155 47.8384 29.8639C47.7997 30.0123 47.7165 30.1452 47.6 30.2449L17.375 55.8199C17.2392 55.9361 17.0663 55.9999 16.8875 55.9999ZM18.935 33.5749H26.1875C26.3123 33.5743 26.4353 33.6048 26.5453 33.6638C26.6553 33.7227 26.7489 33.8082 26.8175 33.9124C26.8915 34.0217 26.9353 34.1486 26.9445 34.2803C26.9537 34.412 26.928 34.5438 26.87 34.6624L18.905 52.5649L45.065 30.4249H37.8125C37.6877 30.4255 37.5647 30.3949 37.4547 30.336C37.3447 30.2771 37.2511 30.1916 37.1825 30.0874C37.1085 29.978 37.0647 29.8511 37.0555 29.7194C37.0463 29.5877 37.072 29.456 37.13 29.3374L45.095 11.4349L18.935 33.5749Z" fill="#282F39"/>
</svg>
