<svg width="56" height="57" viewBox="0 0 56 57" fill="none" xmlns="http://www.w3.org/2000/svg">
<path d="M28.856 19.988C27.9911 18.8543 26.877 17.9346 25.6 17.3H12.8C7.848 19.588 4.8 28.436 4.8 34.268C4.8 42.26 11.248 46.1 19.2 46.1C22.5772 46.2131 25.9138 45.3373 28.8 43.58L28.856 19.988Z" fill="#F0C419"/>
<path d="M48.8 18.1H31.2C29.8745 18.1 28.8 19.1745 28.8 20.5V49.3C28.8 50.6255 29.8745 51.7 31.2 51.7H48.8C50.1255 51.7 51.2 50.6255 51.2 49.3V20.5C51.2 19.1745 50.1255 18.1 48.8 18.1Z" fill="#3B97D3"/>
<path d="M47.2 21.3H32.8C32.3582 21.3 32 21.6582 32 22.1V28.5C32 28.9419 32.3582 29.3 32.8 29.3H47.2C47.6418 29.3 48 28.9419 48 28.5V22.1C48 21.6582 47.6418 21.3 47.2 21.3Z" fill="#65DDB9"/>
<path d="M34.4 32.5H32.8C32.3582 32.5 32 32.8582 32 33.3V34.9C32 35.3418 32.3582 35.7 32.8 35.7H34.4C34.8418 35.7 35.2 35.3418 35.2 34.9V33.3C35.2 32.8582 34.8418 32.5 34.4 32.5Z" fill="#9FC9D3"/>
<path d="M40.8 32.5H39.2C38.7582 32.5 38.4 32.8582 38.4 33.3V34.9C38.4 35.3418 38.7582 35.7 39.2 35.7H40.8C41.2418 35.7 41.6 35.3418 41.6 34.9V33.3C41.6 32.8582 41.2418 32.5 40.8 32.5Z" fill="#9FC9D3"/>
<path d="M47.2 32.5H45.6C45.1582 32.5 44.8 32.8582 44.8 33.3V34.9C44.8 35.3418 45.1582 35.7 45.6 35.7H47.2C47.6418 35.7 48 35.3418 48 34.9V33.3C48 32.8582 47.6418 32.5 47.2 32.5Z" fill="#9FC9D3"/>
<path d="M34.4 38.9H32.8C32.3582 38.9 32 39.2582 32 39.7V41.3C32 41.7419 32.3582 42.1 32.8 42.1H34.4C34.8418 42.1 35.2 41.7419 35.2 41.3V39.7C35.2 39.2582 34.8418 38.9 34.4 38.9Z" fill="#9FC9D3"/>
<path d="M40.8 38.9H39.2C38.7582 38.9 38.4 39.2582 38.4 39.7V41.3C38.4 41.7419 38.7582 42.1 39.2 42.1H40.8C41.2418 42.1 41.6 41.7419 41.6 41.3V39.7C41.6 39.2582 41.2418 38.9 40.8 38.9Z" fill="#9FC9D3"/>
<path d="M47.2 38.9H45.6C45.1582 38.9 44.8 39.2582 44.8 39.7V47.7C44.8 48.1419 45.1582 48.5 45.6 48.5H47.2C47.6418 48.5 48 48.1419 48 47.7V39.7C48 39.2582 47.6418 38.9 47.2 38.9Z" fill="#9FC9D3"/>
<path d="M34.4 45.3H32.8C32.3582 45.3 32 45.6582 32 46.1V47.7C32 48.1419 32.3582 48.5 32.8 48.5H34.4C34.8418 48.5 35.2 48.1419 35.2 47.7V46.1C35.2 45.6582 34.8418 45.3 34.4 45.3Z" fill="#9FC9D3"/>
<path d="M40.8 45.3H39.2C38.7582 45.3 38.4 45.6582 38.4 46.1V47.7C38.4 48.1419 38.7582 48.5 39.2 48.5H40.8C41.2418 48.5 41.6 48.1419 41.6 47.7V46.1C41.6 45.6582 41.2418 45.3 40.8 45.3Z" fill="#9FC9D3"/>
<path d="M25.6 14.1H12.8C11.9163 14.1 11.2 14.8163 11.2 15.7C11.2 16.5836 11.9163 17.3 12.8 17.3H25.6C26.4837 17.3 27.2 16.5836 27.2 15.7C27.2 14.8163 26.4837 14.1 25.6 14.1Z" fill="#F29C1F"/>
<path d="M24.8 14.1C24.8 14.1 26.7776 12.9648 27.1896 8.45281C27.2538 7.92999 27.1288 7.40147 26.8373 6.96277C26.5457 6.52406 26.1069 6.20413 25.6 6.06081C21.3935 5.04744 17.0065 5.04744 12.8 6.06081C12.2937 6.20476 11.8556 6.52496 11.5647 6.9636C11.2738 7.40223 11.1493 7.93042 11.2136 8.45281C11.6224 12.9648 13.6 14.1 13.6 14.1H24.8Z" fill="#F0C419"/>
<path d="M20 30.18V25.4472C20.4663 25.612 20.8703 25.917 21.1567 26.3202C21.4431 26.7235 21.598 27.2054 21.6 27.7C21.6 27.9121 21.6843 28.1156 21.8343 28.2657C21.9843 28.4157 22.1878 28.5 22.4 28.5C22.6122 28.5 22.8157 28.4157 22.9657 28.2657C23.1157 28.1156 23.2 27.9121 23.2 27.7C23.1988 26.7782 22.8799 25.885 22.297 25.171C21.7141 24.4569 20.9029 23.9657 20 23.78V22.9C20 22.6878 19.9157 22.4843 19.7657 22.3343C19.6157 22.1843 19.4122 22.1 19.2 22.1C18.9878 22.1 18.7843 22.1843 18.6343 22.3343C18.4843 22.4843 18.4 22.6878 18.4 22.9V23.78C17.4958 23.9636 16.6828 24.4542 16.0989 25.1686C15.515 25.883 15.196 26.7773 15.196 27.7C15.196 28.6227 15.515 29.517 16.0989 30.2314C16.6828 30.9458 17.4958 31.4364 18.4 31.62V36.3536C17.9335 36.1887 17.5295 35.8836 17.243 35.4802C16.9566 35.0768 16.8019 34.5947 16.8 34.1C16.8 33.8878 16.7157 33.6843 16.5657 33.5343C16.4157 33.3843 16.2122 33.3 16 33.3C15.7878 33.3 15.5843 33.3843 15.4343 33.5343C15.2843 33.6843 15.2 33.8878 15.2 34.1C15.2012 35.0217 15.5201 35.9149 16.103 36.629C16.6859 37.343 17.4971 37.8343 18.4 38.02V38.9C18.4 39.1121 18.4843 39.3156 18.6343 39.4657C18.7843 39.6157 18.9878 39.7 19.2 39.7C19.4122 39.7 19.6157 39.6157 19.7657 39.4657C19.9157 39.3156 20 39.1121 20 38.9V38.02C20.9042 37.8364 21.7172 37.3458 22.3011 36.6314C22.885 35.917 23.204 35.0227 23.204 34.1C23.204 33.1773 22.885 32.283 22.3011 31.5686C21.7172 30.8542 20.9042 30.3636 20 30.18ZM16.8 27.7C16.8021 27.2054 16.9569 26.7235 17.2433 26.3202C17.5297 25.917 17.9337 25.612 18.4 25.4472V29.9528C17.9337 29.7879 17.5297 29.483 17.2433 29.0797C16.9569 28.6765 16.8021 28.1946 16.8 27.7ZM20 36.3528V31.8472C20.4676 32.0101 20.873 32.3145 21.1598 32.7182C21.4467 33.1218 21.6008 33.6048 21.6008 34.1C21.6008 34.5952 21.4467 35.0781 21.1598 35.4818C20.873 35.8855 20.4676 36.1899 20 36.3528Z" fill="#E57E25"/>
</svg>
