<svg width="64" height="64" viewBox="0 0 64 64" fill="none" xmlns="http://www.w3.org/2000/svg">
<rect width="64" height="64" rx="8" fill="#E1F3FD"/>
<path fill-rule="evenodd" clip-rule="evenodd" d="M35.2391 29.4799H32.3911C32.1205 29.4799 31.9011 29.2606 31.9011 28.9898V15.4803C31.9011 15.0297 32.2701 14.6633 32.7234 14.6633H34.9069C35.3603 14.6633 35.7293 15.0298 35.7293 15.4803V28.9898C35.7291 29.2605 35.5099 29.4799 35.2391 29.4799Z" fill="#3AB44A"/>
<path fill-rule="evenodd" clip-rule="evenodd" d="M29.5433 29.4798H26.6952C26.4246 29.4798 26.2052 29.2606 26.2052 28.9898V17.1842C26.2052 16.7564 26.5741 16.4084 27.0275 16.4084H29.211C29.6644 16.4084 30.0333 16.7564 30.0333 17.1842V28.9898C30.0333 29.2606 29.8139 29.4798 29.5433 29.4798Z" fill="#FFD33A"/>
<path fill-rule="evenodd" clip-rule="evenodd" d="M23.8473 29.4798H20.9992C20.7285 29.4798 20.5092 29.2606 20.5092 28.9898V19.9741C20.5092 19.5769 20.8703 19.2659 21.3315 19.2659H23.5149C23.9761 19.2659 24.3373 19.5769 24.3373 19.9741V28.9898C24.3373 29.2604 24.1179 29.4798 23.8473 29.4798Z" fill="#FF5364"/>
<path fill-rule="evenodd" clip-rule="evenodd" d="M40.9352 29.48H38.0872C37.8165 29.48 37.5972 29.2608 37.5972 28.99V13.5308C37.5972 13.0543 37.9661 12.6667 38.4194 12.6667H40.6029C41.0564 12.6667 41.4253 13.0544 41.4253 13.5308V28.99C41.4252 29.2607 41.2059 29.48 40.9352 29.48Z" fill="#0D8440"/>
<path fill-rule="evenodd" clip-rule="evenodd" d="M46.5171 32.0359H17.9732C17.7024 32.0359 17.483 31.8165 17.483 31.5459V28.9899C17.483 28.7192 17.7024 28.4998 17.9732 28.4998H43.4711V8.49002C43.4711 8.21937 43.6905 8 43.9611 8H46.5171C46.7877 8 47.0071 8.21925 47.0071 8.49002V31.546C47.0071 31.8166 46.7878 32.0359 46.5171 32.0359Z" fill="#C8C8C8"/>
<path fill-rule="evenodd" clip-rule="evenodd" d="M51.7059 56.0001H12.2941C12.0234 56.0001 11.8041 55.7807 11.8041 55.51V31.5459C11.8041 31.2753 12.0234 31.0559 12.2941 31.0559H51.7058C51.9766 31.0559 52.1958 31.2753 52.1958 31.5459V55.51C52.1959 55.7807 51.9764 56.0001 51.7059 56.0001Z" fill="#0E9347"/>
<path fill-rule="evenodd" clip-rule="evenodd" d="M44.9822 52.1976H19.0178C18.7472 52.1976 18.5278 51.9782 18.5278 51.7076C18.5278 50.3669 17.4372 49.2762 16.0966 49.2762C15.8258 49.2762 15.6064 49.057 15.6064 48.7862V38.2699C15.6064 37.9991 15.8258 37.7799 16.0965 37.7799C17.4371 37.7799 18.5278 36.6892 18.5278 35.3484C18.5278 35.0778 18.7471 34.8584 19.0178 34.8584H44.9822C45.253 34.8584 45.4723 35.0778 45.4723 35.3484C45.4723 36.6891 46.563 37.7799 47.9036 37.7799C48.1743 37.7799 48.3936 37.9991 48.3936 38.2699V48.7863C48.3936 49.0571 48.1743 49.2763 47.9036 49.2763C46.563 49.2763 45.4723 50.367 45.4723 51.7077C45.4723 51.9782 45.253 52.1976 44.9822 52.1976Z" fill="#3BB54A"/>
<path fill-rule="evenodd" clip-rule="evenodd" d="M32.0001 50.193C28.3249 50.193 25.3348 47.203 25.3348 43.5278C25.3348 39.8526 28.3249 36.8625 32.0001 36.8625C35.6753 36.8625 38.6652 39.8526 38.6652 43.5278C38.6652 47.203 35.6753 50.193 32.0001 50.193Z" fill="#0E9347"/>
<path fill-rule="evenodd" clip-rule="evenodd" d="M31.51 47.0488C30.6236 46.8289 29.9646 46.0266 29.9646 45.0732C29.9646 44.8025 30.1838 44.5832 30.4546 44.5832C30.7253 44.5832 30.9446 44.8025 30.9446 45.0732C30.9446 45.4784 31.1743 45.8309 31.51 46.0077V43.9581C30.6236 43.7383 29.9645 42.9358 29.9645 41.9823C29.9645 41.0288 30.6235 40.2264 31.51 40.0064V39.5481C31.51 39.2774 31.7293 39.0581 32 39.0581C32.2707 39.0581 32.4901 39.2774 32.4901 39.5481V40.0065C33.3764 40.2266 34.0354 41.0287 34.0354 41.9823C34.0354 42.2529 33.8161 42.4723 33.5453 42.4723C33.2747 42.4723 33.0553 42.2529 33.0553 41.9823C33.0553 41.577 32.8259 41.2245 32.4901 41.0477V43.0975C33.3765 43.3175 34.0355 44.1197 34.0355 45.0732C34.0355 46.0268 33.3764 46.829 32.4901 47.0489V47.5077C32.4901 47.7782 32.2707 47.9977 32 47.9977C31.7293 47.9977 31.51 47.7784 31.51 47.5077L31.51 47.0488ZM32.4901 46.0076C32.8259 45.8308 33.0553 45.4784 33.0553 45.0732C33.0553 44.6681 32.8259 44.3156 32.4901 44.1388V46.0076ZM31.51 41.0477C31.1742 41.2245 30.9446 41.577 30.9446 41.9823C30.9446 42.3874 31.1742 42.7401 31.51 42.9169V41.0477Z" fill="#89C763"/>
<path fill-rule="evenodd" clip-rule="evenodd" d="M42.7815 40.6511C41.8696 40.6511 41.1278 39.9093 41.1278 38.9975C41.1278 38.0857 41.8696 37.344 42.7815 37.344C43.6932 37.344 44.435 38.0857 44.435 38.9975C44.435 39.9093 43.6932 40.6511 42.7815 40.6511Z" fill="#0E9347"/>
<path fill-rule="evenodd" clip-rule="evenodd" d="M21.2186 40.6511C20.3069 40.6511 19.5651 39.9093 19.5651 38.9975C19.5651 38.0857 20.3067 37.344 21.2186 37.344C22.1306 37.344 22.8724 38.0857 22.8724 38.9975C22.8724 39.9093 22.1306 40.6511 21.2186 40.6511Z" fill="#0E9347"/>
<path fill-rule="evenodd" clip-rule="evenodd" d="M42.7815 49.712C41.8696 49.712 41.1278 48.9703 41.1278 48.0584C41.1278 47.1466 41.8696 46.4048 42.7815 46.4048C43.6932 46.4048 44.435 47.1466 44.435 48.0584C44.435 48.9703 43.6932 49.712 42.7815 49.712Z" fill="#0E9347"/>
<path fill-rule="evenodd" clip-rule="evenodd" d="M21.2186 49.712C20.3069 49.712 19.5651 48.9703 19.5651 48.0584C19.5651 47.1466 20.3067 46.4048 21.2186 46.4048C22.1306 46.4048 22.8724 47.1466 22.8724 48.0584C22.8724 48.9703 22.1306 49.712 21.2186 49.712Z" fill="#0E9347"/>
</svg>
