<svg width="64" height="64" viewBox="0 0 64 64" fill="none" xmlns="http://www.w3.org/2000/svg">
<rect width="64" height="64" rx="8" fill="#fff"/>
<path d="M50.4944 28.0064C50.4944 29.2928 50.2064 30.656 49.6304 32.0336C48.8192 33.9632 47.4704 35.7632 46.4864 36.224C46.0352 36.44 45.368 36.5408 44.5952 36.5408C43.5632 36.5408 42.3392 36.3536 41.1872 35.9936C38.552 35.1728 36.5648 33.5792 35.5952 31.5104C32.2112 24.3056 35.1584 18.4544 35.2832 18.2048C35.36 18.056 35.5136 17.96 35.6816 17.9504C36.1136 17.9216 46.3088 17.36 49.8176 24.8336C50.2688 25.7984 50.4944 26.8688 50.4944 28.0064Z" fill="#45BF50"/>
<path d="M35.8736 39.5456C36.9104 41.576 36.9536 44.12 35.9888 46.7072C35.2496 48.6848 33.9632 50.5088 32.9216 51.0416C32.4656 51.272 31.7312 51.3872 30.8672 51.3872C29.8928 51.3872 28.7552 51.2384 27.68 50.9504C24.9728 50.2208 22.9088 48.7088 21.8768 46.688C21.0608 45.0848 20.7392 43.4624 20.7392 41.9072C20.7392 36.32 24.8816 31.5488 25.1024 31.2992C25.2176 31.1696 25.3856 31.112 25.5488 31.1408C25.8224 31.1936 32.2544 32.456 35.8736 39.5456Z" fill="#45BF50"/>
<path d="M22.8128 27.9825C21.6608 28.3425 20.4368 28.5297 19.4048 28.5297C18.632 28.5297 17.9648 28.4241 17.5136 28.2129C16.5296 27.7521 15.1808 25.9521 14.3696 24.0225C13.2848 21.4305 13.2176 18.8769 14.1824 16.8225C17.6912 9.34409 27.8864 9.91049 28.3184 9.93449C28.4864 9.94889 28.64 10.0449 28.7168 10.1937C28.8416 10.4385 31.7888 16.2945 28.4048 23.4993C27.4352 25.5681 25.448 27.1569 22.8128 27.9825Z" fill="#45BF50"/>
<path d="M24.3704 18.415C23.7243 18.7251 23.0566 18.7812 22.5723 18.7683C23.7363 16.926 24.6397 15.7836 24.6637 15.7539C24.8293 15.547 24.7952 15.2446 24.5883 15.0795C24.3809 14.9139 24.0785 14.947 23.9139 15.1543C23.8174 15.2748 22.9265 16.4014 21.7894 18.1855C21.6689 17.8371 21.56 17.347 21.5547 16.6918C21.5528 16.4278 21.3382 16.2156 21.0747 16.2156H21.0709C20.8059 16.2175 20.5923 16.4345 20.5947 16.6995C20.6048 17.9806 20.9446 18.7678 21.1817 19.1671C20.5789 20.1689 19.9385 21.3204 19.328 22.5799C19.1043 22.0721 18.8787 21.3454 18.8888 20.4766C18.8917 20.2116 18.6795 19.9942 18.4145 19.9908C18.1361 19.9884 17.9317 20.2001 17.9288 20.4651C17.9105 22.014 18.5081 23.1785 18.8173 23.6763C17.7349 26.1003 16.8205 28.8454 16.5017 31.6486C16.472 31.9116 16.6611 32.1497 16.9246 32.1795C16.9429 32.1814 16.9611 32.1823 16.9793 32.1823C17.2198 32.1823 17.4277 32.0019 17.4555 31.7566C17.7569 29.107 18.6349 26.4785 19.6784 24.1385C19.7585 24.1404 19.8469 24.1419 19.9496 24.1419C20.7262 24.1419 22.0861 24.0718 23.0557 23.635C23.2976 23.526 23.4056 23.2419 23.2966 23.0004C23.1877 22.7585 22.903 22.6515 22.6621 22.7595C21.9161 23.0955 20.8309 23.1689 20.1209 23.1785C20.7387 21.8911 21.3925 20.7113 22.0054 19.6889C22.184 19.7119 22.4168 19.7326 22.6913 19.7326C23.2765 19.7326 24.0368 19.6399 24.7856 19.2799C25.0246 19.1652 25.1254 18.8787 25.0107 18.6396C24.896 18.4001 24.6089 18.3003 24.3704 18.415Z" fill="#009245"/>
<path d="M45.1832 31.689C45.4923 31.1912 46.0894 30.0267 46.0712 28.4778C46.0683 28.2123 45.8317 27.9896 45.5854 28.0035C45.3205 28.0064 45.1078 28.2238 45.1112 28.4893C45.1213 29.3581 44.8957 30.0848 44.672 30.5926C44.0609 29.3331 43.4211 28.1811 42.8182 27.1798C43.0553 26.7805 43.3952 25.9933 43.4053 24.7122C43.4072 24.4472 43.1941 24.2307 42.9291 24.2283H42.9253C42.6617 24.2283 42.4472 24.4405 42.4453 24.7045C42.44 25.3606 42.3305 25.8502 42.2105 26.1987C41.0739 24.4146 40.1825 23.2875 40.0861 23.167C39.9205 22.9597 39.6181 22.9266 39.4117 23.0922C39.2043 23.2578 39.1712 23.5597 39.3368 23.7666C39.3603 23.7963 40.2641 24.9382 41.4286 26.7805C40.9438 26.7934 40.2761 26.7373 39.6296 26.4272C39.3905 26.3115 39.104 26.4128 38.9893 26.6523C38.8745 26.8914 38.9753 27.1779 39.2144 27.2926C39.9637 27.6526 40.7235 27.7453 41.3086 27.7453C41.5837 27.7453 41.8174 27.7246 41.996 27.7016C42.6089 28.724 43.2627 29.9043 43.8809 31.1922C43.171 31.1826 42.0848 31.1086 41.3384 30.7726C41.0969 30.6646 40.8128 30.7717 40.7038 31.0136C40.5949 31.255 40.7029 31.5392 40.9448 31.6482C41.9144 32.0845 43.2747 32.155 44.0509 32.155C44.1541 32.155 44.2429 32.1536 44.323 32.1517C45.3656 34.4907 46.2435 37.1187 46.5449 39.7693C46.5728 40.0146 46.7806 40.195 47.0211 40.195C47.0393 40.195 47.0576 40.1941 47.0758 40.1922C47.3393 40.1624 47.5285 39.9243 47.4987 39.6613C47.18 36.8586 46.2656 34.1125 45.1832 31.689Z" fill="#009245"/>
<path d="M31.029 46.8305C31.461 46.2987 32.4186 45.0243 32.7013 43.8535C32.7632 43.5958 32.6048 43.3366 32.3475 43.2742C32.0912 43.2132 31.8306 43.3702 31.7682 43.6279C31.5762 44.4233 30.9694 45.3262 30.5418 45.8926C29.9034 44.6153 29.3715 43.375 28.9395 42.2638C29.3384 41.8663 30.0637 41.01 30.321 39.8163C30.3766 39.5571 30.212 39.3017 29.9528 39.246C29.6926 39.1899 29.4382 39.355 29.3826 39.6142C29.2314 40.315 28.867 40.8766 28.5598 41.2515C27.8178 39.2023 27.4693 37.7887 27.4602 37.7518C27.3982 37.494 27.139 37.3361 26.8808 37.3975C26.623 37.4595 26.4646 37.7187 26.5266 37.9764C26.5626 38.1267 26.9067 39.5211 27.6195 41.5131C27.2701 41.3945 26.8165 41.1809 26.2952 40.783C26.0845 40.6217 25.783 40.6625 25.6227 40.8732C25.4619 41.0839 25.5022 41.3849 25.713 41.5457C26.7291 42.3214 27.5614 42.5379 28.0232 42.5959C28.4446 43.686 28.9621 44.8971 29.5827 46.1513C29.0442 46.0169 28.3318 45.7495 27.6517 45.2091C27.4443 45.0435 27.1424 45.0785 26.9773 45.2863C26.8122 45.4937 26.8467 45.7956 27.0546 45.9607C28.267 46.9246 29.5534 47.1665 30.1362 47.2275C31.388 49.5684 32.9965 51.9737 35.0154 53.9436C35.1085 54.0343 35.2294 54.0799 35.3504 54.0799C35.4752 54.0799 35.6 54.0315 35.6941 53.935C35.8794 53.7454 35.8755 53.4415 35.6854 53.2563C33.777 51.3939 32.2381 49.0894 31.029 46.8305Z" fill="#009245"/>
</svg>
