<svg width="64" height="64" viewBox="0 0 64 64" fill="none" xmlns="http://www.w3.org/2000/svg">
<rect width="64" height="64" rx="8" fill="#fff"/>
<path d="M48.875 13.8125H45.5845C40.8312 13.8125 36.3594 11.7687 32.9843 8.42178C32.7312 8.14062 32.3656 8 32 8C31.6344 8 31.2688 8.14062 31.0157 8.42178C27.6406 11.7687 23.1687 13.8125 18.4155 13.8125H15.125C14.3374 13.8125 13.7188 14.4312 13.7188 15.2188V31.1937C13.7188 42.4156 20.8906 52.3718 31.5501 55.9155C31.6906 55.9719 31.8594 56 32 56C32.1406 56 32.3094 55.9719 32.4499 55.9155C43.1094 52.3718 50.2812 42.4155 50.2812 31.1937V15.2188C50.2812 14.4312 49.6626 13.8125 48.875 13.8125Z" fill="#7FE881"/>
<path d="M50.2812 15.2188V31.1937C50.2812 42.4156 43.1094 52.3718 32.4499 55.9155C32.3094 55.9719 32.1406 56 32 56V8C32.3656 8 32.7312 8.14062 32.9843 8.42178C36.3594 11.7687 40.8313 13.8125 45.5845 13.8125H48.875C49.6626 13.8125 50.2812 14.4312 50.2812 15.2188Z" fill="#5BC980"/>
<path d="M32 22.25C26.5719 22.25 22.1562 26.6656 22.1562 32.0938C22.1562 37.5219 26.5719 41.9375 32 41.9375C37.4281 41.9375 41.8438 37.5219 41.8438 32.0938C41.8438 26.6656 37.4281 22.25 32 22.25Z" fill="#ECECF1"/>
<path d="M41.8438 32.0938C41.8438 37.5219 37.4281 41.9375 32 41.9375V22.25C37.4281 22.25 41.8438 26.6656 41.8438 32.0938Z" fill="#D3D3D8"/>
<path d="M35.7968 31.6718L32 35.4688L31.578 35.8906C31.325 36.1719 30.9594 36.3125 30.5937 36.3125C30.2281 36.3125 29.8625 36.1719 29.6095 35.8906L28.2032 34.4843C27.6407 33.9499 27.6407 33.0499 28.2032 32.5156C28.7376 31.9531 29.6374 31.9531 30.1719 32.5156L30.5938 32.9093L32.0001 31.5031L33.8283 29.7031C34.3627 29.1406 35.2625 29.1406 35.797 29.7031C36.3594 30.2374 36.3594 31.1374 35.7968 31.6718Z" fill="#FF641A"/>
<path d="M35.7968 31.6718L32 35.4688V31.5031L33.8282 29.7031C34.3626 29.1406 35.2624 29.1406 35.7969 29.7031C36.3594 30.2374 36.3594 31.1374 35.7968 31.6718Z" fill="#F03800"/>
</svg>
