<svg width="28" height="29" viewBox="0 0 28 29" fill="none" xmlns="http://www.w3.org/2000/svg">
<path fill-rule="evenodd" clip-rule="evenodd" d="M20.568 22.9013C18.6098 24.4866 16.1157 25.4363 13.4 25.4363C7.10395 25.4363 2 20.3324 2 14.0363C2 7.74027 7.10395 2.63632 13.4 2.63632C19.696 2.63632 24.8 7.74027 24.8 14.0363C24.8 16.752 23.8503 19.2461 22.265 21.2043L25.6485 24.5878C26.1171 25.0564 26.1171 25.8162 25.6485 26.2848C25.1799 26.7534 24.4201 26.7534 23.9515 26.2848L20.568 22.9013ZM4.4 14.0363C4.4 9.06576 8.42943 5.03632 13.4 5.03632C18.3705 5.03632 22.4 9.06576 22.4 14.0363C22.4 16.4518 21.4484 18.6452 19.8996 20.2617C19.8477 20.2991 19.7982 20.3411 19.7515 20.3878C19.7048 20.4345 19.6628 20.484 19.6254 20.5359C18.0088 22.0847 15.8155 23.0363 13.4 23.0363C8.42943 23.0363 4.4 19.0068 4.4 14.0363Z" fill="#AFCB1E"/>
</svg>
