<svg width="56" height="57" viewBox="0 0 56 57" fill="none" xmlns="http://www.w3.org/2000/svg">
<path d="M30.6657 27.3812C31.469 27.9142 32.5031 27.9148 33.3073 27.3812C33.5282 27.2343 33.5882 26.9362 33.4413 26.7155C33.2941 26.4943 32.9957 26.4355 32.776 26.5812C32.2963 26.8999 31.6773 26.8999 31.1969 26.5812C30.9773 26.4362 30.6788 26.4943 30.5316 26.7155C30.3848 26.9362 30.4448 27.2343 30.6657 27.3812Z" fill="black"/>
<path d="M22.666 27.3805C23.4777 27.9204 24.5127 27.9088 25.3079 27.3812C25.5288 27.2343 25.5888 26.9362 25.4419 26.7155C25.2951 26.4943 24.9966 26.4355 24.7766 26.5812C24.2969 26.9012 23.6776 26.9005 23.1979 26.5818C22.9769 26.4355 22.6794 26.4943 22.5323 26.7155C22.3854 26.9362 22.4454 27.2343 22.666 27.3805Z" fill="black"/>
<path d="M16.7994 25.1061C17.0082 24.9424 17.0447 24.6405 16.8813 24.4318C16.7176 24.2236 16.4166 24.1861 16.2076 24.3499C14.3634 25.7945 14.7484 28.4142 16.9332 29.3611C17.5223 29.6157 17.8909 28.7301 17.3151 28.4799C15.7779 27.8148 15.5401 26.0915 16.7994 25.1061Z" fill="black"/>
<path d="M39.0685 29.3618C41.3762 28.3697 41.6237 25.5735 39.6101 24.2131C39.3913 24.0643 39.0919 24.1212 38.9438 24.3418C38.7951 24.5612 38.8529 24.8599 39.0726 25.0081C40.4461 25.9381 40.3177 27.7803 38.6898 28.4793C38.446 28.5843 38.3335 28.8668 38.4382 29.1099C38.543 29.354 38.8251 29.4656 39.0685 29.3618Z" fill="black"/>
<path d="M19.4591 14.8131C19.5876 14.7506 19.6816 14.6343 19.7157 14.4956C19.8585 13.9124 20.0513 13.3099 20.491 12.8524C21.1316 12.179 22.1825 12.0676 22.3604 11.7118C22.9157 10.6012 23.8935 9.91369 25.5307 9.48244C27.5166 8.95801 28.6578 9.23252 31.9685 9.32244C32.9663 9.34057 34.2894 9.36869 35.4969 8.69682C35.8814 9.26019 36.3774 9.65674 36.5416 9.88119C36.6975 10.0962 36.9985 10.1437 37.2119 9.98744C37.4266 9.83182 37.4741 9.53182 37.3185 9.31744C37.0576 8.95655 36.3866 8.45651 36.1022 7.82307C35.9758 7.54221 35.6249 7.45394 35.3804 7.63307C34.401 8.35182 33.3135 8.39119 31.991 8.36244C28.6642 8.27301 27.434 7.98812 25.286 8.55369C24.0279 8.88557 22.4832 9.47744 21.5847 11.1237C20.1162 11.7477 19.3225 12.2434 18.8376 14.0549C16.1681 15.542 16.4431 19.8513 17.0301 22.8312C17.0751 23.0599 17.2757 23.2187 17.5004 23.2187C17.8067 23.2187 18.0298 22.9399 17.9719 22.6462C17.4665 20.0787 17.104 15.9547 19.4591 14.8131Z" fill="black"/>
<path d="M28.0135 43.8537C28.9298 43.8537 30.8259 43.0051 31.6513 42.5724C32.3891 42.1874 33.1279 41.7243 33.8476 41.1955C34.061 41.0387 34.1069 40.738 33.9501 40.5243C33.7929 40.3105 33.4919 40.2643 33.2788 40.4218C31.6142 41.6452 29.8705 42.4583 28.2913 42.8687C27.5882 43.0521 25.425 42.0364 24.8238 41.7212C24.0604 41.3237 23.301 40.8405 22.5666 40.2855C22.3557 40.1274 22.0538 40.168 21.8941 40.3793C21.7344 40.5905 21.7763 40.8918 21.9879 41.0518C24.5106 42.9575 27.1936 43.8537 28.0135 43.8537Z" fill="black"/>
<path d="M22.9741 37.0824C23.0357 36.8243 22.8763 36.5655 22.6185 36.5043C22.3591 36.4436 22.1016 36.6018 22.0404 36.8599C21.806 37.8443 21.166 38.7024 20.2851 39.2149C18.4997 40.253 12.3826 42.0799 12.2838 42.1105C10.0947 42.9624 8.68005 45.0311 8.68005 47.3799V48.9799C8.68005 49.2449 8.89505 49.4599 9.16005 49.4599C9.42505 49.4599 9.64005 49.2449 9.64005 48.9799V47.3799C9.64005 45.4299 10.8144 43.7124 12.5947 43.018C12.8507 42.9418 18.8838 41.1405 20.7676 40.0449C21.8747 39.4011 22.6791 38.3211 22.9741 37.0824Z" fill="black"/>
<path d="M46.6801 49.4599C46.9451 49.4599 47.1601 49.2449 47.1601 48.9799V47.3799C47.1601 45.0312 45.7454 42.9624 43.5191 42.098C43.4576 42.0799 37.3404 40.253 35.5551 39.2149C34.6741 38.703 34.0344 37.8443 33.8001 36.8599C33.7388 36.6024 33.4819 36.4443 33.2219 36.5043C32.9641 36.5655 32.8047 36.8243 32.8663 37.0824C33.1613 38.3212 33.9654 39.4012 35.0726 40.0449C36.9563 41.1405 42.9894 42.9418 43.2082 43.0055C45.0257 43.7124 46.2001 45.4299 46.2001 47.3799V48.9799C46.2001 49.2449 46.4151 49.4599 46.6801 49.4599Z" fill="black"/>
<path d="M15.1823 47.4656V48.98C15.1823 49.245 15.3973 49.46 15.6623 49.46C15.9273 49.46 16.1423 49.245 16.1423 48.98V47.4656C16.1423 47.2006 15.9273 46.9856 15.6623 46.9856C15.3973 46.9856 15.1823 47.2006 15.1823 47.4656Z" fill="black"/>
<path d="M40.0519 47.4656V48.98C40.0519 49.245 40.2669 49.46 40.5319 49.46C40.7969 49.46 41.0119 49.245 41.0119 48.98V47.4656C41.0119 47.2006 40.7969 46.9856 40.5319 46.9856C40.2669 46.9856 40.0519 47.2006 40.0519 47.4656Z" fill="black"/>
<path d="M28.0507 37.1024C33.2172 37.1024 37.7494 31.6436 37.7494 25.4205C37.7659 24.5132 37.7674 23.842 37.5582 22.7468C37.5082 22.4861 37.2554 22.3124 36.9966 22.3655C36.736 22.4149 36.5654 22.6668 36.615 22.9268C36.8031 23.91 36.8056 24.5315 36.7894 25.4205C36.7894 31.1324 32.706 36.1424 28.0507 36.1424C23.415 36.1424 19.3375 31.1318 19.3247 25.4186C19.3097 21.3624 20.8822 19.7918 21.5597 19.3043C22.767 18.4315 22.9099 17.2686 23.1163 16.7886C24.7077 17.3104 27.8191 17.5985 29.3644 17.5686C29.7834 17.5607 31.4281 17.5143 31.711 17.453C31.9654 17.3961 32.1179 17.1486 32.0672 16.893C32.0163 16.6368 31.7594 16.4693 31.5041 16.5155C30.465 16.5319 27.1395 16.8945 23.5016 15.9099C23.1985 15.7811 22.9375 15.7705 22.7054 15.8768C21.8986 16.2479 22.2928 17.5889 20.9982 18.5261C20.201 19.0993 18.3482 20.9199 18.3647 25.4218C18.3791 31.753 22.8147 37.1024 28.0507 37.1024Z" fill="black"/>
<path d="M26.4647 33.8874C26.5476 33.8874 26.6316 33.8661 26.7079 33.8211C27.6019 33.2943 28.4451 33.293 29.2847 33.8149C29.5091 33.9555 29.806 33.8861 29.9457 33.6611C30.0857 33.4355 30.0169 33.1399 29.7916 32.9999C28.6363 32.2805 27.4344 32.2793 26.221 32.9936C25.9926 33.128 25.9163 33.4224 26.0507 33.6511C26.1404 33.803 26.3004 33.8874 26.4647 33.8874Z" fill="black"/>
<path d="M32.8748 23.9824C32.6098 23.9824 32.3948 24.1974 32.3948 24.4624C32.3948 24.688 32.2116 24.8712 31.9863 24.8712C31.7613 24.8712 31.5782 24.688 31.5782 24.4624C31.5782 24.1974 31.3632 23.9824 31.0982 23.9824C30.196 23.9824 30.6186 25.8312 31.9863 25.8312C33.3493 25.8312 33.7857 23.9824 32.8748 23.9824Z" fill="black"/>
<path d="M24.8754 23.9824C24.6104 23.9824 24.3954 24.1974 24.3954 24.4624C24.3954 24.688 24.2122 24.8712 23.9869 24.8712C23.7616 24.8712 23.5785 24.688 23.5785 24.4624C23.5785 24.1974 23.3635 23.9824 23.0985 23.9824C22.2029 23.9824 22.6137 25.8312 23.9869 25.8312C25.3499 25.8312 25.7863 23.9824 24.8754 23.9824Z" fill="black"/>
<path d="M28.0994 29.9456C28.8385 29.9456 29.4882 29.485 29.7291 28.7825C29.8151 28.5319 29.6816 28.2587 29.4307 28.1731C29.1788 28.085 28.9069 28.22 28.821 28.4712C28.7113 28.7912 28.4054 28.9837 28.0701 28.9856C27.6982 28.9712 27.3963 28.9287 27.1729 28.8587C26.9204 28.7794 26.6504 28.9212 26.5716 29.1737C26.4926 29.4269 26.6335 29.6956 26.8866 29.775C27.2612 29.8919 27.7862 29.9456 28.0994 29.9456Z" fill="black"/>
<path d="M33.8016 21.5836C33.7704 21.3205 33.5288 21.1411 33.2685 21.1636C32.1366 21.2986 31.2201 21.643 30.4866 22.2124C30.3757 22.0586 30.2454 21.9243 30.0948 21.8074C29.886 21.6449 29.5841 21.6824 29.4213 21.8911C29.2585 22.1005 29.296 22.4024 29.5054 22.5649C29.9646 22.9221 29.7959 23.3535 30.2416 23.4524C30.4098 23.4891 30.5783 23.4337 30.6916 23.3161C31.3332 22.648 32.2132 22.2561 33.3816 22.1174C33.6451 22.0861 33.8329 21.8474 33.8016 21.5836Z" fill="black"/>
<path d="M26.335 22.5649C26.5444 22.4024 26.5819 22.1005 26.4194 21.8918C26.2563 21.6818 25.9544 21.6443 25.7457 21.8074C25.595 21.9243 25.4647 22.0586 25.3535 22.2124C24.6204 21.643 23.7038 21.2986 22.5719 21.1636C22.3135 21.1411 22.0704 21.3205 22.0388 21.5836C22.0075 21.8474 22.1954 22.0861 22.4588 22.1174C23.6272 22.2561 24.5072 22.648 25.1485 23.3161C25.261 23.4329 25.4285 23.4891 25.5985 23.4524C25.7619 23.4161 25.8687 22.9287 26.335 22.5649Z" fill="black"/>
<path d="M37.5569 13.24C37.2919 13.24 37.0769 13.455 37.0769 13.72V14.97H35.8269C35.5619 14.97 35.3469 15.185 35.3469 15.45C35.3469 15.715 35.5619 15.93 35.8269 15.93H37.5569C37.8219 15.93 38.0369 15.715 38.0369 15.45V13.72C38.0369 13.455 37.8219 13.24 37.5569 13.24Z" fill="black"/>
<path d="M39.0616 15.93H40.7916C41.0566 15.93 41.2716 15.715 41.2716 15.45C41.2716 15.185 41.0566 14.97 40.7916 14.97H39.5416V13.72C39.5416 13.455 39.3266 13.24 39.0616 13.24C38.7966 13.24 38.5816 13.455 38.5816 13.72V15.45C38.5816 15.715 38.7966 15.93 39.0616 15.93Z" fill="black"/>
<path d="M37.5569 16.475H35.8269C35.5619 16.475 35.3469 16.69 35.3469 16.955C35.3469 17.22 35.5619 17.435 35.8269 17.435H37.0769V18.685C37.0769 18.95 37.2919 19.165 37.5569 19.165C37.8219 19.165 38.0369 18.95 38.0369 18.685V16.955C38.0369 16.69 37.8219 16.475 37.5569 16.475Z" fill="black"/>
<path d="M39.0616 19.165C39.3266 19.165 39.5416 18.95 39.5416 18.685V17.435H40.7916C41.0566 17.435 41.2716 17.22 41.2716 16.955C41.2716 16.69 41.0566 16.475 40.7916 16.475H39.0616C38.7966 16.475 38.5816 16.69 38.5816 16.955V18.685C38.5816 18.95 38.7966 19.165 39.0616 19.165Z" fill="black"/>
<path d="M43.5804 16.2024C43.5804 13.2955 41.2157 10.9312 38.3091 10.9312C35.4026 10.9312 33.0379 13.2955 33.0379 16.2024C33.0379 19.1093 35.4026 21.4737 38.3091 21.4737C41.2157 21.4737 43.5804 19.1093 43.5804 16.2024ZM33.9979 16.2024C33.9979 13.8249 35.9319 11.8912 38.3091 11.8912C40.6863 11.8912 42.6204 13.8249 42.6204 16.2024C42.6204 18.5799 40.6863 20.5137 38.3091 20.5137C35.9319 20.5137 33.9979 18.5799 33.9979 16.2024Z" fill="black"/>
<path d="M47.9694 32.7155C47.7651 32.5461 47.4616 32.5755 47.2938 32.7799C47.1247 32.9843 47.1538 33.2868 47.3582 33.4555C47.8605 33.8704 47.9905 34.5675 47.7151 35.1284C47.6414 35.0479 47.5688 34.9663 47.4832 34.8955C47.2782 34.7261 46.9754 34.7549 46.8076 34.9599C46.6385 35.1643 46.6676 35.4668 46.8719 35.6355C47.4526 36.1148 47.5352 36.9744 47.0551 37.5555C46.5714 38.1409 45.7118 38.2146 45.1351 37.7386C44.931 37.5699 44.6288 37.5986 44.4594 37.803C44.2907 38.0074 44.3194 38.3099 44.5238 38.4786C44.5492 38.4997 44.578 38.5144 44.6041 38.5342C44.2162 39.0407 43.5112 39.2202 42.9172 38.9218C42.6804 38.8024 42.3919 38.898 42.2729 39.1355C42.1541 39.3724 42.2497 39.6605 42.4866 39.7793C43.5061 40.291 44.8025 40.0058 45.4753 38.9436C47.2117 39.3485 48.7198 37.7556 48.2353 36.0486C48.2505 36.0344 48.2702 36.0277 48.2838 36.0111C49.106 35.0155 48.9647 33.5374 47.9694 32.7155Z" fill="black"/>
<path d="M46.1566 33.0755C46.221 32.8186 46.0651 32.5574 45.8079 32.493C44.4238 32.1455 43.1841 31.6343 42.1232 30.973C41.8991 30.8324 41.6026 30.9005 41.4619 31.1268C41.3219 31.3518 41.3907 31.648 41.6157 31.788C42.7613 32.5018 44.0932 33.0524 45.5741 33.4243C45.8232 33.488 46.0906 33.3388 46.1566 33.0755Z" fill="black"/>
<path d="M42.2047 37.9999C42.2976 38.1374 42.4488 38.2111 42.6029 38.2111C42.9837 38.2111 43.2167 37.783 43.0004 37.4624C41.9816 35.9536 40.9341 34.6749 39.7982 33.553C39.6101 33.368 39.3057 33.3686 39.1194 33.5574C38.9332 33.7461 38.9351 34.0505 39.1238 34.2368C40.2141 35.313 41.2219 36.5436 42.2047 37.9999Z" fill="black"/>
<path d="M45.1426 35.8468C45.2863 35.6243 45.2219 35.3268 44.9994 35.1836C43.8904 34.468 42.8869 33.7093 42.016 32.9274C41.8182 32.7493 41.5157 32.7661 41.3382 32.9636C41.161 33.1605 41.1776 33.4643 41.3747 33.6411C42.2832 34.4574 43.3276 35.2474 44.4788 35.9899C44.7035 36.1344 44.9995 36.0687 45.1426 35.8468Z" fill="black"/>
<path d="M7.7653 36.0486C7.28311 37.7467 8.78006 39.3507 10.5255 38.9437C11.196 40.0024 12.4898 40.2933 13.5138 39.7794C13.7507 39.6606 13.8463 39.3725 13.7276 39.1356C13.6088 38.8981 13.3194 38.8025 13.0832 38.9219C12.4891 39.2212 11.7839 39.0402 11.3966 38.5342C11.4226 38.5144 11.4513 38.4997 11.4766 38.4787C11.681 38.31 11.7097 38.0075 11.541 37.8031C11.3719 37.5987 11.0697 37.57 10.8654 37.7387C9.93517 38.5065 8.5237 37.769 8.63944 36.5575C8.67412 36.195 8.84787 35.8675 9.12881 35.6356C9.33319 35.4669 9.36225 35.1644 9.1935 34.96C9.02444 34.7556 8.72256 34.7269 8.51756 34.8956C8.43182 34.9664 8.35924 35.048 8.28553 35.1286C7.99537 34.541 8.15644 33.8573 8.64256 33.4556C8.84694 33.2869 8.876 32.9844 8.70694 32.78C8.53881 32.5756 8.23569 32.5469 8.03131 32.7156C7.54912 33.1137 7.251 33.6756 7.19131 34.2981C7.12257 35.0188 7.41246 35.7193 7.7653 36.0486Z" fill="black"/>
<path d="M10.4263 33.4243C11.9073 33.0524 13.2391 32.5018 14.3848 31.788C14.6098 31.648 14.6785 31.3518 14.5385 31.1268C14.3982 30.9005 14.101 30.8324 13.8773 30.973C12.8163 31.6343 11.5766 32.1455 10.1926 32.493C9.93538 32.5574 9.77944 32.8186 9.84382 33.0755C9.90981 33.3387 10.1772 33.488 10.4263 33.4243Z" fill="black"/>
<path d="M13.796 37.9999C14.7794 36.5431 15.7872 35.3118 16.8769 34.2368C17.0657 34.0506 17.0676 33.7462 16.8813 33.5581C16.6954 33.3687 16.391 33.3681 16.2026 33.5531C15.0672 34.6737 14.0197 35.9524 13.0004 37.4624C12.8519 37.6824 12.9097 37.9806 13.1297 38.1293C13.3511 38.2774 13.6477 38.2187 13.796 37.9999Z" fill="black"/>
<path d="M11.5216 35.9899C12.6726 35.248 13.7169 34.4574 14.626 33.6412C14.8232 33.4643 14.8398 33.1612 14.6626 32.9637C14.4857 32.7668 14.1823 32.7493 13.9848 32.9274C13.1135 33.7093 12.1094 34.4687 11.001 35.1837C10.7785 35.3268 10.7141 35.6243 10.8579 35.8468C11.0009 36.0686 11.2969 36.1345 11.5216 35.9899Z" fill="black"/>
</svg>
