<svg width="56" height="57" viewBox="0 0 56 57" fill="none" xmlns="http://www.w3.org/2000/svg">
<g clip-path="url(#clip0_11_236)">
<path d="M38.3125 17.1375L39.4 16.05C39.5875 15.8625 39.6625 15.5625 39.5875 15.3C39.25 14.3625 39.5125 13.3125 40.225 12.6C40.7125 12.1125 41.3875 11.85 42.1 11.85C42.8125 11.85 43.45 12.1125 43.975 12.6C44.9875 13.6125 44.9875 15.3 43.975 16.3125C43.2625 17.025 42.25 17.25 41.275 16.95C41.0125 16.875 40.7125 16.9125 40.525 17.1375L40.0375 17.625C40.75 17.8875 41.425 18.225 42.0625 18.6C43.15 18.6 44.2375 18.1875 45.025 17.4C46.6375 15.7875 46.6375 13.1625 45.025 11.55C44.2375 10.7625 43.225 10.35 42.1 10.35C40.975 10.35 39.9625 10.7625 39.175 11.55C38.1625 12.5625 37.75 13.95 38.05 15.3L36.4375 16.875C37.075 16.9125 37.7125 16.9875 38.3125 17.1375Z" fill="black"/>
<path d="M34.45 40.8C33.5875 40.6875 32.7625 40.5 31.975 40.2375C31.15 40.5 30.2875 40.725 29.425 40.8C29.05 40.8375 28.75 41.175 28.75 41.55V45.375C28.75 45.675 28.9 45.9375 29.1625 46.05C30.0625 46.5 30.625 47.4 30.625 48.4125C30.625 49.875 29.4625 51.0375 28 51.0375C26.5375 51.0375 25.375 49.875 25.375 48.4125C25.375 47.4 25.9375 46.5 26.8375 46.05C27.1 45.9375 27.25 45.675 27.25 45.375V41.55C27.25 41.175 26.95 40.8375 26.575 40.8C24.2875 40.5375 22.1125 39.6375 20.3125 38.2125C20.1625 38.1 20.0125 38.0625 19.8625 38.0625C19.675 38.0625 19.4875 38.1375 19.3375 38.2875L16.6375 40.9875C16.45 41.175 16.375 41.475 16.45 41.7375C16.7875 42.675 16.525 43.725 15.8125 44.4375C15.325 44.925 14.65 45.1875 13.9375 45.1875C13.225 45.1875 12.5875 44.925 12.0625 44.4375C11.5375 43.95 11.3125 43.275 11.3125 42.5625C11.3125 41.85 11.575 41.2125 12.0625 40.6875C12.775 39.975 13.7875 39.75 14.7625 40.05C15.025 40.125 15.325 40.0875 15.5125 39.8625L18.2125 37.1625C18.475 36.9 18.5125 36.45 18.2875 36.15C16.8625 34.35 15.9625 32.175 15.7 29.8875C15.6625 29.5125 15.325 29.2125 14.95 29.2125H11.1625C10.8625 29.2125 10.6 29.3625 10.4875 29.625C10.0375 30.5625 9.1375 31.125 8.125 31.125C6.6625 31.125 5.5 29.9625 5.5 28.5C5.5 27.0375 6.6625 25.875 8.125 25.875C9.1375 25.875 10.0375 26.4375 10.4875 27.3375C10.6 27.6 10.8625 27.75 11.1625 27.75H14.9875C15.3625 27.75 15.7 27.45 15.7375 27.075C16 24.7875 16.9 22.6125 18.325 20.8125C18.55 20.5125 18.55 20.1 18.25 19.8L15.55 17.1C15.3625 16.9125 15.0625 16.8375 14.8 16.9125C13.8625 17.25 12.8125 16.9875 12.1 16.275C11.6125 15.7875 11.35 15.1125 11.35 14.4C11.35 13.6875 11.6125 13.05 12.1 12.525C12.5875 12 13.2625 11.775 13.975 11.775C14.6875 11.775 15.325 12.0375 15.85 12.525C16.5625 13.2375 16.7875 14.25 16.4875 15.225C16.4125 15.4875 16.45 15.7875 16.675 15.975L19.375 18.675C19.6375 18.9375 20.0875 18.975 20.3875 18.75C22.1875 17.325 24.3625 16.425 26.65 16.1625C27.025 16.125 27.325 15.7875 27.325 15.4125V11.6625C27.325 11.3625 27.175 11.1 26.9125 10.9875C25.9375 10.5375 25.375 9.63748 25.375 8.62498C25.375 7.16248 26.5375 5.99998 28 5.99998C29.4625 5.99998 30.625 7.16248 30.625 8.62498C30.625 9.63748 30.0625 10.5375 29.1625 10.9875C28.9 11.1 28.75 11.3625 28.75 11.6625V15.4875C28.75 15.8625 29.05 16.2 29.425 16.2375C30.7 16.3875 31.9 16.725 33.0625 17.25C33.8875 17.0625 34.7125 16.95 35.575 16.9125C33.9625 15.8625 32.1625 15.15 30.25 14.85V12.1125C31.4125 11.3625 32.125 10.0875 32.125 8.66248C32.125 6.37498 30.2875 4.53748 28 4.53748C25.7125 4.53748 23.875 6.33748 23.875 8.62498C23.875 10.05 24.5875 11.325 25.75 12.075V14.8125C23.65 15.15 21.6625 15.975 19.9 17.25L17.95 15.3C18.25 13.95 17.8375 12.525 16.825 11.55C16.0375 10.7625 15.025 10.35 13.9 10.35C12.775 10.35 11.7625 10.7625 10.975 11.55C10.1875 12.3375 9.775 13.35 9.775 14.475C9.775 15.6 10.1875 16.6125 10.975 17.4C11.9875 18.4125 13.375 18.825 14.725 18.525L16.675 20.475C15.4375 22.2 14.6125 24.225 14.2375 26.325H11.5C10.75 25.1625 9.475 24.45 8.05 24.45C5.8375 24.375 4 26.2125 4 28.5C4 30.7875 5.8375 32.625 8.125 32.625C9.55 32.625 10.825 31.9125 11.575 30.75H14.3125C14.65 32.85 15.475 34.8375 16.75 36.6L14.8 38.55C13.45 38.25 12.025 38.6625 11.05 39.675C10.2625 40.4625 9.85 41.475 9.85 42.6C9.85 43.725 10.2625 44.7375 11.05 45.525C11.8375 46.3125 12.85 46.725 13.975 46.725C15.1 46.725 16.1125 46.3125 16.9 45.525C17.9125 44.5125 18.325 43.125 18.025 41.775L19.975 39.825C21.7 41.0625 23.725 41.8875 25.825 42.2625V45C24.6625 45.75 23.95 47.025 23.95 48.45C23.95 50.7375 25.7875 52.575 28.075 52.575C30.3625 52.575 32.2 50.7375 32.2 48.45C32.2 47.025 31.4875 45.75 30.325 45V42.2625C31.7125 41.9625 33.1375 41.475 34.45 40.8Z" fill="black"/>
<path d="M47.875 24.375C47.575 24.375 47.3125 24.4125 47.05 24.45C47.2375 24.9 47.3875 25.3875 47.5 25.875C47.6125 25.875 47.7625 25.8375 47.875 25.8375C49.3375 25.8375 50.5 27 50.5 28.4625C50.5 29.925 49.3375 31.0875 47.875 31.0875C47.8 31.0875 47.725 31.0875 47.65 31.0875C47.5375 31.575 47.425 32.0625 47.275 32.55C47.4625 32.5875 47.65 32.5875 47.875 32.5875C50.1625 32.5875 52 30.75 52 28.4625C52 26.175 50.1625 24.375 47.875 24.375Z" fill="black"/>
<path d="M43.8625 40.275C43.7125 40.125 43.7125 39.8625 43.8625 39.7125L47.05 36.4875C47.1625 36.375 47.35 36.375 47.5 36.4875L50.6125 39.4875C50.9125 39.7875 51.4 39.75 51.6625 39.45C51.9625 39.15 51.925 38.6625 51.625 38.4L48.5125 35.4C47.8 34.725 46.75 34.725 46.0375 35.3625L44.9125 34.2C45.85 32.625 46.375 30.825 46.375 28.8375C46.375 23.025 41.6875 18.3375 35.875 18.3375C30.0625 18.3375 25.375 23.025 25.375 28.8375C25.375 34.65 30.0625 39.3375 35.875 39.3375C38.0125 39.3375 40 38.7 41.6875 37.575L42.775 38.6625C42.1 39.4125 42.1 40.5375 42.8125 41.2875L50.725 49.2375C50.875 49.3875 51.0625 49.4625 51.25 49.4625C51.4375 49.4625 51.625 49.3875 51.775 49.2375C52.075 48.9375 52.075 48.4875 51.775 48.1875L43.8625 40.275ZM35.875 37.875C30.925 37.875 26.875 33.825 26.875 28.875C26.875 23.925 30.925 19.875 35.875 19.875C40.825 19.875 44.875 23.925 44.875 28.875C44.875 33.825 40.825 37.875 35.875 37.875ZM44.05 35.475L44.9875 36.45L43.7875 37.65L42.85 36.7125C43.3 36.3375 43.675 35.925 44.05 35.475Z" fill="black"/>
<path d="M35.1625 31.2C35.275 30 34.4125 28.95 33.25 28.8375C33.175 28.8375 33.1 28.8375 33.025 28.8375C31.9 28.8375 31 29.6625 30.8875 30.7875C30.85 31.0875 30.625 33.8625 32.4625 35.5125C32.875 35.8875 33.3625 36.075 33.925 36.075C34.15 36.075 34.3375 36.0375 34.5625 36C34.9375 35.8875 35.275 35.6625 35.5375 35.3625C36.325 34.4625 36.25 33.1125 35.3875 32.2875C35.2375 32.1 35.125 31.5375 35.1625 31.2ZM34.375 34.275C34.3 34.3875 34.1875 34.425 34.075 34.4625C34 34.5 33.9625 34.5 33.8875 34.5C33.7375 34.5 33.55 34.425 33.4375 34.3125C32.125 33.1125 32.35 30.9375 32.35 30.8625C32.3875 30.525 32.6875 30.2625 33.025 30.2625H33.1C33.475 30.3 33.7375 30.6375 33.7 31.0125C33.6625 31.4625 33.7 32.7375 34.375 33.3375C34.6 33.6 34.6375 34.0125 34.375 34.275Z" fill="black"/>
<path d="M21.25 25.425C21.175 25.425 21.1 25.425 21.025 25.425C19.9 25.425 19 26.25 18.8875 27.375C18.85 27.675 18.625 30.45 20.4625 32.1C20.875 32.475 21.3625 32.6625 21.925 32.6625C22.15 32.6625 22.3375 32.625 22.5625 32.5875C22.9375 32.475 23.275 32.25 23.5375 31.95C24.325 31.05 24.25 29.7 23.3875 28.875C23.275 28.725 23.2 28.2 23.2375 27.825C23.275 26.625 22.4125 25.575 21.25 25.425ZM22.375 30.9C22.3 31.0125 22.1875 31.05 22.075 31.0875C22 31.125 21.9625 31.125 21.8875 31.125C21.7375 31.125 21.55 31.05 21.4375 30.9375C20.125 29.7375 20.35 27.5625 20.35 27.4875C20.3875 27.15 20.6875 26.8875 21.025 26.8875H21.1C21.475 26.925 21.7375 27.2625 21.7 27.6375C21.6625 28.0875 21.7 29.3625 22.375 29.9625C22.6 30.225 22.6375 30.6375 22.375 30.9Z" fill="black"/>
<path d="M35.05 21.7125C33.5875 21.7125 32.425 22.875 32.425 24.3375C32.425 25.8 33.5875 26.9625 35.05 26.9625C36.5125 26.9625 37.675 25.8 37.675 24.3375C37.675 22.875 36.475 21.7125 35.05 21.7125ZM35.05 25.4625C34.4125 25.4625 33.925 24.975 33.925 24.3375C33.925 23.7 34.4125 23.2125 35.05 23.2125C35.6875 23.2125 36.175 23.7 36.175 24.3375C36.175 24.975 35.65 25.4625 35.05 25.4625Z" fill="black"/>
<path d="M39.925 26.9625C38.4625 26.9625 37.3 28.125 37.3 29.5875C37.3 31.05 38.4625 32.2125 39.925 32.2125C41.3875 32.2125 42.55 31.05 42.55 29.5875C42.55 28.125 41.35 26.9625 39.925 26.9625ZM39.925 30.7125C39.2875 30.7125 38.8 30.225 38.8 29.5875C38.8 28.95 39.2875 28.4625 39.925 28.4625C40.5625 28.4625 41.05 28.95 41.05 29.5875C41.05 30.225 40.525 30.7125 39.925 30.7125Z" fill="black"/>
<path d="M42.0625 45.1875C41.35 45.1875 40.7125 44.925 40.1875 44.4375C39.475 43.725 39.25 42.7125 39.55 41.7375C39.625 41.475 39.5875 41.175 39.3625 40.9875L38.9125 40.5C38.3125 40.65 37.75 40.7625 37.1125 40.8375L38.0125 41.7375C37.7125 43.0875 38.125 44.5125 39.1375 45.4875C39.925 46.275 40.9375 46.6875 42.0625 46.6875C43.1125 46.6875 44.125 46.275 44.875 45.5625L43.825 44.5125C43.3375 44.925 42.7 45.1875 42.0625 45.1875Z" fill="black"/>
</g>
<defs>
<clipPath id="clip0_11_236">
<rect width="48" height="48" fill="white" transform="translate(4 4.5)"/>
</clipPath>
</defs>
</svg>
