<svg xmlns="http://www.w3.org/2000/svg" xmlns:xlink="http://www.w3.org/1999/xlink" width="60" zoomAndPan="magnify" viewBox="0 0 45 44.999999" height="60" preserveAspectRatio="xMidYMid meet" version="1.0"><defs><clipPath id="b228f57545"><path d="M 22 14 L 41.210938 14 L 41.210938 44.601562 L 22 44.601562 Z M 22 14 " clip-rule="nonzero"/></clipPath><clipPath id="f8d54e86dc"><path d="M 1.460938 14 L 21 14 L 21 44.601562 L 1.460938 44.601562 Z M 1.460938 14 " clip-rule="nonzero"/></clipPath><clipPath id="a82a304807"><path d="M 8 0.351562 L 35 0.351562 L 35 26 L 8 26 Z M 8 0.351562 " clip-rule="nonzero"/></clipPath></defs><g clip-path="url(#b228f57545)"><path fill="#afcb1e" d="M 41.21875 20.992188 C 41.101562 19.347656 40.886719 17.683594 40.582031 16.054688 C 40.503906 15.644531 40.246094 15.304688 39.871094 15.117188 C 39.492188 14.929688 39.058594 14.925781 38.675781 15.113281 C 37.902344 15.492188 36.507812 16.390625 35.804688 18.144531 C 35.171875 19.71875 35.414062 21.152344 35.730469 22.078125 C 35.820312 22.34375 35.8125 22.625 35.710938 22.863281 L 34.996094 24.550781 C 34.4375 24.625 33.898438 24.867188 33.472656 25.265625 L 30.515625 28.015625 C 30.414062 28.109375 30.28125 28.160156 30.132812 28.167969 C 29.183594 28.210938 28.28125 28.441406 27.453125 28.84375 C 26.898438 29.113281 26.382812 29.460938 25.925781 29.875 C 24.53125 31.132812 23.730469 33.023438 23.730469 35.058594 L 23.730469 38.589844 C 23.210938 38.859375 22.847656 39.398438 22.847656 40.027344 L 22.847656 42.964844 C 22.847656 43.863281 23.578125 44.59375 24.472656 44.59375 L 32.984375 44.59375 C 33.882812 44.59375 34.613281 43.863281 34.613281 42.964844 L 34.613281 40.027344 C 34.613281 39.304688 34.132812 38.695312 33.476562 38.488281 L 33.476562 38.445312 C 33.488281 38.160156 33.605469 37.890625 33.8125 37.691406 L 39.828125 31.902344 C 40.441406 31.3125 40.839844 30.523438 40.949219 29.683594 C 41.332031 26.800781 41.421875 23.875 41.21875 20.992188 Z M 32.988281 43.019531 L 24.425781 42.972656 L 24.472656 39.984375 L 32.984375 39.984375 C 33.011719 39.984375 33.03125 40.007812 33.03125 40.03125 Z M 39.390625 29.480469 C 39.324219 29.972656 39.097656 30.417969 38.738281 30.765625 L 32.722656 36.554688 C 32.21875 37.042969 31.925781 37.695312 31.902344 38.40625 L 25.308594 38.40625 L 25.308594 35.0625 C 25.308594 33.46875 25.917969 32.007812 26.984375 31.046875 C 27.332031 30.730469 27.722656 30.46875 28.144531 30.261719 C 28.78125 29.953125 29.472656 29.78125 30.210938 29.742188 C 30.730469 29.71875 31.21875 29.515625 31.59375 29.171875 L 34.546875 26.417969 C 34.894531 26.097656 35.402344 26.007812 35.859375 26.199219 C 36.042969 26.277344 36.164062 26.449219 36.164062 26.683594 C 36.164062 27 36.042969 27.308594 35.828125 27.546875 L 32.132812 31.636719 C 31.839844 31.960938 31.867188 32.460938 32.1875 32.75 C 32.511719 33.042969 33.011719 33.015625 33.300781 32.695312 L 37 28.601562 C 37.476562 28.074219 37.738281 27.394531 37.738281 26.644531 C 37.738281 25.871094 37.300781 25.175781 36.601562 24.8125 L 37.164062 23.476562 C 37.417969 22.878906 37.4375 22.199219 37.222656 21.570312 C 36.996094 20.898438 36.816406 19.855469 37.269531 18.726562 C 37.6875 17.683594 38.445312 17.050781 39.09375 16.675781 C 39.355469 18.140625 39.539062 19.628906 39.644531 21.101562 C 39.839844 23.882812 39.753906 26.703125 39.390625 29.480469 Z M 39.390625 29.480469 " fill-opacity="1" fill-rule="nonzero"/></g><g clip-path="url(#f8d54e86dc)"><path fill="#afcb1e" d="M 19.136719 38.59375 L 19.136719 35.0625 C 19.136719 33.023438 18.339844 31.136719 16.945312 29.875 C 16.484375 29.464844 15.972656 29.117188 15.417969 28.847656 C 14.589844 28.441406 13.6875 28.214844 12.738281 28.167969 C 12.589844 28.164062 12.457031 28.109375 12.355469 28.015625 L 9.402344 25.265625 C 8.972656 24.867188 8.433594 24.625 7.871094 24.550781 L 7.160156 22.867188 C 7.058594 22.621094 7.046875 22.359375 7.125 22.128906 C 7.394531 21.367188 7.742188 19.828125 7.070312 18.144531 C 6.367188 16.390625 4.964844 15.492188 4.195312 15.113281 C 3.8125 14.925781 3.378906 14.929688 3 15.117188 C 2.632812 15.300781 2.375 15.644531 2.296875 16.054688 C 1.988281 17.679688 1.777344 19.339844 1.660156 20.992188 C 1.457031 23.871094 1.542969 26.785156 1.917969 29.664062 C 2.03125 30.515625 2.433594 31.3125 3.042969 31.902344 L 9.058594 37.691406 C 9.269531 37.894531 9.386719 38.164062 9.394531 38.457031 L 9.394531 38.492188 C 8.738281 38.703125 8.257812 39.308594 8.257812 40.035156 L 8.257812 42.972656 C 8.257812 43.871094 8.988281 44.597656 9.886719 44.597656 L 18.398438 44.597656 C 19.296875 44.597656 20.023438 43.871094 20.023438 42.972656 L 20.023438 40.035156 C 20.023438 39.40625 19.660156 38.863281 19.136719 38.59375 Z M 4.136719 30.765625 C 3.78125 30.421875 3.546875 29.957031 3.484375 29.457031 C 3.121094 26.6875 3.035156 23.875 3.230469 21.101562 C 3.335938 19.625 3.523438 18.136719 3.785156 16.679688 C 4.433594 17.050781 5.191406 17.6875 5.609375 18.730469 C 6.066406 19.878906 5.878906 20.929688 5.640625 21.613281 C 5.429688 22.210938 5.453125 22.875 5.710938 23.480469 L 6.273438 24.816406 C 5.578125 25.167969 5.136719 25.871094 5.136719 26.683594 C 5.136719 27.394531 5.398438 28.074219 5.875 28.601562 L 9.570312 32.699219 C 9.863281 33.019531 10.363281 33.046875 10.683594 32.753906 C 11.007812 32.460938 11.03125 31.964844 10.742188 31.640625 L 7.046875 27.546875 C 6.828125 27.308594 6.710938 27 6.710938 26.644531 C 6.710938 26.453125 6.832031 26.277344 7.03125 26.195312 C 7.472656 26.011719 7.976562 26.097656 8.328125 26.421875 L 11.28125 29.171875 C 11.652344 29.519531 12.144531 29.722656 12.664062 29.75 C 13.402344 29.785156 14.09375 29.957031 14.730469 30.269531 C 15.152344 30.472656 15.542969 30.734375 15.890625 31.050781 C 16.957031 32.011719 17.566406 33.472656 17.5625 35.066406 L 17.5625 38.410156 L 10.96875 38.410156 C 10.949219 37.707031 10.65625 37.050781 10.148438 36.5625 Z M 18.398438 43.019531 L 9.835938 42.972656 L 9.835938 40.03125 L 9.882812 39.984375 L 18.445312 40.03125 Z M 18.398438 43.019531 " fill-opacity="1" fill-rule="nonzero"/></g><g clip-path="url(#a82a304807)"><path fill="#afcb1e" d="M 21.4375 0.398438 C 14.480469 0.398438 8.824219 6.054688 8.824219 13.011719 C 8.824219 19.96875 14.484375 25.625 21.4375 25.625 C 28.394531 25.625 34.054688 19.96875 34.054688 13.011719 C 34.054688 6.054688 28.390625 0.398438 21.4375 0.398438 Z M 27.621094 22.148438 L 26.890625 20.882812 C 26.671875 20.503906 26.191406 20.375 25.8125 20.59375 C 25.4375 20.808594 25.308594 21.292969 25.523438 21.671875 L 26.25 22.929688 C 25.015625 23.527344 23.660156 23.90625 22.222656 24.011719 L 22.222656 22.554688 C 22.222656 22.121094 21.871094 21.765625 21.433594 21.765625 C 21 21.765625 20.644531 22.121094 20.644531 22.554688 L 20.644531 24.011719 C 19.210938 23.90625 17.851562 23.53125 16.621094 22.929688 L 17.34375 21.671875 C 17.5625 21.292969 17.433594 20.8125 17.054688 20.59375 C 16.675781 20.375 16.195312 20.503906 15.976562 20.882812 L 15.25 22.148438 C 14.085938 21.359375 13.085938 20.355469 12.296875 19.195312 L 13.5625 18.464844 C 13.9375 18.25 14.066406 17.765625 13.851562 17.386719 C 13.632812 17.011719 13.152344 16.878906 12.773438 17.097656 L 11.515625 17.824219 C 10.914062 16.589844 10.539062 15.234375 10.433594 13.796875 L 11.886719 13.796875 C 12.324219 13.796875 12.675781 13.445312 12.675781 13.007812 C 12.675781 12.574219 12.324219 12.222656 11.886719 12.222656 L 10.433594 12.222656 C 10.535156 10.785156 10.914062 9.425781 11.515625 8.195312 L 12.773438 8.917969 C 12.898438 8.992188 13.03125 9.027344 13.167969 9.027344 C 13.441406 9.027344 13.703125 8.882812 13.851562 8.628906 C 14.066406 8.253906 13.9375 7.773438 13.5625 7.554688 L 12.296875 6.824219 C 13.085938 5.664062 14.085938 4.660156 15.25 3.871094 L 15.984375 5.140625 C 16.128906 5.390625 16.394531 5.535156 16.667969 5.535156 C 16.800781 5.535156 16.933594 5.5 17.058594 5.429688 C 17.4375 5.210938 17.566406 4.726562 17.347656 4.351562 L 16.625 3.09375 C 17.855469 2.492188 19.214844 2.113281 20.652344 2.011719 L 20.652344 3.464844 C 20.652344 3.902344 21.003906 4.253906 21.4375 4.253906 C 21.875 4.253906 22.226562 3.902344 22.226562 3.464844 L 22.226562 2.011719 C 23.664062 2.113281 25.019531 2.492188 26.253906 3.09375 L 25.527344 4.351562 C 25.3125 4.730469 25.441406 5.210938 25.816406 5.429688 C 25.941406 5.503906 26.078125 5.535156 26.210938 5.535156 C 26.484375 5.535156 26.746094 5.394531 26.894531 5.140625 L 27.625 3.875 C 28.789062 4.664062 29.789062 5.667969 30.578125 6.828125 L 29.3125 7.558594 C 28.9375 7.773438 28.808594 8.257812 29.023438 8.636719 C 29.171875 8.886719 29.433594 9.03125 29.707031 9.03125 C 29.84375 9.03125 29.976562 8.996094 30.101562 8.925781 L 31.359375 8.199219 C 31.960938 9.433594 32.335938 10.789062 32.441406 12.226562 L 30.988281 12.226562 C 30.550781 12.226562 30.199219 12.578125 30.199219 13.015625 C 30.199219 13.449219 30.550781 13.800781 30.988281 13.800781 L 32.441406 13.800781 C 32.339844 15.238281 31.960938 16.59375 31.359375 17.828125 L 30.101562 17.105469 C 29.722656 16.882812 29.242188 17.015625 29.023438 17.394531 C 28.808594 17.769531 28.9375 18.25 29.3125 18.46875 L 30.578125 19.199219 C 29.785156 20.355469 28.78125 21.359375 27.621094 22.148438 Z M 27.621094 22.148438 " fill-opacity="1" fill-rule="nonzero"/></g><path fill="#afcb1e" d="M 25.445312 13.800781 L 21.4375 13.800781 C 21 13.800781 20.648438 13.449219 20.648438 13.011719 L 20.648438 6.308594 C 20.648438 5.871094 21 5.519531 21.4375 5.519531 C 21.871094 5.519531 22.222656 5.871094 22.222656 6.308594 L 22.222656 12.222656 L 25.445312 12.222656 C 25.882812 12.222656 26.234375 12.574219 26.234375 13.007812 C 26.234375 13.445312 25.882812 13.800781 25.445312 13.800781 Z M 25.445312 13.800781 " fill-opacity="1" fill-rule="nonzero"/></svg>