<svg xmlns="http://www.w3.org/2000/svg" xmlns:xlink="http://www.w3.org/1999/xlink" width="60" zoomAndPan="magnify" viewBox="0 0 45 44.999999" height="60" preserveAspectRatio="xMidYMid meet" version="1.0"><defs><clipPath id="5ef7c08547"><path d="M 0.894531 0.8125 L 44 0.8125 L 44 44.3125 L 0.894531 44.3125 Z M 0.894531 0.8125 " clip-rule="nonzero"/></clipPath></defs><g clip-path="url(#5ef7c08547)"><path fill="#afcb1e" d="M 17.792969 4.765625 L 33.722656 11.59375 C 33.980469 11.703125 34.144531 11.957031 34.144531 12.234375 L 34.144531 25.109375 C 34.144531 34.414062 27.375 42.449219 18.21875 44.042969 L 17.640625 44.148438 C 17.558594 44.160156 17.476562 44.160156 17.394531 44.148438 C 17.394531 44.148438 16.816406 44.042969 16.816406 44.042969 C 7.660156 42.449219 0.890625 34.414062 0.890625 25.109375 L 0.890625 12.234375 C 0.890625 11.957031 1.058594 11.703125 1.316406 11.59375 L 17.242188 4.765625 C 17.417969 4.6875 17.617188 4.6875 17.792969 4.765625 Z M 17.515625 6.171875 C 17.515625 6.171875 2.292969 12.699219 2.292969 12.699219 L 2.292969 25.109375 C 2.292969 33.734375 8.570312 41.183594 17.058594 42.664062 L 17.515625 42.746094 L 17.972656 42.664062 C 17.972656 42.664062 17.976562 42.664062 17.976562 42.664062 C 26.46875 41.183594 32.746094 33.734375 32.746094 25.109375 L 32.746094 12.699219 Z M 17.792969 8.660156 L 30.007812 13.894531 C 30.265625 14.003906 30.433594 14.257812 30.433594 14.539062 L 30.433594 25.148438 C 30.433594 32.664062 25.007812 39.179688 17.648438 40.582031 C 17.5625 40.597656 17.472656 40.597656 17.386719 40.582031 C 10.03125 39.179688 4.605469 32.664062 4.605469 25.148438 L 4.605469 14.539062 C 4.605469 14.257812 4.769531 14.003906 5.027344 13.894531 L 17.242188 8.660156 C 17.417969 8.585938 17.617188 8.585938 17.792969 8.660156 Z M 17.515625 10.066406 L 6.003906 15 L 6.003906 25.148438 C 6.003906 31.949219 10.882812 37.851562 17.515625 39.179688 C 24.152344 37.851562 29.03125 31.949219 29.03125 25.148438 C 29.03125 25.148438 29.03125 15 29.03125 15 Z M 13.167969 30.902344 L 9.257812 30.902344 C 8.871094 30.902344 8.554688 30.585938 8.554688 30.199219 L 8.554688 20.769531 C 8.554688 20.382812 8.871094 20.070312 9.257812 20.070312 L 13.210938 20.070312 C 13.980469 19.511719 14.820312 18.980469 15.488281 18.328125 C 16.101562 17.734375 16.554688 17.03125 16.554688 16.050781 L 16.554688 13.191406 C 16.554688 12.800781 16.871094 12.488281 17.257812 12.488281 C 19.53125 12.488281 21.390625 14.351562 21.390625 16.625 L 21.390625 18.84375 C 21.390625 18.875 21.390625 18.910156 21.382812 18.941406 C 21.355469 19.148438 21.289062 19.394531 21.183594 19.660156 C 21.347656 19.617188 21.515625 19.59375 21.691406 19.59375 L 25.089844 19.59375 C 26.226562 19.59375 27.15625 20.523438 27.15625 21.660156 C 27.15625 22.042969 27.050781 22.402344 26.867188 22.710938 C 27.390625 23.085938 27.730469 23.699219 27.730469 24.390625 C 27.730469 25.199219 27.257812 25.902344 26.578125 26.242188 C 26.703125 26.507812 26.773438 26.804688 26.773438 27.117188 C 26.773438 27.882812 26.351562 28.554688 25.730469 28.910156 C 25.878906 29.191406 25.957031 29.511719 25.957031 29.847656 C 25.957031 30.984375 25.03125 31.914062 23.894531 31.914062 L 21.691406 31.914062 C 21.539062 31.914062 21.386719 31.894531 21.242188 31.863281 C 17.511719 32.507812 15.359375 32.851562 13.167969 30.902344 Z M 12.742188 21.46875 L 9.957031 21.46875 L 9.957031 29.5 L 12.742188 29.5 Z M 19.25 25.269531 C 18.933594 25.519531 18.636719 25.710938 18.40625 25.839844 C 18.070312 26.035156 17.640625 25.917969 17.449219 25.582031 C 17.257812 25.246094 17.375 24.816406 17.707031 24.625 C 18.4375 24.207031 20.480469 22.917969 19.160156 20.988281 C 18.96875 20.710938 19.003906 20.335938 19.242188 20.097656 C 19.679688 19.660156 19.925781 19.15625 19.988281 18.789062 L 19.988281 16.625 C 19.988281 15.363281 19.125 14.292969 17.957031 13.980469 L 17.957031 16.050781 C 17.957031 17.453125 17.34375 18.480469 16.46875 19.332031 C 15.785156 20 14.933594 20.550781 14.144531 21.125 C 14.148438 26.054688 14.148438 28.980469 14.144531 29.894531 C 15.1875 30.796875 16.226562 31.03125 17.519531 30.972656 C 18.207031 30.941406 18.957031 30.832031 19.808594 30.6875 C 19.691406 30.433594 19.625 30.148438 19.625 29.847656 C 19.625 29.324219 19.824219 28.847656 20.144531 28.484375 C 19.824219 28.117188 19.625 27.640625 19.625 27.117188 C 19.625 26.734375 19.730469 26.375 19.914062 26.066406 C 19.632812 25.863281 19.402344 25.589844 19.25 25.269531 Z M 21.5 30.484375 C 21.5625 30.5 21.625 30.511719 21.691406 30.511719 L 23.894531 30.511719 C 24.257812 30.511719 24.558594 30.214844 24.558594 29.847656 C 24.558594 29.484375 24.257812 29.183594 23.894531 29.183594 L 21.695312 29.183594 C 21.695312 29.183594 21.691406 29.183594 21.691406 29.183594 C 21.328125 29.183594 21.027344 29.484375 21.027344 29.847656 C 21.027344 30.136719 21.21875 30.386719 21.476562 30.476562 C 21.484375 30.480469 21.492188 30.480469 21.5 30.484375 Z M 23.894531 27.78125 L 24.707031 27.78125 C 25.074219 27.78125 25.371094 27.484375 25.371094 27.117188 C 25.371094 26.753906 25.074219 26.453125 24.707031 26.453125 L 21.691406 26.453125 C 21.328125 26.453125 21.027344 26.753906 21.027344 27.117188 C 21.027344 27.480469 21.324219 27.78125 21.6875 27.78125 C 21.691406 27.78125 21.691406 27.78125 21.691406 27.78125 L 22.140625 27.78125 C 22.140625 27.78125 22.144531 27.78125 22.144531 27.78125 Z M 21.117188 25.050781 L 25.664062 25.050781 C 26.03125 25.050781 26.328125 24.753906 26.328125 24.390625 C 26.328125 24.023438 26.03125 23.726562 25.664062 23.726562 L 21.117188 23.726562 C 20.75 23.726562 20.453125 24.023438 20.453125 24.390625 C 20.453125 24.753906 20.75 25.050781 21.117188 25.050781 Z M 25.089844 22.324219 C 25.457031 22.324219 25.753906 22.027344 25.753906 21.660156 C 25.753906 21.296875 25.457031 20.996094 25.089844 20.996094 L 21.691406 20.996094 C 21.328125 20.996094 21.027344 21.296875 21.027344 21.660156 C 21.027344 22.027344 21.328125 22.324219 21.691406 22.324219 Z M 35.761719 5.996094 L 35.761719 8.128906 C 35.761719 9.164062 34.921875 10.003906 33.886719 10.003906 C 32.851562 10.003906 32.011719 9.164062 32.011719 8.128906 C 32.011719 8.128906 32.011719 5.996094 32.011719 5.996094 C 31.460938 5.96875 30.925781 5.703125 30.574219 5.222656 C 29.96875 4.386719 30.152344 3.214844 30.992188 2.605469 L 32.78125 1.304688 C 33.441406 0.824219 34.328125 0.824219 34.988281 1.304688 L 36.78125 2.605469 C 37.617188 3.214844 37.800781 4.386719 37.195312 5.222656 C 36.84375 5.703125 36.3125 5.96875 35.761719 5.996094 Z M 35.429688 4.523438 C 35.636719 4.65625 35.914062 4.601562 36.058594 4.402344 C 36.214844 4.1875 36.167969 3.894531 35.957031 3.738281 L 34.164062 2.4375 C 33.996094 2.316406 33.773438 2.316406 33.605469 2.4375 L 31.816406 3.738281 C 31.601562 3.894531 31.554688 4.1875 31.710938 4.402344 C 31.855469 4.601562 32.132812 4.65625 32.339844 4.523438 C 32.558594 4.390625 32.828125 4.386719 33.050781 4.507812 C 33.273438 4.632812 33.410156 4.867188 33.410156 5.121094 L 33.410156 8.128906 C 33.410156 8.390625 33.625 8.605469 33.886719 8.605469 C 34.144531 8.605469 34.359375 8.390625 34.359375 8.128906 L 34.359375 5.121094 C 34.359375 4.867188 34.496094 4.632812 34.71875 4.507812 C 34.941406 4.386719 35.210938 4.390625 35.429688 4.523438 Z M 42.058594 12.761719 L 42.058594 14.898438 C 42.058594 15.933594 41.21875 16.773438 40.183594 16.773438 C 39.148438 16.773438 38.308594 15.933594 38.308594 14.898438 C 38.308594 14.898438 38.308594 12.761719 38.308594 12.761719 C 37.757812 12.738281 37.222656 12.472656 36.875 11.992188 C 36.265625 11.15625 36.453125 9.980469 37.289062 9.375 L 39.082031 8.070312 C 39.738281 7.59375 40.628906 7.59375 41.285156 8.070312 L 43.078125 9.375 C 43.914062 9.980469 44.101562 11.15625 43.492188 11.992188 C 43.144531 12.472656 42.609375 12.738281 42.058594 12.761719 Z M 41.726562 11.292969 C 41.9375 11.421875 42.210938 11.371094 42.359375 11.167969 C 42.511719 10.957031 42.464844 10.660156 42.253906 10.507812 L 40.460938 9.203125 C 40.296875 9.085938 40.070312 9.085938 39.90625 9.203125 L 38.113281 10.507812 C 37.902344 10.660156 37.855469 10.957031 38.007812 11.167969 C 38.15625 11.371094 38.433594 11.421875 38.640625 11.292969 C 38.855469 11.160156 39.128906 11.152344 39.351562 11.277344 C 39.574219 11.398438 39.710938 11.632812 39.710938 11.886719 L 39.710938 14.898438 C 39.710938 15.160156 39.921875 15.371094 40.183594 15.371094 C 40.445312 15.371094 40.65625 15.160156 40.65625 14.898438 L 40.65625 11.886719 C 40.65625 11.632812 40.796875 11.398438 41.019531 11.277344 C 41.238281 11.152344 41.511719 11.160156 41.726562 11.292969 Z M 41.726562 11.292969 " fill-opacity="1" fill-rule="evenodd"/></g></svg>