<svg xmlns="http://www.w3.org/2000/svg" xmlns:xlink="http://www.w3.org/1999/xlink" width="60" zoomAndPan="magnify" viewBox="0 0 45 44.999999" height="60" preserveAspectRatio="xMidYMid meet" version="1.0"><path fill="#afcb1e" d="M 13.1875 16.363281 C 15.695312 16.363281 17.738281 14.324219 17.738281 11.8125 C 17.738281 9.304688 15.695312 7.265625 13.1875 7.265625 C 10.679688 7.265625 8.636719 9.304688 8.636719 11.8125 C 8.636719 14.324219 10.679688 16.363281 13.1875 16.363281 Z M 13.1875 8.714844 C 14.894531 8.714844 16.285156 10.105469 16.285156 11.8125 C 16.285156 13.523438 14.898438 14.914062 13.1875 14.914062 C 11.480469 14.914062 10.089844 13.523438 10.089844 11.8125 C 10.089844 10.105469 11.480469 8.714844 13.1875 8.714844 Z M 33.464844 39.601562 L 32.605469 38.109375 C 31.96875 37.007812 30.875 36.355469 29.609375 36.3125 L 21.195312 36.023438 C 20.429688 35.996094 19.792969 35.617188 19.410156 34.949219 L 10.703125 19.867188 C 10.230469 19.050781 9.464844 18.464844 8.550781 18.222656 C 7.636719 17.976562 6.683594 18.101562 5.867188 18.570312 C 5.050781 19.042969 4.464844 19.804688 4.21875 20.722656 C 3.972656 21.636719 4.097656 22.589844 4.570312 23.40625 L 16 43.203125 C 16.660156 44.347656 17.796875 45.003906 19.117188 45.003906 L 30.347656 45.003906 C 31.664062 45.003906 32.800781 44.347656 33.46875 43.203125 C 34.125 42.058594 34.125 40.746094 33.46875 39.601562 C 33.46875 39.601562 33.464844 39.601562 33.464844 39.601562 Z M 32.210938 42.476562 C 31.808594 43.171875 31.144531 43.554688 30.347656 43.554688 L 19.117188 43.554688 C 18.316406 43.554688 17.65625 43.171875 17.253906 42.480469 L 5.824219 22.683594 C 5.546875 22.203125 5.476562 21.640625 5.621094 21.097656 C 5.765625 20.554688 6.109375 20.105469 6.589844 19.828125 C 6.910156 19.644531 7.265625 19.550781 7.625 19.550781 C 7.808594 19.550781 7.992188 19.574219 8.175781 19.621094 C 8.714844 19.765625 9.167969 20.113281 9.445312 20.59375 L 15.214844 30.589844 L 18.152344 35.671875 C 18.785156 36.773438 19.878906 37.429688 21.148438 37.472656 L 29.5625 37.761719 C 30.328125 37.789062 30.964844 38.167969 31.347656 38.835938 L 32.210938 40.324219 C 32.609375 41.019531 32.609375 41.785156 32.210938 42.476562 Z M 40.585938 37.609375 C 40.28125 37.082031 38.578125 34.128906 37.324219 31.960938 L 36.769531 30.996094 C 36.15625 29.933594 35.148438 29.296875 33.929688 29.203125 C 32.460938 29.089844 30.222656 28.925781 28.621094 28.808594 C 27.867188 28.753906 27.273438 28.378906 26.902344 27.726562 L 25.210938 24.75 L 30.957031 24.75 C 32.558594 24.75 33.859375 23.445312 33.859375 21.84375 C 33.859375 20.242188 32.558594 18.941406 30.957031 18.941406 L 22.105469 18.941406 C 21.976562 18.941406 21.878906 18.886719 21.816406 18.773438 L 21.300781 17.863281 C 20.78125 16.945312 19.910156 16.285156 18.855469 16 C 17.710938 15.6875 16.453125 15.859375 15.398438 16.46875 C 14.390625 17.050781 13.652344 17.96875 13.316406 19.058594 C 12.976562 20.164062 13.097656 21.308594 13.65625 22.273438 L 19.804688 32.921875 C 20.4375 34.023438 21.527344 34.679688 22.800781 34.722656 L 31.210938 35.011719 C 31.980469 35.039062 32.613281 35.417969 33 36.085938 L 35.554688 40.511719 C 35.925781 41.15625 36.542969 41.605469 37.292969 41.777344 C 37.507812 41.824219 37.726562 41.851562 37.945312 41.851562 C 38.464844 41.851562 38.984375 41.710938 39.449219 41.445312 C 40.109375 41.0625 40.59375 40.457031 40.8125 39.742188 C 41.039062 39.007812 40.957031 38.25 40.585938 37.609375 Z M 39.425781 39.316406 C 39.3125 39.679688 39.066406 39.988281 38.722656 40.1875 C 38.378906 40.386719 37.988281 40.445312 37.617188 40.363281 C 37.265625 40.28125 36.980469 40.078125 36.8125 39.785156 L 34.253906 35.359375 C 33.621094 34.261719 32.527344 33.605469 31.261719 33.5625 L 22.847656 33.273438 C 22.078125 33.246094 21.445312 32.863281 21.058594 32.199219 L 14.910156 21.546875 C 14.558594 20.933594 14.484375 20.203125 14.703125 19.484375 C 14.929688 18.746094 15.433594 18.121094 16.125 17.722656 C 16.613281 17.441406 17.160156 17.296875 17.707031 17.296875 C 17.964844 17.296875 18.226562 17.332031 18.476562 17.398438 C 19.15625 17.582031 19.710938 18.003906 20.039062 18.582031 L 20.554688 19.488281 C 20.875 20.054688 21.457031 20.390625 22.105469 20.390625 L 30.957031 20.390625 C 31.757812 20.390625 32.410156 21.042969 32.410156 21.84375 C 32.410156 22.644531 31.757812 23.300781 30.957031 23.300781 L 24.746094 23.300781 C 24.324219 23.300781 23.945312 23.515625 23.730469 23.875 C 23.726562 23.878906 23.722656 23.882812 23.722656 23.886719 C 23.511719 24.253906 23.511719 24.691406 23.71875 25.0625 L 25.640625 28.445312 C 26.253906 29.523438 27.277344 30.167969 28.515625 30.257812 C 30.117188 30.371094 32.351562 30.535156 33.816406 30.648438 C 34.554688 30.707031 35.140625 31.074219 35.511719 31.71875 L 36.070312 32.683594 C 37.320312 34.855469 39.023438 37.804688 39.328125 38.335938 C 39.496094 38.625 39.53125 38.972656 39.425781 39.316406 Z M 28.632812 15.984375 C 33.039062 15.984375 36.621094 12.398438 36.621094 7.996094 C 36.621094 3.589844 33.039062 0.00390625 28.632812 0.00390625 C 24.230469 0.00390625 20.644531 3.589844 20.644531 7.996094 C 20.644531 12.402344 24.226562 15.984375 28.632812 15.984375 Z M 28.632812 1.453125 C 32.238281 1.453125 35.171875 4.390625 35.171875 7.996094 C 35.171875 11.601562 32.238281 14.53125 28.632812 14.53125 C 25.027344 14.53125 22.09375 11.597656 22.09375 7.996094 C 22.09375 4.390625 25.027344 1.453125 28.632812 1.453125 Z M 25.046875 8.953125 C 24.765625 8.664062 24.773438 8.207031 25.058594 7.925781 C 25.347656 7.648438 25.804688 7.65625 26.085938 7.941406 L 27.210938 9.101562 L 30.34375 6.082031 C 30.632812 5.804688 31.09375 5.8125 31.371094 6.101562 C 31.648438 6.386719 31.640625 6.847656 31.351562 7.125 L 27.699219 10.644531 C 27.558594 10.78125 27.378906 10.847656 27.195312 10.847656 C 27.007812 10.847656 26.816406 10.777344 26.675781 10.628906 Z M 25.046875 8.953125 " fill-opacity="1" fill-rule="nonzero"/></svg>