<svg xmlns="http://www.w3.org/2000/svg" xmlns:xlink="http://www.w3.org/1999/xlink" width="60" zoomAndPan="magnify" viewBox="0 0 45 44.999999" height="60" preserveAspectRatio="xMidYMid meet" version="1.0"><defs><clipPath id="c8f9be4e4d"><path d="M 0 3.4375 L 45 3.4375 L 45 41.6875 L 0 41.6875 Z M 0 3.4375 " clip-rule="nonzero"/></clipPath></defs><g clip-path="url(#c8f9be4e4d)"><path fill="#afcb1e" d="M 45.160156 27.523438 C 45.15625 27.523438 45.15625 27.523438 45.15625 27.523438 L 33.929688 27.644531 C 34.027344 27.464844 34.070312 27.289062 34.089844 27.15625 C 34.132812 26.859375 34.082031 26.558594 33.976562 26.304688 C 34.625 26.078125 35.015625 25.5625 35.121094 25.03125 C 35.289062 24.210938 34.835938 23.457031 34.0625 23.246094 C 27.644531 21.203125 26.621094 20.433594 25.789062 19.492188 C 25.554688 19.230469 25.472656 18.957031 25.542969 18.691406 C 25.609375 18.4375 25.828125 18.21875 26.109375 18.121094 C 27.578125 17.632812 30.078125 17.625 30.171875 17.625 C 30.171875 17.625 30.171875 17.625 30.175781 17.625 C 30.179688 17.625 30.183594 17.625 30.191406 17.625 C 30.296875 17.621094 40.914062 17.171875 45.144531 17.351562 C 45.351562 17.367188 45.515625 17.203125 45.523438 17 C 45.53125 16.800781 45.375 16.628906 45.175781 16.621094 C 44.335938 16.585938 43.253906 16.574219 42.050781 16.578125 C 42.058594 15.570312 41.972656 14.574219 41.789062 13.617188 C 40.820312 8.566406 37.300781 4.820312 32.820312 4.078125 C 29.042969 3.449219 25.300781 5.144531 22.5 8.734375 C 19.695312 5.140625 15.957031 3.449219 12.175781 4.078125 C 7.695312 4.820312 4.175781 8.566406 3.207031 13.617188 C 2.980469 14.800781 2.90625 16.035156 2.96875 17.289062 L -0.164062 17.289062 C -0.363281 17.289062 -0.527344 17.453125 -0.527344 17.65625 C -0.527344 17.859375 -0.363281 18.019531 -0.164062 18.019531 L 4.222656 18.019531 C 4.425781 18.019531 4.589844 18.183594 4.589844 18.386719 L 4.589844 28.996094 C 2.167969 29.066406 -0.125 28.988281 -0.148438 28.988281 C -0.367188 28.96875 -0.519531 29.136719 -0.527344 29.339844 C -0.535156 29.542969 -0.375 29.710938 -0.175781 29.71875 C -0.15625 29.71875 0.972656 29.757812 2.484375 29.757812 C 3.167969 29.757812 3.925781 29.746094 4.699219 29.722656 C 4.738281 29.789062 4.78125 29.847656 4.839844 29.898438 C 5.019531 30.054688 5.273438 30.132812 5.574219 30.132812 C 5.652344 30.132812 5.734375 30.128906 5.816406 30.117188 C 6.371094 30.042969 6.914062 30.027344 7.433594 30.023438 C 7.449219 30.734375 7.914062 31.222656 8.457031 31.355469 C 8.566406 31.382812 8.683594 31.398438 8.800781 31.398438 C 9.015625 31.398438 9.234375 31.34375 9.445312 31.246094 C 12.578125 34.808594 16.679688 38.132812 21.648438 41.132812 L 22.308594 41.53125 C 22.367188 41.566406 22.433594 41.582031 22.5 41.582031 C 22.5625 41.582031 22.628906 41.566406 22.6875 41.53125 L 23.347656 41.132812 C 29.632812 37.339844 34.640625 32.917969 37.859375 28.332031 L 45.164062 28.253906 C 45.367188 28.253906 45.527344 28.085938 45.523438 27.886719 C 45.523438 27.683594 45.359375 27.523438 45.160156 27.523438 Z M 11.109375 18.601562 C 11.15625 18.574219 11.203125 18.539062 11.25 18.511719 C 11.257812 18.507812 11.261719 18.503906 11.265625 18.5 C 12.195312 17.910156 12.933594 17.132812 13.394531 16.566406 C 13.972656 15.859375 14.828125 15.429688 15.742188 15.390625 C 16.917969 15.339844 18.007812 15.65625 18.683594 15.917969 C 16.984375 16.914062 14.277344 19.574219 13.925781 19.921875 C 11.945312 21.851562 10.324219 22.09375 9.542969 21.714844 C 9.488281 21.6875 9.316406 21.605469 9.296875 21.28125 C 9.25 20.582031 9.914062 19.390625 11.109375 18.601562 Z M 11.53125 28.640625 C 11.535156 28.613281 11.535156 28.570312 11.539062 28.515625 C 12.265625 28.433594 12.960938 28.382812 13.617188 28.363281 C 12.71875 30.101562 11.75 30.546875 11.160156 30.371094 C 10.890625 30.289062 10.699219 30.082031 10.652344 29.84375 C 11.15625 29.660156 11.492188 29.308594 11.53125 28.640625 Z M 16.9375 28.476562 C 15.503906 29.839844 14.707031 29.640625 14.480469 29.53125 C 14.199219 29.394531 14.101562 29.152344 14.097656 29.015625 C 14.210938 28.816406 14.324219 28.589844 14.4375 28.351562 C 15.363281 28.351562 16.199219 28.40625 16.9375 28.476562 Z M 13.625 29.746094 C 13.757812 29.921875 13.933594 30.082031 14.164062 30.191406 C 14.34375 30.273438 14.582031 30.347656 14.882812 30.347656 C 15.5625 30.347656 16.554688 29.980469 17.863281 28.582031 C 18.402344 28.652344 18.867188 28.730469 19.25 28.792969 C 20.433594 28.984375 21.535156 29.3125 22.527344 29.773438 C 24.3125 30.597656 25.808594 30.59375 26.03125 30.585938 C 26.125 30.59375 26.214844 30.597656 26.300781 30.597656 C 26.824219 30.597656 27.214844 30.457031 27.46875 30.175781 C 27.605469 30.027344 27.679688 29.863281 27.714844 29.714844 C 28.234375 29.78125 28.527344 29.796875 28.554688 29.796875 C 28.664062 29.804688 28.765625 29.804688 28.863281 29.804688 C 30.574219 29.804688 31.15625 29.015625 31.351562 28.527344 C 31.539062 28.546875 31.722656 28.558594 31.882812 28.558594 C 32.355469 28.558594 32.726562 28.488281 33.019531 28.382812 L 33.738281 28.375 C 31.023438 31.671875 27.25 34.835938 22.5 37.792969 C 18.730469 35.445312 15.566406 32.957031 13.070312 30.382812 C 13.25 30.210938 13.4375 30 13.625 29.746094 Z M 25.878906 17.429688 C 25.359375 17.605469 24.96875 18.003906 24.835938 18.503906 C 24.699219 19.007812 24.84375 19.53125 25.238281 19.976562 C 26.152344 21.007812 27.242188 21.84375 33.855469 23.949219 C 34.335938 24.078125 34.480469 24.527344 34.40625 24.886719 C 34.316406 25.324219 33.886719 25.792969 32.988281 25.671875 C 32.933594 25.664062 27.589844 24.570312 24.695312 23.496094 C 24.507812 23.425781 24.296875 23.523438 24.226562 23.710938 C 24.15625 23.902344 24.253906 24.109375 24.441406 24.179688 C 27.390625 25.273438 32.621094 26.34375 32.863281 26.394531 C 32.980469 26.410156 33.09375 26.414062 33.199219 26.417969 C 33.289062 26.5 33.457031 26.855469 33.332031 27.199219 C 33.140625 27.722656 32.339844 27.929688 31.152344 27.773438 C 31.101562 27.765625 25.910156 26.820312 24.132812 26.152344 C 23.945312 26.082031 23.734375 26.179688 23.664062 26.367188 C 23.59375 26.554688 23.6875 26.765625 23.878906 26.839844 C 25.425781 27.417969 29.285156 28.167969 30.597656 28.414062 C 30.402344 28.722656 29.898438 29.132812 28.589844 29.066406 C 28.570312 29.066406 26.675781 28.972656 23.785156 28.027344 C 23.589844 27.964844 23.386719 28.070312 23.324219 28.261719 C 23.261719 28.453125 23.367188 28.660156 23.558594 28.722656 C 24.964844 29.183594 26.128906 29.445312 26.980469 29.597656 C 26.96875 29.625 26.953125 29.65625 26.929688 29.683594 C 26.792969 29.832031 26.488281 29.890625 26.070312 29.855469 C 26.054688 29.855469 26.039062 29.851562 26.023438 29.855469 C 26.007812 29.851562 24.566406 29.90625 22.835938 29.105469 C 21.78125 28.621094 20.617188 28.273438 19.367188 28.070312 C 18.269531 27.890625 16.5 27.605469 14.222656 27.621094 C 14.214844 27.621094 14.207031 27.621094 14.195312 27.621094 C 13.375 27.628906 12.492188 27.675781 11.546875 27.777344 C 11.558594 26.246094 11.558594 23.214844 11.554688 22.359375 C 12.40625 22.066406 13.386719 21.46875 14.4375 20.441406 C 16.023438 18.871094 18.71875 16.464844 19.644531 16.277344 C 19.667969 16.273438 19.691406 16.261719 19.714844 16.253906 C 19.714844 16.253906 19.71875 16.25 19.722656 16.25 C 19.765625 16.230469 19.804688 16.207031 19.839844 16.171875 C 19.859375 16.152344 21.101562 14.992188 26.183594 15.308594 C 27.011719 15.359375 27.800781 15.625 28.464844 16.078125 C 28.832031 16.328125 29.160156 16.609375 29.4375 16.910156 C 28.527344 16.949219 26.972656 17.0625 25.878906 17.429688 Z M 28.875 15.472656 C 28.105469 14.945312 27.1875 14.636719 26.226562 14.578125 C 21.808594 14.304688 20.09375 15.097656 19.53125 15.488281 C 18.972656 15.21875 17.449219 14.578125 15.707031 14.660156 C 14.585938 14.710938 13.539062 15.238281 12.828125 16.105469 C 12.464844 16.554688 11.910156 17.144531 11.226562 17.644531 C 10.617188 16.234375 9.355469 16.476562 8.324219 16.679688 C 7.699219 16.804688 7.054688 16.929688 6.539062 16.769531 C 6.441406 16.730469 6.351562 16.703125 6.261719 16.671875 C 6.234375 15.59375 6.339844 14.757812 6.4375 14.234375 C 7.144531 10.550781 9.605469 7.839844 12.714844 7.324219 C 15.851562 6.800781 18.894531 8.6875 21.070312 12.503906 C 21.367188 13.023438 21.898438 13.335938 22.5 13.335938 C 23.097656 13.335938 23.628906 13.023438 23.925781 12.503906 C 26.101562 8.6875 29.148438 6.800781 32.28125 7.324219 C 35.390625 7.839844 37.851562 10.550781 38.558594 14.234375 C 38.65625 14.75 38.761719 15.570312 38.734375 16.625 C 35.003906 16.699219 31.222656 16.851562 30.351562 16.886719 C 29.964844 16.355469 29.472656 15.878906 28.875 15.472656 Z M 3.925781 13.753906 C 4.835938 9.007812 8.121094 5.492188 12.296875 4.800781 C 15.929688 4.195312 19.539062 5.925781 22.203125 9.554688 C 22.339844 9.746094 22.65625 9.746094 22.792969 9.554688 C 25.457031 5.929688 29.070312 4.195312 32.699219 4.800781 C 36.875 5.492188 40.160156 9.007812 41.070312 13.753906 C 41.246094 14.667969 41.328125 15.621094 41.320312 16.582031 C 40.71875 16.589844 40.097656 16.597656 39.46875 16.609375 C 39.492188 15.507812 39.382812 14.644531 39.277344 14.097656 C 38.511719 10.109375 35.8125 7.167969 32.402344 6.601562 C 28.953125 6.023438 25.628906 8.046875 23.292969 12.144531 C 23.128906 12.429688 22.832031 12.605469 22.5 12.605469 C 22.164062 12.605469 21.867188 12.429688 21.703125 12.144531 C 19.367188 8.046875 16.050781 6.027344 12.59375 6.601562 C 9.183594 7.167969 6.484375 10.109375 5.71875 14.097656 C 5.617188 14.628906 5.511719 15.457031 5.527344 16.519531 C 4.550781 16.449219 4.027344 16.976562 3.808594 17.289062 L 3.699219 17.289062 C 3.636719 16.082031 3.707031 14.894531 3.925781 13.753906 Z M 5.722656 29.394531 C 5.472656 29.425781 5.339844 29.371094 5.320312 29.347656 L 5.320312 18.386719 C 5.320312 17.957031 5.070312 17.589844 4.710938 17.410156 C 5 17.234375 5.492188 17.132812 6.289062 17.457031 C 7.007812 17.683594 7.785156 17.53125 8.464844 17.398438 C 9.640625 17.167969 10.265625 17.09375 10.609375 18.058594 C 9.351562 18.929688 8.5 20.289062 8.566406 21.328125 C 8.597656 21.8125 8.832031 22.183594 9.222656 22.375 C 9.511719 22.511719 9.871094 22.59375 10.28125 22.59375 C 10.453125 22.59375 10.636719 22.578125 10.824219 22.550781 C 10.828125 24.691406 10.824219 28.234375 10.804688 28.601562 C 10.78125 28.949219 10.601562 29.132812 10.199219 29.226562 C 9.8125 29.3125 9.230469 29.320312 8.386719 29.300781 C 7.582031 29.285156 6.667969 29.265625 5.722656 29.394531 Z M 8.632812 30.644531 C 8.402344 30.589844 8.175781 30.394531 8.164062 30.027344 C 8.234375 30.03125 8.304688 30.03125 8.371094 30.03125 C 8.839844 30.042969 9.300781 30.050781 9.71875 30.019531 C 9.59375 30.242188 9.449219 30.398438 9.292969 30.503906 C 9.289062 30.507812 9.289062 30.507812 9.285156 30.507812 C 9.285156 30.507812 9.285156 30.511719 9.285156 30.511719 C 9.066406 30.652344 8.835938 30.695312 8.632812 30.644531 Z M 22.96875 40.503906 L 22.5 40.789062 L 22.027344 40.503906 C 17.144531 37.558594 13.113281 34.300781 10.035156 30.8125 C 10.101562 30.742188 10.164062 30.664062 10.222656 30.582031 C 10.402344 30.804688 10.652344 30.984375 10.953125 31.074219 C 11.054688 31.105469 11.214844 31.136719 11.417969 31.136719 C 11.703125 31.136719 12.070312 31.066406 12.480469 30.828125 C 15.074219 33.511719 18.371094 36.101562 22.304688 38.535156 C 22.363281 38.570312 22.429688 38.589844 22.5 38.589844 C 22.566406 38.589844 22.632812 38.570312 22.691406 38.535156 C 27.828125 35.359375 31.859375 31.9375 34.683594 28.367188 L 36.949219 28.34375 C 33.785156 32.691406 28.96875 36.886719 22.96875 40.503906 Z M 22.96875 40.503906 " fill-opacity="1" fill-rule="nonzero"/></g></svg>