<svg xmlns="http://www.w3.org/2000/svg" xmlns:xlink="http://www.w3.org/1999/xlink" width="60" zoomAndPan="magnify" viewBox="0 0 45 44.999999" height="60" preserveAspectRatio="xMidYMid meet" version="1.0"><defs><clipPath id="ed13921141"><path d="M 0.601562 0.601562 L 44.101562 0.601562 L 44.101562 44.101562 L 0.601562 44.101562 Z M 0.601562 0.601562 " clip-rule="nonzero"/></clipPath></defs><g clip-path="url(#ed13921141)"><path fill="#afcb1e" d="M 19.511719 0.601562 C 19.378906 0.597656 19.25 0.621094 19.125 0.671875 C 19 0.722656 18.890625 0.792969 18.796875 0.886719 C 18.703125 0.980469 18.628906 1.089844 18.578125 1.210938 C 18.527344 1.335938 18.5 1.460938 18.5 1.59375 C 18.5 1.726562 18.527344 1.855469 18.578125 1.980469 C 18.628906 2.101562 18.703125 2.210938 18.796875 2.304688 C 18.890625 2.398438 19 2.46875 19.125 2.519531 C 19.25 2.570312 19.378906 2.59375 19.511719 2.589844 L 42.402344 2.589844 L 42.402344 42.402344 L 29.464844 42.402344 C 29.332031 42.402344 29.203125 42.425781 29.078125 42.472656 C 28.953125 42.523438 28.84375 42.59375 28.75 42.6875 C 28.65625 42.78125 28.582031 42.890625 28.53125 43.011719 C 28.480469 43.136719 28.453125 43.265625 28.453125 43.398438 C 28.453125 43.53125 28.480469 43.660156 28.53125 43.78125 C 28.582031 43.90625 28.65625 44.011719 28.75 44.105469 C 28.84375 44.199219 28.953125 44.273438 29.078125 44.320312 C 29.203125 44.371094 29.332031 44.394531 29.464844 44.394531 L 43.398438 44.394531 C 43.53125 44.394531 43.65625 44.367188 43.777344 44.316406 C 43.902344 44.265625 44.007812 44.195312 44.101562 44.101562 C 44.195312 44.007812 44.265625 43.902344 44.316406 43.777344 C 44.367188 43.65625 44.394531 43.53125 44.394531 43.398438 L 44.394531 1.59375 C 44.394531 1.464844 44.367188 1.335938 44.316406 1.214844 C 44.265625 1.09375 44.195312 0.984375 44.101562 0.890625 C 44.007812 0.796875 43.902344 0.726562 43.777344 0.675781 C 43.65625 0.625 43.53125 0.601562 43.398438 0.601562 Z M 22.992188 4.582031 C 20.523438 4.582031 18.515625 6.589844 18.515625 9.058594 C 18.515625 11.53125 20.523438 13.539062 22.992188 13.539062 C 25.464844 13.539062 27.472656 11.53125 27.472656 9.058594 C 27.472656 6.589844 25.464844 4.582031 22.992188 4.582031 Z M 35.425781 8.550781 C 35.222656 8.550781 35.039062 8.609375 34.871094 8.722656 C 34.703125 8.835938 34.578125 8.984375 34.503906 9.171875 C 34.425781 9.359375 34.410156 9.554688 34.453125 9.753906 C 34.492188 9.949219 34.585938 10.121094 34.730469 10.261719 L 37.015625 12.542969 L 30.457031 12.542969 C 30.324219 12.542969 30.195312 12.566406 30.074219 12.613281 C 29.949219 12.664062 29.839844 12.738281 29.746094 12.828125 C 29.652344 12.921875 29.578125 13.03125 29.527344 13.15625 C 29.476562 13.277344 29.449219 13.40625 29.449219 13.539062 C 29.449219 13.671875 29.476562 13.800781 29.527344 13.921875 C 29.578125 14.046875 29.652344 14.152344 29.746094 14.246094 C 29.839844 14.339844 29.949219 14.414062 30.074219 14.460938 C 30.195312 14.511719 30.324219 14.535156 30.457031 14.535156 L 37.015625 14.535156 L 34.730469 16.816406 C 34.636719 16.910156 34.558594 17.015625 34.507812 17.140625 C 34.453125 17.261719 34.425781 17.390625 34.425781 17.523438 C 34.425781 17.65625 34.449219 17.785156 34.5 17.910156 C 34.550781 18.035156 34.621094 18.144531 34.71875 18.238281 C 34.8125 18.332031 34.921875 18.40625 35.042969 18.457031 C 35.167969 18.507812 35.296875 18.53125 35.429688 18.53125 C 35.566406 18.527344 35.691406 18.5 35.816406 18.449219 C 35.9375 18.394531 36.046875 18.320312 36.140625 18.222656 L 40.03125 14.328125 C 40.15625 14.234375 40.25 14.121094 40.320312 13.980469 C 40.390625 13.84375 40.425781 13.695312 40.425781 13.539062 C 40.425781 13.386719 40.390625 13.238281 40.324219 13.101562 C 40.253906 12.960938 40.160156 12.84375 40.035156 12.75 C 40.035156 12.75 40.03125 12.746094 40.03125 12.746094 L 36.140625 8.855469 C 35.945312 8.652344 35.707031 8.550781 35.425781 8.550781 Z M 10.113281 13.539062 C 9.222656 13.539062 8.394531 14.019531 7.957031 14.78125 L 5.015625 19.6875 C 4.425781 20.71875 4.589844 22.03125 5.410156 22.804688 C 5.882812 23.246094 6.492188 23.492188 7.128906 23.492188 C 8.019531 23.492188 8.847656 23.011719 9.285156 22.25 L 11.546875 18.515625 L 14.117188 18.515625 L 11.449219 25.636719 C 10.773438 26.992188 10.960938 28.621094 11.917969 29.765625 L 22.496094 43.527344 C 22.902344 44.070312 23.546875 44.394531 24.222656 44.394531 C 25.007812 44.394531 25.710938 43.984375 26.097656 43.300781 C 26.484375 42.617188 26.476562 41.804688 26.066406 41.125 L 18.378906 28.929688 L 21.507812 21.542969 L 24.71875 24.753906 C 25.1875 25.222656 25.816406 25.480469 26.480469 25.480469 L 30.957031 25.480469 C 31.6875 25.480469 32.378906 25.160156 32.851562 24.605469 C 33.324219 24.046875 33.53125 23.308594 33.410156 22.578125 C 33.21875 21.398438 32.117188 20.507812 30.847656 20.507812 L 27.507812 20.507812 L 23.3125 16.308594 C 21.527344 14.523438 19.152344 13.539062 16.625 13.539062 Z M 9.542969 29.664062 L 8.152344 32.449219 L 3.089844 32.449219 C 1.714844 32.449219 0.601562 33.5625 0.601562 34.9375 C 0.601562 36.308594 1.714844 37.425781 3.089844 37.425781 L 9.84375 37.425781 C 10.75 37.425781 11.582031 36.933594 12.023438 36.140625 L 12.980469 34.410156 L 10.363281 31.007812 C 10.023438 30.59375 9.753906 30.140625 9.542969 29.664062 Z M 9.542969 29.664062 " fill-opacity="1" fill-rule="nonzero"/></g></svg>