<svg xmlns="http://www.w3.org/2000/svg" xmlns:xlink="http://www.w3.org/1999/xlink" width="60" zoomAndPan="magnify" viewBox="0 0 45 44.999999" height="60" preserveAspectRatio="xMidYMid meet" version="1.0"><path fill="#afcb1e" d="M 19.320312 44.96875 C 14.941406 44.96875 10.824219 43.265625 7.726562 40.164062 C 2.300781 34.742188 1.382812 26.125 5.539062 19.679688 L 17.597656 0.992188 C 17.976562 0.410156 18.625 0.0546875 19.320312 0.0546875 C 20.015625 0.0546875 20.667969 0.410156 21.042969 0.992188 L 24.691406 6.644531 C 25.304688 7.597656 25.03125 8.863281 24.082031 9.480469 C 23.128906 10.09375 21.859375 9.820312 21.246094 8.867188 L 19.324219 5.886719 L 8.988281 21.90625 C 5.871094 26.738281 6.558594 33.203125 10.628906 37.273438 C 15.421875 42.066406 23.226562 42.066406 28.023438 37.273438 C 29.285156 36.007812 30.238281 34.523438 30.855469 32.855469 C 31.25 31.792969 32.425781 31.253906 33.488281 31.648438 C 34.550781 32.042969 35.09375 33.222656 34.699219 34.28125 C 33.875 36.503906 32.601562 38.488281 30.921875 40.171875 C 27.824219 43.265625 23.703125 44.972656 19.324219 44.972656 Z M 19.320312 44.96875 " fill-opacity="1" fill-rule="nonzero"/><path fill="#afcb1e" d="M 32.773438 29.003906 C 30.132812 29.003906 27.652344 27.976562 25.785156 26.109375 C 22.515625 22.839844 21.960938 17.644531 24.46875 13.757812 L 31.054688 3.554688 C 31.429688 2.96875 32.078125 2.617188 32.777344 2.617188 C 33.476562 2.617188 34.121094 2.96875 34.5 3.554688 L 41.085938 13.757812 C 43.59375 17.644531 43.039062 22.839844 39.769531 26.109375 C 37.902344 27.972656 35.421875 29.003906 32.78125 29.003906 Z M 32.773438 8.445312 L 27.914062 15.980469 C 26.445312 18.257812 26.769531 21.296875 28.683594 23.210938 C 30.9375 25.46875 34.609375 25.46875 36.867188 23.210938 C 38.78125 21.296875 39.105469 18.257812 37.636719 15.984375 L 32.773438 8.449219 Z M 26.191406 14.867188 L 26.195312 14.867188 Z M 26.191406 14.867188 " fill-opacity="1" fill-rule="nonzero"/></svg>