<svg width="600" height="390" viewBox="0 0 600 390" fill="none" xmlns="http://www.w3.org/2000/svg">
<path d="M600 0H0V390H600V0Z" fill="#83DDD5"/>
<path d="M299.695 342.562C455.823 342.562 582.39 311.181 582.39 272.472C582.39 233.763 455.823 202.382 299.695 202.382C143.567 202.382 17 233.763 17 272.472C17 311.181 143.567 342.562 299.695 342.562Z" fill="#0EA89B"/>
<path d="M186.914 55.5852C186.333 54.744 185.733 53.8536 185.03 53.1084C184.542 52.5912 184.264 52.3596 184.057 52.3692C183.76 52.3824 183.608 52.8852 183.193 53.742C183.111 53.9088 183.03 54.0768 182.946 54.2436C183.274 54.6864 183.586 55.1424 183.892 55.5864C187.273 60.4836 190.381 66.7416 189.596 72.8772C189.166 76.2324 186.578 79.1496 183.436 79.8828C187.795 80.9136 192.055 77.2692 192.616 72.8772C193.402 66.7392 190.294 60.4824 186.914 55.5852Z" fill="#07A89A"/>
<path d="M189.596 72.8748C190.381 66.7392 187.273 60.4824 183.892 55.584C183.586 55.1412 183.274 54.684 182.946 54.2412C180.386 59.3712 176.751 64.6224 176.655 70.5288C176.595 74.2296 178.83 77.9796 182.251 79.4844C182.646 79.6572 183.042 79.7856 183.436 79.8792C186.578 79.1484 189.168 76.23 189.596 72.8748Z" fill="#29B5A9"/>
<path d="M182.672 65.7172C183.52 62.8356 183.255 60.2197 182.081 59.8745C180.908 59.5293 179.269 61.5854 178.421 64.467C177.574 67.3486 177.838 69.9644 179.012 70.3097C180.186 70.6549 181.824 68.5988 182.672 65.7172Z" fill="#6CD6CD"/>
<path d="M171.208 119.238C185.212 132.282 193.974 150.881 193.974 171.528V245.642H59.5471V257.388H210.94V183.274C210.94 155.207 194.755 130.922 171.208 119.238Z" fill="#DDDCDA"/>
<path d="M193.975 171.528C193.975 150.881 185.214 132.282 171.21 119.238C161.652 114.494 150.884 111.823 139.491 111.823H130.999C91.5379 111.823 59.5483 143.813 59.5483 183.274V245.641H193.975V171.528Z" fill="white"/>
<path d="M204.741 179.036H194.626V231.894H204.741V179.036Z" fill="#10BDAE"/>
<path d="M194.626 179.036H65.7463V231.894H194.626V179.036Z" fill="#2DC5B8"/>
<path d="M103.522 191.734C102.772 190.646 101.996 189.497 101.089 188.533C100.459 187.865 100.099 187.566 99.8312 187.578C99.4484 187.595 99.2504 188.245 98.714 189.352C98.6096 189.568 98.5028 189.784 98.3948 190C95.0876 196.628 90.392 203.413 90.2672 211.045C90.1892 215.827 93.0764 220.672 97.4972 222.616C98.006 222.84 98.5184 223.006 99.0296 223.126C104.661 224.456 110.166 219.749 110.892 214.074C111.907 206.147 107.89 198.061 103.522 191.734Z" fill="white"/>
<path d="M138.109 191.734C137.359 190.646 136.582 189.497 135.675 188.533C135.045 187.865 134.685 187.566 134.418 187.578C134.035 187.595 133.837 188.245 133.3 189.352C133.196 189.568 133.089 189.784 132.981 190C129.674 196.628 124.978 203.413 124.854 211.045C124.776 215.827 127.663 220.672 132.084 222.616C132.592 222.84 133.105 223.006 133.616 223.126C139.248 224.456 144.752 219.749 145.478 214.074C146.492 206.147 142.476 198.061 138.109 191.734Z" fill="white"/>
<path d="M172.694 191.734C171.944 190.646 171.168 189.497 170.26 188.533C169.63 187.865 169.27 187.566 169.003 187.578C168.62 187.595 168.422 188.245 167.886 189.352C167.781 189.568 167.674 189.784 167.566 190C164.259 196.628 159.564 203.413 159.439 211.045C159.361 215.827 162.248 220.672 166.669 222.616C167.178 222.84 167.69 223.006 168.201 223.126C173.833 224.456 179.337 219.749 180.063 214.074C181.077 206.147 177.062 198.061 172.694 191.734Z" fill="white"/>
<path d="M182.753 42H137.312C133.529 42 130.461 45.0672 130.461 48.8508V95.6316H117.625C113.3 95.6316 109.794 99.138 109.794 103.463V116.272H161.999V103.463C161.999 99.138 158.492 95.6316 154.167 95.6316H140.558C140.558 90.8328 140.558 86.0352 140.558 81.2364C140.558 75.8772 140.558 70.5168 140.558 65.1576C140.558 61.2372 138.815 54.114 143.957 52.512C149.93 50.6508 156.356 50.7408 162.54 51.0564C169.066 51.39 175.608 51.9636 182.018 53.274C184.259 53.7324 186.356 52.0296 186.356 49.7436V45.6072C186.358 43.614 184.743 42 182.753 42Z" fill="white"/>
<path d="M243.456 284.64C252.282 292.211 256.735 300.302 254.915 307.454C250.913 323.168 218.139 328.386 181.712 319.11C168.452 315.733 156.538 310.901 146.938 305.362C157.505 314.425 174.341 322.741 194.19 327.796C230.617 337.072 263.39 331.853 267.392 316.14C269.936 306.146 260.228 294.316 243.456 284.64Z" fill="#48CDC1"/>
<path d="M254.914 307.453C256.735 300.302 252.281 292.21 243.455 284.639C233.853 279.101 221.94 274.267 208.68 270.89C172.253 261.614 139.48 266.833 135.478 282.546C133.656 289.697 138.11 297.79 146.936 305.36C156.538 310.898 168.451 315.732 181.711 319.109C218.138 328.386 250.913 323.167 254.914 307.453Z" fill="#6CD6CD"/>
<path d="M242.279 305.07C242.646 303.552 242.604 301.956 242.245 300.444C241.893 298.926 241.228 297.497 240.4 296.185C238.751 293.542 236.508 291.334 234.119 289.373L234.159 289.402C230.492 287.425 226.652 285.788 222.72 284.454C218.792 283.106 214.787 282.012 210.733 281.196C202.638 279.529 194.381 278.813 186.311 279.127C182.281 279.317 178.292 279.784 174.517 280.685C170.784 281.585 167.132 282.99 164.732 285.094C164.14 285.611 163.656 286.168 163.256 286.734C162.897 287.315 162.612 287.899 162.451 288.517C162.13 289.742 162.205 291.108 162.737 292.589C163.263 294.058 164.141 295.589 165.272 297.023C166.398 298.458 167.7 299.852 169.132 301.152L168.641 300.805C174.193 304.188 180.193 307.064 186.443 309.35C192.683 311.681 199.17 313.494 205.799 314.615C212.422 315.688 219.233 316.156 225.938 315.218C229.275 314.734 232.601 313.897 235.632 312.371C238.637 310.894 241.387 308.411 242.279 305.07ZM242.279 305.07C241.855 306.721 240.955 308.226 239.786 309.462C238.613 310.698 237.207 311.701 235.715 312.524C232.701 314.134 229.4 315.17 226.05 315.842C219.334 317.215 212.407 317.456 205.53 317.059C198.64 316.686 191.778 315.592 185.027 313.913C178.299 312.155 171.655 309.805 165.404 306.42L165.208 306.313L164.914 306.072C163.177 304.649 161.498 303.09 160 301.271C158.503 299.461 157.112 297.416 156.208 294.949C155.77 293.713 155.417 292.397 155.314 290.986C155.209 289.582 155.315 288.115 155.686 286.711C156.067 285.305 156.711 283.997 157.487 282.824C158.289 281.681 159.217 280.68 160.209 279.834C164.267 276.54 168.816 275.212 173.2 274.376C177.614 273.59 182.008 273.43 186.331 273.66C194.986 274.072 203.383 275.929 211.442 278.521C219.497 281.144 227.264 284.557 234.428 288.937L234.457 288.954L234.469 288.966C236.766 291.092 238.934 293.407 240.524 296.112C241.304 297.466 241.955 298.907 242.296 300.434C242.638 301.955 242.661 303.557 242.279 305.07Z" fill="#07A89A"/>
<path d="M153.63 273.505C154.21 266.095 148.192 259.581 140.19 258.955C132.188 258.329 125.23 263.828 124.651 271.238C124.071 278.647 130.088 285.162 138.091 285.788C146.093 286.414 153.05 280.915 153.63 273.505Z" fill="white"/>
<path d="M126.781 271.415C128.357 266.293 132.561 260.894 138.396 260.986Z" fill="white"/>
<path d="M126.781 271.415C127.172 268.616 128.526 265.934 130.55 263.862C131.577 262.842 132.787 261.97 134.153 261.442C135.507 260.904 137.004 260.719 138.395 260.986C136.998 261.209 135.707 261.634 134.534 262.268C133.368 262.91 132.312 263.732 131.377 264.685C129.483 266.584 128.051 268.908 126.781 271.415Z" fill="#10BDAE"/>
<path d="M159.429 274.088C164.04 272.142 166.074 266.528 163.973 261.549C161.872 256.569 156.431 254.108 151.82 256.054C147.21 257.999 145.176 263.613 147.277 268.593C149.378 273.573 154.819 276.033 159.429 274.088Z" fill="white"/>
<path d="M152.406 257.402C155.956 256.76 160.486 257.605 162.237 261.122Z" fill="white"/>
<path d="M152.406 257.402C154.177 256.621 156.246 256.564 158.146 257.138C159.091 257.446 160.006 257.918 160.743 258.608C161.482 259.286 162.038 260.172 162.237 261.122C160.986 259.65 159.487 258.773 157.796 258.252C156.109 257.712 154.321 257.537 152.406 257.402Z" fill="#10BDAE"/>
<path d="M394.821 320.472L393.183 308.864C392.811 306.232 390.614 304.364 388.275 304.694L312.032 315.451C309.693 315.781 308.097 318.184 308.469 320.816L308.425 320.506C307.419 324.03 294.849 328.129 294.849 328.129L294.908 328.543L294.937 328.751L294.996 329.165C294.996 329.165 308.209 329.626 310.149 332.735L310.105 332.424C310.477 335.057 312.674 336.924 315.013 336.594L391.256 325.837C393.597 325.507 395.192 323.105 394.821 320.472Z" fill="white"/>
<path d="M386.762 320.288L385.49 311.27C385.201 309.224 383.309 307.8 381.263 308.089L314.59 317.496C312.544 317.785 311.12 319.676 311.409 321.722L311.375 321.481C310.45 324.24 299.427 327.601 299.427 327.601L299.473 327.923L299.495 328.084L299.541 328.405C299.541 328.405 311.065 328.586 312.716 330.982L312.682 330.74C312.971 332.786 314.863 334.211 316.909 333.922L383.582 324.515C385.625 324.227 387.05 322.334 386.762 320.288Z" fill="#E6434D"/>
<path d="M324.604 335.24L323.318 326.12" stroke="black" stroke-width="0.2434" stroke-miterlimit="10"/>
<path d="M326.788 322.248L325.501 313.128" stroke="black" stroke-width="0.2434" stroke-miterlimit="10"/>
<path d="M336.322 320.903L335.036 311.783" stroke="black" stroke-width="0.2434" stroke-miterlimit="10"/>
<path d="M345.443 319.616L344.156 310.496" stroke="black" stroke-width="0.2434" stroke-miterlimit="10"/>
<path d="M354.148 318.388L352.862 309.268" stroke="black" stroke-width="0.2434" stroke-miterlimit="10"/>
<path d="M362.44 317.218L361.153 308.098" stroke="black" stroke-width="0.2434" stroke-miterlimit="10"/>
<path d="M372.389 315.815L371.102 306.695" stroke="black" stroke-width="0.2434" stroke-miterlimit="10"/>
<path d="M380.68 314.645L379.394 305.525" stroke="black" stroke-width="0.2434" stroke-miterlimit="10"/>
<path d="M333.517 333.983L332.23 324.863" stroke="black" stroke-width="0.2434" stroke-miterlimit="10"/>
<path d="M342.43 332.725L341.144 323.605" stroke="black" stroke-width="0.2434" stroke-miterlimit="10"/>
<path d="M351.343 331.468L350.056 322.348" stroke="black" stroke-width="0.2434" stroke-miterlimit="10"/>
<path d="M360.256 330.21L358.97 321.09" stroke="black" stroke-width="0.2434" stroke-miterlimit="10"/>
<path d="M369.168 328.952L367.882 319.832" stroke="black" stroke-width="0.2434" stroke-miterlimit="10"/>
<path d="M378.082 327.696L376.796 318.575" stroke="black" stroke-width="0.2434" stroke-miterlimit="10"/>
<path d="M386.995 326.438L385.708 317.318" stroke="black" stroke-width="0.2434" stroke-miterlimit="10"/>
<path d="M44.7736 261.267L36.7798 277.531L103.754 310.448L111.748 294.183L44.7736 261.267Z" fill="white"/>
<path d="M84.9586 281.015L76.9648 297.28L103.754 310.447L111.748 294.182L84.9586 281.015Z" fill="#E6434D"/>
<path d="M43.2448 258.736L33.8403 277.871L36.073 278.968L45.4774 259.833L43.2448 258.736Z" fill="black"/>
<path d="M38.533 268.289L32.155 265.153" stroke="white" stroke-width="1.9469" stroke-miterlimit="10"/>
<path d="M28.4719 272.648L35.8375 257.659" stroke="white" stroke-width="2.9204" stroke-miterlimit="10" stroke-linecap="round" stroke-linejoin="round"/>
<path d="M98.3396 287.584L94.4216 295.556" stroke="black" stroke-width="0.4867" stroke-miterlimit="10"/>
<path d="M85.105 281.08L81.187 289.052" stroke="black" stroke-width="0.4867" stroke-miterlimit="10"/>
<path d="M71.8701 274.574L67.9521 282.548" stroke="black" stroke-width="0.4867" stroke-miterlimit="10"/>
<path d="M58.6353 268.07L54.7173 276.043" stroke="black" stroke-width="0.4867" stroke-miterlimit="10"/>
<path d="M100.644 299.01L96.7256 306.983" stroke="black" stroke-width="0.4867" stroke-miterlimit="10"/>
<path d="M87.409 292.506L83.491 300.479" stroke="black" stroke-width="0.4867" stroke-miterlimit="10"/>
<path d="M74.1741 286.001L70.2549 293.975" stroke="black" stroke-width="0.4867" stroke-miterlimit="10"/>
<path d="M60.938 279.497L57.02 287.47" stroke="black" stroke-width="0.4867" stroke-miterlimit="10"/>
<path d="M109.63 298.089L105.79 305.903L106.587 306.295L110.427 298.481L109.63 298.089Z" fill="white"/>
<path d="M107.347 303.096L114.513 305.43L108.287 301.182L107.347 303.096Z" fill="white"/>
<path d="M99.2421 276.608H92.0205C90.9573 276.608 90.0945 275.747 90.0945 274.682V273.72C90.0945 272.657 90.9561 271.794 92.0205 271.794H99.2421" fill="#E6434D"/>
<path d="M99.2422 271.794H106.464C107.527 271.794 108.39 272.656 108.39 273.72V274.682C108.39 275.746 107.528 276.608 106.464 276.608H99.2422" fill="#FFFDFF"/>
<path d="M109.399 271.778L116.573 272.596C117.631 272.716 118.585 271.957 118.705 270.9L118.814 269.944C118.934 268.886 118.175 267.932 117.118 267.812L109.943 266.995" fill="#E6434D"/>
<path d="M109.945 266.996L102.77 266.179C101.713 266.059 100.759 266.818 100.639 267.875L100.53 268.831C100.41 269.888 101.168 270.842 102.225 270.962L109.4 271.78" fill="#FFFDFF"/>
<path d="M88.6292 270.911L95.606 269.048C96.6332 268.774 97.244 267.719 96.9704 266.692L96.722 265.762C96.4472 264.734 95.3924 264.124 94.3652 264.397L87.3884 266.26" fill="#E6434D"/>
<path d="M87.3885 266.26L80.4117 268.122C79.3845 268.397 78.7737 269.452 79.0473 270.479L79.2957 271.409C79.5705 272.436 80.6253 273.047 81.6525 272.773L88.6293 270.911" fill="#FFFDFF"/>
<path d="M359.721 289.798L351.78 292.939C350.61 293.402 349.287 292.829 348.824 291.659L348.405 290.6C347.942 289.43 348.516 288.108 349.686 287.645L357.627 284.503" fill="#E6434D"/>
<path d="M357.627 284.503L365.569 281.362C366.739 280.898 368.061 281.472 368.525 282.642L368.943 283.7C369.407 284.87 368.833 286.193 367.663 286.656L359.721 289.798" fill="#FFFDFF"/>
<path d="M368.791 280.068L377.037 277.846C378.252 277.518 378.97 276.269 378.644 275.054L378.348 273.955C378.02 272.741 376.771 272.022 375.556 272.348L367.31 274.571" fill="#E6434D"/>
<path d="M367.31 274.57L359.064 276.792C357.849 277.12 357.13 278.369 357.457 279.583L357.753 280.682C358.081 281.897 359.33 282.616 360.544 282.289L368.791 280.067" fill="#FFFDFF"/>
<path d="M345.571 288.149L352.434 283.066C353.444 282.317 353.657 280.891 352.909 279.88L352.231 278.964C351.482 277.954 350.057 277.741 349.045 278.489L342.182 283.572" fill="#E6434D"/>
<path d="M342.183 283.573L335.32 288.656C334.31 289.405 334.098 290.831 334.845 291.842L335.523 292.758C336.272 293.768 337.698 293.981 338.709 293.233L345.572 288.15" fill="#FFFDFF"/>
<path d="M362.968 274.822L355.553 279.056C354.461 279.68 353.07 279.3 352.446 278.208L351.881 277.219C351.257 276.127 351.637 274.736 352.729 274.112L360.145 269.878" fill="#E6434D"/>
<path d="M360.145 269.878L367.561 265.643C368.653 265.019 370.044 265.399 370.668 266.491L371.233 267.48C371.857 268.572 371.476 269.963 370.384 270.587L362.968 274.822" fill="#FFFDFF"/>
<path d="M370.568 263.904L378.416 260.537C379.572 260.041 380.107 258.702 379.611 257.546L379.162 256.5C378.667 255.344 377.328 254.809 376.172 255.305L368.324 258.672" fill="#E6434D"/>
<path d="M368.323 258.672L360.475 262.039C359.319 262.535 358.784 263.874 359.279 265.03L359.728 266.076C360.224 267.232 361.563 267.767 362.719 267.271L370.567 263.904" fill="#FFFDFF"/>
<path d="M348.727 275.192L354.8 269.189C355.694 268.304 355.702 266.863 354.819 265.968L354.019 265.158C353.134 264.264 351.693 264.256 350.798 265.139L344.725 271.142" fill="#E6434D"/>
<path d="M344.725 271.144L338.651 277.147C337.757 278.032 337.749 279.474 338.632 280.368L339.433 281.178C340.317 282.072 341.759 282.08 342.653 281.197L348.727 275.194" fill="#FFFDFF"/>
<path d="M326.595 76.8192V66.5316C326.595 64.0236 328.628 61.9908 331.136 61.9908H353.194C355.702 61.9908 357.735 64.0236 357.735 66.5316V76.8192H326.595Z" fill="white"/>
<path d="M350.129 49.4424C348.722 46.452 345.689 44.376 342.165 44.376C337.301 44.376 333.358 48.3192 333.358 53.184V71.5992H350.973V54.7848H380.068V59.5884H386.474V49.98L350.129 49.4424Z" fill="white"/>
<path d="M360.551 76.7556C366.209 82.4928 369.704 90.3684 369.704 99.0624V207.101C369.704 216.461 362.116 224.048 352.756 224.048H310.388C309.043 224.048 307.741 223.876 306.485 223.579C309.541 228.019 314.654 230.934 320.451 230.934H362.819C372.179 230.934 379.767 223.346 379.767 213.986V105.948C379.767 92.8608 371.853 81.6252 360.551 76.7556Z" fill="#DDDCDA"/>
<path d="M352.757 224.048C362.117 224.048 369.705 216.461 369.705 207.101V99.0624C369.705 90.3684 366.209 82.4928 360.553 76.7556C356.699 75.0948 352.454 74.172 347.992 74.172H335.282C317.732 74.172 303.506 88.3992 303.506 105.948V213.986C303.506 217.549 304.61 220.85 306.488 223.579C307.743 223.876 309.045 224.048 310.39 224.048H352.757Z" fill="#FFFDFF"/>
<path d="M345.321 122.138C343.705 119.796 342.032 117.317 340.076 115.242C338.717 113.801 337.942 113.159 337.365 113.184C336.539 113.221 336.115 114.62 334.959 117.005C334.733 117.47 334.504 117.935 334.271 118.402C327.146 132.685 317.025 147.307 316.757 163.752C316.591 174.055 322.811 184.496 332.338 188.686C333.436 189.168 334.539 189.526 335.639 189.786C347.774 192.655 359.637 182.509 361.201 170.28C363.387 153.198 354.733 135.775 345.321 122.138Z" fill="#0EA89B"/>
<path d="M356.891 152.974H344.978V141.06H333.447V152.974H321.533L321.405 164.504H333.447V176.419H344.978V164.504H356.891V152.974Z" fill="#FFFDFF"/>
<path d="M386.942 121.504L387.894 121.07C392.013 119.196 396.878 120.902 398.924 124.939L411.747 150.245L413.324 127.474L413.52 91.0488C413.54 87.1584 416.71 84.0228 420.601 84.0432L422.211 84.0516C426.102 84.072 429.237 87.2424 429.217 91.1328L429.044 123.389C429.537 123.356 430.04 123.331 430.555 123.312L432.532 84.4176C432.747 80.1912 436.249 76.8816 440.48 76.9044L441.348 76.9092C445.93 76.9344 449.535 80.8344 449.199 85.4052L446.296 124.85C446.63 124.925 446.97 125.006 447.307 125.087L451.036 94.7892C451.636 89.9136 456.51 86.7744 461.197 88.2444C464.998 89.436 467.308 93.282 466.574 97.1988L460.531 129.451C460.684 129.516 460.836 129.577 460.99 129.642L468.302 113.069C469.942 109.349 474.481 107.922 477.956 110.033L478.462 110.341C481.317 112.075 482.469 115.642 481.168 118.717C478.736 124.469 476.534 130.463 473.775 136.049C470.115 143.461 468.352 151.988 466.334 160.115C464.235 168.559 460.803 176.218 457.842 184.35C455.287 191.365 454.862 199.049 454.695 206.441C454.556 212.612 453.873 219.401 455.06 225.505L398.31 225.2C398.722 219.487 399.136 213.774 399.55 208.061C400.434 195.865 402.834 183.98 399.656 171.869C398.792 168.574 396.922 165.607 395.546 162.517C393.768 158.526 391.785 154.604 390.12 150.565C387.625 144.514 385.129 138.462 382.634 132.409C380.9 128.207 382.806 123.386 386.942 121.504Z" fill="white"/>
<path d="M401.463 232.07L451.728 232.34C456.525 232.366 460.435 228.498 460.46 223.7L460.502 215.951C460.527 211.153 456.66 207.244 451.862 207.218L401.598 206.948C396.8 206.923 392.891 210.791 392.865 215.588L392.823 223.338C392.798 228.136 396.666 232.045 401.463 232.07Z" fill="white"/>
<path d="M455.989 191.227C454.02 192.126 451.908 192.611 449.778 192.893C447.644 193.168 445.468 193.208 443.306 192.986C441.145 192.746 439.004 192.196 436.984 191.357C434.976 190.484 433.124 189.218 431.697 187.608C433.704 188.431 435.603 189.127 437.575 189.632C439.555 190.098 441.542 190.427 443.56 190.664C445.582 190.867 447.622 191.008 449.688 191.08L455.989 191.227Z" fill="#DDDCDA"/>
<path d="M474.68 148.276L475.639 147.862C479.793 146.066 484.624 147.866 486.592 151.943L498.926 177.491L500.941 154.754L501.838 118.34C501.934 114.451 505.165 111.377 509.054 111.473L510.663 111.512C514.552 111.608 517.627 114.839 517.531 118.728L516.735 150.974C517.228 150.952 517.732 150.936 518.247 150.926L520.974 112.078C521.27 107.856 524.834 104.615 529.064 104.719L529.932 104.741C534.513 104.854 538.042 108.823 537.618 113.387L533.955 152.768C534.288 152.849 534.625 152.938 534.961 153.024L539.274 122.804C539.967 117.941 544.9 114.898 549.559 116.458C553.336 117.722 555.572 121.613 554.763 125.514L548.1 157.644C548.252 157.711 548.402 157.776 548.556 157.844L556.185 141.415C557.898 137.728 562.462 136.388 565.896 138.565L566.396 138.883C569.217 140.672 570.3 144.259 568.94 147.311C566.397 153.014 564.08 158.965 561.214 164.496C557.412 171.836 555.486 180.329 553.31 188.413C551.049 196.816 547.47 204.407 544.352 212.48C541.663 219.445 541.09 227.119 540.781 234.506C540.523 240.674 539.709 247.447 540.777 253.574L484.044 252.175C484.567 246.472 485.09 240.767 485.614 235.063C486.733 222.887 489.361 211.051 486.418 198.88C485.618 195.568 483.806 192.566 482.49 189.45C480.789 185.425 478.881 181.466 477.294 177.395C474.915 171.296 472.538 165.197 470.16 159.098C468.51 154.861 470.506 150.078 474.68 148.276Z" fill="white"/>
<path d="M489.056 259.151L535.326 260.292C541.22 260.437 546.117 255.776 546.262 249.882L546.355 246.114C546.5 240.22 541.839 235.322 535.945 235.177L489.675 234.036C483.781 233.891 478.884 238.552 478.738 244.446L478.646 248.214C478.5 254.11 483.16 259.006 489.056 259.151Z" fill="white"/>
<path d="M543.601 214.59C541.632 215.489 539.52 215.974 537.39 216.256C535.256 216.529 533.081 216.571 530.918 216.349C528.757 216.109 526.616 215.558 524.597 214.72C522.588 213.847 520.736 212.581 519.309 210.971C521.316 211.794 523.215 212.49 525.187 212.995C527.167 213.461 529.154 213.79 531.173 214.027C533.195 214.23 535.235 214.37 537.3 214.442L543.601 214.59Z" fill="#DDDCDA"/>
<path d="M402.662 203.963H325.225V239.008H402.662V203.963Z" fill="#83DDD5"/>
<path d="M333.027 213.037L333.057 207.433C333.062 206.608 332.396 205.936 331.57 205.931L330.823 205.927C329.997 205.922 329.325 206.588 329.32 207.414L329.29 213.018" fill="#E6434D"/>
<path d="M329.291 213.017L329.262 218.621C329.257 219.446 329.923 220.118 330.748 220.123L331.496 220.127C332.321 220.132 332.993 219.466 332.998 218.64L333.028 213.036" fill="#FFFDFF"/>
<path d="M341.223 213.037L341.253 207.433C341.258 206.608 340.592 205.936 339.767 205.931L339.019 205.927C338.193 205.922 337.521 206.588 337.517 207.414L337.487 213.018" fill="#E6434D"/>
<path d="M337.488 213.017L337.458 218.621C337.453 219.446 338.119 220.118 338.945 220.123L339.692 220.127C340.518 220.132 341.19 219.466 341.195 218.64L341.225 213.036" fill="#FFFDFF"/>
<path d="M349.419 213.037L349.449 207.433C349.454 206.608 348.788 205.936 347.962 205.931L347.215 205.927C346.389 205.922 345.717 206.588 345.712 207.414L345.682 213.018" fill="#E6434D"/>
<path d="M345.684 213.017L345.654 218.621C345.649 219.446 346.315 220.118 347.14 220.123L347.888 220.127C348.714 220.132 349.386 219.466 349.39 218.64L349.42 213.036" fill="#FFFDFF"/>
<path d="M357.615 213.037L357.645 207.433C357.65 206.608 356.984 205.936 356.158 205.931L355.411 205.927C354.585 205.922 353.913 206.588 353.908 207.414L353.878 213.018" fill="#E6434D"/>
<path d="M353.88 213.017L353.85 218.621C353.845 219.446 354.511 220.118 355.336 220.123L356.084 220.127C356.91 220.132 357.582 219.466 357.586 218.64L357.616 213.036" fill="#FFFDFF"/>
<path d="M365.811 213.037L365.841 207.433C365.846 206.608 365.18 205.936 364.354 205.931L363.607 205.927C362.781 205.922 362.109 206.588 362.104 207.414L362.074 213.018" fill="#E6434D"/>
<path d="M362.076 213.017L362.046 218.621C362.041 219.446 362.707 220.118 363.532 220.123L364.28 220.127C365.106 220.132 365.778 219.466 365.782 218.64L365.812 213.036" fill="#FFFDFF"/>
<path d="M374.007 213.037L374.037 207.433C374.042 206.608 373.376 205.936 372.55 205.931L371.803 205.927C370.977 205.922 370.305 206.588 370.3 207.414L370.27 213.018" fill="#E6434D"/>
<path d="M370.271 213.017L370.241 218.621C370.237 219.446 370.903 220.118 371.728 220.123L372.476 220.127C373.301 220.132 373.973 219.466 373.978 218.64L374.008 213.036" fill="#FFFDFF"/>
<path d="M382.203 213.037L382.233 207.433C382.238 206.608 381.572 205.936 380.747 205.931L379.999 205.927C379.173 205.922 378.501 206.588 378.497 207.414L378.467 213.018" fill="#E6434D"/>
<path d="M378.468 213.017L378.438 218.621C378.433 219.446 379.099 220.118 379.924 220.123L380.672 220.127C381.498 220.132 382.17 219.466 382.174 218.64L382.204 213.036" fill="#FFFDFF"/>
<path d="M390.399 213.037L390.429 207.433C390.434 206.608 389.768 205.936 388.942 205.931L388.195 205.927C387.369 205.922 386.697 206.588 386.692 207.414L386.662 213.018" fill="#E6434D"/>
<path d="M386.664 213.017L386.634 218.621C386.629 219.446 387.295 220.118 388.12 220.123L388.868 220.127C389.694 220.132 390.366 219.466 390.37 218.64L390.4 213.036" fill="#FFFDFF"/>
<path d="M398.595 213.037L398.625 207.433C398.63 206.608 397.964 205.936 397.138 205.931L396.391 205.927C395.565 205.922 394.893 206.588 394.888 207.414L394.858 213.018" fill="#E6434D"/>
<path d="M394.859 213.017L394.829 218.621C394.825 219.446 395.491 220.118 396.316 220.123L397.064 220.127C397.889 220.132 398.561 219.466 398.566 218.64L398.596 213.036" fill="#FFFDFF"/>
<path d="M333.027 229.429L333.057 223.825C333.062 223 332.396 222.328 331.57 222.323L330.823 222.319C329.997 222.314 329.325 222.98 329.32 223.806L329.29 229.41" fill="#E6434D"/>
<path d="M329.291 229.409L329.262 235.013C329.257 235.838 329.923 236.51 330.748 236.515L331.496 236.519C332.321 236.524 332.993 235.858 332.998 235.032L333.028 229.428" fill="#FFFDFF"/>
<path d="M341.223 229.429L341.253 223.825C341.258 223 340.592 222.328 339.767 222.323L339.019 222.319C338.193 222.314 337.521 222.98 337.517 223.806L337.487 229.41" fill="#E6434D"/>
<path d="M337.488 229.409L337.458 235.013C337.453 235.838 338.119 236.51 338.945 236.515L339.692 236.519C340.518 236.524 341.19 235.858 341.195 235.032L341.225 229.428" fill="#FFFDFF"/>
<path d="M349.419 229.429L349.449 223.825C349.454 223 348.788 222.328 347.962 222.323L347.215 222.319C346.389 222.314 345.717 222.98 345.712 223.806L345.682 229.41" fill="#E6434D"/>
<path d="M345.684 229.409L345.654 235.013C345.649 235.838 346.315 236.51 347.14 236.515L347.888 236.519C348.714 236.524 349.386 235.858 349.39 235.032L349.42 229.428" fill="#FFFDFF"/>
<path d="M357.615 229.429L357.645 223.825C357.65 223 356.984 222.328 356.158 222.323L355.411 222.319C354.585 222.314 353.913 222.98 353.908 223.806L353.878 229.41" fill="#E6434D"/>
<path d="M353.88 229.409L353.85 235.013C353.845 235.838 354.511 236.51 355.336 236.515L356.084 236.519C356.91 236.524 357.582 235.858 357.586 235.032L357.616 229.428" fill="#FFFDFF"/>
<path d="M365.811 229.429L365.841 223.825C365.846 223 365.18 222.328 364.354 222.323L363.607 222.319C362.781 222.314 362.109 222.98 362.104 223.806L362.074 229.41" fill="#E6434D"/>
<path d="M362.076 229.409L362.046 235.013C362.041 235.838 362.707 236.51 363.532 236.515L364.28 236.519C365.106 236.524 365.778 235.858 365.782 235.032L365.812 229.428" fill="#FFFDFF"/>
<path d="M374.007 229.429L374.037 223.825C374.042 223 373.376 222.328 372.55 222.323L371.803 222.319C370.977 222.314 370.305 222.98 370.3 223.806L370.27 229.41" fill="#E6434D"/>
<path d="M370.271 229.409L370.241 235.013C370.237 235.838 370.903 236.51 371.728 236.515L372.476 236.519C373.301 236.524 373.973 235.858 373.978 235.032L374.008 229.428" fill="#FFFDFF"/>
<path d="M382.203 229.429L382.233 223.825C382.238 223 381.572 222.328 380.747 222.323L379.999 222.319C379.173 222.314 378.501 222.98 378.497 223.806L378.467 229.41" fill="#E6434D"/>
<path d="M378.468 229.409L378.438 235.013C378.433 235.838 379.099 236.51 379.924 236.515L380.672 236.519C381.498 236.524 382.17 235.858 382.174 235.032L382.204 229.428" fill="#FFFDFF"/>
<path d="M390.399 229.429L390.429 223.825C390.434 223 389.768 222.328 388.942 222.323L388.195 222.319C387.369 222.314 386.697 222.98 386.692 223.806L386.662 229.41" fill="#E6434D"/>
<path d="M386.664 229.409L386.634 235.013C386.629 235.838 387.295 236.51 388.12 236.515L388.868 236.519C389.694 236.524 390.366 235.858 390.37 235.032L390.4 229.428" fill="#FFFDFF"/>
<path d="M398.595 229.429L398.625 223.825C398.63 223 397.964 222.328 397.138 222.323L396.391 222.319C395.565 222.314 394.893 222.98 394.888 223.806L394.858 229.41" fill="#E6434D"/>
<path d="M394.859 229.409L394.829 235.013C394.825 235.838 395.491 236.51 396.316 236.515L397.064 236.519C397.889 236.524 398.561 235.858 398.566 235.032L398.596 229.428" fill="#FFFDFF"/>
<path d="M287.268 191.227C281.497 192.242 275.722 193.2 269.974 194.306C264.219 195.359 258.477 196.472 252.76 197.67C247.054 198.905 241.347 200.158 235.789 201.809C235.102 202.016 234.363 202.202 233.78 202.458C233.476 202.585 233.15 202.676 232.863 202.828L232.027 203.309C230.973 204.014 230.118 204.932 229.629 206.064C229.178 207.214 229.071 208.506 229.17 209.818C229.366 211.13 229.65 212.464 230.212 213.738C231.226 216.313 232.76 218.734 234.504 220.98C236.257 223.228 238.228 225.322 240.332 227.284C244.555 231.196 249.277 234.593 254.269 237.535C264.277 243.397 275.29 247.586 286.708 250.2C275.121 248.48 263.728 244.831 253.365 239.118C248.162 236.305 243.291 232.86 238.837 228.913C236.624 226.919 234.572 224.736 232.705 222.384C230.853 220.024 229.189 217.465 228.04 214.592L227.628 213.509L227.314 212.376C227.07 211.636 227.011 210.823 226.874 210.043C226.756 208.44 226.887 206.759 227.532 205.174C228.212 203.596 229.432 202.308 230.812 201.412L231.884 200.807C232.246 200.622 232.629 200.509 233.002 200.359C233.77 200.04 234.462 199.897 235.179 199.691C240.883 198.131 246.634 196.92 252.415 195.889C263.966 193.807 275.599 192.31 287.268 191.227Z" fill="white"/>
<path d="M279.506 204.896C273.646 211.2 264.436 214.015 260.937 222.258C259.311 226.088 265.424 230.609 268.023 234.932C271.731 241.099 274.119 248.189 273.512 255.461C272.619 266.021 265.072 272.806 260.171 281.044C259.873 281.546 269.044 285.642 269.824 285.857C274.778 287.218 279.964 287.675 285.068 288.067C290.338 288.473 295.637 288.461 300.915 288.212C304.066 288.065 319.889 288.497 321.481 286.067C321.505 286.031 349.681 243 317.404 209.273C317.404 209.273 303.183 192.151 287.492 190.662C284.833 190.417 283.756 197.953 283.023 199.625C282.128 201.666 280.913 203.382 279.506 204.896Z" fill="#2DC5B8"/>
<path d="M289.482 196.326C289.192 197.232 288.922 198.265 288.769 198.851C288.46 200.027 288.218 200.956 287.868 201.752C286.794 204.2 285.325 206.406 283.381 208.499C280.753 211.325 277.749 213.416 274.843 215.438C271.059 218.072 267.762 220.367 266.088 223.715C266.582 224.652 267.982 226.303 268.866 227.345C270.164 228.876 271.507 230.46 272.557 232.206C277.269 240.044 279.423 248.238 278.784 255.9C278.019 264.943 273.248 271.554 269.04 277.386C268.599 277.996 268.167 278.597 267.744 279.191C269.269 279.899 270.756 280.554 271.392 280.799C275.739 281.974 280.345 282.396 285.475 282.792C290.088 283.146 295.058 283.19 300.668 282.928C301.293 282.899 302.384 282.888 303.757 282.877C307.275 282.851 313.165 282.808 316.771 282.253C317.172 282.192 317.485 282.132 317.727 282.08" stroke="white" stroke-width="0.9735" stroke-miterlimit="10" stroke-dasharray="2.92 2.92"/>
<path d="M260.961 222.042C255.19 223.057 249.416 224.015 243.668 225.121C237.913 226.174 232.171 227.287 226.454 228.485C220.748 229.72 215.041 230.972 209.482 232.624C208.796 232.831 208.057 233.017 207.474 233.273C207.17 233.4 206.844 233.491 206.557 233.642L205.72 234.124C204.667 234.829 203.811 235.747 203.323 236.879C202.872 238.028 202.765 239.321 202.863 240.632C203.06 241.945 203.343 243.278 203.906 244.553C204.92 247.128 206.454 249.548 208.197 251.795C209.95 254.042 211.922 256.136 214.026 258.098C218.248 262.01 222.97 265.408 227.962 268.35C237.97 274.212 248.984 278.401 260.402 281.015C248.815 279.295 237.422 275.646 227.059 269.933C221.856 267.12 216.985 263.675 212.53 259.728C210.318 257.734 208.266 255.551 206.398 253.199C204.547 250.838 202.882 248.28 201.734 245.407L201.321 244.324L201.008 243.191C200.763 242.45 200.704 241.638 200.568 240.858C200.45 239.255 200.581 237.574 201.225 235.988C201.906 234.41 203.126 233.123 204.506 232.226L205.578 231.622C205.94 231.437 206.323 231.324 206.696 231.174C207.464 230.855 208.155 230.712 208.873 230.506C214.576 228.946 220.328 227.735 226.108 226.704C237.66 224.622 249.292 223.124 260.961 222.042Z" fill="white"/>
<path d="M442.372 175.592L424.298 171.787C419.501 170.778 416.433 166.072 417.442 161.275L422.19 138.727C423.199 133.931 427.905 130.862 432.701 131.872L450.776 135.677C455.572 136.686 458.641 141.392 457.632 146.189L452.884 168.737C451.875 173.532 447.169 176.602 442.372 175.592Z" fill="#0EA89B"/>
<path d="M430.529 139.714C431.819 139.714 432.865 138.668 432.865 137.377C432.865 136.087 431.819 135.041 430.529 135.041C429.238 135.041 428.192 136.087 428.192 137.377C428.192 138.668 429.238 139.714 430.529 139.714Z" fill="#83DDD5"/>
<path d="M434.034 147.89C435.324 147.89 436.37 146.844 436.37 145.554C436.37 144.264 435.324 143.218 434.034 143.218C432.743 143.218 431.697 144.264 431.697 145.554C431.697 146.844 432.743 147.89 434.034 147.89Z" fill="#83DDD5"/>
<path d="M438.705 156.068C439.996 156.068 441.042 155.022 441.042 153.732C441.042 152.442 439.996 151.396 438.705 151.396C437.415 151.396 436.369 152.442 436.369 153.732C436.369 155.022 437.415 156.068 438.705 156.068Z" fill="#83DDD5"/>
<path d="M443.378 163.076C444.668 163.076 445.715 162.03 445.715 160.74C445.715 159.45 444.668 158.404 443.378 158.404C442.088 158.404 441.042 159.45 441.042 160.74C441.042 162.03 442.088 163.076 443.378 163.076Z" fill="#83DDD5"/>
<path d="M444.547 172.422C445.837 172.422 446.883 171.376 446.883 170.086C446.883 168.795 445.837 167.749 444.547 167.749C443.256 167.749 442.21 168.795 442.21 170.086C442.21 171.376 443.256 172.422 444.547 172.422Z" fill="#83DDD5"/>
<path d="M452.724 146.723C454.014 146.723 455.06 145.677 455.06 144.386C455.06 143.096 454.014 142.05 452.724 142.05C451.433 142.05 450.387 143.096 450.387 144.386C450.387 145.677 451.433 146.723 452.724 146.723Z" fill="#83DDD5"/>
<path d="M441.042 143.219C442.332 143.219 443.378 142.173 443.378 140.882C443.378 139.592 442.332 138.546 441.042 138.546C439.751 138.546 438.705 139.592 438.705 140.882C438.705 142.173 439.751 143.219 441.042 143.219Z" fill="#83DDD5"/>
<path d="M444.547 150.227C445.837 150.227 446.883 149.181 446.883 147.89C446.883 146.6 445.837 145.554 444.547 145.554C443.256 145.554 442.21 146.6 442.21 147.89C442.21 149.181 443.256 150.227 444.547 150.227Z" fill="#83DDD5"/>
<path d="M449.22 158.405C450.51 158.405 451.556 157.359 451.556 156.068C451.556 154.778 450.51 153.732 449.22 153.732C447.929 153.732 446.883 154.778 446.883 156.068C446.883 157.359 447.929 158.405 449.22 158.405Z" fill="#83DDD5"/>
<path d="M425.856 151.396C427.146 151.396 428.192 150.35 428.192 149.059C428.192 147.769 427.146 146.723 425.856 146.723C424.565 146.723 423.519 147.769 423.519 149.059C423.519 150.35 424.565 151.396 425.856 151.396Z" fill="#83DDD5"/>
<path d="M430.529 159.572C431.819 159.572 432.865 158.526 432.865 157.236C432.865 155.946 431.819 154.9 430.529 154.9C429.238 154.9 428.192 155.946 428.192 157.236C428.192 158.526 429.238 159.572 430.529 159.572Z" fill="#83DDD5"/>
<path d="M434.034 168.918C435.324 168.918 436.37 167.872 436.37 166.582C436.37 165.291 435.324 164.245 434.034 164.245C432.743 164.245 431.697 165.291 431.697 166.582C431.697 167.872 432.743 168.918 434.034 168.918Z" fill="#83DDD5"/>
<path d="M423.519 164.245C424.81 164.245 425.856 163.199 425.856 161.909C425.856 160.618 424.81 159.572 423.519 159.572C422.229 159.572 421.183 160.618 421.183 161.909C421.183 163.199 422.229 164.245 423.519 164.245Z" fill="#83DDD5"/>
<path d="M531.153 204.796L513.079 200.99C508.282 199.981 505.214 195.275 506.223 190.478L510.97 167.93C511.979 163.134 516.686 160.066 521.482 161.075L539.557 164.88C544.353 165.889 547.421 170.596 546.412 175.392L541.665 197.94C540.655 202.736 535.948 205.806 531.153 204.796Z" fill="#0EA89B"/>
<path d="M519.309 168.918C520.6 168.918 521.646 167.872 521.646 166.582C521.646 165.291 520.6 164.245 519.309 164.245C518.019 164.245 516.973 165.291 516.973 166.582C516.973 167.872 518.019 168.918 519.309 168.918Z" fill="#83DDD5"/>
<path d="M522.813 177.095C524.104 177.095 525.15 176.049 525.15 174.758C525.15 173.468 524.104 172.422 522.813 172.422C521.523 172.422 520.477 173.468 520.477 174.758C520.477 176.049 521.523 177.095 522.813 177.095Z" fill="#83DDD5"/>
<path d="M527.486 185.272C528.776 185.272 529.822 184.226 529.822 182.935C529.822 181.645 528.776 180.599 527.486 180.599C526.196 180.599 525.15 181.645 525.15 182.935C525.15 184.226 526.196 185.272 527.486 185.272Z" fill="#83DDD5"/>
<path d="M532.159 192.281C533.449 192.281 534.495 191.235 534.495 189.944C534.495 188.654 533.449 187.608 532.159 187.608C530.869 187.608 529.823 188.654 529.823 189.944C529.823 191.235 530.869 192.281 532.159 192.281Z" fill="#83DDD5"/>
<path d="M533.326 201.626C534.617 201.626 535.663 200.58 535.663 199.29C535.663 198 534.617 196.954 533.326 196.954C532.036 196.954 530.99 198 530.99 199.29C530.99 200.58 532.036 201.626 533.326 201.626Z" fill="#83DDD5"/>
<path d="M541.503 175.927C542.793 175.927 543.84 174.881 543.84 173.591C543.84 172.3 542.793 171.254 541.503 171.254C540.213 171.254 539.167 172.3 539.167 173.591C539.167 174.881 540.213 175.927 541.503 175.927Z" fill="#83DDD5"/>
<path d="M529.823 172.422C531.113 172.422 532.159 171.376 532.159 170.086C532.159 168.795 531.113 167.749 529.823 167.749C528.532 167.749 527.486 168.795 527.486 170.086C527.486 171.376 528.532 172.422 529.823 172.422Z" fill="#83DDD5"/>
<path d="M533.326 179.431C534.617 179.431 535.663 178.385 535.663 177.095C535.663 175.804 534.617 174.758 533.326 174.758C532.036 174.758 530.99 175.804 530.99 177.095C530.99 178.385 532.036 179.431 533.326 179.431Z" fill="#83DDD5"/>
<path d="M537.999 187.608C539.29 187.608 540.336 186.562 540.336 185.272C540.336 183.981 539.29 182.935 537.999 182.935C536.709 182.935 535.663 183.981 535.663 185.272C535.663 186.562 536.709 187.608 537.999 187.608Z" fill="#83DDD5"/>
<path d="M514.636 180.599C515.927 180.599 516.973 179.553 516.973 178.262C516.973 176.972 515.927 175.926 514.636 175.926C513.346 175.926 512.3 176.972 512.3 178.262C512.3 179.553 513.346 180.599 514.636 180.599Z" fill="#83DDD5"/>
<path d="M519.309 188.777C520.6 188.777 521.646 187.731 521.646 186.44C521.646 185.15 520.6 184.104 519.309 184.104C518.019 184.104 516.973 185.15 516.973 186.44C516.973 187.731 518.019 188.777 519.309 188.777Z" fill="#83DDD5"/>
<path d="M522.813 198.121C524.104 198.121 525.15 197.075 525.15 195.785C525.15 194.494 524.104 193.448 522.813 193.448C521.523 193.448 520.477 194.494 520.477 195.785C520.477 197.075 521.523 198.121 522.813 198.121Z" fill="#83DDD5"/>
<path d="M512.3 193.45C513.59 193.45 514.636 192.404 514.636 191.113C514.636 189.823 513.59 188.777 512.3 188.777C511.01 188.777 509.964 189.823 509.964 191.113C509.964 192.404 511.01 193.45 512.3 193.45Z" fill="#83DDD5"/>
<path d="M476.316 276.053C488.204 267.802 500.064 259.51 511.984 251.305C513.171 250.492 515.554 260.164 515.804 261.181" stroke="#E6434D" stroke-width="2.9204" stroke-miterlimit="10" stroke-linecap="round" stroke-linejoin="round"/>
<path d="M404.16 261.011C416.048 252.76 427.908 244.468 439.828 236.263C441.015 235.45 443.398 245.122 443.648 246.139" stroke="#E6434D" stroke-width="2.9204" stroke-miterlimit="10" stroke-linecap="round" stroke-linejoin="round"/>
<path d="M433.218 285.485C433.318 285.52 433.419 285.559 433.519 285.605Z" fill="#FFFDFF"/>
<path d="M435.028 274.954C421.603 272.075 409.003 266.938 400.075 257.813C399.64 265.318 398.515 272.878 399.795 280.363C401.32 289.28 408.545 303.385 419.893 300.598C425.087 299.321 426.551 291.097 429.316 287.37C430.705 285.498 432.022 285.078 433.217 285.484L433.519 285.604C435.743 286.628 437.518 290.423 438.502 292.742C441.401 299.582 444.655 307.272 451.558 310.955C458.987 314.918 468.038 313.484 475.669 310.782C479.993 309.25 478.826 307.411 478.826 302.861C478.826 295.453 478.826 288.046 478.826 280.638V278.56C465.789 278.561 449.901 278.142 435.028 274.954Z" fill="#FFFDFF"/>
<path d="M433.717 274.541C421.152 271.457 408.502 266.282 399.302 257.657L405.883 253.818C405.883 253.818 422.061 274.933 480.745 272.74L480.196 278.772C480.196 278.772 457.104 280.28 433.717 274.541Z" fill="#E6434D"/>
<path d="M429.271 284.878C427.204 286.696 425.531 287.688 424.382 290.269C423.325 292.644 422.764 295.404 420.59 297.077C418.618 298.594 415.868 298.862 413.485 298.151C411.101 297.439 409.058 295.848 407.415 293.982C403.767 289.84 401.933 284.347 401.327 278.861C400.721 273.374 401.255 267.832 401.834 262.342C410.086 269.705 420.436 274.69 431.338 276.55C431.374 276.556 430.798 282.275 430.583 282.898C430.274 283.802 429.808 284.404 429.271 284.878Z" fill="#0EA89B"/>
<path d="M438.677 286.843C438.707 287.076 438.741 287.249 438.779 287.344C439.804 289.902 441.435 292.409 442.661 294.894C445.112 299.856 447.834 305.25 452.757 308.191C458.811 311.809 466.521 310.314 473.3 308.371C474.258 308.096 475.299 307.754 475.834 306.913C476.256 306.248 476.271 305.412 476.271 304.625C476.271 296.735 476.271 288.845 476.271 280.955C463.856 281.233 451.41 280.231 439.199 277.969C438.482 277.969 438.412 284.782 438.677 286.843Z" fill="#0EA89B"/>
<path d="M464.398 282.118C465.815 281.912 467.269 282.024 468.682 282.353C470.096 282.683 471.481 283.289 472.66 284.237C473.842 285.186 474.674 286.591 474.965 288.054C475.334 289.523 475.045 291.012 474.635 292.356C474.567 290.928 474.573 289.541 474.086 288.295C473.654 287.058 472.943 285.944 471.913 285.134C470.908 284.3 469.693 283.703 468.419 283.222C467.139 282.755 465.794 282.396 464.398 282.118Z" fill="#FFFDFF"/>
<path d="M422.514 275.602C423.387 275.504 424.262 275.651 425.097 275.923C425.936 276.194 426.728 276.641 427.422 277.23C428.109 277.829 428.646 278.623 428.937 279.486C429.267 280.343 429.221 281.284 429.028 282.116C428.734 281.286 428.531 280.516 428.104 279.857C427.7 279.202 427.241 278.598 426.65 278.105C425.493 277.088 424.066 276.359 422.514 275.602Z" fill="#FFFDFF"/>
<path d="M560.998 262.75L567.098 270.205L518.866 309.67C516.807 311.354 513.774 311.051 512.089 308.992C510.404 306.932 510.708 303.899 512.767 302.214L560.998 262.75Z" fill="white"/>
<path d="M555.044 268.379L560.401 274.926L518.041 309.586C516.232 311.065 513.567 310.799 512.089 308.99C510.609 307.182 510.875 304.518 512.684 303.038L555.044 268.379Z" fill="#E6434D"/>
<path d="M562.591 259.134L558.526 262.461L566.844 272.626L570.91 269.299L562.591 259.134Z" fill="#E6434D"/>
<path d="M524.904 303.972L521.645 299.752L547.928 278.141L551.613 282.118L524.904 303.972Z" fill="white"/>
<path d="M523.398 300.336L530.406 294.494" stroke="black" stroke-width="0.2434" stroke-miterlimit="10" stroke-linecap="round" stroke-linejoin="round"/>
<path d="M524.565 301.504L531.574 295.663" stroke="black" stroke-width="0.2434" stroke-miterlimit="10" stroke-linecap="round" stroke-linejoin="round"/>
<path d="M542.088 287.485L549.097 281.645" stroke="black" stroke-width="0.2434" stroke-miterlimit="10" stroke-linecap="round" stroke-linejoin="round"/>
</svg>
