<svg width="33" height="33" viewBox="0 0 33 33" fill="none" xmlns="http://www.w3.org/2000/svg">
<path d="M8.17947 27.3616H18.8898V25.8506C18.8898 23.4035 17.7044 22.4566 16.3055 21.3368C15.3896 20.6046 14.3855 19.802 13.5352 18.4914C12.6837 19.8044 11.6808 20.6058 10.7578 21.3428C9.35653 22.4626 8.18066 23.4107 8.18066 25.8507V27.3617L8.17947 27.3616ZM20.0572 6.08625C20.0572 5.95985 20.1598 5.85728 20.2862 5.85728C20.4126 5.85728 20.5152 5.95985 20.5152 6.08625V8.38072H21.8818C22.0082 8.38072 22.1108 8.48328 22.1108 8.60969C22.1108 8.7361 22.0082 8.83866 21.8818 8.83866H20.2862C20.1598 8.83866 20.0572 8.7361 20.0572 8.60969V6.08625ZM20.2862 2.26062C22.0392 2.26062 23.6264 2.97138 24.7749 4.1198C25.9233 5.26822 26.6341 6.8555 26.6341 8.60853C26.6341 10.3616 25.9233 11.9487 24.7677 13.1034C23.6121 14.2518 22.0296 14.9566 20.286 14.9566C19.3058 14.9566 18.3768 14.7336 17.5479 14.3365C17.2462 14.6084 16.9242 14.8672 16.5891 15.1331C15.6601 15.8761 14.6369 16.6942 13.7997 18.0561C14.6357 19.4191 15.6589 20.2372 16.5879 20.979C18.0822 22.1728 19.3463 23.184 19.3463 25.8481V27.3591H19.5848C19.9831 27.3591 20.3457 27.5225 20.6152 27.792C20.8764 28.0603 21.0338 28.4181 21.0338 28.808C21.0338 29.2064 20.8704 29.5689 20.608 29.8324C20.3469 30.0948 19.9843 30.2582 19.5848 30.2582H7.48146C7.08314 30.2582 6.72061 30.0948 6.45109 29.8265C6.18992 29.5569 6.0325 29.2004 6.0325 28.8104C6.0325 28.4121 6.19589 28.0496 6.45824 27.786C6.7206 27.5236 7.08314 27.3591 7.48265 27.3591H7.72116V25.8481C7.72116 23.1923 8.97692 22.1785 10.4724 20.9836C11.4097 20.2347 12.4329 19.4154 13.2677 18.0559C12.4317 16.694 11.4097 15.8771 10.4807 15.1353C8.98645 13.9415 7.72232 12.9303 7.72232 10.2662V8.75522H7.48262C7.0843 8.75522 6.72176 8.59184 6.4582 8.32949C6.19584 8.06594 6.03247 7.7034 6.03247 7.30508C6.03247 6.90676 6.19585 6.54423 6.4582 6.28067C6.72057 6.0183 7.08311 5.85493 7.48262 5.85493H14.5651C14.8776 5.20738 15.2961 4.62063 15.7994 4.11858C16.9467 2.96896 18.5339 2.25818 20.2869 2.25818L20.2862 2.26062ZM17.1175 14.1109C16.6334 13.8318 16.1909 13.4896 15.7974 13.0984C14.6788 11.9786 13.9764 10.4498 13.9382 8.75623H8.17825V10.2672C8.17825 12.7155 9.36364 13.6624 10.7625 14.7822C11.6784 15.5144 12.6825 16.3158 13.5316 17.6264C14.3819 16.3158 15.386 15.512 16.3019 14.781C16.5845 14.5556 16.8588 14.3374 17.114 14.112L17.1175 14.1109ZM24.4507 4.44408C23.3857 3.37912 21.9118 2.71847 20.285 2.71847C18.6582 2.71847 17.1856 3.37796 16.1192 4.44408C15.0114 5.54958 14.3936 7.04146 14.3936 8.60981C14.3936 10.2376 15.0531 11.7104 16.118 12.7755C17.1842 13.8417 18.657 14.5012 20.2847 14.5012C21.9054 14.5012 23.3733 13.8465 24.4443 12.7815C25.5164 11.7094 26.1759 10.2366 26.1759 8.60996C26.1759 6.98333 25.5164 5.51062 24.4503 4.44423L24.4507 4.44408Z" fill="#AFCB1E"/>
</svg>
