<svg width="32" height="33" viewBox="0 0 32 33" fill="none" xmlns="http://www.w3.org/2000/svg">
<path d="M29.7349 23.8163C29.7075 23.8163 29.68 23.8121 29.6525 23.8036L25.9693 22.5983C25.8298 22.5538 25.7558 22.4034 25.8002 22.2657C25.8446 22.1259 25.9946 22.0518 26.132 22.0963L29.8152 23.3016C29.9547 23.3461 30.0287 23.4965 29.9843 23.6342C29.9484 23.7464 29.8469 23.8163 29.7349 23.8163Z" fill="#AFCB1E"/>
<path d="M29.735 30.1757C29.7075 30.1757 29.68 30.1714 29.6526 30.163L23.6258 28.1548C23.4885 28.1082 23.4124 27.9599 23.4589 27.8201C23.5054 27.6824 23.6533 27.6061 23.7927 27.6527L29.8195 29.6609C29.9569 29.7075 30.0329 29.8558 29.9865 29.9956C29.9484 30.1058 29.8449 30.1757 29.735 30.1757Z" fill="#AFCB1E"/>
<path d="M20.6778 9.9773C20.6503 9.9773 20.6207 9.97307 20.5911 9.96248L17.2354 8.80587C17.0981 8.75927 17.0241 8.60887 17.0727 8.46906C17.1192 8.33136 17.2692 8.25722 17.4087 8.30594L20.7644 9.46255C20.9018 9.50915 20.9757 9.65955 20.9271 9.79936C20.8891 9.90952 20.7877 9.9773 20.6778 9.9773Z" fill="#AFCB1E"/>
<path d="M20.6778 16.5632C20.6482 16.5632 20.6186 16.5589 20.589 16.5483L19.1267 16.0315C18.9894 15.9827 18.9175 15.8323 18.9661 15.6947C19.0147 15.557 19.1648 15.4849 19.3021 15.5337L20.7644 16.0505C20.9018 16.0993 20.9736 16.2497 20.925 16.3873C20.887 16.4954 20.7856 16.5632 20.6778 16.5632Z" fill="#AFCB1E"/>
<path d="M19.2894 19.1138C19.1922 19.1138 19.0993 19.0587 19.0549 18.9697C19.038 18.9358 17.2819 15.5211 15.0166 14.5806C14.8814 14.5255 14.818 14.3708 14.8729 14.2353C14.9278 14.0997 15.0821 14.0361 15.2174 14.0912C16.2507 14.5191 17.2904 15.4321 18.3089 16.8048C18.5815 17.1713 18.814 17.5208 18.9999 17.8174L18.8541 12.1508C18.8499 12.0047 18.9661 11.8839 19.1119 11.8797C19.2577 11.8755 19.3782 11.992 19.3824 12.1381L19.5536 18.8405C19.5557 18.9634 19.4733 19.0735 19.3549 19.1032C19.3317 19.1117 19.3106 19.1138 19.2894 19.1138Z" fill="#AFCB1E"/>
<path d="M19.0781 10.9242C18.9366 10.9242 18.8182 10.8099 18.814 10.6658L18.7781 9.25289C18.7738 9.10672 18.8901 8.98598 19.0359 8.98174C19.1817 8.9775 19.3021 9.09401 19.3064 9.24018L19.3423 10.6531C19.3465 10.7993 19.2303 10.92 19.0845 10.9242C19.0845 10.9242 19.0824 10.9242 19.0781 10.9242Z" fill="#AFCB1E"/>
<path d="M13.4994 14.9851C13.1465 14.9851 12.7894 14.9258 12.4386 14.8029L7.59523 13.0892C7.45787 13.0405 7.38603 12.8901 7.43463 12.7524C7.48323 12.6147 7.63327 12.5427 7.77062 12.5914L12.614 14.3051C14.0045 14.7966 15.5344 14.0636 16.0247 12.6698C16.4008 11.5937 16.9714 9.95618 17.0115 9.82061C17.4384 7.96919 16.0416 5.84663 14.4398 4.86161C13.4212 4.2367 12.3245 3.49317 11.5828 2.98053C11.4433 2.88521 11.2764 2.8492 11.1094 2.88097C10.9425 2.91275 10.7988 3.00807 10.7037 3.15C10.522 3.42326 10.6002 3.81515 10.877 4.02487C11.4222 4.43582 12.0223 4.94846 12.4851 5.39543C12.7324 5.6348 12.9225 5.83816 13.0514 6.00339C13.2036 6.19615 13.3431 6.42282 13.2332 6.62617C13.0853 6.90368 12.7239 6.77446 12.6056 6.73421L10.1395 5.86146C10.0021 5.81274 9.93028 5.66234 9.97889 5.52464C10.0275 5.38695 10.1775 5.31493 10.3149 5.36365L12.4576 6.12201C12.3456 5.99915 12.1956 5.84663 11.997 5.66022C11.5701 5.25774 11.0334 4.80441 10.56 4.44853C10.0528 4.06724 9.92394 3.36819 10.2642 2.85767C10.4374 2.59712 10.7016 2.4213 11.008 2.36198C11.3144 2.30267 11.6229 2.36834 11.8786 2.54628C12.614 3.05468 13.7044 3.79185 14.7124 4.41041C15.5872 4.94846 16.3945 5.79367 16.9291 6.72997C17.3644 7.49257 17.8188 8.66824 17.5208 9.94559C17.4997 10.0303 17.1616 11.0048 16.5192 12.8456C16.0564 14.1611 14.8181 14.9851 13.4994 14.9851ZM17.0094 9.82273C17.0094 9.82485 17.0094 9.82697 17.0073 9.82908V9.82697C17.0094 9.82485 17.0094 9.82273 17.0094 9.82273Z" fill="#AFCB1E"/>
<path d="M10.1902 7.90134C10.1607 7.90134 10.1311 7.8971 10.1015 7.88651L4.73614 5.98849C4.10219 5.76395 3.76831 5.0649 3.99231 4.4294C4.10008 4.12224 4.32196 3.8744 4.61569 3.73459C4.90942 3.59478 5.24119 3.57571 5.5476 3.68375L10.9129 5.58177C11.0503 5.63049 11.1222 5.78089 11.0735 5.91858C11.0249 6.05627 10.8749 6.1283 10.7376 6.07958L5.37221 4.18155C5.19893 4.12012 5.01086 4.13072 4.84392 4.20909C4.67698 4.28959 4.5523 4.4294 4.49102 4.6031C4.36423 4.96322 4.55441 5.36146 4.91365 5.48856L10.279 7.38658C10.4164 7.43531 10.4882 7.58571 10.4396 7.7234C10.3994 7.83355 10.298 7.90134 10.1902 7.90134Z" fill="#AFCB1E"/>
<path d="M9.55406 9.70622C9.52447 9.70622 9.49489 9.70198 9.4653 9.69139L2.81304 7.33793C2.50663 7.22989 2.25938 7.00747 2.11992 6.71302C1.98045 6.41857 1.96143 6.086 2.0692 5.77884C2.2932 5.14334 2.99054 4.80864 3.62449 5.03319L10.2768 7.38665C10.4141 7.43537 10.486 7.58577 10.4374 7.72346C10.3888 7.86115 10.2387 7.93318 10.1014 7.88446L3.4491 5.53311C3.08986 5.40601 2.69258 5.59666 2.56579 5.95678C2.50451 6.13048 2.51508 6.31901 2.59327 6.48636C2.67357 6.65371 2.81304 6.77869 2.98632 6.84012L9.63858 9.19358C9.77594 9.2423 9.84779 9.3927 9.79918 9.5304C9.76537 9.63843 9.66183 9.70622 9.55406 9.70622Z" fill="#AFCB1E"/>
<path d="M8.91801 11.5132C8.88843 11.5132 8.85884 11.5089 8.82926 11.4983L3.46391 9.6003C3.1575 9.49227 2.91026 9.26984 2.77079 8.9754C2.63132 8.68095 2.61231 8.34837 2.72008 8.04121C2.82785 7.73406 3.04973 7.48621 3.34346 7.3464C3.63719 7.20659 3.96896 7.18753 4.27537 7.29556L9.64072 9.19358C9.77807 9.24231 9.84992 9.39271 9.80132 9.5304C9.75272 9.66809 9.60268 9.74011 9.46532 9.69139L4.09998 7.79337C3.9267 7.73194 3.73863 7.74253 3.57169 7.82091C3.40475 7.90141 3.28007 8.04121 3.21879 8.21492C3.1575 8.38862 3.16807 8.57715 3.24626 8.7445C3.32656 8.91185 3.46603 9.03683 3.63931 9.09826L9.00465 10.9963C9.14201 11.045 9.21386 11.1954 9.16525 11.3331C9.12933 11.4454 9.0279 11.5132 8.91801 11.5132Z" fill="#AFCB1E"/>
<path d="M8.28405 13.3179C8.25447 13.3179 8.22488 13.3137 8.1953 13.3031L4.37468 11.9516C4.06827 11.8435 3.82103 11.6211 3.68156 11.3267C3.54209 11.0322 3.52307 10.6996 3.63084 10.3925C3.85484 9.75699 4.55219 9.42229 5.18614 9.64684L9.00676 10.9983C9.14411 11.047 9.21596 11.1974 9.16736 11.3351C9.11875 11.4728 8.96872 11.5449 8.83136 11.4961L5.01075 10.1446C4.65151 10.0175 4.25423 10.2082 4.12744 10.5683C4.06616 10.742 4.07672 10.9305 4.15491 11.0979C4.23521 11.2652 4.37468 11.3902 4.54796 11.4516L8.37069 12.8053C8.50805 12.854 8.57989 13.0044 8.53129 13.1421C8.49325 13.2501 8.39182 13.3179 8.28405 13.3179Z" fill="#AFCB1E"/>
<path d="M15.2535 10.6192C15.2281 10.6192 15.2006 10.615 15.1753 10.6065C14.4314 10.3735 13.8397 9.82907 13.4235 8.99233C13.098 8.34201 12.8698 7.49256 12.7451 6.47152C12.7282 6.32748 12.8297 6.19402 12.9755 6.17708C13.1192 6.16013 13.2523 6.26181 13.2692 6.40797C13.3875 7.36969 13.5988 8.15983 13.8968 8.7572C14.2539 9.47108 14.7252 9.91169 15.3359 10.1045C15.4753 10.1489 15.5514 10.2972 15.5092 10.4349C15.4711 10.5472 15.3655 10.6192 15.2535 10.6192Z" fill="#AFCB1E"/>
<path d="M10.2156 12.4452C10.186 12.4452 10.1564 12.4409 10.1268 12.4303C9.98949 12.3816 9.91764 12.2312 9.96624 12.0935L11.5723 7.53065C11.6209 7.39296 11.7709 7.32094 11.9083 7.36966C12.0456 7.41838 12.1175 7.56878 12.0689 7.70648L10.4628 12.2672C10.4248 12.3774 10.3234 12.4452 10.2156 12.4452Z" fill="#AFCB1E"/>
<path d="M11.4369 12.8308C11.4073 12.8308 11.3777 12.8265 11.3482 12.8159C11.2108 12.7672 11.139 12.6168 11.1876 12.4791L12.1829 9.65328C12.2315 9.51558 12.3815 9.44356 12.5189 9.49228C12.6562 9.541 12.7281 9.69141 12.6795 9.8291L11.6842 12.6549C11.6482 12.763 11.5447 12.8308 11.4369 12.8308Z" fill="#AFCB1E"/>
<path d="M21.3541 20.3593C21.3245 20.3593 21.295 20.3551 21.2675 20.3445L18.8014 19.4717C18.664 19.423 18.5922 19.2726 18.6408 19.1349C18.6894 18.9972 18.8394 18.9252 18.9768 18.9739L21.4429 19.8467C21.5802 19.8954 21.6521 20.0458 21.6035 20.1835C21.5633 20.2915 21.4619 20.3593 21.3541 20.3593Z" fill="#AFCB1E"/>
<path d="M22.1614 28.5953C21.8085 28.5953 21.4514 28.536 21.1006 28.4131L17.037 27.0193C16.8996 26.9727 16.8257 26.8223 16.8722 26.6846C16.9187 26.5469 17.0687 26.4727 17.2061 26.5193L21.2697 27.9132H21.2718C22.6602 28.4046 24.188 27.6738 24.6803 26.2821C25.0544 25.0513 25.6186 23.1914 25.6503 23.0749C25.8975 22.0094 25.6355 21.2786 25.2361 20.1707L25.2108 20.1029C24.841 19.0755 24.0696 17.3766 23.0743 17.5546C22.489 17.6584 21.9713 17.7558 21.5169 17.8405C21.0499 17.9274 20.6104 18.0121 20.1835 18.0842C20.0166 18.1138 19.8729 18.2049 19.7757 18.3447C19.6785 18.4845 19.6425 18.654 19.6742 18.8213C19.7334 19.1433 20.0631 19.37 20.4096 19.3255C20.9548 19.2535 21.593 19.2026 22.1593 19.1857C22.7447 19.1687 22.9349 19.4462 22.9898 19.567C23.0807 19.7661 23.0342 20.0012 22.8694 20.1792C22.6221 20.4482 22.0706 20.6325 21.2655 20.3402C21.1281 20.2915 21.0584 20.1389 21.107 20.0012C21.1556 19.8636 21.3077 19.7936 21.4451 19.8424C22.0452 20.0606 22.3453 19.9186 22.4235 19.8678C22.4826 19.8297 22.5038 19.7958 22.508 19.7831C22.489 19.7619 22.3981 19.7068 22.1762 19.7131C21.6268 19.7301 21.0077 19.7788 20.4794 19.8487C19.8517 19.9313 19.2706 19.5225 19.1586 18.9188C19.1016 18.6116 19.1671 18.3002 19.3467 18.0439C19.5242 17.7876 19.7905 17.6181 20.099 17.5652C20.5216 17.4931 20.9612 17.4105 21.4261 17.3216C21.8825 17.2347 22.4002 17.1373 22.9877 17.0335C24.0232 16.8492 24.9656 17.849 25.7137 19.9229L25.739 19.9906C26.1384 21.1007 26.4554 21.9755 26.1701 23.1957C26.1406 23.3164 25.477 25.5004 25.1896 26.441C25.1875 26.4452 25.1875 26.4473 25.1854 26.4515C24.7184 27.7713 23.4801 28.5953 22.1614 28.5953ZM25.6524 23.0771C25.6524 23.0792 25.6524 23.0792 25.6524 23.0813C25.6503 23.0813 25.6524 23.0792 25.6524 23.0771Z" fill="#AFCB1E"/>
<path d="M18.8351 21.4948C18.8055 21.4948 18.7759 21.4905 18.7463 21.4799L16.8508 20.8C16.5444 20.6919 16.2993 20.4695 16.1577 20.175C16.0161 19.8806 15.9992 19.548 16.107 19.2409C16.2147 18.9337 16.4366 18.6859 16.7304 18.5461C17.0241 18.4041 17.3559 18.3872 17.6623 18.4952L19.5599 19.1752C19.6973 19.2239 19.7691 19.3764 19.7184 19.5141C19.6698 19.6518 19.5176 19.7238 19.3803 19.673L17.4827 18.993C17.3094 18.9316 17.1213 18.9422 16.9544 19.0227C16.7874 19.1032 16.6627 19.243 16.6015 19.4167C16.5402 19.5904 16.5507 19.7789 16.6289 19.9463C16.7092 20.1136 16.8487 20.2386 17.022 20.3L18.9196 20.98C19.057 21.0287 19.1288 21.1812 19.0781 21.3189C19.0443 21.427 18.9429 21.4948 18.8351 21.4948Z" fill="#AFCB1E"/>
<path d="M18.309 23.3864C18.2794 23.3864 18.2498 23.3821 18.2202 23.3715L15.4816 22.4013C15.1751 22.2933 14.9279 22.0709 14.7884 21.7764C14.6468 21.482 14.6299 21.1494 14.7377 20.8422C14.8455 20.5351 15.0674 20.2872 15.3611 20.1474C15.6548 20.0055 15.9866 19.9886 16.293 20.0966L19.0338 21.0668C19.1712 21.1155 19.243 21.2659 19.1944 21.4036C19.1458 21.5413 18.9958 21.6133 18.8584 21.5646L16.1176 20.5944C15.9443 20.533 15.7563 20.5436 15.5893 20.6219C15.4224 20.7024 15.2977 20.8422 15.2364 21.0159C15.1751 21.1896 15.1857 21.3782 15.2639 21.5455C15.3442 21.7129 15.4837 21.8379 15.6569 21.8993L18.3977 22.8695C18.5351 22.9182 18.6069 23.0686 18.5583 23.2063C18.5203 23.3186 18.4189 23.3864 18.309 23.3864Z" fill="#AFCB1E"/>
<path d="M17.675 25.1933C17.6455 25.1933 17.6159 25.1891 17.5863 25.1785L15.9422 24.5917C15.6358 24.4837 15.3886 24.2613 15.2491 23.9668C15.1075 23.6724 15.0906 23.3398 15.1984 23.0326C15.4224 22.3971 16.1198 22.0624 16.7537 22.287L18.3978 22.8737C18.5351 22.9225 18.607 23.0729 18.5584 23.2106C18.5098 23.3483 18.3597 23.4203 18.2224 23.3716L16.5783 22.7848C16.2191 22.6577 15.8239 22.8483 15.6971 23.2084C15.6358 23.3821 15.6464 23.5707 15.7246 23.738C15.8028 23.9054 15.9444 24.0304 16.1176 24.0918L17.7617 24.6786C17.899 24.7273 17.9709 24.8777 17.9223 25.0154C17.8843 25.1255 17.7828 25.1933 17.675 25.1933Z" fill="#AFCB1E"/>
<path d="M17.1235 27.0341C17.0939 27.0341 17.0622 27.0299 17.0326 27.0171L15.9739 26.6295C15.3399 26.4049 15.0082 25.7059 15.2322 25.0704C15.4562 24.4349 16.1535 24.1002 16.7875 24.3248L17.9032 24.7188C18.0406 24.7675 18.1124 24.9179 18.0638 25.0556C18.0152 25.1933 17.8652 25.2653 17.7278 25.2166L16.61 24.8226C16.2507 24.6955 15.8534 24.8861 15.7267 25.2462C15.5999 25.6063 15.7901 26.0046 16.1493 26.1317H16.1514L17.2101 26.5193C17.3475 26.5702 17.4172 26.7206 17.3665 26.8583C17.3327 26.9684 17.2312 27.0341 17.1235 27.0341Z" fill="#AFCB1E"/>
<path d="M26.6053 29.1037C26.5778 29.1037 26.5503 29.0995 26.5228 29.091C26.3834 29.0465 26.3094 28.8961 26.3538 28.7584L26.6222 27.9323C26.6665 27.7925 26.8166 27.7183 26.9539 27.7628C27.0934 27.8073 27.1674 27.9577 27.123 28.0954L26.8546 28.9215C26.8208 29.0338 26.7173 29.1037 26.6053 29.1037Z" fill="#AFCB1E"/>
<path d="M27.347 26.8202C27.3195 26.8202 27.292 26.816 27.2645 26.8075C27.1251 26.763 27.0511 26.6126 27.0955 26.4749L28.1922 23.092C28.2366 22.9521 28.3866 22.878 28.524 22.9225C28.6635 22.967 28.7374 23.1174 28.6931 23.2551L27.5963 26.638C27.5604 26.7482 27.4568 26.8202 27.347 26.8202Z" fill="#AFCB1E"/>
</svg>
