<svg width="32" height="33" viewBox="0 0 32 33" fill="none" xmlns="http://www.w3.org/2000/svg">
<path d="M28.6416 21.6412C28.2496 21.4452 27.7824 21.4771 27.4224 21.7233L25.2824 20.7137H25.2847C25.5695 19.9639 25.761 19.1799 25.8499 18.3823L26.7318 18.4552H26.7295C26.8754 18.6899 27.1284 18.8358 27.4064 18.8449C27.9762 18.8449 28.3887 18.2067 28.3887 17.3293C28.3887 16.4519 27.9762 15.8138 27.4064 15.8138V15.8161C27.1307 15.8229 26.8754 15.971 26.7295 16.2058L25.8521 16.2764C25.7701 15.5198 25.5969 14.7768 25.3371 14.0612L26.5951 13.4664C26.9551 13.7125 27.4223 13.7467 27.8143 13.553C28.5094 13.1496 28.5254 11.9645 27.8508 10.7977C27.5203 10.1368 26.9505 9.62628 26.26 9.36648C25.9888 9.28444 25.6948 9.31635 25.4487 9.45081C25.0818 9.69238 24.8767 10.114 24.9108 10.5493L23.7918 11.3241C23.2563 10.6609 22.6341 10.073 21.9413 9.57385L22.9759 8.07883V8.08111C23.254 8.07199 23.5069 7.92614 23.6505 7.68912C23.9354 7.19685 23.5889 6.52227 22.8301 6.08243C22.5475 5.91378 22.2284 5.81123 21.8979 5.7816C21.5584 5.73374 21.2188 5.88644 21.0296 6.17359C20.8974 6.41745 20.8974 6.71144 21.0273 6.95526L20.2502 8.60297V8.60069C19.4662 8.24972 18.6367 8.00816 17.7843 7.88051L18.0487 4.67851C18.443 4.49163 18.705 4.1042 18.7324 3.6689C18.7324 2.86441 17.716 2.25818 16.3668 2.25818C15.0176 2.25818 13.9989 2.86441 13.9989 3.6689C14.0263 4.10418 14.2861 4.49164 14.6804 4.67851L14.9447 7.88051C14.1676 7.99674 13.4087 8.20869 12.684 8.51177L12.586 8.30439C12.7159 8.06053 12.7159 7.76654 12.586 7.52271C12.3011 7.03045 11.5421 6.99399 10.7856 7.43155C10.3708 7.6435 10.054 8.00358 9.89451 8.43889C9.83525 8.63944 9.86032 8.85595 9.96288 9.03824C10.1065 9.27298 10.3617 9.42112 10.6374 9.43023L10.7559 9.60116V9.59888C10.1019 10.0752 9.51161 10.629 8.99884 11.2534L8.17382 10.6814L8.17154 10.6791C8.20573 10.2438 8.00062 9.82451 7.63598 9.58291C6.93861 9.18181 5.90391 9.76067 5.22936 10.9275C4.55708 12.0966 4.57301 13.2818 5.2681 13.6829C5.66009 13.8766 6.12731 13.8447 6.48734 13.5985L7.40576 14.0315C7.13912 14.7563 6.96136 15.5129 6.87932 16.2809L6.02472 16.2103C5.87886 15.9756 5.6259 15.8297 5.34783 15.8206C4.78036 15.8206 4.36785 16.4587 4.36785 17.3361C4.36785 18.2135 4.78035 18.8517 5.34783 18.8517C5.62587 18.8426 5.87884 18.6967 6.02472 18.462L6.88392 18.3913C6.97508 19.2186 7.17564 20.0322 7.481 20.8071L4.57754 22.1768V22.179C4.21745 21.9329 3.75024 21.8987 3.3583 22.0924C2.66321 22.4958 2.64722 23.6809 3.32184 24.85C3.65457 25.5087 4.22206 26.0192 4.91487 26.279C5.18607 26.361 5.47778 26.3291 5.72618 26.1924C6.09082 25.9531 6.29593 25.5315 6.26174 25.0962L8.90308 23.2661C9.42041 23.9134 10.0198 24.4923 10.6853 24.9868L10.3138 25.5223C10.0357 25.5292 9.78277 25.6773 9.63923 25.9143C9.35435 26.4066 9.70076 27.0812 10.4596 27.521C11.2186 27.9586 11.9752 27.9221 12.2623 27.4299L12.26 27.4276C12.3922 27.1837 12.3922 26.892 12.2623 26.6482L12.5381 26.0625V26.0602C13.3129 26.4021 14.1288 26.6345 14.9652 26.7576L14.8763 27.8356V27.8378C14.4821 28.0247 14.22 28.4122 14.1926 28.8475C14.1926 29.6519 15.2113 30.2582 16.5605 30.2582C17.9097 30.2582 18.9261 29.6519 18.9261 28.8475C18.8988 28.4122 18.639 28.0247 18.2447 27.8378L18.1512 26.6938C18.9079 26.5502 19.644 26.3155 20.3413 25.9942L20.4507 26.2266C20.3231 26.4705 20.3231 26.7622 20.453 27.0083C20.7379 27.4983 21.4968 27.537 22.2557 27.0995V27.0972C22.6682 26.8875 22.985 26.5274 23.1422 26.0898C23.2037 25.8893 23.1787 25.6751 23.0761 25.4928C22.9302 25.2557 22.6773 25.1076 22.4015 25.1008L22.2261 24.8501V24.8478C22.8095 24.3943 23.3359 23.8747 23.8008 23.2981L25.738 24.6405C25.7038 25.078 25.9089 25.4974 26.2735 25.7412C26.9709 26.1423 28.0056 25.5634 28.6802 24.3966C29.3524 23.2252 29.3367 22.0401 28.6416 21.6412ZM27.9237 23.959C27.4383 24.7977 26.8457 25.062 26.7113 24.9845C26.6589 24.9526 26.586 24.7863 26.6224 24.4695L26.6201 24.4672C26.6384 24.3077 26.5677 24.1527 26.4355 24.0616L23.956 22.3432L22.1419 21.0852C21.8798 20.9029 21.5517 20.8414 21.244 20.9234C21.13 20.953 21.0343 21.026 20.975 21.1262C20.9158 21.2265 20.8998 21.345 20.9295 21.4567C20.9591 21.5706 21.0297 21.6664 21.13 21.7256C21.2326 21.7849 21.3511 21.8008 21.4627 21.7712C21.5243 21.753 21.5926 21.7644 21.6428 21.8054L23.0785 22.799C22.6774 23.289 22.2239 23.7357 21.7271 24.1276L21.5562 23.8792H21.5539C21.5995 23.6491 21.4536 23.4257 21.2234 23.3733C20.9955 23.3209 20.7653 23.4576 20.7038 23.6832C20.64 23.9134 20.6833 24.1596 20.82 24.3532L21.2485 24.9709L21.2553 24.9777C21.2599 24.9845 21.2644 24.9914 21.269 24.9982L21.816 25.7868L21.8137 25.789C21.9071 25.9212 22.0621 25.9919 22.2239 25.9736L22.2444 25.9714H22.2421C22.0074 26.2722 21.6633 26.4705 21.285 26.5252L21.2964 26.5069H21.2986C21.3921 26.377 21.4103 26.2061 21.3419 26.0625L20.9454 25.2216L20.6241 24.5401L20.6218 24.5379C20.5238 24.3259 20.3369 24.1664 20.109 24.1048C19.8834 24.0433 19.6487 24.1709 19.578 24.3943C19.5051 24.6176 19.6236 24.8569 19.8446 24.939L19.97 25.2033C19.3637 25.4814 18.7302 25.6865 18.0784 25.8164L17.8346 22.8742C17.8254 22.8081 17.8505 22.742 17.9006 22.6964C17.9964 22.6007 18.1559 22.505 18.5319 22.6166H18.5296C18.7621 22.6873 19.0037 22.5551 19.0743 22.3249C19.1427 22.0925 19.0128 21.8486 18.7803 21.7803C18.2653 21.5751 17.6796 21.6937 17.2807 22.0788C17.0506 22.3067 16.9343 22.6235 16.9617 22.9448L17.2443 26.3656L17.3924 28.1524L17.3947 28.1501C17.4061 28.3096 17.5064 28.4509 17.6522 28.5147C17.9439 28.6423 18.051 28.7882 18.051 28.8474C18.051 29.0024 17.5292 29.383 16.5606 29.383C15.5897 29.383 15.0678 29.0024 15.0678 28.8474C15.0678 28.7859 15.1772 28.6423 15.4666 28.5147C15.6148 28.4509 15.7128 28.3096 15.7265 28.1501L15.87 26.4112L15.8723 26.4135L16.1595 22.9426L16.1572 22.9403C16.1868 22.6235 16.0751 22.3113 15.8495 22.0857C15.4803 21.7142 14.9288 21.5889 14.4343 21.7621C14.3226 21.7917 14.2269 21.8646 14.1676 21.9649C14.1084 22.0652 14.0924 22.186 14.1243 22.2976C14.1539 22.4093 14.2269 22.505 14.3271 22.5643C14.4274 22.6212 14.5482 22.6372 14.6599 22.6076C14.9949 22.5187 15.1339 22.603 15.2228 22.6942C15.2706 22.7398 15.2957 22.8058 15.2866 22.8719L15.0382 25.8848C14.3044 25.7731 13.591 25.5657 12.9119 25.2695L13.1899 24.6792C13.2925 24.4627 13.1991 24.2006 12.9826 24.0981C12.7638 23.9955 12.504 24.089 12.3991 24.3055L11.9319 25.2923L11.3713 26.4819V26.4842C11.3029 26.6278 11.3189 26.7987 11.4146 26.9286L11.426 26.9468H11.4283C11.05 26.8921 10.7058 26.6939 10.4711 26.393L10.4939 26.3953C10.6534 26.4135 10.8084 26.3429 10.8996 26.2107L11.6517 25.1282L12.2738 24.2302H12.2715C12.4106 24.032 12.3604 23.7608 12.1621 23.6217C11.9639 23.485 11.6904 23.5351 11.5536 23.7334L11.1844 24.2667C10.6033 23.8337 10.0791 23.33 9.62331 22.7648L10.3549 22.2589C10.4096 22.2201 10.4779 22.2065 10.544 22.227C10.6557 22.2566 10.7742 22.2407 10.8745 22.1814C10.9748 22.1244 11.0477 22.0287 11.0773 21.9148C11.1069 21.8031 11.091 21.6846 11.0317 21.5843C10.9725 21.484 10.8768 21.4111 10.7651 21.3815C10.4529 21.2971 10.1224 21.3564 9.85804 21.541L8.7482 22.309L8.73452 22.3204L5.56444 24.5151C5.43226 24.6062 5.3616 24.7635 5.37983 24.923C5.41402 25.2398 5.34337 25.4062 5.28867 25.4358C5.24082 25.4517 5.1884 25.4517 5.14054 25.4335C4.6779 25.2284 4.30187 24.866 4.07853 24.4125C3.59311 23.5716 3.66148 22.9289 3.79593 22.8514C3.84835 22.8218 4.03067 22.8423 4.2882 23.0314C4.41582 23.1249 4.58675 23.1408 4.7326 23.0725L8.23314 21.4202L8.24682 21.4134L9.4615 20.8413H9.45922C9.74638 20.7069 9.95833 20.4539 10.0449 20.1508C10.111 19.9183 9.97655 19.6768 9.7441 19.6084C9.51392 19.5423 9.27007 19.6768 9.20398 19.9092C9.18802 19.973 9.14472 20.0255 9.08547 20.0505L8.27416 20.4334C7.95966 19.6198 7.77279 18.7629 7.71581 17.8923C7.70897 17.7738 7.65428 17.6644 7.5654 17.5892C7.47652 17.5117 7.36029 17.4752 7.24406 17.4844L5.72395 17.6097C5.56442 17.6234 5.4254 17.7214 5.35931 17.8672L5.3502 17.89C5.20662 17.5345 5.20662 17.1379 5.3502 16.7847L5.35931 16.8075V16.8052C5.4254 16.9511 5.56442 17.0514 5.72395 17.0628L7.24178 17.1881V17.1904C7.35801 17.1995 7.47424 17.1608 7.56312 17.0833C7.652 17.0081 7.7067 16.8987 7.71353 16.7802C7.77279 15.8162 7.99157 14.8681 8.36533 13.977C8.45421 13.7628 8.3585 13.5144 8.14655 13.4141L6.64015 12.703C6.49658 12.6346 6.32565 12.6529 6.19575 12.7463C5.93822 12.9332 5.76046 12.956 5.70576 12.9263C5.5713 12.8489 5.50293 12.2062 5.98608 11.3652C6.47151 10.5265 7.06407 10.2622 7.19622 10.3397C7.24864 10.3716 7.32156 10.5379 7.28738 10.8547L7.28966 10.8525C7.27143 11.012 7.34208 11.1692 7.47426 11.2604L8.83708 12.2062C9.03079 12.3406 9.29516 12.2973 9.43643 12.1105C9.9492 11.4268 10.5623 10.8251 11.2528 10.3215L11.7109 10.9915V10.9892C11.6653 11.2194 11.8112 11.445 12.0413 11.4974C12.2692 11.5498 12.4994 11.4131 12.5609 11.1852C12.6225 10.9573 12.5815 10.7134 12.447 10.5197L11.7177 9.45089L11.7086 9.43949L11.2255 8.74212H11.2232C11.132 8.60994 10.977 8.53929 10.8175 8.55525L10.7947 8.55753H10.797C11.0317 8.25898 11.3759 8.06071 11.7519 8.00601L11.7405 8.02424C11.6448 8.15187 11.6288 8.32279 11.6972 8.46865L12.0755 9.27313L12.5085 10.1847V10.187C12.6042 10.399 12.7911 10.5562 13.0145 10.62C13.2401 10.6861 13.4771 10.563 13.5523 10.3397C13.6252 10.1141 13.509 9.87251 13.2879 9.79046L13.0578 9.30504C13.689 9.04523 14.3477 8.85835 15.0223 8.75352L15.1795 10.4787C15.1864 10.5425 15.1613 10.6086 15.1134 10.6496C15.0177 10.7453 14.8582 10.8411 14.4822 10.7294C14.2497 10.661 14.0059 10.7932 13.9375 11.0234C13.8691 11.2558 13.999 11.4974 14.2315 11.5681C14.4092 11.6228 14.5961 11.6524 14.7853 11.6547C15.1408 11.6615 15.4826 11.5225 15.7333 11.2695C15.9635 11.0416 16.0797 10.7226 16.0501 10.3989L15.8518 8.22475L15.5328 4.36639C15.5191 4.20686 15.4188 4.06556 15.273 4.00175C14.9813 3.87413 14.8742 3.72827 14.8742 3.66902C14.8742 3.51405 15.3983 3.13346 16.3669 3.13346C17.3355 3.13346 17.8574 3.51405 17.8574 3.66902C17.8574 3.73056 17.748 3.87413 17.4586 4.00175C17.3104 4.06556 17.2124 4.20686 17.1988 4.36639L16.8797 8.22702V8.25893L16.8546 10.2667L16.8523 10.2644C16.8364 10.5698 16.9481 10.8684 17.16 11.0917C17.4061 11.347 17.748 11.4883 18.1035 11.4837C18.263 11.4814 18.4226 11.4587 18.5775 11.4154C18.81 11.3538 18.949 11.1145 18.8875 10.8821C18.826 10.6473 18.5867 10.5083 18.3519 10.5721C18.0169 10.661 17.8802 10.5767 17.7867 10.481C17.7389 10.424 17.7161 10.3511 17.7275 10.2759L17.7457 8.7603C18.4818 8.8788 19.1997 9.09076 19.8788 9.39384L19.48 10.2553C19.4321 10.3602 19.4276 10.4809 19.4663 10.5903C19.5074 10.6974 19.5871 10.7863 19.6942 10.8365C19.7991 10.8843 19.9198 10.8889 20.027 10.8501C20.1363 10.8091 20.2252 10.7271 20.2731 10.6222L20.8542 9.36882L21.9185 7.11943C21.9869 6.97586 21.9709 6.80493 21.8752 6.67503L21.8615 6.6568C22.2399 6.71149 22.5817 6.90976 22.8187 7.20831L22.7959 7.20603V7.20831C22.6364 7.19008 22.4814 7.26073 22.3903 7.39291L20.9727 9.43717L20.959 9.45996L20.501 10.2166C20.4394 10.3169 20.4212 10.4354 20.4508 10.5471C20.4782 10.661 20.5488 10.7567 20.6491 10.8183C20.8542 10.9436 21.1231 10.8752 21.2484 10.6701L21.4649 10.31C22.062 10.7453 22.6021 11.2535 23.0694 11.8256L20.8154 13.389V13.3867C20.763 13.4277 20.6946 13.4391 20.6331 13.4186C20.5009 13.3822 20.3391 13.2933 20.2502 12.9127H20.2479C20.2229 12.7987 20.1522 12.7007 20.0542 12.6392C19.954 12.5777 19.8354 12.5572 19.7215 12.5845C19.6098 12.6119 19.5118 12.6825 19.4503 12.7805C19.3888 12.8808 19.3705 12.9993 19.3979 13.1132C19.4777 13.6602 19.8719 14.1114 20.4052 14.2619C20.5009 14.2892 20.5989 14.3006 20.6969 14.3029C20.918 14.3006 21.1345 14.2323 21.3145 14.1046L23.9468 12.2814L25.6082 11.1305C25.7404 11.0394 25.811 10.8821 25.7951 10.7226C25.7609 10.4058 25.8315 10.2394 25.8862 10.2098H25.8839C25.9318 10.1938 25.9865 10.1938 26.0344 10.2121C26.497 10.4172 26.873 10.7795 27.0941 11.2353C27.5795 12.074 27.5111 12.719 27.3767 12.7965C27.3243 12.8261 27.142 12.8056 26.8844 12.6164L26.8867 12.6141C26.7568 12.5207 26.5859 12.5048 26.4423 12.5731L24.5963 13.4437L21.7156 14.8043H21.7134C21.4262 14.9387 21.2097 15.1917 21.1277 15.4993C20.9932 16.0053 21.1573 16.5454 21.5538 16.8872C21.6359 16.9693 21.7475 17.0172 21.8638 17.0172C21.98 17.0194 22.094 16.9716 22.176 16.8895C22.258 16.8075 22.3036 16.6958 22.3036 16.5796C22.3036 16.4634 22.258 16.3517 22.176 16.2696C21.9321 16.0235 21.9344 15.8617 21.9709 15.7364H21.9686C21.9846 15.6725 22.0279 15.6201 22.0894 15.5928L24.5416 14.435C24.7604 15.0549 24.9062 15.6976 24.9792 16.3494L24.0949 16.4223L24.0926 16.4086C24.0858 16.2924 24.0311 16.1853 23.9422 16.1101C23.8533 16.0326 23.7394 15.9961 23.6232 16.0052C23.5092 16.0143 23.3998 16.0668 23.3246 16.1556C23.2494 16.2445 23.2129 16.3585 23.2221 16.4747C23.2357 16.698 23.3315 16.9077 23.491 17.065C23.6391 17.2154 23.8442 17.302 24.0585 17.2997C24.0812 17.2997 24.104 17.2997 24.1291 17.2974L25.4896 17.1835L27.0348 17.0558L27.0325 17.0581C27.192 17.0444 27.3333 16.9442 27.3971 16.7983L27.4063 16.7778C27.5476 17.131 27.5476 17.5276 27.4063 17.8808L27.3971 17.8603V17.8626C27.3333 17.7145 27.192 17.6142 27.0325 17.6005L25.4874 17.4729L24.1268 17.3612V17.3635C23.8944 17.3407 23.6642 17.425 23.4978 17.5891C23.3679 17.7122 23.2791 17.8717 23.2426 18.0472C23.1924 18.2819 23.3406 18.5121 23.5753 18.5645C23.8078 18.6169 24.0402 18.4711 24.0949 18.2386L24.9769 18.3116V18.3093C24.8971 19.0044 24.733 19.6858 24.4892 20.3399L22.9167 19.5992C22.8574 19.5719 22.8141 19.5195 22.7982 19.4557C22.7366 19.2232 22.4974 19.0842 22.2649 19.1457C22.0324 19.2072 21.8934 19.4465 21.9527 19.679C22.0347 19.9935 22.2512 20.2533 22.5452 20.3901L24.5233 21.3245L24.5347 21.3313L27.2673 22.6212L27.2695 22.6189C27.4131 22.6873 27.584 22.6713 27.7139 22.5756C27.9692 22.3888 28.1492 22.366 28.2017 22.3979C28.3384 22.4753 28.4045 23.118 27.9213 23.959L27.9237 23.959ZM12.3352 17.63C11.6925 17.6277 11.1137 18.0152 10.8676 18.6077C10.6214 19.2025 10.7559 19.884 11.2094 20.3398C11.6629 20.7933 12.3466 20.93 12.9392 20.6839C13.534 20.4378 13.9214 19.8589 13.9214 19.2163C13.9191 18.3411 13.2104 17.6324 12.3352 17.63ZM12.3352 19.9295C12.0458 19.9318 11.786 19.7563 11.6743 19.492C11.5627 19.2253 11.6242 18.9177 11.8293 18.7126C12.0321 18.5097 12.3398 18.4482 12.6064 18.5576C12.8731 18.6693 13.0463 18.9291 13.0463 19.2162C13.0463 19.6105 12.7272 19.9295 12.3352 19.9295ZM17.9165 14.6992C16.8044 14.6992 15.8016 15.3692 15.3754 16.3971C14.9515 17.4249 15.1862 18.6077 15.9725 19.3939C16.7587 20.1802 17.9415 20.4172 18.9693 19.991C19.9972 19.5648 20.6672 18.5621 20.6672 17.4499C20.6672 15.9321 19.4365 14.7015 17.9165 14.6992ZM17.9165 19.3256C17.1599 19.3256 16.4739 18.8675 16.1844 18.1678C15.895 17.4659 16.0545 16.6592 16.5901 16.1236C17.1279 15.5857 17.9347 15.4262 18.6343 15.7156C19.3363 16.0073 19.7944 16.6911 19.7944 17.45C19.7921 18.4846 18.9535 19.3233 17.9165 19.3256ZM13.8964 14.9043C13.8964 14.0383 13.3722 13.2544 12.5723 12.9239C11.7701 12.5912 10.8471 12.7735 10.2318 13.3888C9.6187 14.0019 9.43638 14.9249 9.76684 15.7271C10.0996 16.5293 10.8813 17.0511 11.7495 17.0511C12.9346 17.0489 13.8941 16.0894 13.8964 14.9043ZM10.4778 14.9043C10.4778 14.3916 10.7878 13.9266 11.2641 13.7307C11.7382 13.5347 12.2851 13.6418 12.6498 14.0064C13.0121 14.3711 13.1215 14.9157 12.9255 15.392C12.7272 15.8661 12.2646 16.1761 11.7496 16.1761C11.0477 16.1761 10.4801 15.6063 10.4778 14.9043ZM14.8854 12.6983C14.8307 12.5957 14.8216 12.475 14.8558 12.3656C14.89 12.2539 14.9675 12.1605 15.07 12.108C15.4073 11.928 15.8016 11.8915 16.1662 12.0055C16.5332 12.1194 16.8362 12.3724 17.014 12.7097C17.1918 13.0492 17.2282 13.4435 17.1143 13.8081C17.0003 14.1728 16.7474 14.4781 16.4078 14.6559C16.1936 14.7676 15.9292 14.6855 15.8176 14.4713C15.7059 14.2571 15.7879 13.9927 16.0022 13.8811C16.2756 13.7352 16.3805 13.3956 16.2369 13.1199C16.091 12.8441 15.7515 12.737 15.4757 12.8806C15.3732 12.9353 15.2524 12.9467 15.143 12.9125C15.0313 12.8783 14.9401 12.8008 14.8854 12.6983Z" fill="#AFCB1E"/>
</svg>
