<svg width="33" height="33" viewBox="0 0 33 33" fill="none" xmlns="http://www.w3.org/2000/svg">
<path fill-rule="evenodd" clip-rule="evenodd" d="M20.7075 15.2238C20.7075 15.3009 20.643 15.3654 20.5683 15.3654H18.1555C17.9203 15.3654 17.7306 15.5551 17.7306 15.7903V18.2019C17.7306 18.279 17.6661 18.3435 17.5915 18.3435H15.7439C15.6693 18.3435 15.6048 18.279 15.6048 18.2019L15.6035 15.7903C15.6035 15.5563 15.4126 15.3654 15.1786 15.3654H12.7658C12.6912 15.3654 12.6267 15.3009 12.6267 15.2238V13.3774C12.6267 13.3003 12.6912 13.2358 12.7658 13.2358H15.1786C15.4138 13.2358 15.6035 13.0461 15.6035 12.8122V10.4018C15.6035 10.3247 15.668 10.2602 15.7426 10.2602H17.5902C17.6648 10.2602 17.7293 10.3247 17.7293 10.4018V12.8134C17.7293 13.0474 17.9203 13.2371 18.1542 13.2371H20.5671C20.6417 13.2371 20.7062 13.3016 20.7062 13.3787L20.7075 15.2238ZM20.5683 12.3885H18.5817V10.4018C18.5817 9.85552 18.1353 9.41164 17.5915 9.41164H15.7439C15.1988 9.41164 14.7537 9.85552 14.7537 10.4018V12.3898H12.7658C12.2207 12.3898 11.7756 12.8337 11.7756 13.38V15.2263C11.7756 15.7726 12.222 16.2165 12.7658 16.2165H14.7537V18.2044C14.7537 18.7507 15.2001 19.1946 15.7439 19.1946H17.5915C18.1365 19.1946 18.5817 18.7507 18.5817 18.2044V16.2165H20.5696C21.1147 16.2165 21.5598 15.7726 21.5598 15.2263V13.38C21.5585 12.8324 21.1134 12.3885 20.5683 12.3885ZM29.8176 14.0515C29.7796 15.9585 29.6405 17.8641 29.4028 19.713C29.3446 20.1569 29.2118 20.5249 28.9703 20.903L28.0244 22.3889C27.6159 23.0288 27.4249 23.6813 27.4249 24.4401V26.2169L23.7437 26.2156V23.5422C23.7437 23.4714 23.7273 23.4019 23.6931 23.3386C22.6688 21.4619 22.6966 19.794 23.7816 18.2371C23.8322 18.1663 23.8601 18.0816 23.8601 17.9943L23.8588 13.6151C23.8588 12.6262 25.1209 12.1836 25.7342 12.9891C25.8733 13.1712 25.9454 13.3875 25.9454 13.6151V18.007C25.9454 18.2422 26.1364 18.4319 26.3703 18.4319C26.6055 18.4319 26.7927 18.2422 26.7927 18.007V13.6151C26.7927 13.2206 26.67 12.845 26.4424 12.5238L23.3087 5.83014C23.1645 5.52158 23.3024 5.13715 23.6147 4.9993C23.874 4.87284 24.1724 4.93481 24.3596 5.15485C26.1604 7.26168 27.8207 9.59493 29.3005 12.09C29.6685 12.7084 29.8315 13.3319 29.8176 14.0515ZM28.5353 27.2755V28.3732C28.5353 28.4883 28.4366 28.5844 28.3241 28.5844L22.8445 28.5857C22.7294 28.5857 22.6333 28.4883 22.6333 28.3745V27.2768C22.6333 27.163 22.7281 27.0656 22.8445 27.0656H28.3228C28.4366 27.0644 28.5353 27.1617 28.5353 27.2755ZM16.6657 24.0294C18.6195 23.043 20.7455 21.1992 22.3994 19.0532C22.5487 18.6486 22.7497 18.2527 23.009 17.8658V13.6154C23.009 12.4747 24.0194 11.592 25.1398 11.7387L22.6144 6.34392C21.9986 6.04927 21.3422 5.90131 20.6606 5.90131C19.2619 5.90131 17.924 6.56144 16.9994 7.71224C16.83 7.9209 16.5062 7.92343 16.3355 7.71224C15.4098 6.56144 14.0731 5.90131 12.6743 5.90131C11.994 5.90131 11.3364 6.05053 10.7205 6.34392L8.19508 11.7387C9.31551 11.592 10.3259 12.4747 10.3259 13.6154V17.8645C10.5814 18.2527 10.785 18.6473 10.9355 19.0519C12.5883 21.1992 14.7116 23.043 16.6653 24.0294H16.6657ZM5.90884 26.2159V24.4391C5.90884 23.6804 5.71788 23.0291 5.3094 22.388L4.36347 20.9021C4.12193 20.5239 3.98916 20.1572 3.93099 19.7121C3.69324 17.8632 3.55286 15.9586 3.51621 14.0518C3.5023 13.3322 3.66544 12.7088 4.03345 12.0904C5.51051 9.59662 7.17472 7.26218 8.97435 5.15528C9.1691 4.92639 9.45996 4.87707 9.73313 5.0048C10.0366 5.15276 10.1682 5.5233 10.0253 5.83059L6.89156 12.5242C6.66014 12.8454 6.54128 13.221 6.54128 13.6156V18.0074C6.54128 18.2426 6.72844 18.4323 6.96366 18.4323C7.19887 18.4323 7.38856 18.2426 7.38856 18.0074V13.6156C7.38856 13.0427 7.85899 12.5723 8.43314 12.5723C9.00852 12.5723 9.4739 13.0402 9.4739 13.6156V17.9961C9.4739 18.0833 9.50172 18.1681 9.5523 18.2389C10.6348 19.7956 10.6652 21.4636 9.64083 23.3404C9.60668 23.4023 9.59024 23.4731 9.59024 23.544V26.2173L5.90884 26.2159ZM10.6992 27.2756V28.3733C10.6992 28.4884 10.6044 28.5845 10.488 28.5845L5.00971 28.5858C4.89715 28.5858 4.79852 28.4884 4.79852 28.3746V27.2769C4.79852 27.1631 4.89716 27.0657 5.00971 27.0657H10.488C10.6044 27.0645 10.6992 27.1618 10.6992 27.2756ZM30.0326 11.6565C28.529 9.12102 26.8369 6.74866 25.0059 4.60389C24.1712 3.62636 22.6095 4.11576 22.4197 5.34875C20.3888 4.64183 18.1759 5.22229 16.6659 6.80305C15.1585 5.21977 12.9455 4.6431 10.9144 5.34749C10.7247 4.11702 9.1642 3.62384 8.32827 4.60263C6.49714 6.7474 4.80631 9.11976 3.30158 11.6553C2.85265 12.4166 2.64779 13.1816 2.66802 14.0656C2.70216 16.0043 2.84506 17.9391 3.0904 19.8194C3.16248 20.386 3.33826 20.8754 3.64811 21.3572L4.59404 22.8431C4.91019 23.3413 5.06068 23.8472 5.06068 24.4378V26.2145H5.01009C4.42836 26.2145 3.95163 26.69 3.95163 27.2743V28.3719C3.95163 28.9562 4.4284 29.4316 5.01009 29.4316H10.4884C11.0739 29.4316 11.5507 28.9561 11.5507 28.3719V27.2743C11.5507 26.69 11.0739 26.2145 10.4884 26.2145L10.4416 26.2158V23.6486C10.9689 22.6484 11.2345 21.6784 11.2345 20.7451C12.8482 22.5585 14.706 24.0304 16.4852 24.8841C16.6016 24.9397 16.7344 24.9397 16.8494 24.8841C18.6287 24.0305 20.4876 22.5585 22.0963 20.7451C22.1001 21.6784 22.3656 22.6483 22.893 23.6486V26.2158H22.8449C22.2594 26.2158 21.7827 26.6913 21.7827 27.2755V28.3732C21.7827 28.9574 22.2594 29.4329 22.8449 29.4329H28.3232C28.9049 29.4329 29.3817 28.9574 29.3817 28.3732V27.2755C29.3817 26.6913 28.9049 26.2158 28.3232 26.2158H28.2726V24.439C28.2726 23.8485 28.4193 23.3426 28.7393 22.8443L29.6852 21.3584C29.995 20.8766 30.1721 20.3885 30.2429 19.8207C30.4882 17.9415 30.6273 16.0054 30.6653 14.0669C30.6855 13.1829 30.4819 12.4178 30.033 11.6565L30.0326 11.6565Z" fill="#AFCB1E"/>
</svg>
