<svg width="500" height="500" viewBox="0 0 500 500" fill="none" xmlns="http://www.w3.org/2000/svg">
<rect width="500" height="500" fill="white"/>
<path d="M93.0451 382.868C92.037 384.38 51.7611 350.289 32.1001 270.131C12.4391 189.975 57.3071 88.644 147.547 62.933C237.787 37.222 283.663 61.421 317.44 102.76C351.217 144.099 378.944 139.562 403.647 136.537C428.35 133.512 479.267 147.628 471.705 245.934C464.143 344.24 406.637 384.646 365.081 383.032C322.186 381.366 93.0451 382.868 93.0451 382.868Z" fill="#AFCB1E"/>
<path d="M385.198 106.672C399.186 101.995 406.734 86.8648 402.057 72.8771C397.38 58.8894 382.25 51.3414 368.262 56.0182C354.274 60.6951 346.726 75.8257 351.403 89.8134C356.08 103.801 371.211 111.349 385.198 106.672Z" fill="#AFCB1E"/>
<g opacity="0.5">
<path d="M220.732 147.919H155.574V184.408H220.732V147.919Z" stroke="#445116" stroke-miterlimit="10"/>
<path d="M291.176 147.919H226.018V184.408H291.176V147.919Z" stroke="#445116" stroke-miterlimit="10"/>
<path d="M361.619 147.919H296.461V184.408H361.619V147.919Z" stroke="#445116" stroke-miterlimit="10"/>
<path d="M432.062 147.919H366.904V184.408H432.062V147.919Z" stroke="#445116" stroke-miterlimit="10"/>
<path d="M150.289 147.919H85.131V184.408H150.289V147.919Z" stroke="#445116" stroke-miterlimit="10"/>
<path d="M28.475 184.407H79.846V147.919H42.081" stroke="#445116" stroke-miterlimit="10"/>
<path d="M450.479 147.919H437.348V184.407H472.366" stroke="#445116" stroke-miterlimit="10"/>
<path d="M220.732 191.719H155.574V228.208H220.732V191.719Z" stroke="#445116" stroke-miterlimit="10"/>
<path d="M291.176 191.719H226.018V228.208H291.176V191.719Z" stroke="#445116" stroke-miterlimit="10"/>
<path d="M361.619 191.719H296.461V228.208H361.619V191.719Z" stroke="#445116" stroke-miterlimit="10"/>
<path d="M432.062 191.719H366.904V228.208H432.062V191.719Z" stroke="#445116" stroke-miterlimit="10"/>
<path d="M150.289 191.719H85.131V228.208H150.289V191.719Z" stroke="#445116" stroke-miterlimit="10"/>
<path d="M474.226 191.719H437.348V228.207H477.716" stroke="#445116" stroke-miterlimit="10"/>
<path d="M22.319 228.207H79.846V191.719H26.707" stroke="#445116" stroke-miterlimit="10"/>
<path d="M220.732 235.519H155.574V272.008H220.732V235.519Z" stroke="#445116" stroke-miterlimit="10"/>
<path d="M291.176 235.519H226.018V272.008H291.176V235.519Z" stroke="#445116" stroke-miterlimit="10"/>
<path d="M361.619 235.519H296.461V272.008H361.619V235.519Z" stroke="#445116" stroke-miterlimit="10"/>
<path d="M432.062 235.519H366.904V272.008H432.062V235.519Z" stroke="#445116" stroke-miterlimit="10"/>
<path d="M150.289 235.519H85.131V272.008H150.289V235.519Z" stroke="#445116" stroke-miterlimit="10"/>
<path d="M477.564 235.519H437.348V272.007H473.715" stroke="#445116" stroke-miterlimit="10"/>
<path d="M27.109 272.007H79.846V235.519H22.32" stroke="#445116" stroke-miterlimit="10"/>
<path d="M220.732 279.319H155.574V315.808H220.732V279.319Z" stroke="#445116" stroke-miterlimit="10"/>
<path d="M291.176 279.319H226.018V315.808H291.176V279.319Z" stroke="#445116" stroke-miterlimit="10"/>
<path d="M361.619 279.319H296.461V315.808H361.619V279.319Z" stroke="#445116" stroke-miterlimit="10"/>
<path d="M432.062 279.319H366.904V315.808H432.062V279.319Z" stroke="#445116" stroke-miterlimit="10"/>
<path d="M150.289 279.319H85.131V315.808H150.289V279.319Z" stroke="#445116" stroke-miterlimit="10"/>
<path d="M472.27 279.319H437.348V315.807H460.665" stroke="#445116" stroke-miterlimit="10"/>
<path d="M41.388 315.807H79.846V279.319H29.004" stroke="#445116" stroke-miterlimit="10"/>
<path d="M220.732 323.119H155.574V359.608H220.732V323.119Z" stroke="#445116" stroke-miterlimit="10"/>
<path d="M291.176 323.119H226.018V359.608H291.176V323.119Z" stroke="#445116" stroke-miterlimit="10"/>
<path d="M361.619 323.119H296.461V359.608H361.619V323.119Z" stroke="#445116" stroke-miterlimit="10"/>
<path d="M432.062 323.119H366.904V359.608H432.062V323.119Z" stroke="#445116" stroke-miterlimit="10"/>
<path d="M150.289 323.119H85.131V359.608H150.289V323.119Z" stroke="#445116" stroke-miterlimit="10"/>
<path d="M457.242 323.119H437.348V352.994" stroke="#445116" stroke-miterlimit="10"/>
<path d="M64.7471 359.607H79.8461V323.119H44.5421" stroke="#445116" stroke-miterlimit="10"/>
<path d="M79.846 378.72V366.919H69.986" stroke="#445116" stroke-miterlimit="10"/>
<path d="M150.289 366.919H85.131V382.054H150.289V366.919Z" stroke="#445116" stroke-miterlimit="10"/>
<path d="M220.732 366.919H155.574V382.054H220.732V366.919Z" stroke="#445116" stroke-miterlimit="10"/>
<path d="M291.176 366.919H226.018V382.054H291.176V366.919Z" stroke="#445116" stroke-miterlimit="10"/>
<path d="M361.619 366.919H296.461V382.054H361.619V366.919Z" stroke="#445116" stroke-miterlimit="10"/>
<path d="M422.758 366.919H366.904V382.054H396.301" stroke="#445116" stroke-miterlimit="10"/>
</g>
<path d="M58.869 382.679C62.3 382.679 65.732 382.679 69.163 382.679C78.418 382.679 87.672 382.679 96.927 382.679C110.648 382.679 124.368 382.679 138.089 382.679C154.829 382.679 171.569 382.679 188.308 382.679C206.579 382.679 224.85 382.679 243.12 382.679C261.688 382.679 280.257 382.679 298.825 382.679C316.02 382.679 333.215 382.679 350.41 382.679C364.993 382.679 379.576 382.679 394.159 382.679C404.644 382.679 415.128 382.679 425.613 382.679C430.567 382.679 435.526 382.745 440.48 382.679C440.696 382.676 440.913 382.679 441.13 382.679C441.934 382.679 441.936 381.429 441.13 381.429C437.699 381.429 434.267 381.429 430.836 381.429C421.581 381.429 412.327 381.429 403.072 381.429C389.351 381.429 375.631 381.429 361.91 381.429C345.17 381.429 328.43 381.429 311.691 381.429C293.42 381.429 275.149 381.429 256.879 381.429C238.311 381.429 219.742 381.429 201.174 381.429C183.979 381.429 166.784 381.429 149.589 381.429C135.006 381.429 120.423 381.429 105.84 381.429C95.355 381.429 84.871 381.429 74.386 381.429C69.432 381.429 64.473 381.363 59.519 381.429C59.303 381.432 59.086 381.429 58.869 381.429C58.065 381.429 58.063 382.679 58.869 382.679Z" fill="#0F110E"/>
<path d="M447.404 234.124H369.874C363.541 234.124 358.407 228.99 358.407 222.657V185.646C358.407 179.313 363.541 174.179 369.874 174.179H447.404C453.737 174.179 458.871 179.313 458.871 185.646V222.657C458.871 228.99 453.737 234.124 447.404 234.124Z" fill="#E9D4E4" stroke="#B889B3" stroke-miterlimit="10"/>
<path d="M447.404 234.124H369.874C368.583 234.124 367.346 233.901 366.188 233.507C366.895 239.162 371.71 243.54 377.556 243.54H439.723C445.569 243.54 450.384 239.162 451.091 233.507C449.932 233.901 448.696 234.124 447.404 234.124Z" fill="#E9D4E4" stroke="#B889B3" stroke-miterlimit="10"/>
<path d="M400.572 211.361L403.186 221.555C403.569 223.047 404.913 224.091 406.454 224.091H410.825C412.365 224.091 413.71 223.047 414.093 221.555L416.707 211.361C417.254 209.227 415.642 207.15 413.439 207.15H403.84C401.637 207.149 400.025 209.227 400.572 211.361Z" fill="#B889B3" stroke="#B889B3" stroke-miterlimit="10"/>
<path d="M401.553 215.186L403.186 221.555C403.569 223.047 404.913 224.091 406.454 224.091H410.825C412.365 224.091 413.71 223.047 414.093 221.555L415.726 215.186H401.553Z" fill="white" stroke="#B889B3" stroke-miterlimit="10"/>
<path d="M439.723 243.54H377.556C375.519 243.54 373.613 242.999 371.957 242.067C371.918 250.108 371.802 274.3 371.802 274.56C371.802 275.917 372.886 277.017 374.222 277.017C375.304 277.017 376.21 276.291 376.519 275.297C376.829 276.292 377.734 277.017 378.816 277.017C379.898 277.017 380.804 276.291 381.113 275.297C381.423 276.292 382.328 277.017 383.41 277.017C384.492 277.017 385.398 276.291 385.707 275.297C386.017 276.292 386.922 277.017 388.004 277.017C389.086 277.017 389.992 276.291 390.301 275.297C390.611 276.292 391.516 277.017 392.598 277.017C393.68 277.017 394.586 276.291 394.895 275.297C395.205 276.292 396.11 277.017 397.192 277.017C398.274 277.017 399.18 276.291 399.489 275.297C399.799 276.292 400.704 277.017 401.786 277.017C402.868 277.017 403.774 276.291 404.083 275.297C404.393 276.292 405.298 277.017 406.38 277.017C407.413 277.017 408.288 276.357 408.636 275.433C408.984 276.357 409.859 277.017 410.892 277.017C411.974 277.017 412.88 276.291 413.189 275.297C413.499 276.292 414.404 277.017 415.486 277.017C416.568 277.017 417.474 276.291 417.783 275.297C418.093 276.292 418.998 277.017 420.08 277.017C421.162 277.017 422.068 276.291 422.377 275.297C422.687 276.292 423.592 277.017 424.674 277.017C425.756 277.017 426.662 276.291 426.971 275.297C427.281 276.292 428.186 277.017 429.268 277.017C430.35 277.017 431.256 276.291 431.565 275.297C431.875 276.292 432.78 277.017 433.862 277.017C434.944 277.017 435.85 276.291 436.159 275.297C436.469 276.292 437.374 277.017 438.456 277.017C439.538 277.017 440.444 276.291 440.753 275.297C441.063 276.292 441.968 277.017 443.05 277.017C444.387 277.017 445.47 275.917 445.47 274.56C445.47 274.439 445.441 250.004 445.431 242.003C443.755 242.976 441.807 243.54 439.723 243.54Z" fill="white" stroke="#B889B3" stroke-miterlimit="10"/>
<path d="M313.544 365.764C314.483 357.794 314.982 349.51 314.982 341.004C314.982 278.508 288.241 227.846 255.254 227.846C222.267 227.846 195.526 278.509 195.526 341.004C195.526 349.51 196.025 357.794 196.964 365.764H313.544Z" fill="#D58001" stroke="black" stroke-miterlimit="10"/>
<path d="M226.801 273.058C224.625 273.058 222.856 271.288 222.856 269.113C222.856 266.938 224.625 265.168 226.801 265.168C228.977 265.168 230.746 266.938 230.746 269.113C230.746 271.288 228.977 273.058 226.801 273.058ZM226.801 265.668C224.902 265.668 223.356 267.214 223.356 269.113C223.356 271.012 224.902 272.558 226.801 272.558C228.7 272.558 230.246 271.012 230.246 269.113C230.247 267.214 228.701 265.668 226.801 265.668Z" fill="white"/>
<path d="M249.607 264.371C247.431 264.371 245.662 262.601 245.662 260.426C245.662 258.25 247.432 256.481 249.607 256.481C251.782 256.481 253.552 258.251 253.552 260.426C253.552 262.601 251.782 264.371 249.607 264.371ZM249.607 256.98C247.708 256.98 246.162 258.526 246.162 260.425C246.162 262.324 247.708 263.87 249.607 263.87C251.506 263.87 253.052 262.324 253.052 260.425C253.052 258.526 251.506 256.98 249.607 256.98Z" fill="white"/>
<path d="M262.204 248.081C260.028 248.081 258.259 246.311 258.259 244.136C258.259 241.96 260.029 240.191 262.204 240.191C264.38 240.191 266.149 241.961 266.149 244.136C266.149 246.311 264.38 248.081 262.204 248.081ZM262.204 240.69C260.305 240.69 258.759 242.236 258.759 244.135C258.759 246.034 260.305 247.58 262.204 247.58C264.104 247.58 265.649 246.034 265.649 244.135C265.649 242.236 264.103 240.69 262.204 240.69Z" fill="white"/>
<path d="M274.584 275.23C272.408 275.23 270.639 273.46 270.639 271.285C270.639 269.109 272.409 267.34 274.584 267.34C276.76 267.34 278.529 269.11 278.529 271.285C278.529 273.461 276.76 275.23 274.584 275.23ZM274.584 267.84C272.685 267.84 271.139 269.386 271.139 271.285C271.139 273.184 272.685 274.73 274.584 274.73C276.483 274.73 278.029 273.184 278.029 271.285C278.029 269.386 276.483 267.84 274.584 267.84Z" fill="white"/>
<path d="M246.566 289.348C244.39 289.348 242.621 287.578 242.621 285.403C242.621 283.227 244.391 281.458 246.566 281.458C248.742 281.458 250.511 283.228 250.511 285.403C250.511 287.578 248.742 289.348 246.566 289.348ZM246.566 281.957C244.667 281.957 243.121 283.503 243.121 285.402C243.121 287.302 244.667 288.847 246.566 288.847C248.465 288.847 250.011 287.301 250.011 285.402C250.011 283.503 248.465 281.957 246.566 281.957Z" fill="white"/>
<path d="M247.869 314.108C245.693 314.108 243.924 312.338 243.924 310.163C243.924 307.987 245.694 306.218 247.869 306.218C250.045 306.218 251.814 307.988 251.814 310.163C251.814 312.339 250.045 314.108 247.869 314.108ZM247.869 306.717C245.97 306.717 244.424 308.263 244.424 310.162C244.424 312.061 245.97 313.607 247.869 313.607C249.768 313.607 251.314 312.061 251.314 310.162C251.314 308.263 249.768 306.717 247.869 306.717Z" fill="white"/>
<path d="M280.014 316.714C277.838 316.714 276.069 314.944 276.069 312.769C276.069 310.593 277.839 308.824 280.014 308.824C282.19 308.824 283.959 310.594 283.959 312.769C283.959 314.945 282.19 316.714 280.014 316.714ZM280.014 309.324C278.115 309.324 276.569 310.87 276.569 312.769C276.569 314.668 278.115 316.214 280.014 316.214C281.913 316.214 283.459 314.668 283.459 312.769C283.459 310.87 281.913 309.324 280.014 309.324Z" fill="white"/>
<path d="M302.602 317.366C300.426 317.366 298.657 315.596 298.657 313.421C298.657 311.245 300.427 309.476 302.602 309.476C304.778 309.476 306.547 311.246 306.547 313.421C306.547 315.596 304.778 317.366 302.602 317.366ZM302.602 309.975C300.703 309.975 299.157 311.521 299.157 313.42C299.157 315.319 300.703 316.865 302.602 316.865C304.501 316.865 306.047 315.319 306.047 313.42C306.047 311.521 304.501 309.975 302.602 309.975Z" fill="white"/>
<path d="M282.837 336.262C280.661 336.262 278.892 334.492 278.892 332.317C278.892 330.141 280.662 328.372 282.837 328.372C285.013 328.372 286.782 330.142 286.782 332.317C286.783 334.492 285.013 336.262 282.837 336.262ZM282.837 328.871C280.938 328.871 279.392 330.417 279.392 332.316C279.392 334.215 280.938 335.761 282.837 335.761C284.736 335.761 286.282 334.215 286.282 332.316C286.283 330.417 284.737 328.871 282.837 328.871Z" fill="white"/>
<path d="M266.982 349.076C264.806 349.076 263.037 347.306 263.037 345.131C263.037 342.955 264.807 341.186 266.982 341.186C269.158 341.186 270.927 342.956 270.927 345.131C270.927 347.307 269.158 349.076 266.982 349.076ZM266.982 341.686C265.083 341.686 263.537 343.232 263.537 345.131C263.537 347.03 265.083 348.576 266.982 348.576C268.881 348.576 270.427 347.03 270.427 345.131C270.427 343.232 268.882 341.686 266.982 341.686Z" fill="white"/>
<path d="M263.724 329.095C261.548 329.095 259.779 327.325 259.779 325.15C259.779 322.975 261.549 321.205 263.724 321.205C265.9 321.205 267.669 322.975 267.669 325.15C267.669 327.325 265.9 329.095 263.724 329.095ZM263.724 321.704C261.825 321.704 260.279 323.25 260.279 325.149C260.279 327.048 261.825 328.594 263.724 328.594C265.623 328.594 267.169 327.048 267.169 325.149C267.169 323.25 265.624 321.704 263.724 321.704Z" fill="white"/>
<path d="M236.358 339.085C234.182 339.085 232.413 337.315 232.413 335.14C232.413 332.964 234.183 331.195 236.358 331.195C238.534 331.195 240.303 332.965 240.303 335.14C240.303 337.316 238.534 339.085 236.358 339.085ZM236.358 331.695C234.459 331.695 232.913 333.241 232.913 335.14C232.913 337.039 234.459 338.585 236.358 338.585C238.258 338.585 239.803 337.039 239.803 335.14C239.803 333.241 238.257 331.695 236.358 331.695Z" fill="white"/>
<path d="M211.163 319.972C208.987 319.972 207.218 318.202 207.218 316.027C207.218 313.851 208.987 312.082 211.163 312.082C213.339 312.082 215.108 313.852 215.108 316.027C215.109 318.203 213.339 319.972 211.163 319.972ZM211.163 312.582C209.264 312.582 207.718 314.128 207.718 316.027C207.718 317.926 209.264 319.472 211.163 319.472C213.062 319.472 214.608 317.926 214.608 316.027C214.609 314.128 213.063 312.582 211.163 312.582Z" fill="white"/>
<path d="M210.077 303.9C207.901 303.9 206.132 302.13 206.132 299.955C206.132 297.779 207.902 296.01 210.077 296.01C212.253 296.01 214.022 297.78 214.022 299.955C214.023 302.13 212.253 303.9 210.077 303.9ZM210.077 296.509C208.177 296.509 206.632 298.055 206.632 299.954C206.632 301.853 208.178 303.399 210.077 303.399C211.976 303.399 213.522 301.853 213.522 299.954C213.523 298.055 211.977 296.509 210.077 296.509Z" fill="white"/>
<path d="M285.661 296.515C283.485 296.515 281.716 294.745 281.716 292.57C281.716 290.394 283.485 288.625 285.661 288.625C287.837 288.625 289.606 290.395 289.606 292.57C289.606 294.746 287.837 296.515 285.661 296.515ZM285.661 289.125C283.762 289.125 282.216 290.671 282.216 292.57C282.216 294.47 283.762 296.015 285.661 296.015C287.56 296.015 289.106 294.469 289.106 292.57C289.106 290.671 287.56 289.125 285.661 289.125Z" fill="white"/>
<path d="M266.765 301.728C264.589 301.728 262.82 299.958 262.82 297.783C262.82 295.607 264.59 293.838 266.765 293.838C268.941 293.838 270.71 295.608 270.71 297.783C270.71 299.958 268.941 301.728 266.765 301.728ZM266.765 294.337C264.866 294.337 263.32 295.883 263.32 297.782C263.32 299.681 264.866 301.227 266.765 301.227C268.664 301.227 270.21 299.681 270.21 297.782C270.21 295.883 268.664 294.337 266.765 294.337Z" fill="white"/>
<path d="M227.887 299.991C225.711 299.991 223.942 298.221 223.942 296.046C223.942 293.87 225.711 292.101 227.887 292.101C230.063 292.101 231.832 293.871 231.832 296.046C231.833 298.221 230.063 299.991 227.887 299.991ZM227.887 292.6C225.988 292.6 224.442 294.146 224.442 296.045C224.442 297.944 225.988 299.49 227.887 299.49C229.786 299.49 231.332 297.944 231.332 296.045C231.333 294.146 229.787 292.6 227.887 292.6Z" fill="white"/>
<path d="M140.358 397.258C140.358 397.258 123.417 394.217 121.679 384.226C119.941 374.235 153.172 364.461 166.421 361.421C179.67 358.38 273.498 350.779 322.366 359.683C371.235 368.588 377.316 377.493 376.23 383.792C375.144 390.091 365.153 398.778 347.777 401.168C330.402 403.557 257.642 410.725 239.832 410.29C222.022 409.856 189.226 407.466 185.099 407.032C180.973 406.597 140.358 397.258 140.358 397.258Z" fill="#DDDAD9"/>
<path d="M374.035 380.17C374.028 380.161 374.021 380.152 374.013 380.142C374.089 380.259 374.139 380.329 374.161 380.356C374.118 380.294 374.077 380.232 374.035 380.17Z" fill="white" stroke="#0F110E" stroke-miterlimit="10"/>
<path d="M373.861 372.108C368.535 368.441 362.164 366.192 356.033 364.296C347.283 361.591 338.273 359.734 329.247 358.227C317.781 356.312 306.213 354.993 294.627 354.066C267.964 351.931 241.087 351.766 214.392 353.426C192.675 354.776 170.636 357.091 149.556 362.696C142.631 364.537 135.625 366.754 129.304 370.185C125.193 372.416 120.825 375.501 119.268 380.13C117.839 384.375 120.017 388.614 123.13 391.455C127.557 395.495 133.358 397.917 138.917 399.933C146.922 402.837 155.269 404.794 163.619 406.409C174.471 408.507 185.45 409.963 196.446 411.054C222.87 413.675 249.547 414.181 276.068 413.001C298.814 411.989 321.786 409.878 344.022 404.804C351.75 403.041 359.427 400.878 366.695 397.681C371.387 395.617 376.376 392.932 379.348 388.602C380.484 386.947 381.162 384.975 381.18 382.96C381.138 378.188 377.534 374.637 373.861 372.108ZM374.254 385.481C373.577 386.186 372.975 386.92 372.229 387.563C372.031 387.733 371.826 387.895 371.626 388.062C371.615 388.072 371.614 388.073 371.604 388.081C371.577 388.1 371.561 388.11 371.522 388.137C371.002 388.503 370.486 388.87 369.95 389.212C368.865 389.904 367.739 390.532 366.593 391.116C365.962 391.438 365.324 391.745 364.68 392.042C364.344 392.197 364.006 392.349 363.667 392.498C363.494 392.574 363.32 392.649 363.146 392.724C363.08 392.753 363.042 392.769 363.003 392.787C362.975 392.798 362.952 392.807 362.902 392.826C359.632 394.123 356.326 395.283 352.952 396.283C333.636 402.008 313.312 404.408 293.292 405.955C267.371 407.958 241.258 408.116 215.309 406.547C194.285 405.276 173.075 403.061 152.628 397.821C148.869 396.858 145.138 395.775 141.476 394.49C139.927 393.946 138.398 393.357 136.879 392.736C136.853 392.725 136.847 392.723 136.826 392.715C136.798 392.702 136.786 392.696 136.746 392.679C136.608 392.617 136.469 392.559 136.33 392.498C135.991 392.349 135.653 392.197 135.317 392.042C134.612 391.717 133.912 391.378 133.222 391.022C132.085 390.437 130.97 389.808 129.896 389.114C129.412 388.802 128.947 388.465 128.475 388.136C128.427 388.102 128.406 388.089 128.375 388.068C128.352 388.048 128.341 388.038 128.309 388.011C128.091 387.827 127.868 387.65 127.653 387.462C127.303 387.156 126.964 386.837 126.641 386.503C126.48 386.337 126.323 386.167 126.171 385.993C125.968 385.761 125.508 384.999 126.055 385.881C125.836 385.529 125.576 385.205 125.37 384.843C125.279 384.683 125.202 384.516 125.114 384.355C125.022 384.032 124.934 383.704 124.838 383.383C124.832 383.205 124.816 383.028 124.819 382.85C124.821 382.735 124.833 382.619 124.843 382.503C124.94 382.174 125.055 381.833 125.142 381.5C125.144 381.496 125.145 381.496 125.147 381.492C125.245 381.32 125.331 381.14 125.431 380.969C125.535 380.792 125.651 380.623 125.76 380.449C125.786 380.407 125.816 380.367 125.845 380.327C126.538 379.7 127.106 378.921 127.828 378.304C128 378.157 128.179 378.017 128.353 377.873C128.439 377.809 128.524 377.744 128.611 377.682C129.084 377.347 129.56 377.017 130.049 376.705C131.192 375.976 132.38 375.318 133.591 374.708C134.195 374.404 134.805 374.112 135.419 373.83C135.757 373.675 136.096 373.523 136.436 373.374C136.61 373.298 136.784 373.224 136.958 373.148C136.983 373.137 136.988 373.135 137.008 373.126C137.038 373.114 137.053 373.108 137.097 373.091C138.67 372.464 140.246 371.853 141.846 371.298C149.782 368.547 158.013 366.656 166.257 365.096C176.752 363.11 187.318 361.737 197.947 360.718C223.647 358.255 249.574 357.771 275.361 358.887C297.403 359.841 319.578 361.83 341.144 366.612C348.615 368.268 356.098 370.249 363.172 373.206C363.334 373.277 363.752 373.457 363.873 373.511C364.176 373.646 364.479 373.783 364.78 373.922C365.452 374.233 366.118 374.557 366.776 374.896C367.939 375.495 369.079 376.139 370.176 376.852C370.634 377.15 371.075 377.469 371.523 377.782C371.57 377.814 371.589 377.827 371.62 377.848C371.644 377.868 371.655 377.879 371.689 377.907C371.928 378.106 372.169 378.301 372.402 378.506C372.767 378.828 373.12 379.164 373.454 379.517C373.612 379.683 373.766 379.853 373.916 380.027C373.952 380.069 373.984 380.108 374.012 380.144C373.99 380.11 373.969 380.079 373.942 380.037C373.971 380.083 374.003 380.127 374.034 380.172C374.153 380.324 374.199 380.406 374.16 380.358C374.322 380.592 374.486 380.825 374.627 381.075C374.718 381.234 374.793 381.403 374.883 381.563C374.975 381.887 375.065 382.217 375.16 382.539C375.166 382.679 375.177 382.82 375.179 382.96C375.178 383.1 375.167 383.24 375.16 383.38C375.058 383.72 374.947 384.072 374.857 384.416C374.854 384.421 374.853 384.422 374.85 384.427C374.763 384.582 374.685 384.743 374.596 384.898C374.406 385.228 373.49 386.277 374.254 385.481Z" fill="white" stroke="#0F110E" stroke-miterlimit="10"/>
<path d="M260.354 387.188C260.354 387.188 248.822 382.602 242.961 378.123C237.1 373.644 224.503 364.982 224.503 364.982L218.802 361.263L231.896 342.355C231.896 342.355 240.939 347.1 242.562 348.028C244.185 348.956 251.904 349.744 256.045 351.554C260.186 353.364 266.737 356.143 268.435 357.277C270.133 358.411 274.287 361.409 275.182 362.648C276.077 363.888 276.767 365.054 276.086 366.113C275.404 367.171 273.17 367.261 273.17 367.261C273.17 367.261 269.34 366.179 267.826 365.165C267.826 365.165 275.339 370.328 277.231 373.214C279.123 376.1 280.344 377.525 279.45 378.856C278.556 380.187 277.208 379.439 277.208 379.439C277.208 379.439 277.304 382.91 275.752 383.077C274.201 383.245 274.921 383.426 274.921 383.426C274.921 383.426 273.963 385.738 272.277 385.791C270.591 385.844 270.521 385.589 270.566 386.484C270.612 387.379 269.659 388.357 266.948 388.293C264.238 388.227 260.354 387.188 260.354 387.188Z" fill="#AC6E4E"/>
<path d="M275.865 379.66C276.248 380.062 276.6 380.652 276.622 381.216C276.651 381.972 276.037 382.519 275.335 382.621C273.89 382.831 272.257 382.167 270.948 381.642C267.351 380.2 263.793 378.076 260.889 375.504C260.409 375.079 259.699 375.783 260.182 376.211C262.889 378.608 266.102 380.561 269.388 382.052C270.827 382.705 272.337 383.318 273.908 383.556C275.042 383.728 276.237 383.692 277.047 382.773C278.076 381.606 277.539 379.97 276.572 378.952C276.128 378.485 275.421 379.193 275.865 379.66Z" fill="black"/>
<path d="M273.965 383.121C273.416 385.637 270.538 385.174 268.673 384.787C264.71 383.965 260.856 382.476 257.299 380.56C256.733 380.255 256.227 381.118 256.794 381.423C260.686 383.52 264.989 385.202 269.366 385.932C270.622 386.141 271.966 386.331 273.142 385.706C274.005 385.247 274.718 384.351 274.929 383.386C275.066 382.76 274.102 382.492 273.965 383.121Z" fill="black"/>
<path d="M269.531 385.825C271.317 388.354 265.395 387.512 264.569 387.378C259.565 386.565 254.817 384.669 250.387 382.241C244.64 379.091 239.346 375.148 234.238 371.063C231.905 369.197 229.391 367.616 226.902 365.964C224.243 364.199 221.583 362.433 218.924 360.668C218.984 360.896 219.044 361.124 219.103 361.352C222.957 355.841 226.812 350.329 230.666 344.818C231.227 344.016 231.788 343.214 232.349 342.412C232.121 342.472 231.893 342.532 231.665 342.591C234.786 344.327 237.931 346.027 241.118 347.639C242.645 348.411 244.239 349.337 245.897 349.802C247.072 350.131 248.306 350.305 249.497 350.567C254.117 351.586 258.917 352.564 263.096 354.857C265.303 356.068 267.468 357.365 269.551 358.779C271.541 360.131 273.747 361.622 275.178 363.599C275.638 364.234 276.165 365.094 275.66 365.839C274.924 366.925 273.296 366.737 272.208 366.466C270.329 365.997 268.508 365.034 266.916 363.939C266.383 363.573 265.889 364.436 266.411 364.802C270.229 367.476 274.083 370.481 277.108 374.044C277.793 374.85 280.663 378.461 278.298 379.057C277.242 379.323 275.856 378.513 274.978 378.039C273.584 377.286 272.274 376.377 271.004 375.433C269.074 373.998 267.21 372.453 265.444 370.82C264.972 370.384 264.263 371.089 264.737 371.527C266.444 373.105 268.246 374.592 270.099 375.995C271.522 377.072 272.994 378.116 274.572 378.955C275.642 379.524 276.93 380.168 278.18 380.075C280.691 379.889 280.295 377.069 279.406 375.52C277.801 372.722 275.134 370.462 272.698 368.411C270.836 366.843 268.909 365.334 266.915 363.937C266.747 364.225 266.579 364.513 266.41 364.8C268.627 366.324 274.778 369.816 276.656 366.132C277.43 364.614 276.043 362.956 275.058 361.926C273.176 359.959 270.843 358.391 268.563 356.931C266.507 355.615 264.392 354.348 262.211 353.248C259.949 352.107 257.412 351.472 254.972 350.84C252.514 350.203 250.035 349.642 247.549 349.127C246.374 348.883 245.359 348.568 244.257 348.059C240.132 346.155 236.137 343.933 232.168 341.725C231.918 341.586 231.642 341.679 231.484 341.904C227.63 347.415 223.775 352.927 219.921 358.438C219.36 359.24 218.799 360.042 218.238 360.844C218.077 361.074 218.207 361.388 218.417 361.528C223.949 365.2 229.619 368.697 234.835 372.804C240.121 376.965 245.619 380.979 251.635 384.029C256.287 386.387 261.523 388.344 266.778 388.632C268.04 388.701 270.312 388.746 270.788 387.194C270.978 386.576 270.755 385.834 270.391 385.319C270.026 384.799 269.159 385.298 269.531 385.825Z" fill="black"/>
<path d="M232.651 338.398L209.52 363.484L208.217 365.439C208.217 365.439 187.366 352.082 180.85 346.217C174.334 340.353 166.678 334.977 162.28 327.81C157.882 320.643 154.624 307.937 167.33 285.131C167.33 285.131 182.642 259.231 197.629 250.271C197.629 250.271 206.099 243.104 216.688 237.728C227.276 232.352 232 229.909 236.236 228.932C240.471 227.955 246.173 225.511 246.173 225.511V233.493C246.173 233.493 217.503 271.936 209.847 286.923C202.191 301.91 201.702 304.353 201.702 304.353C201.702 304.353 199.259 309.891 201.539 310.869C203.82 311.846 230.209 334.977 230.209 334.977L232.651 338.398Z" fill="#D58001"/>
<path d="M220.776 341.334C220.776 339.158 222.546 337.389 224.721 337.389C226.897 337.389 228.666 339.159 228.666 341.334C228.666 343.509 226.896 345.278 224.721 345.278C222.545 345.278 220.776 343.508 220.776 341.334ZM221.276 341.334C221.276 343.233 222.822 344.778 224.721 344.778C226.62 344.778 228.166 343.233 228.166 341.334C228.166 339.435 226.62 337.889 224.721 337.889C222.822 337.888 221.276 339.434 221.276 341.334Z" fill="white"/>
<path d="M205.355 357.079C205.355 354.903 207.125 353.134 209.3 353.134C211.476 353.134 213.245 354.904 213.245 357.079C213.245 359.255 211.475 361.024 209.3 361.024C207.124 361.025 205.355 359.255 205.355 357.079ZM205.855 357.079C205.855 358.978 207.401 360.524 209.3 360.524C211.199 360.524 212.745 358.978 212.745 357.079C212.745 355.179 211.199 353.634 209.3 353.634C207.401 353.634 205.855 355.18 205.855 357.079Z" fill="white"/>
<path d="M200.359 338.075C200.359 335.899 202.129 334.13 204.304 334.13C206.48 334.13 208.249 335.9 208.249 338.075C208.249 340.251 206.479 342.02 204.304 342.02C202.129 342.02 200.359 340.251 200.359 338.075ZM200.859 338.075C200.859 339.974 202.405 341.52 204.304 341.52C206.203 341.52 207.749 339.974 207.749 338.075C207.749 336.176 206.203 334.63 204.304 334.63C202.405 334.63 200.859 336.176 200.859 338.075Z" fill="white"/>
<path d="M192.757 317.224C192.757 315.048 194.527 313.279 196.702 313.279C198.878 313.279 200.647 315.049 200.647 317.224C200.647 319.4 198.877 321.169 196.702 321.169C194.527 321.169 192.757 319.4 192.757 317.224ZM193.257 317.224C193.257 319.123 194.803 320.669 196.702 320.669C198.601 320.669 200.147 319.123 200.147 317.224C200.147 315.325 198.601 313.779 196.702 313.779C194.803 313.779 193.257 315.325 193.257 317.224Z" fill="white"/>
<path d="M179.509 328.953C179.509 326.777 181.279 325.008 183.454 325.008C185.63 325.008 187.399 326.778 187.399 328.953C187.399 331.128 185.629 332.898 183.454 332.898C181.278 332.898 179.509 331.129 179.509 328.953ZM180.009 328.953C180.009 330.852 181.555 332.398 183.454 332.398C185.353 332.398 186.899 330.852 186.899 328.953C186.899 327.054 185.353 325.508 183.454 325.508C181.555 325.508 180.009 327.053 180.009 328.953Z" fill="white"/>
<path d="M175.382 309.622C175.382 307.446 177.152 305.677 179.327 305.677C181.503 305.677 183.272 307.447 183.272 309.622C183.272 311.798 181.503 313.567 179.327 313.567C177.151 313.568 175.382 311.798 175.382 309.622ZM175.882 309.622C175.882 311.522 177.428 313.067 179.327 313.067C181.226 313.067 182.772 311.521 182.772 309.622C182.772 307.723 181.226 306.177 179.327 306.177C177.428 306.177 175.882 307.723 175.882 309.622Z" fill="white"/>
<path d="M180.595 290.727C180.595 288.551 182.365 286.782 184.54 286.782C186.716 286.782 188.485 288.552 188.485 290.727C188.485 292.903 186.715 294.672 184.54 294.672C182.364 294.672 180.595 292.902 180.595 290.727ZM181.095 290.727C181.095 292.627 182.641 294.172 184.54 294.172C186.439 294.172 187.985 292.626 187.985 290.727C187.985 288.828 186.439 287.282 184.54 287.282C182.64 287.281 181.095 288.827 181.095 290.727Z" fill="white"/>
<path d="M197.97 280.736C197.97 278.56 199.74 276.791 201.915 276.791C204.09 276.791 205.86 278.561 205.86 280.736C205.86 282.912 204.09 284.681 201.915 284.681C199.74 284.681 197.97 282.911 197.97 280.736ZM198.47 280.736C198.47 282.635 200.016 284.181 201.915 284.181C203.814 284.181 205.36 282.635 205.36 280.736C205.36 278.837 203.814 277.291 201.915 277.291C200.016 277.29 198.47 278.836 198.47 280.736Z" fill="white"/>
<path d="M188.193 259.163C188.193 256.987 189.963 255.218 192.138 255.218C194.313 255.218 196.083 256.987 196.083 259.163C196.083 261.339 194.313 263.108 192.138 263.108C189.963 263.108 188.193 261.339 188.193 259.163ZM188.693 259.163C188.693 261.062 190.239 262.608 192.138 262.608C194.037 262.608 195.583 261.062 195.583 259.163C195.583 257.264 194.037 255.718 192.138 255.718C190.239 255.718 188.693 257.264 188.693 259.163Z" fill="white"/>
<path d="M207.527 253.369C207.527 251.193 209.297 249.424 211.472 249.424C213.648 249.424 215.417 251.194 215.417 253.369C215.417 255.545 213.647 257.314 211.472 257.314C209.296 257.315 207.527 255.545 207.527 253.369ZM208.027 253.369C208.027 255.268 209.573 256.814 211.472 256.814C213.371 256.814 214.917 255.268 214.917 253.369C214.917 251.469 213.371 249.924 211.472 249.924C209.573 249.924 208.027 251.47 208.027 253.369Z" fill="white"/>
<path d="M228.269 251.849C228.269 249.673 230.039 247.904 232.214 247.904C234.39 247.904 236.159 249.674 236.159 251.849C236.159 254.024 234.389 255.794 232.214 255.794C230.038 255.794 228.269 254.025 228.269 251.849ZM228.769 251.849C228.769 253.748 230.315 255.294 232.214 255.294C234.113 255.294 235.659 253.748 235.659 251.849C235.659 249.95 234.113 248.404 232.214 248.404C230.315 248.404 228.769 249.949 228.769 251.849Z" fill="white"/>
<path d="M213.065 271.179C213.065 269.003 214.835 267.234 217.01 267.234C219.185 267.234 220.955 269.004 220.955 271.179C220.955 273.355 219.185 275.124 217.01 275.124C214.835 275.124 213.065 273.355 213.065 271.179ZM213.565 271.179C213.565 273.078 215.111 274.624 217.01 274.624C218.909 274.624 220.455 273.078 220.455 271.179C220.455 269.28 218.909 267.734 217.01 267.734C215.111 267.734 213.565 269.28 213.565 271.179Z" fill="white"/>
<path d="M231.852 235.776C231.852 233.6 233.622 231.831 235.797 231.831C237.973 231.831 239.742 233.601 239.742 235.776C239.742 237.952 237.972 239.721 235.797 239.721C233.622 239.722 231.852 237.952 231.852 235.776ZM232.352 235.776C232.352 237.675 233.898 239.221 235.797 239.221C237.696 239.221 239.242 237.675 239.242 235.776C239.242 233.877 237.696 232.331 235.797 232.331C233.898 232.331 232.352 233.877 232.352 235.776Z" fill="white"/>
<path d="M171.237 279.004C171.711 279.25 172.241 279.403 172.811 279.403C174.71 279.403 176.256 277.857 176.256 275.958C176.256 274.951 175.814 274.052 175.122 273.421C175.219 273.287 175.317 273.152 175.415 273.018C176.231 273.741 176.756 274.785 176.756 275.958C176.756 278.134 174.986 279.903 172.811 279.903C172.138 279.903 171.515 279.718 170.96 279.42C171.052 279.282 171.142 279.146 171.237 279.004Z" fill="white"/>
<path d="M160.344 301.148C160.971 301.799 161.847 302.208 162.82 302.208C164.719 302.208 166.265 300.662 166.265 298.763C166.265 296.864 164.719 295.318 162.82 295.318C162.67 295.318 162.528 295.344 162.383 295.362C162.453 295.189 162.524 295.015 162.596 294.84C162.671 294.836 162.743 294.817 162.819 294.817C164.995 294.817 166.764 296.587 166.764 298.762C166.764 300.938 164.994 302.707 162.819 302.707C161.803 302.707 160.885 302.311 160.185 301.678C160.237 301.504 160.291 301.325 160.344 301.148Z" fill="white"/>
<path d="M165.397 323.957C165.397 322.058 163.851 320.512 161.952 320.512C160.99 320.512 160.121 320.91 159.496 321.548C159.445 321.373 159.396 321.196 159.347 321.017C160.044 320.399 160.95 320.012 161.952 320.012C164.128 320.012 165.897 321.782 165.897 323.957C165.897 326.008 164.319 327.678 162.317 327.865C162.305 327.846 162.292 327.828 162.281 327.809C162.198 327.674 162.116 327.533 162.034 327.393C163.895 327.349 165.397 325.828 165.397 323.957Z" fill="white"/>
<path d="M185.409 345.532C187.585 345.532 189.354 347.302 189.354 349.477C189.354 350.465 188.976 351.359 188.374 352.052C188.239 351.955 188.103 351.857 187.969 351.761C188.513 351.152 188.855 350.357 188.855 349.477C188.855 347.577 187.309 346.032 185.41 346.032C184.193 346.032 183.127 346.67 182.514 347.626C182.381 347.518 182.248 347.41 182.122 347.305C182.827 346.239 184.035 345.532 185.409 345.532Z" fill="white"/>
<path d="M213.131 323.197C213.131 325.097 214.677 326.642 216.576 326.642C217.629 326.642 218.562 326.157 219.194 325.41C219.321 325.519 219.445 325.627 219.571 325.735C218.847 326.588 217.78 327.142 216.576 327.142C214.4 327.142 212.631 325.372 212.631 323.197C212.631 322.209 213.008 321.316 213.61 320.624C213.737 320.732 213.862 320.839 213.989 320.947C213.461 321.552 213.131 322.333 213.131 323.197Z" fill="white"/>
<path d="M199.273 298.111C199.273 295.935 201.043 294.166 203.218 294.166C204.189 294.166 205.067 294.532 205.755 295.115C205.678 295.273 205.606 295.423 205.532 295.577C204.919 295.017 204.111 294.666 203.218 294.666C201.319 294.666 199.773 296.212 199.773 298.111C199.773 299.864 201.095 301.3 202.792 301.513C202.719 301.682 202.651 301.842 202.588 301.992C200.713 301.689 199.273 300.071 199.273 298.111Z" fill="white"/>
<path d="M219.508 241.459C217.594 241.459 215.997 240.088 215.64 238.277C215.798 238.194 215.956 238.111 216.115 238.028C216.366 239.682 217.785 240.959 219.508 240.959C221.408 240.959 222.953 239.413 222.953 237.514C222.953 236.559 222.561 235.694 221.931 235.07C222.087 234.991 222.236 234.916 222.39 234.839C223.044 235.544 223.453 236.479 223.453 237.514C223.453 239.69 221.684 241.459 219.508 241.459Z" fill="white"/>
<path d="M243.077 226.489C174.824 247.503 153.561 304.042 159.566 322.326C165.571 340.61 213.43 368.371 213.43 368.371L237.745 341.346L194.099 304.299" stroke="#0F110E" stroke-miterlimit="10"/>
<path d="M211.85 282.751C211.85 282.751 202.042 301.462 200.25 309.717" stroke="#0F110E" stroke-miterlimit="10"/>
<path d="M206.122 363.914L231.715 336.227L237.745 341.345L213.43 368.37C213.43 368.37 210.551 366.701 206.122 363.914Z" fill="white" stroke="#0F110E" stroke-miterlimit="10"/>
<path d="M240.865 350.289C242.574 350.289 243.96 348.903 243.96 347.194C243.96 345.485 242.574 344.099 240.865 344.099C239.156 344.099 237.77 345.485 237.77 347.194C237.77 348.903 239.156 350.289 240.865 350.289Z" fill="white" stroke="#6040D3" stroke-miterlimit="10"/>
<path d="M213.337 342.261C213.337 344.72 211.344 346.713 208.885 346.713C206.426 346.713 204.433 344.72 204.433 342.261C204.433 339.803 206.426 337.809 208.885 337.809C211.344 337.809 213.337 339.802 213.337 342.261Z" fill="white" stroke="#6040D3" stroke-miterlimit="10"/>
<path d="M256.503 334.814C256.503 337.693 254.169 340.027 251.29 340.027C248.411 340.027 246.077 337.693 246.077 334.814C246.077 331.935 248.411 329.601 251.29 329.601C254.169 329.602 256.503 331.935 256.503 334.814Z" fill="white" stroke="#6040D3" stroke-miterlimit="10"/>
<path d="M265.023 301.066C265.023 303.659 262.921 305.761 260.328 305.761C257.735 305.761 255.633 303.659 255.633 301.066C255.633 298.473 257.735 296.371 260.328 296.371C262.921 296.371 265.023 298.473 265.023 301.066Z" fill="white" stroke="#6040D3" stroke-miterlimit="10"/>
<path d="M257.398 345.077C258.163 345.077 258.783 344.457 258.783 343.692C258.783 342.927 258.163 342.307 257.398 342.307C256.633 342.307 256.013 342.927 256.013 343.692C256.013 344.457 256.633 345.077 257.398 345.077Z" fill="white" stroke="#6040D3" stroke-miterlimit="10"/>
<path d="M219.308 368.479C221.167 368.479 222.674 366.972 222.674 365.113C222.674 363.254 221.167 361.747 219.308 361.747C217.449 361.747 215.942 363.254 215.942 365.113C215.942 366.972 217.449 368.479 219.308 368.479Z" fill="white" stroke="#6040D3" stroke-miterlimit="10"/>
<path d="M256.34 348.172C253.746 348.172 251.513 349.691 250.465 351.885C250.127 351.807 249.779 351.756 249.417 351.756C247.602 351.756 246.047 352.808 245.284 354.326C244.592 353.747 243.712 353.385 242.739 353.385C240.535 353.385 238.748 355.172 238.748 357.376C238.748 357.749 238.816 358.103 238.911 358.446C238.574 358.343 238.223 358.272 237.852 358.272C235.828 358.272 234.187 359.913 234.187 361.937C234.187 363.23 234.86 364.36 235.87 365.013C235.135 365.721 234.6 366.63 234.346 367.653C233.783 366.523 232.771 365.669 231.537 365.313C232.345 364.704 232.874 363.745 232.874 362.655C232.874 360.811 231.379 359.316 229.535 359.316C227.691 359.316 226.196 360.811 226.196 362.655C226.196 363.995 226.99 365.143 228.13 365.675C226.7 366.445 225.716 367.938 225.716 369.676C225.716 370.694 226.061 371.625 226.625 372.384C225.701 373.072 224.957 373.982 224.456 375.03C224.146 374.947 223.826 374.888 223.49 374.888C221.421 374.888 219.743 376.565 219.743 378.635C219.743 380.704 221.42 382.382 223.49 382.382C224.027 382.382 224.535 382.265 224.997 382.061C226.273 383.926 228.417 385.151 230.847 385.151C231.79 385.151 232.688 384.963 233.51 384.629C233.914 387.198 236.119 389.169 238.801 389.169C241.77 389.169 244.176 386.762 244.176 383.793C244.176 381.288 242.455 379.202 240.137 378.605C241.272 377.619 242.005 376.183 242.005 374.562C242.005 374.372 241.968 374.192 241.949 374.007C243.866 373.144 245.203 371.221 245.203 368.982C245.203 366.416 243.447 364.266 241.073 363.651C241.347 363.138 241.517 362.56 241.517 361.937C241.517 361.657 241.479 361.388 241.42 361.126C241.835 361.272 242.274 361.367 242.739 361.367C244.124 361.367 245.343 360.66 246.058 359.589C246.904 360.48 248.092 361.041 249.417 361.041C250.577 361.041 251.624 360.601 252.438 359.897C253.527 360.714 254.875 361.204 256.34 361.204C259.939 361.204 262.856 358.287 262.856 354.688C262.855 351.089 259.938 348.172 256.34 348.172Z" fill="white" stroke="#6040D3" stroke-miterlimit="10"/>
<path d="M276.702 366.742C273.776 366.742 271.368 368.947 271.041 371.786C270.272 371.478 269.436 371.303 268.557 371.303C264.868 371.303 261.878 374.293 261.878 377.982C261.878 378.242 261.896 378.498 261.925 378.75C261.648 378.681 261.362 378.634 261.063 378.634C259.084 378.634 257.479 380.238 257.479 382.218C257.479 384.197 259.083 385.802 261.063 385.802C262.677 385.802 264.026 384.728 264.474 383.261C265.603 384.136 267.017 384.662 268.556 384.662C272.245 384.662 275.235 381.672 275.235 377.983C275.235 377.971 275.233 377.96 275.233 377.948C275.702 378.073 276.192 378.146 276.701 378.146C279.85 378.146 282.402 375.593 282.402 372.445C282.403 369.294 279.85 366.742 276.702 366.742Z" fill="white" stroke="#6040D3" stroke-miterlimit="10"/>
<path d="M235.923 318.308C235.923 321.607 233.249 324.281 229.95 324.281C226.651 324.281 223.977 321.607 223.977 318.308C223.977 315.009 226.651 312.335 229.95 312.335C233.249 312.335 235.923 315.009 235.923 318.308Z" fill="white" stroke="#6040D3" stroke-miterlimit="10"/>
<path d="M278.711 323.955C278.711 325.335 277.593 326.453 276.213 326.453C274.833 326.453 273.715 325.335 273.715 323.955C273.715 322.576 274.833 321.457 276.213 321.457C277.592 321.457 278.711 322.575 278.711 323.955Z" fill="white" stroke="#6040D3" stroke-miterlimit="10"/>
<path d="M251.768 387.188C251.768 387.188 263.3 382.602 269.161 378.123C275.022 373.644 287.619 364.982 287.619 364.982L293.32 361.263L280.226 342.355C280.226 342.355 271.183 347.1 269.56 348.028C267.937 348.956 260.218 349.744 256.077 351.554C251.936 353.364 245.385 356.143 243.687 357.277C241.989 358.411 237.835 361.409 236.94 362.648C236.045 363.888 235.355 365.054 236.036 366.113C236.718 367.171 238.952 367.261 238.952 367.261C238.952 367.261 242.782 366.179 244.296 365.165C244.296 365.165 236.784 370.328 234.891 373.214C232.998 376.1 231.778 377.525 232.672 378.856C233.566 380.187 234.914 379.439 234.914 379.439C234.914 379.439 234.818 382.91 236.37 383.077C237.921 383.245 237.201 383.426 237.201 383.426C237.201 383.426 238.159 385.738 239.845 385.791C241.532 385.844 241.601 385.589 241.556 386.484C241.511 387.379 242.463 388.357 245.174 388.293C247.884 388.227 251.768 387.188 251.768 387.188Z" fill="#AC6E4E"/>
<path d="M235.551 378.953C234.75 379.796 234.168 381.125 234.724 382.246C235.311 383.429 236.523 383.733 237.739 383.617C239.252 383.474 240.711 382.926 242.097 382.333C243.859 381.58 245.553 380.668 247.183 379.664C248.85 378.638 250.473 377.51 251.94 376.211C252.423 375.784 251.713 375.078 251.233 375.504C248.329 378.076 244.77 380.2 241.174 381.642C239.871 382.164 238.268 382.813 236.831 382.625C236.113 382.531 235.471 381.999 235.501 381.216C235.523 380.651 235.875 380.062 236.258 379.66C236.701 379.194 235.995 378.485 235.551 378.953Z" fill="black"/>
<path d="M237.193 383.387C237.404 384.352 238.116 385.247 238.98 385.707C240.156 386.332 241.501 386.142 242.756 385.933C247.134 385.203 251.436 383.521 255.328 381.424C255.895 381.119 255.39 380.255 254.823 380.561C251.265 382.478 247.412 383.965 243.449 384.788C241.584 385.176 238.706 385.638 238.157 383.122C238.02 382.493 237.056 382.759 237.193 383.387Z" fill="black"/>
<path d="M241.727 385.32C240.551 386.985 241.829 388.373 243.587 388.594C246.159 388.918 248.952 388.221 251.425 387.563C253.896 386.905 256.295 386.001 258.617 384.933C264.566 382.195 269.998 378.408 275.181 374.439C277.012 373.037 278.741 371.461 280.663 370.186C282.047 369.267 283.431 368.349 284.814 367.43C287.776 365.463 290.739 363.497 293.701 361.53C293.912 361.39 294.042 361.078 293.88 360.846C290.026 355.335 286.171 349.823 282.317 344.312C281.756 343.51 281.195 342.708 280.634 341.906C280.477 341.681 280.202 341.586 279.95 341.727C276.466 343.665 272.956 345.572 269.379 347.334C268.125 347.951 266.847 348.649 265.471 348.945C263.415 349.387 261.358 349.811 259.312 350.303C256.627 350.948 253.903 351.613 251.327 352.623C249.253 353.436 247.307 354.639 245.405 355.785C242.98 357.246 240.578 358.807 238.424 360.652C237.167 361.729 235.249 363.355 235.241 365.19C235.231 367.627 238.311 367.868 240.054 367.46C242.056 366.992 244.018 365.963 245.707 364.802C245.539 364.514 245.371 364.226 245.202 363.939C240.946 366.92 236.373 370.329 233.324 374.582C232.318 375.985 230.891 378.888 233.204 379.905C234.224 380.353 235.455 379.914 236.41 379.505C237.977 378.835 239.419 377.879 240.803 376.892C243.102 375.252 245.307 373.446 247.381 371.529C247.855 371.091 247.146 370.385 246.674 370.822C245.24 372.148 243.736 373.407 242.197 374.609C240.864 375.651 239.489 376.653 238.039 377.526C236.981 378.163 235.764 378.901 234.513 379.059C231.709 379.412 233.543 375.956 234.306 374.926C236.114 372.485 238.511 370.442 240.846 368.523C242.421 367.228 244.038 365.973 245.709 364.803C246.231 364.437 245.738 363.573 245.204 363.94C243.878 364.851 242.406 365.639 240.888 366.171C239.65 366.605 235.546 367.255 236.334 364.699C236.94 362.734 239.331 361.123 240.887 359.97C243.009 358.398 245.261 357 247.549 355.686C249.352 354.651 251.131 353.701 253.111 353.047C255.64 352.212 258.236 351.573 260.83 350.972C262.507 350.584 264.199 350.265 265.876 349.882C267.127 349.596 268.311 348.964 269.458 348.407C273.186 346.596 276.834 344.607 280.455 342.592C280.227 342.532 279.999 342.472 279.771 342.413C283.625 347.924 287.48 353.436 291.335 358.947C291.896 359.749 292.457 360.551 293.018 361.353C293.078 361.125 293.138 360.897 293.197 360.669C288.649 363.688 283.93 366.539 279.516 369.75C276.686 371.809 274.037 374.118 271.195 376.169C268.713 377.96 266.168 379.671 263.528 381.222C259.154 383.792 254.493 385.904 249.522 386.999C248.853 387.146 240.506 388.776 242.589 385.827C242.963 385.298 242.096 384.798 241.727 385.32Z" fill="black"/>
<path d="M279.471 338.398L302.602 363.484L303.905 365.439C303.905 365.439 324.756 352.082 331.272 346.217C337.788 340.353 345.444 334.977 349.842 327.81C354.24 320.643 357.498 307.937 344.792 285.131C344.792 285.131 329.48 259.231 314.493 250.271C314.493 250.271 306.023 243.104 295.434 237.728C284.846 232.352 280.122 229.909 275.887 228.932C271.652 227.955 265.95 225.511 265.95 225.511V233.493C265.95 233.493 294.62 271.936 302.276 286.923C309.932 301.909 310.421 304.353 310.421 304.353C310.421 304.353 312.865 309.891 310.584 310.869C308.304 311.846 281.914 334.977 281.914 334.977L279.471 338.398Z" fill="#D58001"/>
<path d="M287.401 345.278C285.225 345.278 283.456 343.508 283.456 341.334C283.456 339.158 285.226 337.389 287.401 337.389C289.577 337.389 291.346 339.159 291.346 341.334C291.347 343.508 289.577 345.278 287.401 345.278ZM287.401 337.888C285.502 337.888 283.956 339.434 283.956 341.333C283.956 343.232 285.502 344.777 287.401 344.777C289.3 344.777 290.846 343.232 290.846 341.333C290.847 339.434 289.301 337.888 287.401 337.888Z" fill="white"/>
<path d="M302.822 361.025C300.646 361.025 298.877 359.255 298.877 357.08C298.877 354.904 300.647 353.135 302.822 353.135C304.998 353.135 306.767 354.905 306.767 357.08C306.768 359.255 304.998 361.025 302.822 361.025ZM302.822 353.634C300.922 353.634 299.377 355.18 299.377 357.079C299.377 358.978 300.923 360.524 302.822 360.524C304.721 360.524 306.267 358.978 306.267 357.079C306.268 355.18 304.722 353.634 302.822 353.634Z" fill="white"/>
<path d="M307.818 342.02C305.642 342.02 303.873 340.25 303.873 338.075C303.873 335.899 305.643 334.13 307.818 334.13C309.994 334.13 311.763 335.9 311.763 338.075C311.763 340.251 309.994 342.02 307.818 342.02ZM307.818 334.63C305.919 334.63 304.373 336.176 304.373 338.075C304.373 339.974 305.919 341.52 307.818 341.52C309.717 341.52 311.263 339.974 311.263 338.075C311.263 336.176 309.717 334.63 307.818 334.63Z" fill="white"/>
<path d="M315.42 321.169C313.244 321.169 311.475 319.399 311.475 317.224C311.475 315.048 313.245 313.279 315.42 313.279C317.596 313.279 319.365 315.049 319.365 317.224C319.365 319.4 317.595 321.169 315.42 321.169ZM315.42 313.779C313.521 313.779 311.975 315.325 311.975 317.224C311.975 319.123 313.521 320.669 315.42 320.669C317.319 320.669 318.865 319.123 318.865 317.224C318.865 315.325 317.319 313.779 315.42 313.779Z" fill="white"/>
<path d="M328.668 332.898C326.492 332.898 324.723 331.128 324.723 328.953C324.723 326.778 326.492 325.008 328.668 325.008C330.844 325.008 332.613 326.778 332.613 328.953C332.613 331.128 330.844 332.898 328.668 332.898ZM328.668 325.507C326.769 325.507 325.223 327.053 325.223 328.952C325.223 330.851 326.769 332.397 328.668 332.397C330.567 332.397 332.113 330.851 332.113 328.952C332.114 327.053 330.568 325.507 328.668 325.507Z" fill="white"/>
<path d="M332.795 313.568C330.619 313.568 328.85 311.798 328.85 309.623C328.85 307.447 330.62 305.678 332.795 305.678C334.971 305.678 336.74 307.448 336.74 309.623C336.74 311.798 334.971 313.568 332.795 313.568ZM332.795 306.177C330.895 306.177 329.35 307.723 329.35 309.622C329.35 311.522 330.896 313.067 332.795 313.067C334.694 313.067 336.24 311.521 336.24 309.622C336.24 307.723 334.695 306.177 332.795 306.177Z" fill="white"/>
<path d="M327.582 294.672C325.406 294.672 323.637 292.902 323.637 290.727C323.637 288.551 325.407 286.782 327.582 286.782C329.757 286.782 331.527 288.552 331.527 290.727C331.528 292.902 329.758 294.672 327.582 294.672ZM327.582 287.281C325.683 287.281 324.137 288.827 324.137 290.726C324.137 292.626 325.683 294.171 327.582 294.171C329.481 294.171 331.027 292.625 331.027 290.726C331.028 288.827 329.482 287.281 327.582 287.281Z" fill="white"/>
<path d="M310.207 284.681C308.031 284.681 306.262 282.911 306.262 280.736C306.262 278.56 308.032 276.791 310.207 276.791C312.383 276.791 314.152 278.561 314.152 280.736C314.152 282.911 312.383 284.681 310.207 284.681ZM310.207 277.29C308.307 277.29 306.762 278.836 306.762 280.735C306.762 282.634 308.308 284.18 310.207 284.18C312.106 284.18 313.652 282.634 313.652 280.735C313.652 278.836 312.106 277.29 310.207 277.29Z" fill="white"/>
<path d="M319.984 263.109C317.808 263.109 316.039 261.339 316.039 259.164C316.039 256.989 317.809 255.219 319.984 255.219C322.159 255.219 323.929 256.988 323.929 259.164C323.929 261.34 322.16 263.109 319.984 263.109ZM319.984 255.718C318.085 255.718 316.539 257.264 316.539 259.163C316.539 261.062 318.085 262.608 319.984 262.608C321.883 262.608 323.429 261.062 323.429 259.163C323.429 257.264 321.883 255.718 319.984 255.718Z" fill="white"/>
<path d="M300.65 257.315C298.474 257.315 296.705 255.545 296.705 253.37C296.705 251.194 298.475 249.425 300.65 249.425C302.825 249.425 304.595 251.195 304.595 253.37C304.596 255.545 302.826 257.315 300.65 257.315ZM300.65 249.924C298.751 249.924 297.205 251.47 297.205 253.369C297.205 255.268 298.751 256.814 300.65 256.814C302.549 256.814 304.095 255.268 304.095 253.369C304.096 251.47 302.55 249.924 300.65 249.924Z" fill="white"/>
<path d="M279.908 255.794C277.732 255.794 275.963 254.024 275.963 251.849C275.963 249.674 277.733 247.904 279.908 247.904C282.084 247.904 283.853 249.674 283.853 251.849C283.853 254.024 282.084 255.794 279.908 255.794ZM279.908 248.404C278.009 248.404 276.463 249.95 276.463 251.849C276.463 253.748 278.009 255.294 279.908 255.294C281.807 255.294 283.353 253.748 283.353 251.849C283.353 249.95 281.808 248.404 279.908 248.404Z" fill="white"/>
<path d="M295.112 275.124C292.936 275.124 291.167 273.354 291.167 271.179C291.167 269.003 292.937 267.234 295.112 267.234C297.288 267.234 299.057 269.004 299.057 271.179C299.057 273.355 297.288 275.124 295.112 275.124ZM295.112 267.734C293.213 267.734 291.667 269.28 291.667 271.179C291.667 273.078 293.213 274.624 295.112 274.624C297.011 274.624 298.557 273.078 298.557 271.179C298.557 269.28 297.011 267.734 295.112 267.734Z" fill="white"/>
<path d="M276.325 239.722C274.149 239.722 272.38 237.952 272.38 235.777C272.38 233.601 274.15 231.832 276.325 231.832C278.501 231.832 280.27 233.602 280.27 235.777C280.27 237.952 278.5 239.722 276.325 239.722ZM276.325 232.331C274.426 232.331 272.88 233.877 272.88 235.776C272.88 237.675 274.426 239.221 276.325 239.221C278.224 239.221 279.77 237.675 279.77 235.776C279.77 233.877 278.224 232.331 276.325 232.331Z" fill="white"/>
<path d="M340.885 279.004C340.411 279.25 339.881 279.403 339.311 279.403C337.412 279.403 335.866 277.857 335.866 275.958C335.866 274.951 336.308 274.052 337 273.421C336.903 273.287 336.805 273.152 336.707 273.018C335.891 273.741 335.366 274.785 335.366 275.958C335.366 278.134 337.136 279.903 339.311 279.903C339.983 279.903 340.607 279.718 341.162 279.42C341.07 279.282 340.98 279.146 340.885 279.004Z" fill="white"/>
<path d="M351.778 301.148C351.151 301.799 350.275 302.208 349.302 302.208C347.403 302.208 345.857 300.662 345.857 298.763C345.857 296.864 347.403 295.318 349.302 295.318C349.452 295.318 349.594 295.344 349.739 295.362C349.669 295.189 349.598 295.015 349.526 294.84C349.45 294.836 349.379 294.817 349.302 294.817C347.126 294.817 345.357 296.587 345.357 298.762C345.357 300.938 347.127 302.707 349.302 302.707C350.318 302.707 351.236 302.311 351.936 301.678C351.885 301.504 351.831 301.325 351.778 301.148Z" fill="white"/>
<path d="M346.725 323.957C346.725 322.058 348.271 320.512 350.17 320.512C351.132 320.512 352.001 320.91 352.626 321.548C352.677 321.373 352.727 321.196 352.775 321.017C352.078 320.399 351.172 320.012 350.17 320.012C347.994 320.012 346.225 321.782 346.225 323.957C346.225 326.008 347.803 327.678 349.805 327.865C349.817 327.846 349.83 327.828 349.841 327.809C349.924 327.674 350.005 327.533 350.088 327.393C348.228 327.349 346.725 325.828 346.725 323.957Z" fill="white"/>
<path d="M326.714 345.532C324.538 345.532 322.769 347.302 322.769 349.477C322.769 350.465 323.147 351.359 323.749 352.052C323.884 351.955 324.021 351.857 324.154 351.761C323.61 351.152 323.269 350.357 323.269 349.477C323.269 347.577 324.815 346.032 326.714 346.032C327.931 346.032 328.997 346.67 329.61 347.626C329.743 347.518 329.876 347.41 330.002 347.305C329.295 346.239 328.087 345.532 326.714 345.532Z" fill="white"/>
<path d="M298.992 323.197C298.992 325.097 297.446 326.642 295.547 326.642C294.494 326.642 293.561 326.157 292.929 325.41C292.802 325.519 292.678 325.627 292.552 325.735C293.276 326.588 294.343 327.142 295.547 327.142C297.723 327.142 299.492 325.372 299.492 323.197C299.492 322.209 299.115 321.316 298.513 320.624C298.387 320.732 298.261 320.839 298.134 320.947C298.661 321.552 298.992 322.333 298.992 323.197Z" fill="white"/>
<path d="M312.849 298.111C312.849 295.935 311.079 294.166 308.904 294.166C307.933 294.166 307.055 294.532 306.367 295.115C306.444 295.273 306.516 295.423 306.59 295.577C307.203 295.017 308.011 294.666 308.904 294.666C310.803 294.666 312.349 296.212 312.349 298.111C312.349 299.864 311.027 301.3 309.33 301.513C309.403 301.682 309.471 301.842 309.534 301.992C311.409 301.689 312.849 300.071 312.849 298.111Z" fill="white"/>
<path d="M292.614 241.459C294.528 241.459 296.125 240.088 296.482 238.277C296.324 238.194 296.166 238.111 296.007 238.028C295.756 239.682 294.337 240.959 292.614 240.959C290.715 240.959 289.169 239.413 289.169 237.514C289.169 236.559 289.561 235.694 290.191 235.07C290.035 234.991 289.885 234.916 289.732 234.839C289.078 235.544 288.669 236.479 288.669 237.514C288.669 239.69 290.438 241.459 292.614 241.459Z" fill="white"/>
<path d="M269.046 226.489C337.299 247.503 358.562 304.042 352.557 322.326C346.552 340.61 298.693 368.371 298.693 368.371L274.378 341.346L318.024 304.299" stroke="#0F110E" stroke-miterlimit="10"/>
<path d="M300.272 282.751C300.272 282.751 310.08 301.462 311.872 309.717" stroke="#0F110E" stroke-miterlimit="10"/>
<path d="M306 363.914L280.407 336.227L274.377 341.345L298.692 368.37C298.692 368.37 301.571 366.701 306 363.914Z" fill="white" stroke="#0F110E" stroke-miterlimit="10"/>
<path d="M203.996 303.321C203.996 303.321 206.12 304.768 206.168 305.982C206.222 307.367 205.652 312.661 204.458 312.661C203.263 312.661 201.173 310.272 201.173 310.272C201.173 310.272 199.978 309.295 200.63 307.883C201.282 306.471 202.259 303.105 202.259 303.105L203.996 303.321Z" fill="#0F110E"/>
<path d="M201.281 306.47C201.281 306.47 217.733 298.162 224.086 271.936C228.967 251.786 228.321 230.723 225.063 231.701C222.867 232.36 217.899 234.115 215.045 235.692C211.95 237.402 209.181 241.393 209.181 241.393C209.181 241.393 212.602 239.275 212.699 239.845C214.135 248.285 211.62 276.813 201.281 306.47Z" fill="#6040D3" stroke="#0F110E" stroke-miterlimit="10"/>
<path d="M308.068 303.321C308.068 303.321 305.944 304.768 305.896 305.982C305.842 307.367 306.412 312.661 307.606 312.661C308.8 312.661 310.891 310.272 310.891 310.272C310.891 310.272 312.086 309.295 311.434 307.883C310.782 306.471 309.805 303.105 309.805 303.105L308.068 303.321Z" fill="#0F110E"/>
<path d="M310.782 306.47C310.782 306.47 294.33 298.162 287.977 271.936C283.096 251.786 283.742 230.723 287 231.701C289.196 232.36 294.164 234.115 297.018 235.692C300.113 237.402 302.882 241.393 302.882 241.393C302.882 241.393 299.461 239.275 299.364 239.845C297.929 248.285 300.443 276.813 310.782 306.47Z" fill="#6040D3" stroke="#0F110E" stroke-miterlimit="10"/>
<path d="M255.536 242.896C267.541 242.896 277.273 237.499 277.273 230.842C277.273 224.185 267.541 218.788 255.536 218.788C243.531 218.788 233.799 224.185 233.799 230.842C233.799 237.499 243.531 242.896 255.536 242.896Z" fill="white" stroke="black" stroke-miterlimit="10"/>
<path d="M310.682 155.683C314.34 146.857 310.239 128.147 295.608 120.851C281.459 113.796 215.803 124.617 212.81 134.501L214.14 136.619C214.14 136.619 196.516 138.031 197.846 158.154C198.387 166.345 203.831 169.985 199.841 179.164C195.851 188.343 205.328 203.438 217.465 200.164C227.125 197.558 216.8 212.12 239.412 212.915C256.52 213.516 252.269 204.283 259.918 209.578C267.566 214.873 282.142 213.614 287.462 204.435C291.648 197.213 289.171 197.339 295.165 197.339C309.131 197.339 315.875 179.159 308.023 169.097C303.201 162.92 307.025 164.508 310.682 155.683Z" fill="#0F110E"/>
<path d="M302.452 182.721C302.344 188.009 297.935 192.208 292.603 192.1C287.271 191.992 283.036 187.616 283.144 182.328C283.252 177.04 287.661 172.841 292.993 172.949C298.325 173.058 302.56 177.433 302.452 182.721Z" fill="#AC6E4E" stroke="black" stroke-miterlimit="10"/>
<path d="M288.176 183.683C288.167 183.478 288.179 183.272 288.194 183.068C288.202 182.97 288.212 182.873 288.222 182.775C288.241 182.587 288.213 182.816 288.225 182.746C288.237 182.677 288.246 182.607 288.257 182.538C288.303 182.267 288.364 181.998 288.44 181.734C288.48 181.596 288.524 181.459 288.573 181.325C288.598 181.255 288.625 181.186 288.652 181.117C288.664 181.087 288.699 181.008 288.641 181.141C288.662 181.092 288.684 181.044 288.706 180.995C288.843 180.701 289.007 180.425 289.191 180.158C289.29 180.014 289.158 180.187 289.272 180.051C289.326 179.988 289.379 179.924 289.435 179.863C289.562 179.725 289.698 179.597 289.841 179.475C289.841 179.475 289.973 179.369 289.901 179.425C289.828 179.482 289.967 179.377 289.965 179.378C290.039 179.326 290.113 179.275 290.19 179.227C290.366 179.117 290.55 179.02 290.74 178.936C290.644 178.978 290.737 178.937 290.754 178.93C290.829 178.9 290.905 178.872 290.982 178.846C291.091 178.809 291.202 178.776 291.313 178.746C291.532 178.688 291.836 178.631 291.98 178.614C292.626 178.541 293.278 178.57 293.922 178.65C294.258 178.692 294.547 178.333 294.547 178.025C294.547 177.653 294.258 177.442 293.922 177.4C291.955 177.155 289.804 177.513 288.453 179.088C287.55 180.141 287.112 181.471 286.965 182.833C286.935 183.112 286.913 183.398 286.925 183.679C286.96 184.484 288.211 184.489 288.176 183.683Z" fill="#0F110E"/>
<path d="M206.547 182.328C206.439 187.616 210.674 191.992 216.006 192.1C221.338 192.209 225.747 188.009 225.855 182.721C225.963 177.433 221.728 173.058 216.396 172.949C211.064 172.841 206.654 177.04 206.547 182.328Z" fill="#AC6E4E" stroke="black" stroke-miterlimit="10"/>
<path d="M222.022 183.896C222.088 183.106 221.973 182.266 221.774 181.505C221.378 179.994 220.442 178.62 219.005 177.935C217.839 177.379 216.536 177.256 215.261 177.362C214.925 177.39 214.636 177.629 214.636 177.987C214.636 178.303 214.923 178.64 215.261 178.612C216.326 178.523 217.276 178.561 218.26 178.961C218.16 178.92 218.389 179.021 218.425 179.038C218.508 179.079 218.589 179.122 218.67 179.168C218.748 179.213 218.824 179.259 218.899 179.309C218.943 179.338 218.986 179.368 219.029 179.398C219.057 179.418 219.085 179.438 219.113 179.459C219.062 179.419 219.053 179.412 219.088 179.44C219.225 179.55 219.355 179.667 219.478 179.793C219.535 179.851 219.59 179.911 219.643 179.972C219.675 180.008 219.705 180.046 219.736 180.082C219.82 180.182 219.672 179.992 219.756 180.106C219.956 180.379 220.129 180.669 220.272 180.976C220.288 181.01 220.302 181.044 220.318 181.078C220.358 181.164 220.262 180.935 220.315 181.071C220.342 181.139 220.369 181.206 220.394 181.274C220.449 181.426 220.499 181.581 220.542 181.738C220.617 182.008 220.672 182.282 220.717 182.558C220.723 182.593 220.727 182.629 220.733 182.665C220.704 182.484 220.721 182.563 220.724 182.603C220.73 182.67 220.74 182.736 220.746 182.803C220.757 182.914 220.766 183.026 220.772 183.137C220.786 183.389 220.793 183.645 220.772 183.896C220.744 184.233 221.079 184.521 221.397 184.521C221.758 184.521 221.993 184.234 222.022 183.896Z" fill="#0F110E"/>
<path d="M269.133 224.143C269.251 230.328 264.288 235.486 258.102 235.604L253.311 235.696C247.126 235.814 241.968 230.85 241.85 224.665L241.407 201.525C241.289 195.34 246.252 190.182 252.438 190.064L257.229 189.972C263.414 189.854 268.572 194.817 268.69 201.003L269.133 224.143Z" fill="#AC6E4E" stroke="black" stroke-miterlimit="10"/>
<path d="M284.453 188.884C284.453 201.234 274.348 211.338 261.998 211.338H245.89C233.54 211.338 223.435 201.234 223.435 188.884V152.982C223.435 140.632 233.54 130.527 245.89 130.527H261.999C274.349 130.527 284.454 140.632 284.454 152.982V188.884H284.453Z" fill="#AC6E4E" stroke="black" stroke-miterlimit="10"/>
<path d="M284.453 188.884C284.453 201.234 274.348 211.338 261.998 211.338H245.89C233.54 211.338 223.435 201.234 223.435 188.884V152.982C223.435 140.632 233.54 130.527 245.89 130.527H261.999C274.349 130.527 284.454 140.632 284.454 152.982V188.884H284.453Z" stroke="#0F110E" stroke-miterlimit="10"/>
<path d="M253.645 164.697L250.302 178.678L257.618 178.532L253.645 164.697Z" fill="#843A20"/>
<path d="M237.531 166.888C239.471 170.472 235.614 173.984 232.175 171.596C231.954 171.442 231.76 171.235 231.621 171.005C229.458 167.42 233.21 163.797 236.663 165.962C237.028 166.192 237.326 166.51 237.531 166.888Z" fill="#0F110E"/>
<path d="M275.092 168.958C275.029 170.909 273.397 172.44 271.446 172.377C269.495 172.314 267.964 170.682 268.027 168.731C268.09 166.78 269.722 165.249 271.673 165.312C273.624 165.375 275.155 167.007 275.092 168.958Z" fill="#0F110E"/>
<path d="M248.58 189.227C249.029 192.437 251.819 194.921 255.077 194.921C258.335 194.921 261.125 192.437 261.574 189.227C261.666 188.566 260.655 188.28 260.561 188.948C260.176 191.7 257.911 193.875 255.076 193.872C252.24 193.868 249.977 191.707 249.591 188.948C249.5 188.282 248.488 188.565 248.58 189.227Z" fill="#0F110E"/>
<path d="M207.6 153.836C207.6 153.836 211.59 163.812 216.689 159.156C221.788 154.501 223.561 152.506 230.655 152.949C237.749 153.392 243.9 149.347 241.905 143.583C239.91 137.819 248.057 135.215 251.382 144.082C254.707 152.949 267.62 155.277 271.167 148.405C274.714 141.533 276.099 146.521 280.976 149.624C285.853 152.728 296.937 151.397 298.489 143.639C300.041 135.88 296.272 132.333 293.612 128.565C290.952 124.796 297.27 124.464 295.607 120.851C294.558 118.573 280.122 90.5529 239.205 111.111C239.205 111.111 206.1 112.889 204.274 138.984C203.499 150.068 207.6 153.836 207.6 153.836Z" fill="#0F110E"/>
<path d="M279.165 181.605C279.165 181.605 266.625 178.815 262.464 176.646C259.215 174.953 256.757 174.412 254.15 174.444C251.615 174.562 249.085 174.953 245.836 176.646C241.675 178.814 229.135 181.605 229.135 181.605C226.608 190.594 229.135 201.008 229.135 201.008C235.167 207.699 248.46 210.639 254.15 210.638C261.467 210.806 273.133 207.698 279.165 201.008C279.165 201.008 281.691 190.594 279.165 181.605Z" fill="white" stroke="#0F110E" stroke-miterlimit="10"/>
<path d="M239.114 185.319C241.901 184.037 245.128 183.43 248.144 183.047C255.805 182.074 263.566 183.15 270.824 185.717C271.28 185.878 271.476 185.154 271.023 184.994C263.611 182.372 255.672 181.303 247.854 182.335C244.791 182.739 241.565 183.37 238.735 184.672C238.297 184.872 238.678 185.519 239.114 185.319Z" fill="#0F110E"/>
<path d="M235.831 190.211C238.899 191.1 242.05 191.756 245.193 192.309C251.166 193.36 257.366 194.036 263.42 193.345C266.469 192.997 269.523 192.28 272.195 190.723C272.612 190.48 272.235 189.832 271.816 190.075C266.781 193.009 260.39 193.087 254.737 192.732C249.494 192.403 244.281 191.515 239.174 190.298C238.122 190.047 237.069 189.788 236.03 189.487C235.566 189.353 235.367 190.077 235.831 190.211Z" fill="#0F110E"/>
<path d="M235.848 198.124C238.639 199.044 241.551 199.672 244.439 200.191C250.532 201.286 256.823 201.752 262.982 200.965C266.618 200.5 270.169 199.572 273.49 198.005C273.926 197.799 273.546 197.152 273.111 197.357C262.627 202.302 249.796 201.038 238.885 198.211C237.934 197.964 236.981 197.708 236.047 197.401C235.588 197.249 235.391 197.973 235.848 198.124Z" fill="#0F110E"/>
<path d="M222.388 175.176L229.134 181.605" stroke="#0F110E" stroke-miterlimit="10"/>
<path d="M222.82 189.85L229.134 201.007" stroke="#0F110E" stroke-miterlimit="10"/>
<path d="M286.278 175.176L279.019 182.094" stroke="#0F110E" stroke-miterlimit="10"/>
<path d="M285.846 189.85L279.019 201.167" stroke="#0F110E" stroke-miterlimit="10"/>
<path d="M162.077 415.936C162.077 413.673 183.919 292.336 183.919 292.336L189.388 292.147L211.162 416.37L162.077 415.936Z" fill="white"/>
<path d="M162.702 415.936C162.707 415.492 162.752 415.463 162.838 414.9C162.976 413.995 163.126 413.091 163.275 412.187C163.795 409.05 164.337 405.917 164.88 402.785C166.593 392.909 168.341 383.038 170.092 373.169C172.187 361.36 174.294 349.554 176.405 337.748C178.213 327.64 180.024 317.533 181.839 307.427C182.436 304.103 183.033 300.78 183.63 297.456C183.816 296.42 184.002 295.385 184.189 294.349C184.272 293.885 184.542 293.188 184.483 292.716C184.475 292.654 184.51 292.567 184.521 292.504C184.32 292.657 184.119 292.81 183.918 292.963C185.741 292.9 187.564 292.837 189.387 292.774C189.186 292.621 188.985 292.468 188.784 292.315C189.508 296.444 190.232 300.574 190.955 304.703C192.693 314.616 194.43 324.528 196.167 334.441C198.253 346.344 200.34 358.247 202.426 370.149C204.242 380.512 206.059 390.874 207.875 401.237C208.473 404.651 209.072 408.065 209.67 411.479C209.856 412.541 210.042 413.603 210.229 414.665C210.315 415.156 210.309 415.874 210.521 416.33C210.548 416.387 210.546 416.474 210.557 416.537C210.758 416.273 210.959 416.01 211.16 415.746C205.639 415.697 200.118 415.648 194.597 415.599C185.789 415.521 176.981 415.443 168.173 415.365C166.14 415.347 164.107 415.329 162.074 415.311C161.269 415.304 161.269 416.554 162.074 416.561C167.595 416.61 173.116 416.659 178.637 416.708C187.445 416.786 196.253 416.864 205.061 416.942C207.094 416.96 209.127 416.978 211.16 416.996C211.597 417 211.831 416.595 211.763 416.205C211.039 412.076 210.315 407.946 209.592 403.817C207.854 393.904 206.117 383.992 204.379 374.079C202.293 362.176 200.206 350.273 198.12 338.371C196.304 328.008 194.487 317.646 192.671 307.283C192.073 303.869 191.474 300.455 190.876 297.041C190.598 295.457 190.469 293.739 190.026 292.19C190.007 292.124 190.002 292.051 189.99 291.983C189.945 291.724 189.641 291.515 189.387 291.524C187.564 291.587 185.741 291.65 183.918 291.713C183.664 291.722 183.364 291.899 183.315 292.172C182.585 296.228 181.856 300.283 181.128 304.339C179.383 314.055 177.641 323.771 175.902 333.489C173.791 345.285 171.685 357.082 169.589 368.881C167.76 379.177 165.935 389.473 164.14 399.775C163.535 403.251 162.931 406.728 162.345 410.207C162.047 411.977 161.643 413.775 161.489 415.566C161.478 415.69 161.452 415.814 161.451 415.939C161.443 416.741 162.693 416.741 162.702 415.936Z" fill="#6040D3"/>
<path d="M185.935 302.898C185.88 307.734 185.825 312.57 185.77 317.406C185.762 318.102 185.754 318.798 185.746 319.494C185.737 320.299 186.987 320.299 186.996 319.494C187.051 314.658 187.106 309.822 187.161 304.986C187.169 304.29 187.177 303.594 187.185 302.898C187.194 302.094 185.944 302.093 185.935 302.898Z" fill="#6040D3"/>
<path d="M182.163 318.74C181.943 322.752 181.723 326.763 181.504 330.775C181.472 331.352 181.441 331.93 181.409 332.507C181.365 333.311 182.615 333.308 182.659 332.507C182.879 328.495 183.099 324.484 183.319 320.472C183.351 319.894 183.382 319.317 183.414 318.739C183.457 317.936 182.207 317.939 182.163 318.74Z" fill="#6040D3"/>
<path d="M186.878 328.17C186.878 333.292 186.878 338.414 186.878 343.536C186.878 344.26 186.878 344.985 186.878 345.709C186.878 346.513 188.128 346.515 188.128 345.709C188.128 340.587 188.128 335.465 188.128 330.343C188.128 329.619 188.128 328.894 188.128 328.17C188.128 327.366 186.878 327.365 186.878 328.17Z" fill="#6040D3"/>
<path d="M191.404 319.117C191.569 322.03 191.734 324.942 191.899 327.855C191.923 328.274 191.946 328.694 191.97 329.113C192.015 329.913 193.266 329.918 193.22 329.113C193.055 326.2 192.89 323.288 192.725 320.375C192.701 319.956 192.677 319.536 192.654 319.117C192.609 318.318 191.359 318.313 191.404 319.117Z" fill="#6040D3"/>
<path d="M181.031 341.561C180.921 346.287 180.811 351.013 180.701 355.739C180.685 356.419 180.669 357.1 180.654 357.78C180.635 358.585 181.885 358.584 181.904 357.78C182.014 353.054 182.124 348.328 182.234 343.602C182.25 342.922 182.266 342.241 182.281 341.561C182.3 340.756 181.05 340.756 181.031 341.561Z" fill="#6040D3"/>
<path d="M193.856 345.898C194.021 350.294 194.186 354.691 194.351 359.087C194.375 359.72 194.398 360.353 194.422 360.986C194.452 361.788 195.702 361.792 195.672 360.986C195.507 356.59 195.342 352.193 195.177 347.797C195.153 347.164 195.129 346.531 195.106 345.898C195.076 345.096 193.826 345.092 193.856 345.898Z" fill="#6040D3"/>
<path d="M185.386 363.165C185.551 367.561 185.716 371.958 185.881 376.354C185.905 376.987 185.928 377.62 185.952 378.253C185.982 379.055 187.232 379.059 187.202 378.253C187.037 373.857 186.872 369.46 186.707 365.064C186.683 364.431 186.659 363.798 186.636 363.165C186.605 362.363 185.355 362.359 185.386 363.165Z" fill="#6040D3"/>
<path d="M175.286 368.378C175.451 372.774 175.616 377.171 175.781 381.567C175.805 382.2 175.828 382.833 175.852 383.466C175.882 384.268 177.132 384.272 177.102 383.466C176.937 379.07 176.772 374.673 176.607 370.277C176.583 369.644 176.559 369.011 176.536 368.378C176.506 367.576 175.256 367.572 175.286 368.378Z" fill="#6040D3"/>
<path d="M198.091 369.03C198.256 373.426 198.421 377.823 198.586 382.219C198.61 382.852 198.634 383.485 198.657 384.118C198.687 384.92 199.937 384.924 199.907 384.118C199.742 379.722 199.577 375.325 199.412 370.929C199.388 370.296 199.365 369.663 199.341 369.03C199.311 368.228 198.061 368.224 198.091 369.03Z" fill="#6040D3"/>
<path d="M191.25 380.432C191.415 384.828 191.58 389.225 191.745 393.621C191.769 394.254 191.793 394.887 191.816 395.52C191.846 396.322 193.096 396.326 193.066 395.52C192.901 391.124 192.736 386.727 192.571 382.331C192.547 381.698 192.524 381.065 192.5 380.432C192.47 379.63 191.22 379.626 191.25 380.432Z" fill="#6040D3"/>
<path d="M181.476 386.622C181.641 391.018 181.806 395.415 181.971 399.811C181.995 400.444 182.019 401.077 182.042 401.71C182.072 402.512 183.322 402.516 183.292 401.71C183.127 397.314 182.962 392.917 182.797 388.521C182.773 387.888 182.75 387.255 182.726 386.622C182.696 385.82 181.446 385.816 181.476 386.622Z" fill="#6040D3"/>
<path d="M170.725 396.07C170.89 400.466 171.055 404.863 171.22 409.259C171.244 409.892 171.267 410.525 171.291 411.158C171.321 411.96 172.571 411.964 172.541 411.158C172.376 406.762 172.211 402.365 172.046 397.969C172.022 397.336 171.998 396.703 171.975 396.07C171.945 395.268 170.695 395.264 170.725 396.07Z" fill="#6040D3"/>
<path d="M200.698 397.373C200.863 401.769 201.028 406.166 201.193 410.562C201.217 411.195 201.24 411.828 201.264 412.461C201.294 413.263 202.544 413.267 202.514 412.461C202.349 408.065 202.184 403.668 202.019 399.272C201.995 398.639 201.971 398.006 201.948 397.373C201.918 396.572 200.668 396.568 200.698 397.373Z" fill="#6040D3"/>
<path d="M188.318 397.048C188.483 401.444 188.648 405.841 188.813 410.237C188.837 410.87 188.86 411.503 188.884 412.136C188.914 412.938 190.164 412.942 190.134 412.136C189.969 407.74 189.804 403.343 189.639 398.947C189.615 398.314 189.591 397.681 189.568 397.048C189.538 396.246 188.287 396.242 188.318 397.048Z" fill="#6040D3"/>
<path d="M151.215 338.211L165.268 326.228C166.763 324.953 169.036 325.27 170.126 326.905L171.415 328.839C172.273 330.126 172.115 331.839 171.036 332.947L156.431 347.944C154.537 349.888 151.236 348.823 150.836 346.138L150.099 341.19C149.932 340.072 150.354 338.946 151.215 338.211Z" fill="#A3A0A4" stroke="#0F110E" stroke-miterlimit="10"/>
<path d="M189.921 266.592C187.895 261.636 184.332 257.211 179.327 255.022C176.739 253.89 174.115 253.232 171.268 253.207C170.052 253.196 168.836 253.207 167.62 253.207C163.394 253.207 159.372 253.69 155.653 255.909C148.816 259.987 145.262 267.576 145.262 275.374C145.262 283.487 145.262 291.6 145.262 299.713C145.262 312.603 145.262 325.493 145.262 338.383C145.262 346.171 145.158 353.968 145.262 361.755C145.264 361.878 145.262 362.002 145.262 362.125C145.262 364.737 147.559 367.239 150.255 367.118C152.96 366.997 155.248 364.924 155.248 362.125C155.248 355.91 155.248 349.694 155.248 343.479C155.248 331.066 155.248 318.654 155.248 306.241C155.248 296.696 155.248 287.151 155.248 277.606C155.248 276.761 155.247 275.916 155.248 275.07C155.249 274.764 155.324 272.204 156.296 269.62C156.336 269.537 156.375 269.452 156.416 269.369C156.634 268.935 156.869 268.51 157.123 268.096C157.274 267.85 157.431 267.607 157.595 267.369C157.637 267.308 157.81 267.088 157.897 266.973C158.07 266.772 158.237 266.566 158.428 266.382C159.205 265.636 160.264 264.764 161.425 264.123C161.598 264.028 161.788 263.918 162.048 263.811C162.575 263.631 163.095 263.492 163.641 263.367C163.815 263.327 163.991 263.298 164.164 263.258C164.59 263.227 165.014 263.196 165.443 263.192C165.845 263.188 166.248 263.192 166.65 263.192C168.043 263.192 173.029 263.344 174.734 263.855C176.046 264.248 176.835 264.988 176.991 265.088C177.379 265.424 179.041 267.248 179.081 267.306C179.13 267.356 179.143 267.376 179.102 267.337C179.218 267.506 179.997 268.761 180.239 269.237C180.33 269.416 180.415 269.598 180.502 269.779C180.54 269.878 180.578 269.976 180.614 270.076C180.962 271.048 181.182 272.038 181.387 273.046C181.409 273.309 181.435 273.571 181.448 273.835C181.465 274.163 181.47 274.492 181.473 274.82C181.507 279.785 181.473 284.751 181.473 289.716C181.473 290.243 181.473 290.77 181.473 291.298C181.473 293.91 183.769 296.412 186.466 296.291C189.171 296.17 191.459 294.097 191.459 291.298C191.459 286.344 191.459 281.391 191.459 276.437C191.459 273.086 191.205 269.732 189.921 266.592Z" fill="#A3A0A4" stroke="#0F110E" stroke-miterlimit="10"/>
<path d="M264.81 395.004C264.81 392.377 262.828 390.236 260.282 389.934C260.36 389.599 260.412 389.254 260.412 388.896C260.412 386.377 258.37 384.335 255.851 384.335C253.94 384.335 252.309 385.512 251.63 387.18C251.388 387.132 251.138 387.105 250.883 387.105C250.788 387.105 250.698 387.126 250.604 387.133C250.779 386.751 250.883 386.33 250.883 385.883C250.883 384.219 249.534 382.87 247.869 382.87C246.205 382.87 244.855 384.219 244.855 385.883C244.855 385.959 244.872 386.031 244.877 386.106C244.044 385.37 242.961 384.908 241.762 384.908C240.508 384.908 239.376 385.405 238.53 386.202C237.853 385.564 236.948 385.167 235.945 385.167C233.858 385.167 232.166 386.859 232.166 388.946C232.166 389.929 232.55 390.816 233.165 391.488C232.576 392.411 232.23 393.504 232.23 394.68C232.23 397.964 234.892 400.626 238.176 400.626C239.587 400.626 240.881 400.132 241.901 399.311C242.116 400.046 242.48 400.716 242.961 401.287C241.745 401.695 240.864 402.83 240.864 404.183C240.864 405.878 242.238 407.251 243.932 407.251C245.626 407.251 247 405.877 247 404.183C247 403.843 246.932 403.522 246.83 403.217C246.932 403.223 247.032 403.232 247.135 403.232C249.064 403.232 250.755 402.229 251.725 400.718C252.286 401.066 252.942 401.277 253.65 401.277C254.082 401.277 254.491 401.189 254.876 401.051C254.876 401.067 254.871 401.082 254.871 401.098C254.871 402.483 255.994 403.606 257.379 403.606C258.764 403.606 259.888 402.483 259.888 401.098C259.888 400.757 259.819 400.432 259.695 400.135C262.523 400.123 264.81 397.832 264.81 395.004Z" fill="white" stroke="#6040D3" stroke-miterlimit="10"/>
<path d="M223.923 395.249C225.992 395.249 227.67 393.571 227.67 391.502C227.67 389.432 225.992 387.755 223.923 387.755C221.854 387.755 220.176 389.432 220.176 391.502C220.176 393.571 221.854 395.249 223.923 395.249Z" fill="white" stroke="#6040D3" stroke-miterlimit="10"/>
<path d="M252.322 411.692C254.391 411.692 256.069 410.014 256.069 407.945C256.069 405.876 254.391 404.198 252.322 404.198C250.253 404.198 248.575 405.876 248.575 407.945C248.575 410.014 250.253 411.692 252.322 411.692Z" fill="white" stroke="#6040D3" stroke-miterlimit="10"/>
<path d="M214.313 384.986C214.313 386.245 213.292 387.266 212.032 387.266C210.773 387.266 209.751 386.245 209.751 384.986C209.751 383.726 210.772 382.705 212.032 382.705C213.292 382.706 214.313 383.727 214.313 384.986Z" fill="white" stroke="#6040D3" stroke-miterlimit="10"/>
<path d="M232.72 406.57C232.72 410.124 229.839 413.004 226.286 413.004C222.733 413.004 219.852 410.123 219.852 406.57C219.852 403.016 222.733 400.136 226.286 400.136C229.839 400.136 232.72 403.016 232.72 406.57Z" fill="white" stroke="#6040D3" stroke-miterlimit="10"/>
<path d="M266.928 388.407C266.928 389.217 266.272 389.873 265.462 389.873C264.652 389.873 263.996 389.217 263.996 388.407C263.996 387.597 264.652 386.941 265.462 386.941C266.271 386.941 266.928 387.597 266.928 388.407Z" fill="white" stroke="#6040D3" stroke-miterlimit="10"/>
<path d="M277.021 396.572C276.987 394.667 275.438 393.131 273.525 393.131C271.591 393.131 270.023 394.699 270.023 396.633C270.023 397.681 270.493 398.611 271.223 399.253C270.65 400.014 270.232 400.896 270.021 401.859C269.732 401.798 269.434 401.764 269.127 401.764C266.743 401.764 264.81 403.697 264.81 406.081C264.81 408.465 266.743 410.398 269.127 410.398C270.524 410.398 271.753 409.724 272.542 408.694C273.676 409.555 275.086 410.072 276.62 410.072C280.354 410.072 283.38 407.045 283.38 403.312C283.38 399.714 280.567 396.781 277.021 396.572Z" fill="white" stroke="#6040D3" stroke-miterlimit="10"/>
<path d="M284.816 392.732C284.816 393.901 283.868 394.85 282.698 394.85C281.529 394.85 280.58 393.902 280.58 392.732C280.58 391.562 281.528 390.614 282.698 390.614C283.868 390.615 284.816 391.563 284.816 392.732Z" fill="white" stroke="#6040D3" stroke-miterlimit="10"/>
<path d="M282.647 383.286C282.647 385.181 281.111 386.717 279.216 386.717C277.321 386.717 275.785 385.181 275.785 383.286C275.785 381.391 277.321 379.855 279.216 379.855C281.111 379.855 282.647 381.391 282.647 383.286Z" fill="white" stroke="#6040D3" stroke-miterlimit="10"/>
<path d="M288.104 379.692C288.104 380.367 287.557 380.914 286.882 380.914C286.207 380.914 285.66 380.367 285.66 379.692C285.66 379.017 286.207 378.47 286.882 378.47C287.557 378.47 288.104 379.017 288.104 379.692Z" fill="white" stroke="#6040D3" stroke-miterlimit="10"/>
<path d="M201.204 372.023C201.204 374.902 198.724 377.236 195.666 377.236C192.607 377.236 190.128 374.902 190.128 372.023C190.128 369.144 192.608 366.81 195.666 366.81C198.724 366.811 201.204 369.144 201.204 372.023Z" fill="white" stroke="#6040D3" stroke-miterlimit="10"/>
<path d="M314.39 409.554C315.302 404.233 311.728 399.181 306.407 398.269C301.087 397.358 296.035 400.932 295.123 406.252C294.212 411.572 297.785 416.624 303.106 417.536C308.426 418.448 313.478 414.874 314.39 409.554Z" fill="white" stroke="#6040D3" stroke-miterlimit="10"/>
<path d="M316.72 394.651C316.72 395.97 315.65 397.04 314.331 397.04C313.012 397.04 311.942 395.97 311.942 394.651C311.942 393.331 313.012 392.262 314.331 392.262C315.65 392.262 316.72 393.332 316.72 394.651Z" fill="white" stroke="#6040D3" stroke-miterlimit="10"/>
<path d="M193.206 406.16C194.347 401.438 191.444 396.686 186.722 395.544C182 394.403 177.247 397.306 176.106 402.028C174.965 406.75 177.868 411.503 182.59 412.644C187.312 413.785 192.065 410.882 193.206 406.16Z" fill="white" stroke="#6040D3" stroke-miterlimit="10"/>
<path d="M176.392 388.146C176.392 389.525 175.274 390.644 173.894 390.644C172.514 390.644 171.396 389.526 171.396 388.146C171.396 386.767 172.514 385.648 173.894 385.648C175.274 385.648 176.392 386.767 176.392 388.146Z" fill="white" stroke="#6040D3" stroke-miterlimit="10"/>
<path d="M327.199 402.09C315.683 404.03 304.859 405.062 293.293 405.956C267.372 407.959 241.259 408.117 215.31 406.548C196.72 405.424 179.433 403.794 161.208 399.755L160.991 405.836C162.384 406.128 162.223 406.137 163.619 406.407C174.471 408.505 185.45 409.961 196.446 411.052C222.87 413.673 249.547 414.179 276.068 412.999C293.638 412.217 309.069 411.069 326.466 408.117" fill="white"/>
<path d="M328.042 401.939C316.526 403.879 304.859 405.062 293.293 405.956C267.372 407.959 241.259 408.117 215.31 406.548C196.72 405.424 177.985 403.558 159.76 399.519" stroke="#0F110E" stroke-miterlimit="10"/>
<path d="M159.436 405.562C160.829 405.854 162.224 406.138 163.619 406.408C174.471 408.506 185.45 409.962 196.446 411.053C222.87 413.674 249.547 414.18 276.068 413C293.638 412.218 311.342 410.774 328.738 407.822" stroke="#0F110E" stroke-miterlimit="10"/>
<path d="M213.532 447.647H286.141C332.909 440.216 368.417 418.799 375.711 392.462C373.018 394.666 369.798 396.314 366.696 397.679C359.428 400.876 351.75 403.039 344.023 404.802C321.787 409.876 298.815 411.987 276.069 412.999C249.548 414.179 222.871 413.674 196.447 411.052C185.451 409.961 174.472 408.505 163.62 406.407C155.27 404.793 146.923 402.835 138.918 399.931C133.647 398.019 128.172 395.725 123.844 392.05C130.879 418.576 166.518 440.177 213.532 447.647Z" fill="white" stroke="#0F110E" stroke-miterlimit="10"/>
<path d="M19.959 448.272C24.124 448.272 28.288 448.272 32.452 448.272C43.684 448.272 54.915 448.272 66.147 448.272C82.799 448.272 99.451 448.272 116.103 448.272C136.419 448.272 156.735 448.272 177.051 448.272C199.225 448.272 221.399 448.272 243.573 448.272C266.108 448.272 288.643 448.272 311.178 448.272C332.047 448.272 352.915 448.272 373.784 448.272C391.482 448.272 409.181 448.272 426.879 448.272C439.603 448.272 452.328 448.272 465.052 448.272C471.065 448.272 477.083 448.343 483.095 448.272C483.358 448.269 483.621 448.272 483.884 448.272C484.688 448.272 484.69 447.022 483.884 447.022C479.72 447.022 475.555 447.022 471.391 447.022C460.159 447.022 448.928 447.022 437.696 447.022C421.044 447.022 404.392 447.022 387.74 447.022C367.424 447.022 347.108 447.022 326.792 447.022C304.618 447.022 282.444 447.022 260.27 447.022C237.735 447.022 215.2 447.022 192.665 447.022C171.796 447.022 150.928 447.022 130.059 447.022C112.36 447.022 94.662 447.022 76.964 447.022C64.239 447.022 51.515 447.022 38.791 447.022C32.778 447.022 26.76 446.951 20.748 447.022C20.485 447.025 20.222 447.022 19.959 447.022C19.155 447.022 19.154 448.272 19.959 448.272Z" fill="#0F110E"/>
<path d="M94.931 330.547H91.54V344.472H94.931V330.547Z" fill="white" stroke="#0F110E" stroke-miterlimit="10"/>
<path d="M108.592 327.805H108.424H108.256H89.014C87.659 327.805 86.561 328.903 86.561 330.258C86.561 331.613 87.659 332.711 89.014 332.711H105.97V333.863C105.97 335.125 106.993 336.148 108.255 336.148H108.592C109.854 336.148 110.877 335.125 110.877 333.863V330.258V330.09C110.876 328.828 109.853 327.805 108.592 327.805Z" fill="white" stroke="#0F110E" stroke-miterlimit="10"/>
<path d="M95.754 355.752H91.886C89.652 355.752 87.841 353.941 87.841 351.707V345.559C87.841 343.325 89.652 341.514 91.886 341.514H95.754C97.988 341.514 99.799 343.325 99.799 345.559V351.707C99.799 353.941 97.988 355.752 95.754 355.752Z" fill="white" stroke="#0F110E" stroke-miterlimit="10"/>
<path d="M107.402 358.904C106.914 355.164 103.368 352.369 99.204 352.442L93.871 352.535L88.538 352.442C84.374 352.37 80.829 355.165 80.341 358.904L74.018 407.321C73.449 411.675 77.211 415.502 82.06 415.502H93.133H94.61H105.683C110.532 415.502 114.293 411.675 113.725 407.321L107.402 358.904Z" fill="white" stroke="#0F110E" stroke-miterlimit="10"/>
<path d="M102.011 380.875C101.771 380.993 101.728 381.412 101.884 381.873L99.272 382.975C98.962 382.45 98.585 381.984 98.156 381.585L98.75 380.847C98.89 380.945 99.036 380.972 99.099 380.903C99.173 380.822 99.104 380.639 98.945 380.496C98.786 380.353 98.598 380.302 98.524 380.384C98.462 380.453 98.502 380.593 98.612 380.722L97.937 381.389C97.436 380.965 96.875 380.626 96.276 380.379L97.047 377.621C97.53 377.722 97.947 377.627 98.035 377.371C98.137 377.072 97.747 376.668 97.164 376.469C96.581 376.27 96.026 376.351 95.923 376.649C95.837 376.902 96.102 377.229 96.539 377.445L95.457 380.106C94.887 379.958 94.296 379.891 93.7 379.908L93.595 378.939C93.764 378.909 93.886 378.825 93.881 378.732C93.875 378.622 93.698 378.542 93.484 378.553C93.27 378.564 93.102 378.662 93.107 378.771C93.112 378.864 93.24 378.934 93.408 378.948L93.402 379.925C92.77 379.974 92.138 380.121 91.525 380.372L90.11 377.86C90.523 377.59 90.751 377.227 90.632 376.985C90.493 376.701 89.932 376.691 89.378 376.963C88.825 377.234 88.489 377.684 88.628 377.968C88.746 378.208 89.165 378.251 89.626 378.095L90.747 380.754C90.223 381.058 89.757 381.427 89.357 381.847L88.598 381.236C88.696 381.096 88.723 380.95 88.654 380.887C88.573 380.813 88.39 380.883 88.247 381.041C88.103 381.2 88.053 381.388 88.135 381.462C88.204 381.524 88.344 381.484 88.473 381.374L89.158 382.067C88.735 382.557 88.395 383.106 88.143 383.693L85.377 382.92C85.473 382.443 85.377 382.032 85.125 381.946C84.826 381.844 84.422 382.234 84.223 382.817C84.024 383.4 84.105 383.955 84.403 384.058C84.658 384.145 84.989 383.874 85.205 383.43L87.858 384.509C87.7 385.084 87.624 385.682 87.635 386.286L86.69 386.388C86.66 386.222 86.576 386.102 86.484 386.106C86.374 386.112 86.294 386.289 86.305 386.503C86.316 386.717 86.414 386.885 86.523 386.88C86.616 386.875 86.688 386.745 86.7 386.574L87.648 386.58C87.69 387.215 87.831 387.851 88.076 388.468L85.606 389.859C85.337 389.453 84.979 389.231 84.739 389.349C84.455 389.488 84.445 390.049 84.717 390.603C84.988 391.156 85.438 391.492 85.722 391.353C85.964 391.234 86.006 390.808 85.845 390.342L88.447 389.245C88.752 389.786 89.127 390.265 89.555 390.677L88.983 391.387C88.844 391.291 88.7 391.265 88.638 391.334C88.564 391.415 88.634 391.598 88.792 391.741C88.951 391.884 89.139 391.935 89.213 391.853C89.276 391.784 89.234 391.641 89.122 391.511L89.769 390.872C90.267 391.307 90.827 391.656 91.426 391.912L90.674 394.604C90.197 394.507 89.786 394.604 89.7 394.856C89.598 395.155 89.988 395.559 90.571 395.758C91.154 395.957 91.709 395.876 91.812 395.578C91.899 395.323 91.628 394.992 91.184 394.776L92.234 392.194C92.82 392.355 93.43 392.432 94.045 392.417L94.14 393.297C93.974 393.327 93.854 393.411 93.858 393.503C93.864 393.613 94.041 393.693 94.255 393.682C94.469 393.671 94.637 393.574 94.632 393.464C94.627 393.371 94.497 393.299 94.326 393.287L94.331 392.404C94.976 392.359 95.623 392.212 96.25 391.956L97.612 394.375C97.206 394.644 96.984 395.002 97.102 395.242C97.241 395.526 97.802 395.536 98.356 395.264C98.909 394.993 99.245 394.543 99.106 394.259C98.987 394.017 98.561 393.975 98.095 394.136L97.017 391.58C97.559 391.268 98.039 390.886 98.449 390.449L99.137 391.003C99.041 391.142 99.015 391.286 99.084 391.348C99.165 391.422 99.348 391.352 99.491 391.194C99.634 391.035 99.685 390.847 99.603 390.773C99.534 390.71 99.391 390.752 99.261 390.864L98.64 390.236C99.076 389.727 99.424 389.154 99.675 388.543L102.359 389.293C102.258 389.776 102.353 390.193 102.608 390.28C102.907 390.382 103.311 389.993 103.51 389.41C103.709 388.827 103.629 388.272 103.33 388.169C103.077 388.083 102.75 388.349 102.534 388.785L99.945 387.732C100.096 387.151 100.164 386.548 100.143 385.941L101.047 385.843C101.077 386.012 101.161 386.134 101.254 386.129C101.364 386.123 101.444 385.946 101.433 385.732C101.422 385.518 101.325 385.35 101.215 385.355C101.122 385.36 101.052 385.488 101.038 385.656L100.126 385.651C100.074 385.008 99.921 384.365 99.66 383.743L102.121 382.357C102.391 382.77 102.754 382.998 102.996 382.879C103.28 382.74 103.29 382.179 103.018 381.625C102.745 381.072 102.295 380.736 102.011 380.875Z" fill="#6040D3"/>
<path d="M86.353 376.389L101.377 395.361" stroke="#0F110E" stroke-miterlimit="10"/>
<path d="M105.461 389.605C103.349 395.948 96.495 399.377 90.152 397.265C83.809 395.153 80.38 388.299 82.492 381.956C84.604 375.613 91.458 372.184 97.801 374.296C104.144 376.408 107.573 383.262 105.461 389.605Z" stroke="#0F110E" stroke-miterlimit="10"/>
</svg>
