<svg width="52" height="52" viewBox="0 0 52 52" fill="none" xmlns="http://www.w3.org/2000/svg">
<path d="M49.2801 45.0306C48.9255 44.3794 48.5235 43.6414 48.277 42.634C48.1943 42.2964 48.1513 41.9973 48.1457 41.7195C48.1379 41.335 47.8247 41.0287 47.4431 41.0287C47.4382 41.0287 47.4333 41.0288 47.4286 41.0289C47.0403 41.0368 46.7319 41.3589 46.7399 41.7481C46.7476 42.1307 46.8037 42.5305 46.9113 42.97C47.2016 44.156 47.6699 45.0158 48.0461 45.7065C48.6945 46.8969 48.8688 47.2168 47.9785 48.1098C47.2478 48.8428 46.8529 48.674 45.7147 48.0302C44.9065 47.573 43.9005 47.0039 42.5613 47.0039C41.0467 47.0039 40.2466 47.3081 39.5405 47.5766C38.8615 47.8346 38.2751 48.0575 37.0182 48.0575C35.7612 48.0575 35.1748 47.8346 34.4959 47.5766C33.79 47.3082 32.9899 47.0039 31.4753 47.0039C29.9608 47.0039 29.1607 47.3081 28.4547 47.5766C27.7756 47.8346 27.1894 48.0575 25.9324 48.0575C24.6755 48.0575 24.0891 47.8346 23.4101 47.5766C22.7041 47.3082 21.904 47.0039 20.3893 47.0039C18.8747 47.0039 18.0745 47.3081 17.3685 47.5766C16.6895 47.8346 16.1032 48.0575 14.8463 48.0575C13.5892 48.0575 13.0026 47.8346 12.3236 47.5765C11.6175 47.3082 10.8173 47.0039 9.30253 47.0039C7.96308 47.0039 6.957 47.573 6.14872 48.0303C5.01046 48.6741 4.6156 48.8429 3.88447 48.1098C3.15363 47.377 3.32181 46.9809 3.96388 45.8396C4.41967 45.029 4.98712 44.0202 4.98712 42.6771C4.98712 41.1582 4.68385 40.3558 4.4162 39.6477C4.15887 38.9668 3.9366 38.3787 3.9366 37.1182C3.9366 35.8577 4.15887 35.2697 4.4162 34.5888C4.68375 33.8809 4.98712 33.0784 4.98712 31.5595C4.98712 30.0406 4.68385 29.2382 4.4162 28.5302C4.15887 27.8494 3.9366 27.2613 3.9366 26.0008C3.9366 24.7402 4.15887 24.1522 4.4162 23.4712C4.68375 22.7632 4.98712 21.9608 4.98712 20.4418C4.98712 18.9229 4.68385 18.1205 4.4162 17.4124C4.15887 16.7316 3.9366 16.1435 3.9366 14.883C3.9366 13.6222 4.15887 13.034 4.4162 12.3531C4.68375 11.645 4.98712 10.8425 4.98712 9.32338C4.98712 7.98011 4.41967 6.97125 3.96378 6.16067C3.32172 5.01906 3.15344 4.62307 3.88447 3.88986C4.61513 3.15692 5.01008 3.32568 6.14825 3.96949C6.95644 4.42667 7.96233 4.99574 9.30159 4.99574C10.8161 4.99574 11.6164 4.69161 12.3225 4.4231C13.0015 4.16503 13.5878 3.94213 14.8448 3.94213C16.1017 3.94213 16.6881 4.16503 17.3671 4.4231C17.5933 4.50903 17.8272 4.59787 18.09 4.67957C18.4613 4.79511 18.8548 4.58659 18.9696 4.21467C19.0845 3.84266 18.877 3.44771 18.506 3.33254C18.2849 3.26391 18.0812 3.18635 17.8656 3.10446C17.1596 2.83615 16.3594 2.53192 14.8448 2.53192C13.3302 2.53192 12.5301 2.83606 11.824 3.10456C11.145 3.36263 10.5586 3.58553 9.30159 3.58553C8.3316 3.58553 7.57291 3.15636 6.83907 2.74129C5.75743 2.12935 4.41095 1.36747 2.8902 2.89303C1.36936 4.41831 2.12889 5.76872 2.73909 6.85373C3.15297 7.58958 3.58093 8.35062 3.58093 9.32357C3.58093 10.5843 3.35865 11.1724 3.10132 11.8534C2.83377 12.5615 2.53041 13.364 2.53041 14.8832C2.53041 16.402 2.83368 17.2044 3.10132 17.9125C3.35865 18.5933 3.58093 19.1815 3.58093 20.442C3.58093 21.7026 3.35865 22.2906 3.10132 22.9716C2.83377 23.6796 2.53041 24.482 2.53041 26.001C2.53041 27.5198 2.83368 28.3223 3.10132 29.0303C3.35865 29.7111 3.58093 30.2992 3.58093 31.5597C3.58093 32.8203 3.35865 33.4083 3.10132 34.0892C2.83377 34.7971 2.53041 35.5995 2.53041 37.1184C2.53041 38.6373 2.83368 39.4397 3.10132 40.1478C3.35865 40.8287 3.58093 41.4168 3.58093 42.6773C3.58093 43.6502 3.15297 44.411 2.73909 45.1469C2.1288 46.2319 1.36936 47.5822 2.8903 49.1073C3.5499 49.7687 4.17668 50.0001 4.76325 50.0001C5.52934 50 6.227 49.6054 6.83972 49.2588C7.57347 48.8436 8.33235 48.4144 9.30253 48.4144C10.5597 48.4144 11.1461 48.6373 11.8251 48.8954C12.5312 49.1638 13.3314 49.468 14.8463 49.468C16.3608 49.468 17.161 49.1639 17.867 48.8954C18.546 48.6373 19.1324 48.4144 20.3893 48.4144C21.6463 48.4144 22.2326 48.6373 22.9116 48.8954C23.6176 49.1638 24.4178 49.468 25.9324 49.468C27.4469 49.468 28.2471 49.1639 28.9531 48.8954C29.632 48.6373 30.2184 48.4144 31.4753 48.4144C32.7322 48.4144 33.3186 48.6373 33.9975 48.8954C34.7034 49.1638 35.5035 49.468 37.0182 49.468C38.5328 49.468 39.3328 49.1639 40.0389 48.8954C40.7179 48.6373 41.3043 48.4144 42.5613 48.4144C43.5314 48.4144 44.29 48.8436 45.0239 49.2587C46.1056 49.8709 47.452 50.6326 48.9729 49.1071C50.6075 47.4674 49.9628 46.2838 49.2801 45.0306Z" fill="#afcb1e"/>
<path d="M21.1647 4.96654C22.1927 4.88512 22.8384 4.63965 23.4081 4.42323C24.0872 4.16516 24.6737 3.94226 25.9306 3.94226C27.1876 3.94226 27.774 4.16516 28.453 4.42323C29.1589 4.69164 29.9591 4.99587 31.4737 4.99587C32.9884 4.99587 33.7885 4.69174 34.4945 4.42323C35.1735 4.16516 35.7598 3.94226 37.0168 3.94226C38.2739 3.94226 38.8604 4.16516 39.5394 4.42323C40.2455 4.69164 41.0457 4.99587 42.5605 4.99587C43.9 4.99587 44.9059 4.4268 45.7142 3.96962C46.8525 3.32571 47.2474 3.15696 47.9786 3.88999C48.7094 4.62282 48.5412 5.0189 47.8992 6.16023C47.4433 6.97072 46.8758 7.97959 46.8758 9.32267C46.8758 10.8416 47.1791 11.644 47.4468 12.3521C47.7042 13.033 47.9264 13.6211 47.9264 14.8816C47.9264 16.1421 47.7042 16.7301 47.4468 17.411C47.1792 18.1189 46.8758 18.9214 46.8758 20.4403C46.8758 21.9592 47.1791 22.7616 47.4468 23.4696C47.7042 24.1505 47.9264 24.7385 47.9264 25.999C47.9264 27.2596 47.7042 27.8476 47.4468 28.5286C47.1792 29.2366 46.8758 30.039 46.8758 31.558C46.8758 33.0769 47.1791 33.8794 47.4468 34.5874C47.7042 35.2683 47.9264 35.8563 47.9264 37.1168C47.9264 37.7263 47.8399 38.2302 47.6459 38.7507C47.5098 39.1154 47.6944 39.5217 48.0581 39.658C48.1392 39.6885 48.2224 39.7029 48.3042 39.7029C48.5891 39.7029 48.8572 39.5281 48.9628 39.2446C49.2151 38.5683 49.3325 37.8921 49.3325 37.1168C49.3325 35.598 49.0293 34.7955 48.7615 34.0875C48.5042 33.4066 48.2819 32.8185 48.2819 31.558C48.2819 30.2974 48.5042 29.7094 48.7615 29.0284C49.0292 28.3204 49.3325 27.518 49.3325 25.999C49.3325 24.4802 49.0293 23.6777 48.7615 22.9697C48.5042 22.2888 48.2819 21.7008 48.2819 20.4403C48.2819 19.1797 48.5042 18.5917 48.7615 17.9108C49.0292 17.2029 49.3325 16.4005 49.3325 14.8816C49.3325 13.3627 49.0293 12.5602 48.7615 11.8522C48.5042 11.1713 48.2819 10.5832 48.2819 9.32267C48.2819 8.34981 48.7099 7.58896 49.1238 6.85302C49.7341 5.7681 50.4936 4.41778 48.9726 2.89269C47.4517 1.3676 46.1051 2.1292 45.0232 2.74123C44.2894 3.1564 43.5306 3.58557 42.5604 3.58557C41.3032 3.58557 40.7167 3.36266 40.0377 3.1045C39.3316 2.83618 38.5314 2.53196 37.0167 2.53196C35.5022 2.53196 34.702 2.83609 33.996 3.10459C33.317 3.36266 32.7306 3.58557 31.4736 3.58557C30.2167 3.58557 29.6303 3.36266 28.9513 3.10459C28.2453 2.83618 27.4452 2.53196 25.9305 2.53196C24.4161 2.53196 23.6158 2.83609 22.9097 3.1045C22.3582 3.31406 21.8818 3.49503 21.0538 3.56075C20.6667 3.5914 20.3777 3.93098 20.4082 4.31916C20.439 4.70744 20.777 4.99784 21.1647 4.96654Z" fill="#afcb1e"/>
<path d="M43.5966 11.3221L43.457 8.96683C43.4359 8.61043 43.1523 8.32604 42.7969 8.30488L40.4484 8.1649C40.0574 8.13951 39.7278 8.4381 39.7048 8.82685C39.6818 9.2156 39.9773 9.54953 40.3649 9.57257L41.1517 9.61948L36.7182 14.0658C36.4436 14.3412 36.4436 14.7876 36.7182 15.063C36.9929 15.3383 37.438 15.3382 37.7125 15.063L42.1462 10.6167L42.1929 11.4058C42.2151 11.7803 42.5249 12.0691 42.8941 12.0691C42.908 12.0691 42.9223 12.0687 42.9364 12.0678C43.3242 12.0447 43.6197 11.7108 43.5966 11.3221Z" fill="#afcb1e"/>
<path d="M15.2744 14.0658L10.8408 9.61947L11.6276 9.57256C12.0153 9.54952 12.3107 9.21559 12.2877 8.82684C12.2647 8.43809 11.9319 8.1396 11.5441 8.16489L9.19556 8.30487C8.84017 8.32603 8.55669 8.61032 8.5355 8.96682L8.39582 11.3221C8.37276 11.7108 8.66824 12.0447 9.05588 12.0678C9.07004 12.0687 9.08429 12.0691 9.09826 12.0691C9.46743 12.0691 9.77726 11.7804 9.79938 11.4058L9.84626 10.6167L14.2799 15.063C14.5546 15.3383 14.9997 15.3382 15.2742 15.063C15.549 14.7875 15.549 14.3411 15.2744 14.0658Z" fill="#afcb1e"/>
<path d="M39.7049 43.1731C39.727 43.5476 40.0369 43.8364 40.4061 43.8364C40.42 43.8364 40.4343 43.836 40.4484 43.8351L42.7969 43.6951C43.1523 43.6739 43.4359 43.3895 43.457 43.0331L43.5966 40.6779C43.6197 40.2891 43.3242 39.9552 42.9365 39.9322C42.5446 39.9073 42.2159 40.2055 42.1929 40.5941L42.1462 41.3833L37.7125 36.937C37.4379 36.6618 36.9928 36.6616 36.7182 36.937C36.4436 37.2124 36.4436 37.6588 36.7182 37.9342L41.1517 42.3805L40.3649 42.4274C39.9774 42.4504 39.6819 42.7844 39.7049 43.1731Z" fill="#afcb1e"/>
<path d="M15.2744 36.937C14.9998 36.6617 14.5546 36.6617 14.2801 36.937L9.84644 41.3833L9.79957 40.5941C9.77651 40.2055 9.44483 39.9074 9.05597 39.9322C8.66833 39.9552 8.37285 40.2891 8.39591 40.6779L8.53559 43.0331C8.55678 43.3896 8.84027 43.6739 9.19566 43.6951L11.5442 43.8351C11.5584 43.836 11.5726 43.8364 11.5866 43.8364C11.9557 43.8364 12.2656 43.5477 12.2877 43.1731C12.3107 42.7844 12.0153 42.4504 11.6276 42.4274L10.8408 42.3805L15.2744 37.9342C15.549 37.6588 15.549 37.2124 15.2744 36.937Z" fill="#afcb1e"/>
</svg>
