<svg width="52" height="52" viewBox="0 0 52 52" fill="none" xmlns="http://www.w3.org/2000/svg">
<path d="M30.4156 46.487C30.4156 46.7308 30.6144 46.9288 30.8574 46.9288H33.2191C33.4629 46.9288 33.6609 46.73 33.6609 46.487C33.6609 46.2433 33.4621 46.0453 33.2191 46.0453H30.8574C30.6144 46.0453 30.4156 46.2433 30.4156 46.487Z" fill="#afcb1e"/>
<path d="M16.9036 18.695C16.8879 18.5457 16.7761 18.4182 16.6441 18.3575C16.6426 18.3567 16.6411 18.356 16.6389 18.3552C12.2259 16.1082 7.35987 20.969 9.60312 25.3827C9.60537 25.3887 9.60762 25.394 9.60987 25.4C9.73062 25.676 10.1101 25.754 10.3269 25.538L16.7874 19.0775C16.8744 18.9725 16.9359 18.8345 16.9036 18.695ZM11.2209 19.9715C12.4059 18.7865 14.1384 18.3995 15.6939 18.9215L10.1709 24.4445C9.65037 22.889 10.0366 21.1565 11.2209 19.9715Z" fill="#afcb1e"/>
<path d="M14.3094 31.1007C20.3656 31.2582 24.4381 24.1408 21.2461 19.007C22.2091 18.6478 22.4566 17.975 23.6491 17.9788C24.3961 17.9788 24.7531 18.227 25.1671 18.5135C25.6351 18.8397 26.1661 19.2073 27.1899 19.2073C29.0439 19.2388 29.0634 18.0245 30.7299 17.978C31.4769 17.978 31.8339 18.2262 32.2486 18.5142C32.7166 18.839 33.2476 19.2073 34.2706 19.2073C35.2944 19.2073 35.8246 18.8382 36.2934 18.5135C36.6151 18.2907 36.9076 18.0958 37.3689 18.017V19.5267C37.3614 20.0997 38.2606 20.0997 38.2524 19.5267C38.2509 19.4472 38.2584 17.6 38.2434 17.5798C38.2576 17.5415 38.2486 17.504 38.2374 17.4658C38.1099 13.9318 35.6529 10.9902 32.3544 10.1277V4.28525C32.3551 3.026 31.3306 2 30.0706 2H22.0846C20.8254 2 19.8001 3.026 19.8001 4.28525V10.1397C17.3409 10.778 15.3204 12.563 14.4129 15.0125C12.7299 14.9915 11.0334 15.497 9.57537 16.5613C9.37812 16.7053 9.33537 16.9813 9.47937 17.1785C9.62262 17.3728 9.89937 17.4192 10.0959 17.2745C11.4961 16.2522 13.1386 15.8135 14.7534 15.9088C20.7579 16.169 23.7504 23.9045 19.3696 28.121C13.0696 34.1825 3.50862 26.0675 8.50362 18.8743C8.64612 18.677 8.60187 18.401 8.40462 18.2578C8.20737 18.1153 7.93062 18.1588 7.78812 18.3568C3.89637 23.4733 7.90287 31.2417 14.3094 31.1007ZM20.6836 4.28525C20.6836 3.51275 21.3121 2.8835 22.0846 2.8835H26.7534C27.5259 2.8835 28.1544 3.512 28.1544 4.28525V8.02775C28.1544 8.2715 28.3531 8.4695 28.5961 8.4695C28.8399 8.4695 29.0379 8.27075 29.0379 8.02775V4.28525C29.0379 3.755 28.8489 3.272 28.5444 2.8835H30.0706C30.8431 2.8835 31.4709 3.512 31.4709 4.28525V9.95C29.8824 9.80075 22.2729 9.8 20.6836 9.9515V4.28525ZM15.3369 15.0792C16.4131 12.4722 18.9271 10.7473 21.7899 10.7473H28.1544V11.9135C28.1461 13.1 29.2164 13.943 30.3646 13.8185C31.9066 13.8185 33.3151 14.729 33.9519 16.139C34.1829 16.6647 35.0011 16.2927 34.7574 15.7745C33.9391 13.943 32.0484 12.8308 30.0586 12.9343C29.4961 12.9343 29.0386 12.476 29.0386 11.9135V10.7473C33.2064 10.328 36.9406 12.8885 37.3374 17.1387C35.8816 17.3007 35.7399 18.3073 34.2706 18.3245C32.6049 18.2788 32.5839 17.0638 30.7306 17.0953C28.8766 17.063 28.8571 18.278 27.1906 18.3245C26.4436 18.3245 26.0859 18.0763 25.6719 17.7883C25.2039 17.4635 24.6736 17.0953 23.6499 17.0953C22.1101 17.0818 21.8589 17.8813 20.7376 18.2443C19.4596 16.484 17.3859 15.3267 15.3369 15.0792Z" fill="#afcb1e"/>
<path d="M11.5974 27.359C11.6131 27.5105 11.7234 27.641 11.8576 27.7032C11.8591 27.704 11.8606 27.7047 11.8629 27.7055C16.3374 30.107 21.3541 25.1075 18.9549 20.6195C18.9526 20.6142 18.9504 20.609 18.9481 20.6037C18.8304 20.327 18.4449 20.258 18.2311 20.4657L11.7144 26.9832C11.6281 27.086 11.5689 27.221 11.5974 27.359ZM17.3986 26.1485C16.1911 27.356 14.3731 27.728 12.7966 27.1505L18.3991 21.5472C18.9774 23.123 18.6061 24.9417 17.3986 26.1485Z" fill="#afcb1e"/>
<path d="M42.6129 40.0948C44.6881 38.0195 45.1899 34.8673 43.8609 32.2505L38.8674 22.4225C38.6686 22.0303 38.2719 21.7873 37.8324 21.7858C37.3929 21.7858 36.9954 22.0288 36.7951 22.421L35.9311 24.1213C35.6641 24.6313 36.4651 25.034 36.7194 24.5218L37.5834 22.8215C37.7139 22.6048 37.9546 22.6168 38.0799 22.8215L43.0734 32.651C45.1179 36.3898 42.0849 41.3173 37.8316 41.1913C33.5784 41.3143 30.5461 36.3928 32.5914 32.651L35.6701 26.5888C35.7804 26.3713 35.6941 26.105 35.4766 25.9948C35.2591 25.8838 34.9914 25.97 34.8826 26.1883L31.8039 32.2505C29.5351 36.4078 32.7091 41.9173 37.4304 42.0553V44.9053C37.4304 47.2273 35.5419 49.115 33.2206 49.115H18.9354C16.6134 49.115 14.7256 47.2265 14.7256 44.9053V36.7325H16.2849C16.6314 36.7325 16.9134 37.0145 16.9134 37.361V43.835C16.9134 45.5405 18.3009 46.928 20.0064 46.928H28.0441C28.2879 46.928 28.4859 46.7293 28.4859 46.4863C28.4859 46.2425 28.2871 46.0445 28.0441 46.0445H20.0056C18.7876 46.0445 17.7969 45.053 17.7969 43.835V37.361C17.7969 36.527 17.1181 35.8483 16.2849 35.8483H14.7256V33.4048C14.7384 32.8363 13.8301 32.828 13.8421 33.4048V44.906C13.8421 47.7148 16.1274 50 18.9361 50H33.2206C36.0294 50 38.3146 47.7148 38.3146 44.906V42.0515C39.9384 41.9383 41.4504 41.2573 42.6129 40.0948Z" fill="#afcb1e"/>
<path d="M39.5769 31.5297C39.3609 31.4217 39.0946 31.508 38.9844 31.727L36.0954 37.5065C35.9859 37.7247 36.0744 37.9895 36.2926 38.099C36.5056 38.207 36.7756 38.123 36.8851 37.9017L39.7741 32.1222C39.8836 31.904 39.7959 31.6392 39.5769 31.5297Z" fill="#afcb1e"/>
<path d="M35.8276 31.3632C33.9024 31.3977 33.9016 34.259 35.8276 34.2935C37.7529 34.259 37.7521 31.3977 35.8276 31.3632ZM35.8276 33.41C35.0664 33.4062 35.0671 32.2505 35.8276 32.2475C36.5866 32.2512 36.5881 33.4062 35.8276 33.41Z" fill="#afcb1e"/>
<path d="M38.6971 36.8015C38.7316 38.7283 41.5929 38.7268 41.6274 36.8015C41.5929 34.877 38.7316 34.8763 38.6971 36.8015ZM40.1619 36.2203C40.9231 36.224 40.9224 37.3798 40.1619 37.3828C39.4029 37.379 39.4021 36.224 40.1619 36.2203Z" fill="#afcb1e"/>
<path d="M26.7534 42.0514H20.8561C20.2846 42.0432 20.2816 42.9432 20.8561 42.9349H26.7534C27.3249 42.9432 27.3279 42.0432 26.7534 42.0514Z" fill="#afcb1e"/>
<path d="M26.7534 38.9803H20.8561C20.2846 38.972 20.2816 39.872 20.8561 39.8638H26.7534C27.3249 39.872 27.3279 38.972 26.7534 38.9803Z" fill="#afcb1e"/>
<path d="M26.7534 35.909H20.8561C20.2846 35.9007 20.2816 36.8007 20.8561 36.7925H26.7534C27.3249 36.8007 27.3279 35.9007 26.7534 35.909Z" fill="#afcb1e"/>
<path d="M9.98863 34.121C9.81613 33.9485 9.53638 33.9485 9.36388 34.121L7.95088 35.5333L6.53788 34.121C6.36538 33.9485 6.08563 33.9485 5.91313 34.121C5.74063 34.2935 5.74063 34.5733 5.91313 34.7458L7.32613 36.158L5.91313 37.5703C5.74063 37.7428 5.74063 38.0225 5.91313 38.195C6.08563 38.3675 6.36538 38.3675 6.53788 38.195L7.95088 36.7828L9.36388 38.195C9.53638 38.3675 9.81613 38.3675 9.98863 38.195C10.1611 38.0225 10.1611 37.7428 9.98863 37.5703L8.57563 36.158L9.98863 34.7458C10.1611 34.5733 10.1611 34.2935 9.98863 34.121Z" fill="#afcb1e"/>
<path d="M44.1324 16.604L46.0869 14.6495C46.2594 14.477 46.2594 14.1973 46.0869 14.0248C45.9144 13.8523 45.6346 13.8523 45.4621 14.0248L43.5076 15.9793L41.5531 14.0248C41.3806 13.8523 41.1009 13.8523 40.9284 14.0248C40.7559 14.1973 40.7559 14.477 40.9284 14.6495L42.8829 16.604L40.9284 18.5585C40.7559 18.731 40.7559 19.0108 40.9284 19.1833C41.1009 19.3558 41.3806 19.3558 41.5531 19.1833L43.5076 17.2288L45.4621 19.1833C45.6346 19.3558 45.9144 19.3558 46.0869 19.1833C46.2594 19.0108 46.2594 18.731 46.0869 18.5585L44.1324 16.604Z" fill="#afcb1e"/>
<path d="M11.5224 10.9476C15.5581 10.8418 15.5574 4.93105 11.5224 4.82605C7.48662 4.9318 7.48737 10.8426 11.5224 10.9476ZM11.5224 5.70955C14.3926 5.78455 14.3926 9.9883 11.5224 10.0633C8.65212 9.9883 8.65287 5.78455 11.5224 5.70955Z" fill="#afcb1e"/>
<path d="M43.6756 42.71C40.7266 42.788 40.7274 47.105 43.6756 47.183C46.6246 47.105 46.6239 42.7872 43.6756 42.71ZM43.6756 46.2987C41.8981 46.2672 41.8981 43.625 43.6756 43.5935C45.4531 43.6257 45.4531 46.2672 43.6756 46.2987Z" fill="#afcb1e"/>
</svg>
