<svg width="52" height="52" viewBox="0 0 52 52" fill="none" xmlns="http://www.w3.org/2000/svg">
<path d="M39.471 9.08119C38.7039 9.08163 37.9542 9.3098 37.317 9.73678V9.11525C37.3169 8.10837 36.9404 7.13788 36.2614 6.39435C35.5825 5.65081 34.6501 5.18793 33.6474 5.09659C32.8079 5.0501 31.9764 5.28042 31.2805 5.75218C31.2146 4.806 30.8189 3.9129 30.1624 3.22838C29.5059 2.54386 28.6301 2.11128 27.6875 2.00597C27.1737 1.97732 26.6594 2.052 26.1749 2.22561C25.6905 2.39922 25.2458 2.66823 24.8671 3.01671C24.4885 3.3652 24.1836 3.78608 23.9704 4.25448C23.7573 4.72287 23.6403 5.22925 23.6263 5.74366C22.9309 5.27842 22.1033 5.05136 21.2679 5.09659C20.2682 5.19193 19.34 5.65654 18.6645 6.39967C17.9891 7.1428 17.615 8.11104 17.6153 9.11525V25.6411L15.9636 22.4228C15.7324 21.9714 15.414 21.5704 15.0267 21.243C14.6394 20.9156 14.1909 20.6684 13.7073 20.5156C12.9806 20.2825 12.201 20.2701 11.4672 20.4802C10.7335 20.6904 10.0786 21.1135 9.58538 21.696C9.0922 22.2785 8.78294 22.9942 8.69675 23.7526C8.61057 24.5109 8.75132 25.2778 9.1012 25.9562L13.6392 34.7683C14.4972 36.4223 15.6991 37.8738 17.1641 39.0253L20.8081 41.9201C20.2233 42.5393 19.8974 43.3587 19.8971 44.2104V46.654C19.8971 47.5414 20.2496 48.3925 20.8771 49.02C21.5046 49.6475 22.3557 50 23.2431 50H39.4199C40.3074 50 41.1584 49.6475 41.7859 49.02C42.4135 48.3925 42.766 47.5414 42.766 46.654V44.236C42.7532 43.6368 42.5798 43.052 42.2638 42.5428C41.9477 42.0336 41.5008 41.6186 40.9695 41.3412L42.9192 32.2055C43.1886 30.9375 43.3255 29.6449 43.3279 28.3486V12.9381C43.3279 11.9152 42.9216 10.9342 42.1983 10.2109C41.475 9.48754 40.4939 9.08119 39.471 9.08119ZM39.471 10.784C40.0416 10.7863 40.5882 11.0139 40.9917 11.4174C41.3952 11.8209 41.6229 12.3675 41.6251 12.9381V18.2849H37.317V12.9466C37.3158 12.663 37.3707 12.382 37.4785 12.1197C37.5862 11.8573 37.7447 11.6189 37.9448 11.4179C38.145 11.217 38.3828 11.0576 38.6447 10.9488C38.9066 10.84 39.1874 10.784 39.471 10.784ZM31.9786 7.37837C32.1896 7.17412 32.441 7.01632 32.7167 6.91514C32.9924 6.81396 33.2862 6.77163 33.5793 6.7909C34.1399 6.86852 34.6539 7.14516 35.0275 7.57031C35.401 7.99547 35.6093 8.54079 35.6141 9.10674V18.2849H31.306V8.98754C31.2944 8.6909 31.3453 8.39514 31.4553 8.1194C31.5653 7.84367 31.732 7.59411 31.9446 7.38689L31.9786 7.37837ZM25.295 5.86286C25.2957 5.56703 25.3572 5.2745 25.4759 5.00351C25.5945 4.73252 25.7677 4.48887 25.9847 4.28775C26.1973 4.08632 26.4492 3.93093 26.7246 3.83131C27 3.73169 27.293 3.68998 27.5853 3.70879C28.1459 3.78997 28.6591 4.06881 29.0322 4.49501C29.4053 4.92121 29.6139 5.46672 29.6202 6.03314V18.2849H25.295V5.86286ZM21.3189 6.79941C21.6122 6.77798 21.9066 6.81929 22.1826 6.92059C22.4586 7.02189 22.7099 7.18086 22.9196 7.38689C23.1383 7.59111 23.3113 7.83932 23.4273 8.1152C23.5432 8.39108 23.5994 8.68838 23.5922 8.98754V18.3531H19.2841V9.11525C19.2889 8.54931 19.4972 8.00398 19.8707 7.57883C20.2443 7.15367 20.7583 6.87703 21.3189 6.79941ZM10.3443 24.2023C10.3424 23.8052 10.4504 23.4153 10.6563 23.0757C10.8621 22.7362 11.1578 22.4601 11.5107 22.2781C11.7616 22.1468 12.0363 22.067 12.3185 22.0437C12.6007 22.0203 12.8848 22.0536 13.1539 22.1418C13.6953 22.3173 14.1453 22.6999 14.4055 23.2061L17.2918 28.8169L13.52 30.8943L10.5827 25.1643C10.4295 24.8665 10.3479 24.5371 10.3443 24.2023ZM40.9951 46.6795C40.9951 47.1153 40.8219 47.5333 40.5138 47.8414C40.2056 48.1496 39.7876 48.3227 39.3518 48.3227H37.0956V45.9899C37.0956 45.764 37.0059 45.5475 36.8462 45.3878C36.6865 45.2281 36.47 45.1384 36.2442 45.1384C36.0184 45.1384 35.8018 45.2281 35.6421 45.3878C35.4825 45.5475 35.3928 45.764 35.3928 45.9899V48.3227H32.1404V45.9899C32.1404 45.764 32.0507 45.5475 31.891 45.3878C31.7313 45.2281 31.5148 45.1384 31.289 45.1384C31.0632 45.1384 30.8466 45.2281 30.6869 45.3878C30.5273 45.5475 30.4376 45.764 30.4376 45.9899V48.3227H27.1937V45.9899C27.1937 45.764 27.104 45.5475 26.9443 45.3878C26.7846 45.2281 26.5681 45.1384 26.3423 45.1384C26.1165 45.1384 25.8999 45.2281 25.7402 45.3878C25.5806 45.5475 25.4909 45.764 25.4909 45.9899V48.3227H23.2091C22.993 48.3239 22.7788 48.2821 22.5789 48.1999C22.379 48.1178 22.1974 47.9968 22.0446 47.8439C21.8918 47.6911 21.7708 47.5095 21.6886 47.3097C21.6065 47.1098 21.5647 46.8956 21.5659 46.6795V44.236C21.5647 44.0194 21.6064 43.8048 21.6885 43.6045C21.7706 43.4041 21.8914 43.222 22.0441 43.0685C22.1968 42.915 22.3783 42.7932 22.5783 42.7101C22.7782 42.627 22.9926 42.5842 23.2091 42.5842H39.3859C39.8225 42.5865 40.2404 42.7615 40.5483 43.071C40.8563 43.3805 41.0291 43.7994 41.0291 44.236L40.9951 46.6795ZM41.2249 31.8139L39.3178 40.8814H23.2091C22.9213 40.8906 22.6355 40.9334 22.3577 41.0091L18.2028 37.7227C16.9255 36.7104 15.8803 35.4358 15.1377 33.985L14.3289 32.4099L18.8669 29.9067C19 29.8339 19.1112 29.7268 19.189 29.5966C19.2669 29.4664 19.3085 29.3177 19.3096 29.166V19.9878H41.6251V28.3146C41.6214 29.4908 41.4959 30.6635 41.2505 31.8139H41.2249ZM36.8998 23.9639C35.6482 22.7123 33.2046 22.4398 30.429 24.4832C27.6534 22.4398 25.2099 22.7123 23.9583 23.9639C22.7067 25.2154 22.4343 27.659 24.4777 30.4346C22.4343 33.2102 22.7067 35.6622 23.9583 36.9053C25.2099 38.1484 27.6534 38.4293 30.429 36.3859C31.5461 37.2934 32.9248 37.8186 34.3626 37.8844C34.8322 37.9006 35.3003 37.8223 35.7391 37.6541C36.1778 37.4859 36.5783 37.2313 36.9168 36.9053C38.1684 35.6622 38.4408 33.2102 36.3974 30.4346C38.4493 27.659 38.1769 25.2154 36.9253 23.9639H36.8998ZM34.6691 30.9795C36.4741 33.1421 36.4826 34.9471 35.7248 35.7048C34.9671 36.4626 33.1706 36.4541 30.9995 34.6491C30.8465 34.5216 30.6537 34.4519 30.4546 34.4519C30.2555 34.4519 30.0627 34.5216 29.9097 34.6491C27.7471 36.4626 25.9421 36.4626 25.1843 35.7048C24.4266 34.9471 24.4351 33.1506 26.2401 30.9795C26.3675 30.8265 26.4373 30.6337 26.4373 30.4346C26.4373 30.2355 26.3675 30.0427 26.2401 29.8897C24.4351 27.7186 24.4266 25.9221 25.1843 25.1643C25.9421 24.4066 27.7386 24.4151 29.9097 26.2201C30.0627 26.3475 30.2555 26.4173 30.4546 26.4173C30.6537 26.4173 30.8465 26.3475 30.9995 26.2201C33.1621 24.4151 34.9671 24.4066 35.7248 25.1643C36.4826 25.9221 36.4741 27.7186 34.6691 29.8897C34.5416 30.0427 34.4719 30.2355 34.4719 30.4346C34.4719 30.6337 34.5416 30.8265 34.6691 30.9795ZM30.412 27.046C29.7384 27.046 29.08 27.2457 28.5199 27.6199C27.9599 27.9941 27.5234 28.526 27.2656 29.1483C27.0078 29.7706 26.9404 30.4554 27.0718 31.116C27.2032 31.7766 27.5276 32.3835 28.0039 32.8598C28.4801 33.336 29.087 33.6604 29.7476 33.7918C30.4082 33.9232 31.093 33.8558 31.7153 33.598C32.3376 33.3402 32.8695 32.9037 33.2437 32.3437C33.6179 31.7836 33.8177 31.1252 33.8177 30.4516C33.8177 29.5557 33.4648 28.6959 32.8353 28.0584C32.2058 27.4209 31.3504 27.0572 30.4546 27.046H30.412ZM30.412 32.1544C30.0752 32.1544 29.746 32.0546 29.466 31.8675C29.1859 31.6803 28.9677 31.4144 28.8388 31.1033C28.7099 30.7921 28.6762 30.4497 28.7419 30.1194C28.8076 29.7891 28.9698 29.4857 29.2079 29.2475C29.4461 29.0094 29.7495 28.8472 30.0798 28.7815C30.4101 28.7158 30.7525 28.7495 31.0637 28.8784C31.3748 29.0073 31.6407 29.2255 31.8279 29.5056C32.015 29.7856 32.1148 30.1148 32.1148 30.4516C32.1062 30.89 31.9288 31.3082 31.6195 31.6191C31.3102 31.9299 30.8929 32.1095 30.4546 32.1204L30.412 32.1544Z" fill="#afcb1e"/>
</svg>
