<svg width="52" height="52" viewBox="0 0 52 52" fill="none" xmlns="http://www.w3.org/2000/svg">
<path d="M38.3432 8.27202C39.0216 6.39164 40.1205 4.69106 41.5562 3.30003C41.6677 3.1969 41.7453 3.06233 41.7787 2.91411C41.8121 2.7659 41.7997 2.61104 41.7432 2.47003C41.6847 2.32976 41.5857 2.21011 41.4589 2.12639C41.332 2.04267 41.1831 1.99867 41.0312 2.00003C40.6132 2.00903 30.7312 2.29403 26.0222 8.96602C23.5802 12.428 23.6132 14.814 23.9682 16.692C24.1723 17.7746 24.7503 18.7511 25.6011 19.451C26.4519 20.1508 27.5215 20.5295 28.6232 20.521H28.6852C29.9121 20.4873 31.118 20.1942 32.2235 19.6609C33.329 19.1277 34.3091 18.3663 35.0992 17.427C37.0192 15.374 37.5172 12.545 37.9182 10.271C38.0227 9.59733 38.1646 8.92996 38.3432 8.27202ZM36.4432 10.011C36.0772 12.089 35.6212 14.675 34.0062 16.401C33.3541 17.1879 32.543 17.8281 31.6262 18.2797C30.7094 18.7312 29.7075 18.9838 28.6862 19.021H28.6332C27.8797 19.0294 27.1472 18.7729 26.5636 18.2962C25.98 17.8195 25.5824 17.153 25.4402 16.413C25.1402 14.844 25.1262 12.835 27.2462 9.83102C30.3512 5.43103 36.2052 4.08203 39.1982 3.67403C38.1876 4.90892 37.4117 6.31852 36.9092 7.83302C36.7125 8.54943 36.5576 9.27666 36.4452 10.011H36.4432Z" fill="#afcb1e"/>
<path d="M23.8532 9.71604C18.4152 6.21605 11.0532 8.34905 10.7372 8.44205C10.5915 8.48597 10.4625 8.57313 10.3675 8.69198C10.2724 8.81084 10.2157 8.95578 10.2048 9.10759C10.194 9.25941 10.2295 9.41093 10.3067 9.54209C10.384 9.67325 10.4992 9.77786 10.6372 9.84204C12.1087 10.5663 13.3936 11.6199 14.3922 12.921C14.6971 13.3927 14.9752 13.8811 15.2252 14.384C16.0802 16.006 17.2502 18.229 19.3252 19.384C20.5392 20.099 21.9166 20.4898 23.3252 20.519C23.4422 20.519 23.5592 20.519 23.6752 20.51C23.8737 20.4994 24.0598 20.4105 24.1927 20.2627C24.3257 20.115 24.3945 19.9205 24.3842 19.722C24.3816 19.6228 24.3589 19.5252 24.3174 19.435C24.2759 19.3449 24.2165 19.2641 24.1427 19.1977C24.069 19.1313 23.9825 19.0806 23.8886 19.0486C23.7946 19.0167 23.6951 19.0043 23.5962 19.012C22.3499 19.0422 21.1209 18.7165 20.0532 18.073C18.3692 17.134 17.3612 15.22 16.5532 13.683C16.2754 13.1249 15.9656 12.5833 15.6252 12.061C14.8969 11.0591 14.0015 10.19 12.9782 9.49205C15.3782 9.10305 19.7012 8.82505 23.0442 10.976C23.2115 11.0837 23.4148 11.1205 23.6093 11.0783C23.8038 11.0361 23.9735 10.9184 24.0812 10.751C24.1889 10.5837 24.2256 10.3804 24.1835 10.1859C24.1413 9.99147 24.0235 9.82172 23.8562 9.71405L23.8532 9.71604Z" fill="#afcb1e"/>
<path d="M34.6402 5.94704C32.6028 7.50916 30.7954 9.35021 29.2712 11.416C28.215 12.8365 27.293 14.352 26.5172 15.943C26.4353 16.1244 26.4289 16.3309 26.4992 16.5171C26.5695 16.7033 26.7108 16.854 26.8922 16.936C26.989 16.9783 27.0935 17.0001 27.1992 17C27.3435 17.0001 27.4849 16.9586 27.6062 16.8804C27.7275 16.8021 27.8237 16.6906 27.8832 16.559C28.6165 15.0606 29.4869 13.6332 30.4832 12.295C31.9197 10.3591 33.6156 8.62996 35.5232 7.15604C35.6814 7.0378 35.7866 6.86191 35.8159 6.66657C35.8452 6.47122 35.7963 6.2722 35.6798 6.11271C35.5632 5.95323 35.3885 5.84617 35.1934 5.81477C34.9984 5.78338 34.7989 5.83019 34.6382 5.94504L34.6402 5.94704Z" fill="#afcb1e"/>
<path d="M17.2992 11.073C17.2236 11.2569 17.2239 11.4632 17.3 11.6468C17.376 11.8305 17.5217 11.9765 17.7052 12.053C19.146 12.6909 20.4976 13.5135 21.7262 14.5C21.88 14.6263 22.0777 14.6863 22.2757 14.6667C22.4738 14.6472 22.6559 14.5499 22.7822 14.396C22.9084 14.2422 22.9684 14.0445 22.9489 13.8465C22.9294 13.6485 22.832 13.4663 22.6782 13.34C21.3368 12.2566 19.8572 11.3567 18.2782 10.664C18.0941 10.5892 17.8878 10.5902 17.7044 10.6668C17.521 10.7435 17.3754 10.8895 17.2992 11.073Z" fill="#afcb1e"/>
<path d="M26.7152 21.855C26.6676 21.704 26.5735 21.5718 26.4464 21.4773C26.3193 21.3829 26.1655 21.331 26.0072 21.329H25.9992C25.8421 21.329 25.6889 21.3783 25.5614 21.47C25.4338 21.5617 25.3382 21.6911 25.2882 21.84C24.4102 24.2349 23.2791 26.5292 21.9142 28.684C18.1272 34.668 16.4542 37.431 16.4542 40.213C16.4542 45.976 20.3782 50 25.9992 50C31.6192 50 35.5442 45.976 35.5442 40.213C35.5442 37.504 34.1122 34.835 30.0782 28.674C28.6794 26.5489 27.5498 24.2584 26.7152 21.855ZM25.9992 48.5C21.2622 48.5 17.9542 45.092 17.9542 40.213C17.9542 37.848 19.5542 35.213 23.1822 29.486C24.2523 27.7871 25.1884 26.0074 25.9822 24.163C26.7678 26.0234 27.7186 27.8095 28.8232 29.5C32.5052 35.123 34.0442 37.855 34.0442 40.217C34.0442 45.092 30.7352 48.5 25.9992 48.5Z" fill="#afcb1e"/>
<path d="M28.8322 46.074C28.9382 46.2425 29.1068 46.362 29.3008 46.4062C29.4949 46.4505 29.6986 46.4159 29.8672 46.31C30.8586 45.6444 31.6591 44.7315 32.1896 43.6617C32.7201 42.5919 32.9623 41.4021 32.8922 40.21C32.8922 40.0111 32.8131 39.8203 32.6725 39.6797C32.5318 39.539 32.3411 39.46 32.1422 39.46C31.9433 39.46 31.7525 39.539 31.6118 39.6797C31.4712 39.8203 31.3922 40.0111 31.3922 40.21C31.4565 41.147 31.2761 42.0847 30.8687 42.9309C30.4612 43.7772 29.8408 44.5029 29.0682 45.037C28.9844 45.0894 28.9118 45.1579 28.8545 45.2384C28.7973 45.319 28.7565 45.4101 28.7346 45.5065C28.7126 45.6028 28.71 45.7026 28.7267 45.8C28.7435 45.8974 28.7793 45.9905 28.8322 46.074Z" fill="#afcb1e"/>
<path d="M30.9432 38.349C31.0178 38.5335 31.1627 38.6807 31.3459 38.7584C31.5292 38.836 31.7357 38.8377 31.9202 38.763C32.1046 38.6884 32.2519 38.5435 32.3295 38.3603C32.4072 38.1771 32.4088 37.9705 32.3342 37.786C32.2508 37.5814 32.1578 37.3677 32.0552 37.145C32.0138 37.0556 31.9552 36.9752 31.8828 36.9084C31.8103 36.8416 31.7255 36.7897 31.633 36.7558C31.5405 36.7218 31.4422 36.7063 31.3438 36.7103C31.2453 36.7143 31.1486 36.7377 31.0592 36.779C30.9697 36.8204 30.8893 36.879 30.8225 36.9514C30.7558 37.0239 30.7039 37.1088 30.6699 37.2012C30.6359 37.2937 30.6205 37.392 30.6245 37.4905C30.6285 37.5889 30.6518 37.6856 30.6932 37.775C30.7862 37.975 30.8692 38.165 30.9432 38.349Z" fill="#afcb1e"/>
</svg>
