<svg id="Layer_1" enable-background="new 0 0 105 105" viewBox="0 0 105 105" xmlns="http://www.w3.org/2000/svg"><g><g><path d="m83.7317123 48.8860283c0 .5757141-.011116 1.1625366-.0333328 1.7382469-.3763046 8.7351265-3.5980453 16.7284622-8.7351227 23.0943527-.2102356.2547607-.4095459.5093384-.6309814.7528992-7.2516327 8.5468292-18.0790062 13.9717178-30.1577873 13.9717178-21.854332 0-39.5681419-17.7026978-39.5681419-39.5572166 0-3.0665855.3543706-6.0669785 1.0296926-8.9343414.2878103-1.3063965.6531048-2.6016808 1.0850515-3.8527184 3.7307968-10.9160557 12.1006269-19.673399 22.751091-23.9467659 4.5501633-1.815733 9.509964-2.8120995 14.7023048-2.8120995 1.583374 0 3.1332359.0885935 4.6609764.2767019 7.1631355.8303823 13.739357 3.5870304 19.2084045 7.7276497 5.1369858 3.8970566 9.28862 9.0120106 12.0344315 14.9239254.8081665 1.7492676 1.5055237 3.5760155 2.0480042 5.4691391 1.0407124 3.5317641 1.6054096 7.2846823 1.6054096 11.1485091z" fill="#fff"/></g><g><path d="m83.7344894 48.8838997c0 .5738602-.018425 1.1665154-.0369415 1.740284-.3796387 8.7390137-3.6012878 16.7280884-8.7297516 23.0971298-.2129211.249855-.4166718.5090637-.6388474.7497559-7.2483978 8.5445099-18.079567 13.9693985-30.1510353 13.9693985-6.8782883 0-13.3490677-1.7588882-18.9960403-4.8415833 27.4294701-.2777176 49.5914269-22.6063996 49.5914269-50.1192742 0-3.8046722-.4257431-7.516861-1.231041-11.0810261 2.6381531 2.9254093 4.8508377 6.2486992 6.5355835 9.8684063.8053818 1.7496376 1.5089417 3.5733299 2.0458679 5.4710808 1.0460816 3.5271378 1.6107788 7.2855187 1.6107788 11.1458283z" fill="#ddd"/></g><g><path d="m47.1637726 12.9049149c-1.3949852.6755075-3.0335312.1219196-4.5170212-.3320599-1.4835777-.4428711-3.2880173-.7085562-4.4173203.3652945-1.140316 1.084959-.9853477 3.033534-2.003933 4.2403193-1.3285179 1.5720806-3.9191818 1.173645-5.6131821 2.3582134-1.8044395 1.2510357-2.0146732 3.7863388-2.1477013 5.9783821-.1437664 2.1810284-.6531048 4.7715988-2.6680546 5.6462307-1.4171124.6309795-3.0555668.132843-4.4505539-.4982281-1.4060955-.6420898-2.8010826-1.4502544-4.3399296-1.4834881-2.2806349-.0553589-6.0228176 2.4245872-4.5834885 4.2068996 1.2732534 1.5611572 5.435997-1.0738487 5.9562588.8636169.4096375 1.5279236-.7639141 3.0223351.2104187 4.2735558.9741497 1.2508507 2.3580284 2.258419 2.8452415 3.7640305.3985271 1.2953758-.1993103 3.000206-1.3397217 3.7310715-1.1402245.7416992-2.7677555.586731-3.7529221-.3432617-.7418814-.7085533-1.0849581-1.7382469-1.3174105-2.7455368-.2326365-.99646-.3876038-2.037262-.8857412-2.9339256-.4981365-.9077759-1.4282207-1.6606712-2.4578209-1.5942993-1.0296001.0664711-1.8268414.9078674-2.7455387 1.3727722-1.0187693.5094299-2.2253695.5424767-3.2993126.1771851.2878103-1.3063965.6531048-2.6016808 1.0850515-3.8527184 3.7307968-10.9160557 12.1006269-19.673399 22.751091-23.9467659 4.5501633-1.815733 9.509964-2.8120995 14.7023048-2.8120995 1.583374 0 3.1332359.0885935 4.6609764.2767019.1439528 1.3064861-.464995 2.7235985-1.6716905 3.2881098z" fill="#dabcbc"/></g><g><path d="m21.4326553 42.283329c.3980656 1.2962112-.1943111 3.0086327-1.3423138 3.7400551-1.1386509.7405853-2.7679405.58321-3.749218-.3517799-.7405863-.7034645-1.0831079-1.7311211-1.3145409-2.7401695-.2314329-.9997902-.3888083-2.036705-.8887959-2.9345741-.4998035-.9072189-1.4255362-1.6571541-2.4531002-1.5922585-1.0368214.0648003-1.8329515.9072189-2.7494268 1.3700829-1.0183063.5091553-2.2217593.5461845-3.2956095.1757965.2869773-1.305191.6479201-2.6012154 1.083015-3.850956.3333564-.9627609.6942997-1.9071007 1.1017146-2.8328362 1.5089445-.3423347 2.9716959-.749752 4.3602953-1.2033577-.1482096.4536057-.0926657.9072151.2406902 1.3238907 1.2680693 1.5643959 5.4338684-1.0740356 5.9523716.860836.4072285 1.527462-.7591953 3.0271492.2129173 4.2768898.9720194 1.2497368 2.3606207 2.2587853 2.8420011 3.7583809z" fill="#bc9595"/></g><g><path d="m47.1680336 12.9005642c-1.3977661.6757851-3.0363121.1297874-4.5175781-.3239136-1.4904289-.4443521-3.2957039-.7127218-4.4250946.3610353-1.1385612 1.0831079-.9811859 3.0364046-1.9994926 4.2398577-1.332962 1.5737457-3.9158516 1.1757736-5.6099415 2.3606186-1.8051796 1.2497406-2.0180988 3.7861557-2.1477013 5.9803276-.1481171 2.1752872-.657362 4.7674332-2.6753674 5.6467857-1.4163723.629591-3.0549202.1296959-4.4435196-.4998016-.9535961-.4351883-1.8978443-.9442482-2.8881931-1.2404823 6.2948914-3.3419895 10.1922264-7.9706535 10.1922264-13.099123 0-1.2126169-.2221756-2.4069052-.6388474-3.5548143.4813805-.2128258.9628544-.4258375 1.4534931-.6202412 4.5546074-1.8145294 9.5165367-2.8142281 14.7098961-2.8142281 1.5830956 0 3.1289787.0924807 4.6564369.2777195.1482125 1.3052836-.4628638 2.7217474-1.6663169 3.2862597z" fill="#bc9595"/></g><g><path d="m49.04739 47.8232422c.7480049-.0963593.941761 1.2736206.8815651 2.0254173-.0659676.8229332-.7576599 1.716671-.2550125 2.3717232.5177422.6748352 1.5595055.189743 2.3787994-.0385818 1.1999397-.3343887 2.5786972.1048355 3.3640556 1.0715637.78545.9667625.9328232 2.4063148.3596916 3.5122032-.7877617 1.5202217-2.7256966 2.3302956-3.1366196 3.9923553-.3076706 1.244175.2503548 2.871254-.7786446 3.6352959-.7206993.5351563-1.7446594.2130432-2.5405235-.2020569-.7958336-.4152031-1.6648712-.9233322-2.5324707-.6930733-.9636497.2558098-1.4659119 1.3051414-1.73563 2.2649956-.2695923.9598007-.4780159 2.0248947-1.2409859 2.6666641-1.0185585.8566513-2.5253639.5814133-3.8470879.425087-1.3216858-.1564255-2.9852066.062088-3.4560623 1.3069458-.4469948 1.1817627.5058632 2.3777542.936058 3.5658112.2409134.6653519.3184204 1.3893356.2239609 2.0906677-.0883331.6554642-.3318825 1.2991791-.7581711 1.8047256-1.065834 1.2637253-3.1393394 1.3577271-4.5046196.4255524-1.3654118-.9321213-2.0403805-2.6606064-2.0091171-4.3135223.0312614-1.6529236.6825676-3.2378616 1.5199909-4.6633301.5111294-.870224 1.107008-1.7282181 1.2842503-2.7217636.3652115-2.0479736-1.124691-4.2113609-.372673-6.1509171.4888573-1.2606926 1.7691765-1.9906883 2.7637749-2.9068146.994503-.9161606 1.7487564-2.4956093.926342-3.5689392-.6801033-.8874321-1.999073-.8661842-3.0271416-1.3056259-1.205616-.5152435-2.0441685-1.7913361-2.038805-3.1023331.0053997-1.3110924.8544331-2.5802269 2.0641956-3.0855598.5390358-.2251701 1.1331787-.3083992 1.6540565-.5728188.8767204-.4450912 1.4285164-1.3386688 1.8497391-2.2271576.4211273-.8885231.6798248-1.9251747 1.4198837-2.5726395 3.0211792-2.6436005 5.5655327-1.3003235 6.9019432-.7255974s2.4142952 1.9435768 2.2623329 3.3903542c-.0539742.5143204-.252964 1.0003242-.433094 1.4849815-.1801605.4847527-.3454819.98909-.3273506 1.5058746.0182228.516819.2541504 1.0543137.7074318 1.3032379.453148.2489816.9831048.0734598 1.4959375.0072748z" fill="#c3c9fb"/></g><g><path d="m55.7805634 56.7683105c-.7865944 1.5148315-2.7311668 2.3269463-3.1395569 3.9873276-.3041229 1.2459793.2456131 2.8712883-.7786751 3.6350708-.7187653.5393906-1.7435303.2174301-2.5421181-.1960678-.7952614-.4228439-1.6688881-.9274483-2.5350494-.6985054-.9628181.2588997-1.4646072 1.3057137-1.7308083 2.2641411-.2694435.9681244-.4770088 2.0335236-1.2426453 2.6743469-1.0229187.8504715-2.5256805.5732346-3.8484879.4244766-1.3194046-.1583023-2.9858818.0543289-3.4533997 1.3067093-.4499435 1.1725464.5088539 2.3738785.9362831 3.5579376.2361565.6645203.320713 1.3931656.2198219 2.0989761-.0804749.6484833-.3305168 1.2902069-.7605515 1.8035583-1.0600433 1.256218-3.1372299 1.3548203-4.5016975.4173431-1.3679352-.9277496-2.0402718-2.6612091-2.0036259-4.3032913.0304775-1.6552429.6809788-3.240036 1.5141525-4.67379.5106487-.8607254 1.1078892-1.7228546 1.2881832-2.7119751.0150223-.1022415.0264854-.1947861.0378876-.2874603 6.4186478-2.3895836 11.775074-7.5005951 14.2583084-14.4732361.4348183-1.2209282.7639656-2.4472427.9972687-3.6754494.1831894-.0314941.3697777-.0725288.5495682-.0944824.754612-.0968018.9444962 1.2713661.8811073 2.0227776-.068119.824749-.7523575 1.7204933-.2532692 2.3710594.5209351.6800537 1.5652809.1922302 2.3769913-.0347176 1.2045784-.3341293 2.5855675.1039505 3.3696022 1.0710716.7842295.9671862.9278948 2.4047739.3607104 3.5141794z" fill="#8693e2"/></g><g><path d="m32.251709 6.6984172c-.3286133 0-.6303711-.2180176-.722168-.550293-.1108398-.3991699.1235352-.8125.5229492-.9228516 1.0146484-.2805176 2.0522461-.5285645 3.0844727-.7373047.4008789-.0820313.8012695.1806641.8837891.5864258.0820313.4060059-.1806641.8017578-.5869141.8837891-.9975586.2016602-2.0009766.4416504-2.9819336.7128906-.0668945.0185547-.1337891.0273438-.2001953.0273438z" fill="#0f0f0f"/></g><g><path d="m5.638916 27.2296677c-.128418 0-.2578125-.0327148-.3764648-.1018066-.3583984-.208252-.4794922-.6672363-.2714844-1.0253906 4.7143555-8.1027832 11.7192383-14.4624023 20.2578125-18.3908691.3754883-.1728516.8212891-.0085449.9946289.3679204.1733398.3762207.0087891.8217773-.3676758.994873-8.2568359 3.7988281-15.0302734 9.9477539-19.5878906 17.7824707-.1396484.2392572-.390625.3728022-.6489258.3728022z" fill="#0f0f0f"/></g><g><path d="m88.6945801 51.5690231c-.0097656 0-.0195313-.0002441-.0297852-.0004883-.4135742-.0161133-.7363281-.3647461-.7202148-.7785645.0244141-.6306152.0371094-1.2736816.0371094-1.9040527 0-4.1879883-.5947266-8.3310547-1.7680664-12.3139648-.5800781-2.0236816-1.347168-4.072998-2.28125-6.0957031-.456543-.9829102-.9594727-1.9667969-1.4946289-2.9226074-.2026367-.3615723-.0737305-.8186035.2880859-1.0209961.3613281-.201416.8188477-.072998 1.0205078.2880859.5537109.9890137 1.0742188 2.0068359 1.546875 3.0251465.9672852 2.09375 1.7612305 4.215332 2.3608398 6.3076172 1.2119141 4.1152344 1.8276367 8.4008789 1.8276367 12.7324219 0 .6499023-.0126953 1.3125-.0380859 1.9621582-.015625.4040527-.3481445.7209472-.7490234.7209472z" fill="#0f0f0f"/></g><g><path d="m80.345459 23.6281052c-.2329102 0-.4624023-.1081543-.6088867-.3115234-.5043945-.6994629-1.0336914-1.390625-1.5742188-2.0541992-.2617188-.3212891-.2133789-.7937012.1079102-1.0551758.3208008-.2614746.7939453-.2133789 1.0551758.1079102.559082.6865234 1.1064453 1.401123 1.6279297 2.1245117.2421875.3359375.1660156.8046875-.1699219 1.046875-.1323243.095703-.2861328.1416015-.4379883.1416015z" fill="#0f0f0f"/></g><g><path d="m44.1745605 89.1932907c-22.2314453 0-40.3183594-18.0817871-40.3183594-40.307373 0-3.0847168.3530273-6.1484375 1.0498047-9.1062012.2910156-1.3195801.6635742-2.6437988 1.105957-3.925293 3.800293-11.1188965 12.2495117-20.0124512 23.1811523-24.3981934 4.765625-1.9020996 9.8056641-2.8662109 14.9814453-2.8662109 1.6323242 0 3.2314453.0949707 4.7529297.2824707 7.0810547.8208008 13.8500977 3.5439453 19.5688477 7.8740234 5.2524414 3.984375 9.4921875 9.2424316 12.262207 15.2060547.8569336 1.8544922 1.559082 3.7307129 2.0888672 5.5783691 1.0839844 3.6774902 1.6342773 7.4997559 1.6342773 11.3549805 0 .5854492-.0112305 1.1816406-.0336914 1.7668457-.3725586 8.6447754-3.4506836 16.7824707-8.9013672 23.5368652l-.1606445.1970215c-.1625977.1999512-.3242188.3979492-.4990234.5895996-7.6591796 9.0280763-18.8598632 14.2170411-30.7124023 14.2170411zm0-79.1032715c-4.984375 0-9.8374023.9282227-14.4243164 2.7587891-10.524414 4.2226562-18.6601562 12.7854004-22.3198242 23.4929199-.4238281 1.229248-.78125 2.4973145-1.0620117 3.7714844-.6723633 2.8554688-1.012207 5.8037109-1.012207 8.7727051 0 21.3984375 17.4140625 38.807373 38.8183594 38.807373 11.4111328 0 22.1948242-4.9960938 29.5859375-13.7067871.1728516-.190918.3164063-.3681641.4619141-.5466309l.1621094-.1982422c5.2426758-6.4970703 8.2060547-14.3312988 8.5644531-22.6496582.0214844-.5625.0327148-1.1396484.0327148-1.7060547 0-3.7116699-.5297852-7.3911133-1.574707-10.9362793-.5102539-1.7792969-1.1855469-3.583252-2.0092773-5.3666992-2.6669922-5.7409668-6.75-10.8044434-11.8071289-14.6411133-5.5053711-4.1679688-12.0205078-6.7893066-18.8413086-7.579834-1.4663087-.180664-3.0034181-.2719726-4.5747072-.2719726z" fill="#0f0f0f"/></g><g><path d="m18.4606934 47.2379684c-.9604492 0-1.9233398-.3466797-2.6337891-1.0170898-.9243164-.8823242-1.3046875-2.1320801-1.5332031-3.1223145l-.1289063-.5805664c-.1708984-.7858887-.3320313-1.5280762-.6816406-2.1577148-.3500977-.6376953-1.0327148-1.2590332-1.7539063-1.2099609-.4887695.0314941-.9770508.3588867-1.4941406.7055664-.3037109.2036133-.6171875.4138184-.9609375.5878906-1.1650391.5817871-2.578125.6611328-3.8798828.2177734-.3618164-.1230469-.5727539-.498291-.4907227-.871582.293457-1.329834.6660156-2.6540527 1.1083984-3.9355469 3.800293-11.1188965 12.2495117-20.0124512 23.1811523-24.3981934 4.765625-1.9020996 9.8056641-2.8662109 14.9814453-2.8662109 1.6323242 0 3.2314453.0949707 4.7529297.2824707.3452148.0424805.6157227.3166504.6538086.6623535.1884766 1.7158203-.6728516 3.3791504-2.0947266 4.0471191-1.5991211.7717285-3.3359375.237793-4.8671875-.2329102l-.1918945-.0588379c-1.78125-.5317383-2.9858398-.4692383-3.6816406.1914063-.4555664.4335938-.6625977 1.1308594-.8823242 1.8691406-.2368164.796875-.4819336 1.6206055-1.0649414 2.3112793-.9023438 1.0683594-2.1889648 1.3669434-3.4326172 1.6560059-.871582.2021484-1.6943359.3933105-2.3237305.833252-1.4472656 1.0036621-1.690918 3.1311035-1.8291016 5.4091797-.0830078 1.2592773-.3344727 5.0800781-3.1176758 6.2888184-1.7817383.7939453-3.7412109.0930176-5.0585938-.5029297-.2441406-.1113281-.4848633-.2263184-.7265625-.3417969-1.1328125-.5405273-2.2026367-1.0510254-3.3203125-1.0751953-1.3793945-.0422363-3.496582 1.114502-4.0288086 2.1945801-.1987305.4023438-.0888672.6257324.0449219.7912598.3359375.4118652 1.4946289.2080078 2.4257813.0446777 1.3598633-.2390137 3.2250977-.5673828 3.6708984 1.0959473.2197266.8193359.0825195 1.5866699-.0390625 2.2636719-.1484375.8266602-.2163086 1.3154297.1171875 1.7434082.2890625.3708496.6191406.7214355.9682617 1.0925293.7939453.8432617 1.6152344 1.715332 1.9990234 2.9016113.5029297 1.6328125-.237793 3.6887207-1.6484375 4.5930176-.6074216.3950195-1.3227536.5878905-2.0390622.5878905zm-6.6586914-9.5900878c1.1621094 0 2.3227539.7641602 2.9941406 1.9870605.4555664.8203125.6484375 1.7070313.8344727 2.5649414l.1245117.5593262c.1928711.8374023.4750977 1.7727051 1.1049805 2.3737793.7348633.6943359 1.9780273.8081055 2.8261719.2570801.8554688-.548584 1.3354492-1.8937988 1.03125-2.8815918-.2763672-.8549805-.9487305-1.5688477-1.6601563-2.324707-.3579102-.3798828-.7280273-.7729492-1.0600586-1.1994629-.7602539-.9768066-.5664063-2.0595703-.4101563-2.9296875.1030273-.5732422.2001953-1.114502.0668945-1.6101074-.0825195-.3117676-.9379883-.1872559-1.9628906-.0073242-1.3847656.2429199-2.9560547.519043-3.8496094-.5766602-.5649414-.6994629-.6445313-1.5505371-.2260742-2.3996582.7915039-1.6064453 3.4418945-3.0686035 5.4086914-3.0310059 1.4384766.0310059 2.7060547.6359863 3.9321289 1.2211914.2338867.1115723.4672852.2229004.7011719.329834 1.6723633.7563477 2.8916016.9145508 3.8339844.4953613 1.3149414-.5710449 2.0405273-2.2089844 2.2246094-5.010498.1289063-2.1271973.3056641-5.0456543 2.4692383-6.5454102.8647461-.6044922 1.8696289-.8378906 2.8413086-1.0634766 1.0517578-.2443848 2.0449219-.4748535 2.6259766-1.1623535.3803711-.4511719.5712891-1.0922852.7729492-1.7712402.2539063-.8527832.5410156-1.8190918 1.2866211-2.5283203 1.1191406-1.0644531 2.8037109-1.2409668 5.1489258-.5407715l.1992188.0610352c1.3310547.409668 2.706543.8320313 3.7768555.3146973.0029297-.0014648.0058594-.0029297.0087891-.0043945.7553711-.3532715 1.159668-1.1604004 1.2431641-1.9384766-1.2626953-.1308594-2.5761719-.1970215-3.9145508-.1970215-4.984375 0-9.8374023.9282227-14.4243164 2.7587891-10.5244143 4.2226561-18.6601565 12.7854003-22.3198245 23.4929198-.3452148 1.0004883-.6459961 2.0266113-.8974609 3.060791.7246094.1105957 1.4501953.0097656 2.0668945-.2988281.2729492-.1381836.5361328-.3168945.7998047-.4936523.628418-.4213867 1.3413086-.8991699 2.2329102-.9567871.0566406-.0036622.1127929-.0053711.1694336-.0053711z" fill="#0f0f0f"/></g><g><path d="m34.4660645 79.4269333c-.8583984 0-1.7348633-.2480469-2.4833984-.7590332-1.4794922-1.0100098-2.3745117-2.9055176-2.3359375-4.9470215.0297852-1.5754395.5610352-3.220459 1.6235352-5.0290527l.2485352-.4162598c.4208984-.6975098.8188477-1.3562012.9438477-2.057373.1391602-.7817383-.0551758-1.6340332-.2607422-2.536377-.2783203-1.220459-.565918-2.4829102-.0727539-3.7541504.4321289-1.1149902 1.3139648-1.829834 2.1669922-2.5212402.2685547-.2180176.5375977-.4355469.7875977-.6657715.6816406-.628418 1.3930664-1.8383789.8393555-2.5612793-.2954102-.3852539-.8666992-.5305176-1.5273438-.6984863-.3950195-.1005859-.8037109-.2043457-1.199707-.3735352-1.4746094-.6306152-2.5-2.1911621-2.4936523-3.795166s1.0449219-3.1560059 2.5249023-3.7746582c.2626953-.1096191.5361328-.1904297.8100586-.2697754.2900391-.0837402.5644531-.1630859.7939453-.279541.7236328-.3676758 1.1879883-1.1977539 1.5112305-1.8798828.1030273-.2175293.1958008-.4445801.2890625-.6721191.2963867-.7250977.6328125-1.546875 1.3149414-2.1435547 3.2177734-2.8151855 6.0908203-1.5527344 7.472168-.9460449l.2197266.0959473c1.4970703.6437988 2.909668 2.2788086 2.7119141 4.157959-.0581055.5549316-.2416992 1.0432129-.4194336 1.5153809l-.0566406.1523438c-.1494141.4020996-.2944336.8273926-.2807617 1.2182617.0102539.2980957.1416016.5744629.3188477.671875.1308594.0717773.4023438.0249023.6904297-.0244141.1166992-.0200195.2329102-.0397949.3491211-.0546875.3916016-.0507813.7641602.0744629 1.0537109.3500977.637207.607666.7216797 1.8439941.6708984 2.4790039-.0302734.3808594-.1518555.7407227-.2587891 1.0583496-.1030273.3068848-.2319336.6887207-.1489258.796875.1171875.1525879.7939453-.0605469 1.1567383-.175293.1459961-.0458984.2890625-.0908203.4262695-.1289063 1.4746094-.4123535 3.1811523.1320801 4.1469727 1.3210449.9663086 1.189209 1.1489258 2.9697266.4438477 4.3303223-.4057617.7822266-1.0283203 1.3642578-1.6308594 1.9272461-.6513672.6088867-1.2666016 1.1838379-1.4438477 1.9001465-.0869141.3508301-.0874023.776123-.0878906 1.2263184-.0014648.940918-.003418 2.1120605-.9716797 2.8310547-.5776367.4282227-1.625.7526855-3.3349609-.1394043l-.168457-.088623c-.6381836-.3359375-1.2973633-.6831055-1.8242188-.5446777-.6396484.1696777-1.0087891 1.041748-1.2060547 1.7434082l-.0917969.3356934c-.2509766.9301758-.5356445 1.984375-1.3881836 2.7016602-1.1855469.9970703-2.7983398.796875-4.0932617.6357422l-.324707-.0395508c-1.0395508-.1237793-2.3613281.0197754-2.6665039.8271484-.2124023.5605469.1098633 1.230957.4829102 2.0068359.1665039.3464355.331543.6931152.456543 1.0385742.2822266.7790527.3725586 1.6247559.262207 2.4458008-.1137695.8469238-.4350586 1.6032715-.9282227 2.1882324-.731934.8679197-1.8583989 1.3203122-3.0175785 1.3205564zm7.739746-39.3999024c-.965332 0-2.0639648.3376465-3.2714844 1.3945313-.4160156.3635254-.6582031.9555664-.9145508 1.5825195-.1035156.2529297-.2070313.505127-.3217773.7470703-.4257813.8977051-1.059082 2.0014648-2.1879883 2.5744629-.3554688.1806641-.7114258.2836914-1.0556641.3830566-.2192383.0634766-.4389648.1254883-.6489258.2131348-.9248047.3862305-1.5991211 1.3942871-1.6030273 2.3967285-.0039063 1.0021973.6616211 2.015625 1.5834961 2.4094238.2885742.1235352.6240234.2087402.9794922.2990723.8134766.2070313 1.7363281.4416504 2.3481445 1.2399902 1.0742188 1.4018555.3032227 3.3632813-1.0131836 4.5766602-.2729492.2514648-.565918.4897461-.8598633.7277832-.7324219.5939941-1.4248047 1.1552734-1.7128906 1.8986816-.3271484.8432617-.1015625 1.8317871.1367188 2.878418.2299805 1.0085449.4677734 2.0515137.2749023 3.1330566-.1738281.9748535-.6630859 1.7854004-1.1362305 2.5690918l-.2392578.4006348c-.9287109 1.5810547-1.3925781 2.9868164-1.4169922 4.2978516-.0292969 1.541748.6152344 2.9516602 1.6816406 3.6799316 1.1035156.7531738 2.7431641.6179199 3.5087891-.2897949.3085938-.3662109.512207-.8579102.5883789-1.4211426.078125-.5825195.0136719-1.1826172-.1860352-1.7353516-.1083984-.2993164-.2539063-.598877-.3984375-.8991699-.456543-.9494629-.9736328-2.0258789-.5341797-3.1872559.519043-1.371582 2.1030273-2.0397949 4.2460938-1.786377l.3334961.0407715c1.1108398.1386719 2.2587891.2810059 2.9423828-.2949219.4926758-.4145508.6933594-1.1577148.9057617-1.9445801l.0957031-.3510742c.440918-1.5673828 1.203125-2.505127 2.265625-2.7871094 1.090332-.2885742 2.0976563.2407227 2.9072266.6669922l.1640625.0859375c.4619141.2407227 1.3022461.5944824 1.746582.2651367.3393555-.2519531.3647461-.7834473.3662109-1.6291504.0004883-.5195313.0014648-1.0568848.1318359-1.5839844.2841797-1.1481934 1.1298828-1.9387207 1.8759766-2.6359863.5327148-.4980469 1.0361328-.9685059 1.3227539-1.5217285.4389648-.8461914.3251953-1.9541016-.2758789-2.6940918-.6010742-.7397461-1.6640625-1.0773926-2.5800781-.8220215-.1220703.0339355-.2495117.0742188-.3789063.1149902-.8129883.2558594-2.0415039.642334-2.796875-.3422852-.5698242-.7421875-.2880859-1.5783691-.0825195-2.1889648.0869141-.2583008.1694336-.5026855.1850586-.6992188.0390625-.489502-.0615234-.9980469-.1650391-1.203125-.0532227.0085449-.1064453.0175781-.159668.0268555-.4804688.0830078-1.0771484.1845703-1.6665039-.1394043-.6464844-.3549805-1.0664063-1.0961914-1.0957031-1.9343262-.0234375-.6643066.1806641-1.2739258.3735352-1.7932129l.059082-.1572266c.1508789-.4013672.2929688-.7802734.3310547-1.1442871.1206055-1.1459961-.84375-2.2070313-1.8125-2.6235352l-.2304688-.1005859c-.6962888-.3059079-1.5761716-.6928708-2.6093748-.6928708z" fill="#0f0f0f"/></g><g><g><path d="m95.514328 12.5896473c0 2.0277004-1.6402054 3.6679001-3.6610031 3.6679001-2.0278015 0-3.6679993-1.6401997-3.6679993-3.6679001 0-2.0208998 1.6401978-3.6611004 3.6679993-3.6611004 2.0207977 0 3.6610031 1.6402006 3.6610031 3.6611004z" fill="#c3c9fb"/></g><g><path d="m95.5147247 12.5883474c0 2.0250998-1.6441956 3.6691999-3.6604996 3.6691999-1.5837021 0-2.9423981-1.0123997-3.4528961-2.4230003.553894.3375006 1.2114944.5365 1.9124985.5365 2.0250015 0 3.6691971-1.6441994 3.6691971-3.6691999 0-.4239998-.0691986-.8393993-.2077026-1.2201996 1.0385055.6403999 1.7394027 1.7912998 1.7394027 3.1066999z" fill="#8693e2"/></g><g><path d="m91.8532715 17.0074997c-2.4360352 0-4.4179688-1.9819336-4.4179688-4.4179688 0-2.4321289 1.9819336-4.4108887 4.4179688-4.4108887 2.4321289 0 4.4111328 1.9787598 4.4111328 4.4108887 0 2.4360352-1.9790039 4.4179688-4.4111328 4.4179688zm0-7.3288574c-1.6088867 0-2.9179688 1.3059082-2.9179688 2.9108887 0 1.6088867 1.309082 2.9179688 2.9179688 2.9179688 1.6049805 0 2.9111328-1.309082 2.9111328-2.9179688 0-1.6049805-1.3061523-2.9108887-2.9111328-2.9108887z" fill="#0f0f0f"/></g></g><g><path d="m17.4083004 92.1558609c-2.9638996.610405-5.2951994 2.9491043-5.9055996 5.9129028-.0368004.1764984-.2721004.1764984-.3088999 0-.3015003-1.4856033-1.0369005-2.8094025-2.0739002-3.8390045-1.0222998-1.0295944-2.3460002-1.7723999-3.8316002-2.0738983-.1764998-.0367966-.1764998-.2721024 0-.3088989 1.4856-.3014984 2.8093004-1.0442963 3.8389997-2.0738983 1.0296001-1.0296021 1.7650003-2.3534012 2.0665007-3.8390045.0367994-.1764984.2720995-.1764984.3088999 0 .3015995 1.4856033 1.0369997 2.8094025 2.0665998 3.8390045s2.3534002 1.7723999 3.8389997 2.0738983c.1765004.0367965.1765004.2721023.0000001.3088989z" fill="#ffd9b0"/></g><g><path d="m17.4112015 92.1519623c-2.9700012.6100006-5.299901 2.9501038-5.9100008 5.9199982-.04.1699982-.2699003.1699982-.3100004 0-.29-1.4199982-.9598999-2.6899948-1.9200001-3.6899948 2.3000002-.4200058 4.0500002-2.3800049 4.1501007-4.7798996.0398998.0599976.0998993.1199951.1498995.169899 1.0300999 1.0299988 2.3501005 1.7700958 3.8400011 2.0700989.1699981.0399016.1699981.2798995 0 .3098983z" fill="#edb57e"/></g><g><path d="m11.3483887 98.9511032c-.4331055 0-.7983398-.2990723-.8886719-.7280273-.2670898-1.317627-.9130859-2.5126953-1.8681641-3.4611816-.9536133-.9602051-2.1459961-1.6057129-3.4526367-1.8708496-.4331055-.0905762-.7333984-.4560547-.7333984-.8896484s.300293-.7990723.7294922-.8886719c1.3081055-.265625 2.503418-.9118652 3.4619141-1.869873.9521484-.9521484 1.5961914-2.1477051 1.8618164-3.4580078.0908203-.434082.456543-.7331543.8896484-.7331543h.0009766c.4335938.0004883.7988281.3007813.8876953.7299805.2666016 1.3132324.9106445 2.5090332 1.8623047 3.4611816.9584961.9580078 2.1542969 1.604248 3.4580078 1.8688965.4335938.0908203.7333984.4560547.7333984.8896484s-.2998047.7988281-.7290039.8886719c-.0004883.0002441-.0014648.0002441-.0019531.0004883-2.6801758.552002-4.7695313 2.6437988-5.3227539 5.3295898-.0888672.4301758-.4541016.7304688-.8876953.730957-.0000001-.0000001-.0004883-.0000001-.0009766-.0000001zm-4.1274414-6.9499512c.8974609.4111328 1.7202148.984375 2.4311523 1.6999512.7133789.7084961 1.2856445 1.5317383 1.6967773 2.4326172.8330078-1.8295898 2.300293-3.2983398 4.1279297-4.1315918-.8974609-.4106445-1.7226563-.9833984-2.4379883-1.6987305-.7104492-.7106934-1.2807617-1.5334473-1.6904297-2.4316406-.4091797.8977051-.9794922 1.7207031-1.690918 2.4316406-.7148436.7145996-1.5390624 1.2871094-2.4365233 1.6977539zm10.1875.1547852h.0097656zm-.1533203-.7341309c-.0004883 0-.0009766.0002441-.0014648.0002441.0004882.0000001.0009765-.0002441.0014648-.0002441z" fill="#0f0f0f"/></g><g><path d="m83.7278976 48.8901749c0 .5740623-.0091553 1.1571655-.0276871 1.7312279-.3795853 8.7388649-3.6012268 16.7278328-8.7389755 23.0967674-.2036362.2590103-.4073868.5094223-.6295547.7499008-1.1849594 1.3885956-2.4623642 2.703064-3.8231659 3.9158325-2.1477661-2.07341-3.8603439-4.7398605-5.3136978-7.3688049-1.3423805-2.4255219-2.6013641-5.026886-2.6940269-7.7945976-.0924377-2.7771988 1.2868958-5.7767906 3.8788795-6.7856941.6017456-.2314339 1.3978653-.5460358 1.3609161-1.1942291-.0185318-.3241005-.2592316-.583107-.4721375-.8330727-1.9626617-2.2957993-2.2957993-5.6931648-1.3423767-8.5630302.9535294-2.8698616 3.0178986-5.2488327 5.3784485-7.1373634.6758804-.5460396 1.4627304-1.2312965 1.3516464-2.092392-.0925522-.6848068-.7128296-1.1476746-1.1386337-1.6937103-.3239822-.4167633-.5368805-.8981628-.7499008-1.3795586-.78685-1.7588043-1.5737-3.5270996-2.369812-5.285902-1.1942368-2.6845341-2.3977356-5.3970947-2.8605957-8.3040237-.1851044-1.1847382-.1943741-2.7957306.0555954-4.33214.8423386.5460377 1.6570969 1.1201 2.4532166 1.7217369 5.1377487 3.8972988 9.2850113 9.0168552 12.0345306 14.922924.8053818 1.7493095 1.4996796 3.582695 2.0458298 5.4707756 1.0368194 3.5365867 1.6015014 7.2856254 1.6015014 11.1553535z" fill="#dabcbc"/></g><g><path d="m83.7278976 48.8901749c0 .5740623-.0091553 1.1571655-.0276871 1.7312279-.3795853 8.7388649-3.6012268 16.7278328-8.7389755 23.0967674-.2036362.2590103-.4073868.5094223-.6295547.7499008-1.1849594 1.3885956-2.4623642 2.703064-3.8231659 3.9158325-.7406311-.7218781-1.4349289-1.5088425-2.082901-2.3419113.6572342-.6762161 1.2866745-1.3705139 1.8976898-2.0828934.222168-.2409286.4259109-.4908981.6295471-.7499008 5.1377487-6.3693848 8.3593979-14.3583527 8.7388611-23.0972176.0185318-.5740662.0278015-1.1571693.0278015-1.7312317 0-3.8692741-.564682-7.618763-1.6015015-11.1548996-.5462646-1.8885345-1.2405624-3.7214661-2.0458298-5.4712276-2.4995499-5.3785629-6.1655273-10.0994396-10.6737289-13.8303967.0092621-.740406.0740128-1.5368614.1943665-2.3048401.8423386.5460377 1.6570969 1.1201 2.4532166 1.7217369 5.1377487 3.8972988 9.2850113 9.0168552 12.0345306 14.922924.8053818 1.7493095 1.4996796 3.582695 2.0458298 5.4707756 1.0368194 3.5365869 1.6015014 7.2856256 1.6015014 11.1553537z" fill="#bc9595"/></g><g><path d="m70.5085449 79.1339645c-.1879883 0-.3759766-.0703125-.5209961-.2104492-2.4555664-2.3703613-4.2861328-5.4416504-5.4492188-7.5456543-1.3901367-2.5117188-2.6899414-5.2358398-2.7871094-8.1323242-.0917969-2.7644043 1.2319336-6.293457 4.3564453-7.5097656.2016602-.0776367.8071289-.3105469.8886719-.472168-.0185547-.0427246-.1660156-.2148438-.2543945-.3173828-2.0429688-2.3898926-2.625-6.0351563-1.527832-9.3383789.8979492-2.7011719 2.7890625-5.2199707 5.621582-7.4863281.550293-.4443359 1.1347656-.9587402 1.0766602-1.4106445-.0356445-.2631836-.2856445-.5368652-.5751953-.8535156-.1425781-.1560059-.2841797-.3122559-.4111328-.4750977-.3813477-.4904785-.6166992-1.0227051-.8442383-1.5375977l-.5957031-1.3325195c-.5878906-1.3156738-1.1772461-2.6340332-1.7714844-3.9472656-1.199707-2.6958008-2.4375-5.4787598-2.9179688-8.4953613-.2109375-1.3510742-.1899414-3.0588379.0561523-4.5705566.0405273-.25.2045898-.4626465.4365234-.5654297.2319336-.1020508.4995117-.0812988.7119141.0563965.8305664.5385742 1.6704102 1.128418 2.4970703 1.7529297 5.2426758 3.9768066 9.4824219 9.234375 12.262207 15.2045898.8442383 1.833252 1.5454102 3.7092285 2.0864258 5.5791016 1.0820313 3.6896973 1.6308594 7.513916 1.6308594 11.3635254 0 .5820313-.0092773 1.1730957-.027832 1.755127-.3759766 8.6496582-3.4550781 16.7878418-8.9047852 23.5439453-.2104492.2675781-.4267578.532959-.6625977.7880859-1.2050781 1.4125977-2.5151367 2.7548828-3.875 3.9665527-.142578.126953-.3208006.1901854-.4990233.1901854zm-4.3149414-62.2087402c-.0771484 1.0178223-.0498047 2.0493164.0849609 2.9106445.4487305 2.8203125 1.6464844 5.5119629 2.8041992 8.1147461.59375 1.310791 1.184082 2.6315918 1.7729492 3.9494629l.5966797 1.3349609c.2011719.4550781.3901367.8818359.6572266 1.2258301.1025391.1313477.21875.2578125.3349609.3845215.3813477.4174805.855957.9367676.9545898 1.6691895.1713867 1.3254395-.9960938 2.269043-1.6235352 2.7758789-2.6054688 2.0847168-4.3330078 4.3686523-5.1376953 6.7905273-.9355469 2.8146973-.4643555 5.8918457 1.2006836 7.8391113.2856445.3337402.6186523.7224121.6503906 1.2775879.0688477 1.2026367-1.1728516 1.6804199-1.8398438 1.9370117-2.4414063.9504395-3.4736328 3.8081055-3.3989258 6.060791.0908203 2.708252 1.3901367 5.2687988 2.6005859 7.456543 1.6069336 2.9064941 3.1083984 5.0549316 4.6831055 6.6953125 1.1220703-1.0385742 2.2055664-2.1687012 3.2275391-3.3662109.2280273-.2478027.4189453-.4833984.6098633-.7263184 5.253418-6.5124512 8.2182617-14.3474121 8.5795898-22.6657715.0175781-.5576172.0268555-1.1325684.0268555-1.6989746 0-3.7067871-.5288086-7.388916-1.5712891-10.9443359-.5205078-1.8005371-1.1958008-3.6057129-2.0073242-5.3679199-2.6757813-5.7470703-6.7583008-10.8100586-11.8061523-14.638916-.4633787-.3503418-.9316404-.689209-1.3994139-1.0136719z" fill="#0f0f0f"/></g><g><g><path d="m100.3940125 65.2741165v29.1558914c0 2.9523087-2.3949051 5.3471298-5.3471298 5.3471298h-44.2760125c-2.9521408 0-5.3470459-2.3948212-5.3470459-5.3471298v-29.1558914c0-2.958786 2.3949051-5.3468056 5.3470459-5.3468056h44.2760124c2.9522248 0 5.3471299 2.3880196 5.3471299 5.3468056z" fill="#ff84a0"/></g><g><path d="m100.3915558 90.3624954v4.0656586c0 2.9533234-2.393898 5.3472977-5.3471375 5.3472977h-44.2734565c-2.9532394 0-5.3471375-2.3939743-5.3471375-5.3472977v-29.1555481c0-2.959671 2.393898-5.3472939 5.3471375-5.3472939h4.9698753c-3.8769913 3.7340546-6.1798058 8.3654137-6.1798058 13.3941231 0 12.3205414 13.8362694 22.3122177 30.8990211 22.3122177 7.5914308 0 14.5452958-1.9775619 19.9315034-5.2691574z" fill="#f76189"/></g><g><path d="m95.0471191 100.5270309h-44.2763671c-3.3618164 0-6.097168-2.7351074-6.097168-6.0969238v-29.1560058c0-3.3618164 2.7353516-6.0966797 6.097168-6.0966797h44.2763672c3.3618164 0 6.0966797 2.7348633 6.0966797 6.0966797v29.1560059c-.0000001 3.3618163-2.7348634 6.0969237-6.0966798 6.0969237zm-44.2763671-39.8496093c-2.534668 0-4.597168 2.0620117-4.597168 4.5966797v29.1560059c0 2.534668 2.0625 4.5969238 4.597168 4.5969238h44.2763672c2.534668 0 4.5966797-2.0622559 4.5966797-4.5969238v-29.1560059c0-2.534668-2.0620117-4.5966797-4.5966797-4.5966797z" fill="#0f0f0f"/></g><g><g><path d="m65.2049332 59.9273109v-2.881218c0-.3840141.3096848-.6962433.6905212-.6962433h13.5170517c.3808365 0 .6905289.3122292.6905289.6962433v2.881218h3.9030304v-2.881218c0-2.536274-2.0607758-4.5992775-4.5935593-4.5992775h-13.5170517c-2.5327759 0-4.5935593 2.0630035-4.5935593 4.5992775v2.881218z" fill="#5b5476"/></g></g><g><g><path d="m83.9793091 56.6076698c-.7611237-1.4763451-2.3028183-2.491169-4.0786819-2.491169h-13.5175324c-2.5304718 0-4.5925255 2.0620499-4.5925255 4.5989609v1.2098503h-.4878769v-2.8815384c0-2.5369072 2.0620499-4.5992775 4.5925255-4.5992775h13.5175247c2.3808746.0000001 4.3519287 1.827961 4.5665665 4.1631737z" fill="#3f3b5b"/></g></g><g><g><path d="m84.0061035 60.6774216h-3.902832c-.4140625 0-.75-.3356934-.75-.75v-2.8813477l-13.4580078.0537109.0595703 2.8276367c0 .4143066-.3359375.75-.75.75h-3.902832c-.4140625 0-.75-.3356934-.75-.75v-2.8813477c0-2.949707 2.3969727-5.3493652 5.3432617-5.3493652h13.5170898c2.9467773 0 5.34375 2.3996582 5.34375 5.3493652v2.8813477c0 .4143067-.3359375.7500001-.75.7500001zm-3.152832-1.5h2.402832v-2.1313477c0-2.1225586-1.7241211-3.8493652-3.84375-3.8493652h-13.5170898c-2.1191406 0-3.8432617 1.7268066-3.8432617 3.8493652v2.1313477h2.402832v-2.1313477c0-.7976074.6459961-1.4462891 1.4404297-1.4462891h13.5170898c.7944336 0 1.440918.6486816 1.440918 1.4462891z" fill="#0f0f0f"/></g></g><g><g><g><circle cx="72.909" cy="79.852" fill="#fff" r="10.888"/></g><g><path d="m83.7905807 79.8522263c0 6.01371-4.8681107 10.8815002-10.8818207 10.8815002-4.0348816 0-7.5495605-2.1863403-9.4238396-5.4404297 1.3146706.5726395 2.7726555.8847046 4.2954674.8847046 6.0133972 0 10.8945313-4.8677902 10.8945313-10.8815079 0-1.9785156-.5335541-3.8267365-1.4446335-5.4277191 3.8658219 1.6658096 6.5602951 5.5058975 6.5602951 9.9834519z" fill="#ddd"/></g><g><path d="m72.9089355 91.4896774c-6.4169922 0-11.6376953-5.220459-11.6376953-11.6374512s5.2207031-11.6374512 11.6376953-11.6374512 11.6376953 5.220459 11.6376953 11.6374512-5.2207031 11.6374512-11.6376953 11.6374512zm0-21.7749023c-5.5898438 0-10.1376953 4.5476074-10.1376953 10.1374512s4.5478516 10.1374512 10.1376953 10.1374512 10.1376954-4.5476075 10.1376954-10.1374512-4.5478516-10.1374512-10.1376954-10.1374512z" fill="#0f0f0f"/></g></g><g><g><path d="m73.9031906 74.7238541v3.8898849l3.8026733-1.3256989.6977386 1.9362183-3.8026733 1.2384872 2.354866 3.2793655-1.7268982 1.2384872-2.2850952-3.401474-2.3025284 3.401474-1.7792358-1.2384872 2.3897552-3.2793655-3.8375626-1.2384872.6977386-1.9362183 3.7677841 1.3605881v-3.9247742h2.0234377z"/></g></g></g></g><g><g><g><g><g><path d="m34.7151985 81.2627335h22.0389481c1.8101807 0 3.2794418 1.4692688 3.2794418 3.2794418v11.9480286c0 1.8159866-1.4692612 3.2852478-3.2794418 3.2852478h-22.0389481c-1.815918 0-3.285181-1.4692612-3.285181-3.2852478v-11.9480286c0-1.810173 1.469263-3.2794418 3.285181-3.2794418z" fill="#abecef"/></g><g><path d="m57.8649902 81.4626083c1.2635117.4525452 2.1685982 1.6572952 2.1685982 3.079567v11.9480286c0 1.8159866-1.4692612 3.2852478-3.2794418 3.2852478h-22.0389481c-1.815918 0-3.285181-1.4692612-3.285181-3.2852478v-3.7319183c2.6974773 3.6026382 6.9996624 5.9358063 11.8482304 5.9358063 8.1690483 0 14.7924995-6.6233749 14.7924995-14.7925644 0-.8344956-.0705948-1.6455308-.2057572-2.4389192z" fill="#75c5c9"/></g><g><g><g><circle cx="37.573" cy="94.612" fill="#fff" r="2.456"/></g><g><circle cx="45.732" cy="94.612" fill="#fff" r="2.456"/></g><g><circle cx="53.891" cy="94.612" fill="#fff" r="2.456"/></g></g><g><g><circle cx="37.573" cy="86.426" fill="#fff" r="2.456"/></g><g><circle cx="45.732" cy="86.426" fill="#fff" r="2.456"/></g><g><circle cx="53.891" cy="86.426" fill="#fff" r="2.456"/></g></g></g><g><path d="m56.7541504 100.5255661h-22.0390625c-2.2250977 0-4.0351563-1.8103027-4.0351563-4.0354004v-11.947998c0-2.2219238 1.8100586-4.029541 4.0351563-4.029541h22.0390625c2.2216797 0 4.0292969 1.8076172 4.0292969 4.029541v11.947998c0 2.2250977-1.8076172 4.0354004-4.0292969 4.0354004zm-22.0390625-18.5129395c-1.3979492 0-2.5351563 1.1347656-2.5351563 2.529541v11.947998c0 1.3979492 1.137207 2.5354004 2.5351563 2.5354004h22.0390625c1.3945313 0 2.5292969-1.1374512 2.5292969-2.5354004v-11.947998c0-1.3947754-1.1347656-2.529541-2.5292969-2.529541z" fill="#0f0f0f"/></g><g><g><g><path d="m37.5716553 92.1529312c1.3573456 0 2.4564209 1.1048889 2.4564209 2.4566422 0 1.2282791-.8990593 2.2450027-2.0744705 2.4213409.2878265-.4054794.4582825-.8992081.4582825-1.4280853 0-1.3576279-1.0990791-2.4566345-2.4564247-2.4566345-.1294212 0-.2528152.0116882-.3762093.0352249.4407768-.6229325 1.169384-1.0284882 1.9924011-1.0284882z" fill="#ddd"/></g><g><path d="m45.7346725 92.1529312c1.3516083 0 2.4506874 1.1048889 2.4506874 2.4566422 0 1.2282791-.8990631 2.2450027-2.0744743 2.4213409.2878265-.4054794.4582825-.8992081.4582825-1.4280853 0-1.3576279-1.0990753-2.4566345-2.4506836-2.4566345-.1291351 0-.2525291.0116882-.375927.0352249.4407807-.6229325 1.1693878-1.0284882 1.992115-1.0284882z" fill="#ddd"/></g><g><path d="m53.8919525 92.1529312c1.3576355 0 2.4567146 1.1048889 2.4567146 2.4566422 0 1.2282791-.8990631 2.2450027-2.0744743 2.4213409.2878265-.4054794.4582825-.8992081.4582825-1.4280853 0-1.3576279-1.0990753-2.4566345-2.4567108-2.4566345-.1291351 0-.2525291.0116882-.3759232.0352249.4407768-.6229325 1.169384-1.0284882 1.9921112-1.0284882z" fill="#ddd"/></g></g><g><g><path d="m37.5716553 83.9721222c1.3573456 0 2.4564209 1.0989304 2.4564209 2.4565659 0 1.2224731-.8990593 2.2450714-2.0804977 2.4213409.2938538-.3996658.4643097-.8932495.4643097-1.4339676 0-1.3576279-1.0990791-2.4566345-2.4564247-2.4566345-.1294212 0-.2528152.0117645-.3762093.0352936.4407768-.6171189 1.169384-1.0225983 1.9924011-1.0225983z" fill="#ddd"/></g><g><path d="m45.7346725 83.9721222c1.3516083 0 2.4506874 1.0989304 2.4506874 2.4565659 0 1.2283554-.9050903 2.2509613-2.0805016 2.4272232.2881126-.4055481.4643097-.8991318.4643097-1.4398499 0-1.3576279-1.0990753-2.4566345-2.4506836-2.4566345-.1291351 0-.2525291.0117645-.375927.0352936.4407808-.6171189 1.1693879-1.0225983 1.9921151-1.0225983z" fill="#ddd"/></g><g><path d="m53.8919525 83.9721222c1.3576355 0 2.4567146 1.0989304 2.4567146 2.4565659 0 1.2224731-.8990631 2.2450714-2.0805016 2.4213409.2938538-.3996658.4643097-.8932495.4643097-1.4339676 0-1.3576279-1.0990753-2.4566345-2.4567108-2.4566345-.1291351 0-.2525291.0117645-.3759232.0352936.4407769-.6171189 1.1693841-1.0225983 1.9921113-1.0225983z" fill="#ddd"/></g></g></g><g><g><g><path d="m37.5725098 97.8185349c-1.7675781 0-3.2060547-1.4382324-3.2060547-3.2062988s1.4384766-3.206543 3.2060547-3.206543c1.7680664 0 3.206543 1.4384766 3.206543 3.206543s-1.4384766 3.2062988-3.206543 3.2062988zm0-4.9128418c-.940918 0-1.7060547.765625-1.7060547 1.706543s.7651367 1.7062988 1.7060547 1.7062988 1.706543-.7653809 1.706543-1.7062988-.7656251-1.706543-1.706543-1.706543z" fill="#0f0f0f"/></g><g><path d="m45.7316895 97.8185349c-1.7675781 0-3.2060547-1.4382324-3.2060547-3.2062988s1.4384766-3.206543 3.2060547-3.206543c1.7680664 0 3.206543 1.4384766 3.206543 3.206543s-1.4384766 3.2062988-3.206543 3.2062988zm0-4.9128418c-.940918 0-1.7060547.765625-1.7060547 1.706543s.7651367 1.7062988 1.7060547 1.7062988 1.706543-.7653809 1.706543-1.7062988-.7656251-1.706543-1.706543-1.706543z" fill="#0f0f0f"/></g><g><path d="m53.8908691 97.8185349c-1.7680664 0-3.206543-1.4382324-3.206543-3.2062988s1.4384766-3.206543 3.206543-3.206543 3.206543 1.4384766 3.206543 3.206543-1.4384766 3.2062988-3.206543 3.2062988zm0-4.9128418c-.940918 0-1.706543.765625-1.706543 1.706543s.765625 1.7062988 1.706543 1.7062988 1.706543-.7653809 1.706543-1.7062988-.765625-1.706543-1.706543-1.706543z" fill="#0f0f0f"/></g></g><g><g><path d="m37.5725098 89.6324997c-1.7675781 0-3.2060547-1.4384766-3.2060547-3.206543s1.4384766-3.2062988 3.2060547-3.2062988c1.7680664 0 3.206543 1.4382324 3.206543 3.2062988s-1.4384766 3.206543-3.206543 3.206543zm0-4.9128418c-.940918 0-1.7060547.7653809-1.7060547 1.7062988s.7651367 1.706543 1.7060547 1.706543 1.706543-.765625 1.706543-1.706543-.7656251-1.7062988-1.706543-1.7062988z" fill="#0f0f0f"/></g><g><path d="m45.7316895 89.6324997c-1.7675781 0-3.2060547-1.4384766-3.2060547-3.206543s1.4384766-3.2062988 3.2060547-3.2062988c1.7680664 0 3.206543 1.4382324 3.206543 3.2062988s-1.4384766 3.206543-3.206543 3.206543zm0-4.9128418c-.940918 0-1.7060547.7653809-1.7060547 1.7062988s.7651367 1.706543 1.7060547 1.706543 1.706543-.765625 1.706543-1.706543-.7656251-1.7062988-1.706543-1.7062988z" fill="#0f0f0f"/></g><g><path d="m53.8908691 89.6324997c-1.7680664 0-3.206543-1.4384766-3.206543-3.206543s1.4384766-3.2062988 3.206543-3.2062988 3.206543 1.4382324 3.206543 3.2062988-1.4384766 3.206543-3.206543 3.206543zm0-4.9128418c-.940918 0-1.706543.7653809-1.706543 1.7062988s.765625 1.706543 1.706543 1.706543 1.706543-.765625 1.706543-1.706543-.765625-1.7062988-1.706543-1.7062988z" fill="#0f0f0f"/></g></g></g></g></g></g></g></g></svg>