<svg id="Layer_1" height="512" viewBox="0 0 256 256" width="512" xmlns="http://www.w3.org/2000/svg"><g><g><g><path d="m188.477 118.826c-1.861 0-3.747-.457-5.491-1.419l-28.123-15.521c-2.581-1.424-4.509-3.795-5.378-6.612l-10.493-34.003c-1.854-6.009 1.513-12.383 7.522-14.237s12.383 1.513 14.237 7.522l9.139 29.612 24.1 13.3c5.506 3.039 7.505 9.965 4.467 15.471-2.077 3.762-5.968 5.887-9.98 5.887z" fill="#f46275"/></g><path d="m188.477 118.826c4.012 0 7.903-2.125 9.979-5.886 3.038-5.505 1.038-12.432-4.467-15.471l-5.953-3.285-9.159 20.955 4.109 2.268c1.744.963 3.63 1.419 5.491 1.419z" fill="#f8af23"/><g><path d="m215.34 242.742c-2.485 0-4.5-2.015-4.5-4.5v-120.291c0-5.324-4.332-9.655-9.655-9.655s-9.655 4.332-9.655 9.655v8.521c0 2.485-2.015 4.5-4.5 4.5s-4.5-2.015-4.5-4.5v-8.521c0-10.287 8.369-18.655 18.655-18.655s18.655 8.369 18.655 18.655v120.291c0 2.485-2.014 4.5-4.5 4.5z" fill="#cecece"/></g><circle cx="137.886" cy="24.047" fill="#f8af23" r="22.478"/><path d="m130.407 24.047c0-9.784 6.253-18.104 14.979-21.192-2.346-.83-4.869-1.287-7.5-1.287-12.414 0-22.478 10.064-22.478 22.479 0 12.414 10.064 22.478 22.478 22.478 2.631 0 5.154-.456 7.5-1.287-8.726-3.088-14.979-11.407-14.979-21.191z" fill="#f87023"/><path d="m169.188 109.13h-62.604v-52.711c0-5.464 4.43-9.894 9.894-9.894h34.57c10.018 0 18.14 8.122 18.14 18.14z" fill="#f46275"/><g><path d="m131.477 46.525h-15c-5.464 0-9.894 4.43-9.894 9.894v52.711h15v-52.711c.001-5.464 4.43-9.894 9.894-9.894z" fill="#f43075"/></g><path d="m181.839 180.004h-87.906l12.651-70.874h62.604z" fill="#f46275"/><g><path d="m106.584 109.13-12.651 70.874h15l12.651-70.874z" fill="#f43075"/></g><path d="m110.165 180.004h23.389v62.738h-23.389z" fill="#f8af23"/><g><path d="m110.165 180.004h15v62.738h-15z" fill="#f87023"/></g><path d="m142.218 180.004h23.389v62.738h-23.389z" fill="#f8af23"/><g><g><path d="m183.531 133.736c-1.496 0-3.017-.297-4.48-.924l-45.895-19.669c-2.598-1.113-4.688-3.153-5.865-5.722l-20.515-44.763c-2.62-5.717-.109-12.475 5.607-15.094 5.715-2.62 12.474-.109 15.094 5.607l18.685 40.77 41.86 17.94c5.78 2.477 8.457 9.171 5.98 14.951-1.851 4.317-6.054 6.904-10.471 6.904z" fill="#f46275"/></g><path d="m183.531 133.736c4.417 0 8.62-2.586 10.471-6.904 2.477-5.78-.201-12.474-5.98-14.951l-3.256-1.395-9.69 20.623 3.976 1.704c1.461.626 2.982.923 4.479.923z" fill="#f8af23"/></g></g><path d="m76.692 134.499-27.142 6.376c-7.845 1.843-13.39 8.842-13.39 16.9v43.067c0 4.908 2.077 9.586 5.718 12.877l27.142 24.54c6.611 5.977 16.674 5.977 23.285 0l27.142-24.54c3.64-3.291 5.718-7.97 5.718-12.877v-43.067c0-8.058-5.545-15.057-13.39-16.9l-27.142-6.376c-2.612-.613-5.33-.613-7.941 0z" fill="#63bce7"/><g><path d="m56.877 213.719c-3.64-3.291-5.718-7.97-5.718-12.877v-43.067c0-8.058 5.545-15.057 13.39-16.9l23.612-5.547-3.53-.829c-2.611-.613-5.329-.613-7.94 0l-27.142 6.376c-7.845 1.843-13.39 8.842-13.39 16.9v43.067c0 4.908 2.077 9.586 5.718 12.877l27.142 24.54c5.342 4.829 12.935 5.752 19.143 2.777-1.475-.707-2.873-1.629-4.143-2.777z" fill="#6377e7"/></g><path d="m101.852 180.177h-11.31c-.92 0-1.665-.746-1.665-1.665v-11.31c0-.92-.746-1.665-1.665-1.665h-13.098c-.92 0-1.665.746-1.665 1.665v11.31c0 .92-.746 1.665-1.665 1.665h-11.31c-.92 0-1.665.746-1.665 1.665v13.097c0 .92.746 1.665 1.665 1.665h11.31c.92 0 1.665.746 1.665 1.665v11.31c0 .92.746 1.665 1.665 1.665h13.096c.92 0 1.665-.746 1.665-1.665v-11.31c0-.92.746-1.665 1.665-1.665h11.31c.92 0 1.665-.746 1.665-1.665v-13.097c.002-.92-.744-1.665-1.663-1.665z" fill="#f8af23"/><g fill="#3f3679"><path d="m20.748 252.932h-19.18c-.829 0-1.5.671-1.5 1.5s.671 1.5 1.5 1.5h19.179c.829 0 1.5-.671 1.5-1.5s-.671-1.5-1.499-1.5z"/><path d="m254.432 252.932h-19.179c-.829 0-1.5.671-1.5 1.5s.671 1.5 1.5 1.5h19.179c.829 0 1.5-.671 1.5-1.5s-.672-1.5-1.5-1.5z"/><path d="m224.389 252.932h-192.778c-.829 0-1.5.671-1.5 1.5s.671 1.5 1.5 1.5h192.778c.829 0 1.5-.671 1.5-1.5s-.671-1.5-1.5-1.5z"/><path d="m1.568 244.242h108.597 23.389 8.664 23.389 88.825c.829 0 1.5-.671 1.5-1.5s-.671-1.5-1.5-1.5h-33.903c.513-.884.812-1.907.812-3v-120.291c0-11.114-9.042-20.155-20.155-20.155-1.288 0-2.557.137-3.798.378-.047-.06-.074-.13-.132-.183-.766-.71-1.622-1.328-2.542-1.835l-4.755-2.624s0 0-.001-.001l-18.813-10.382-.386-1.25c-.018-.059-.046-.111-.07-.166v-17.067c0-10.83-8.811-19.64-19.64-19.64h-1.565c7.376-4.094 12.382-11.961 12.382-20.979 0-13.222-10.757-23.979-23.979-23.979s-23.979 10.757-23.979 23.979c0 9.017 5.006 16.885 12.382 20.979 0 0-10.062.021-10.181.051-1.486.119-2.956.484-4.351 1.123-6.188 2.837-9.046 9.986-6.674 16.261v46.537l-4.928 27.607-15.181-3.566c-2.821-.662-5.804-.662-8.626 0l-27.143 6.376c-8.565 2.012-14.547 9.562-14.547 18.36v43.067c0 5.322 2.264 10.421 6.212 13.99l27.142 24.54c.779.705 1.608 1.318 2.464 1.87h-68.909c-.829 0-1.5.671-1.5 1.5s.672 1.5 1.5 1.5zm89.279-3c.856-.552 1.685-1.166 2.464-1.87l15.354-13.882v15.752zm20.818 0v-18.464l8.788-7.945c3.948-3.57 6.212-8.669 6.212-13.99v-19.338h5.389v59.738h-20.389zm29.053-59.738v59.738h-5.664v-59.738zm3 59.738v-59.738h20.389v59.738zm38.121-59.738c.444 0 .865-.197 1.15-.537s.405-.79.327-1.227l-8.402-47.069 3.547 1.519c1.619.693 3.325 1.045 5.07 1.045 5.164 0 9.815-3.067 11.851-7.813 1.318-3.076 1.328-6.382.302-9.317 1.684-1.135 3.099-2.652 4.087-4.442.671-1.216 1.123-2.516 1.375-3.865.014 0 .027-.003.04-.003 4.497 0 8.155 3.659 8.155 8.155v120.291c0 1.093.299 2.116.812 3h-43.045v-59.738h14.731zm5.592-68.244c5.01 2.147 7.34 7.971 5.193 12.981-1.562 3.642-5.131 5.995-9.093 5.995-1.337 0-2.645-.27-3.889-.803l-2.549-1.092 8.413-17.906zm6.933 2.107c-.178-.277-.375-.543-.575-.807.848-1.846 2.312-3.267 4.098-4.057-.193.588-.44 1.16-.743 1.711-.688 1.246-1.648 2.314-2.78 3.153zm23.976 2.584v120.291c0 1.654-1.346 3-3 3s-3-1.346-3-3v-120.291c0-6.151-5.004-11.155-11.155-11.155-4.003 0-7.623 2.113-9.61 5.495-.886-.709-1.87-1.321-2.963-1.789l-2.348-1.006c3.032-5.323 8.757-8.7 14.921-8.7 9.46 0 17.155 7.696 17.155 17.155zm-24.441-18.767c-4.366 1.708-8.091 4.911-10.397 9.119l5.25-12.011 4.513 2.49c.219.122.425.265.634.402zm-7.785-4.347-5.373 12.292-10.053-4.309v-16.496zm-69.207-70.79c0-11.567 9.411-20.979 20.979-20.979s20.979 9.411 20.979 20.979-9.411 20.979-20.979 20.979-20.979-9.412-20.979-20.979zm34.141 23.978c9.175 0 16.64 7.465 16.64 16.64v36.869l-20.403-8.744-18.445-40.244c-.815-1.778-2.006-3.304-3.466-4.521zm-38.041.902c1.299-.595 2.68-.895 4.068-.901h.1c1.143.006 2.289.212 3.393.622 2.476.919 4.445 2.748 5.545 5.149l18.686 40.771c.155.338.431.607.773.754l37.176 15.932-8.414 17.906-40.588-17.394c-2.259-.968-4.068-2.733-5.092-4.968l-20.515-44.763c-2.271-4.957-.087-10.837 4.868-13.108zm-4.924 20.187 17.652 38.516h-17.652zm-.244 41.516h19.677c1.323 1.686 3.044 3.033 5.048 3.892l39.05 16.735 8.434 47.247h-14.441-23.389-8.664-6.889v-20.729c0-8.798-5.982-16.348-14.547-18.36l-9.038-2.123zm-37.814 126.516-27.142-24.54c-3.32-3.001-5.224-7.29-5.224-11.765v-43.067c0-7.399 5.03-13.748 12.233-15.439l27.142-6.376c2.373-.558 4.881-.558 7.254 0l27.142 6.376c7.203 1.692 12.233 8.041 12.233 15.439v43.067c0 4.475-1.904 8.763-5.224 11.765l-27.143 24.54c-2.936 2.655-6.596 4.012-10.279 4.096h-.715c-3.679-.083-7.339-1.44-10.277-4.096z"/><path d="m87.21 212.745c1.746 0 3.166-1.42 3.166-3.166v-11.311c0-.091.074-.165.165-.165h11.311c1.745 0 3.165-1.42 3.165-3.166v-13.096c0-1.746-1.42-3.166-3.165-3.166h-11.311c-.091 0-.165-.074-.165-.165v-11.311c0-1.746-1.42-3.166-3.166-3.166h-13.096c-1.745 0-3.165 1.42-3.165 3.166v11.311c0 .091-.074.165-.166.165h-11.31c-1.746 0-3.166 1.42-3.166 3.166v13.096c0 1.746 1.42 3.166 3.166 3.166h11.31c.091 0 .166.074.166.165v11.311c0 1.746 1.42 3.166 3.165 3.166zm-13.261-3.165v-11.311c0-1.745-1.42-3.165-3.166-3.165h-11.31c-.091 0-.166-.074-.166-.166v-13.096c0-.091.074-.166.166-.166h11.31c1.746 0 3.166-1.42 3.166-3.165v-11.311c0-.091.074-.166.165-.166h13.096c.091 0 .166.074.166.166v11.311c0 1.745 1.42 3.165 3.165 3.165h11.311c.091 0 .165.074.165.166v13.096c0 .091-.074.166-.165.166h-11.311c-1.745 0-3.165 1.42-3.165 3.165v11.311c0 .091-.074.166-.166.166h-13.096c-.091-.001-.165-.075-.165-.166z"/></g></g></svg>