<svg id="Layer_1" height="512" viewBox="0 0 256 256" width="512" xmlns="http://www.w3.org/2000/svg"><g><g><g><path d="m178.667 30.832h31.923v108.51h-31.923z" fill="#b9befc"/></g></g><g><g><path d="m210.59 141.342h-31.923c-1.104 0-2-.896-2-2v-108.51c0-1.104.896-2 2-2h31.923c1.104 0 2 .896 2 2v108.51c0 1.105-.896 2-2 2zm-29.923-4h27.923v-104.51h-27.923z" fill="#3762cc"/></g></g><g><g><path d="m174.628 23.832h40c1.105 0 2 .895 2 2v10c0 1.105-.895 2-2 2h-40c-1.105 0-2-.895-2-2v-10c0-1.105.896-2 2-2z" fill="#4671c6"/></g></g><g><g><path d="m224.818 226.341h-193.636c-2.209 0-4 1.791-4 4v10.819c0 2.209 1.791 4 4 4h193.635c2.209 0 4-1.791 4-4v-10.819c.001-2.209-1.79-4-3.999-4z" fill="#4671c6"/></g></g><g><g><path d="m128 30.311-82.59 76.679v119.351h165.18v-119.351z" fill="#a4c9ff"/></g></g><g><g><path d="m124.584 208.247c2.064 1.62 4.91 1.617 6.971-.008l44.68-35.211c11.923-9.356 16.113-26.02 10.125-40.263-6.502-15.464-23.021-23.488-38.573-18.736-8.885 2.715-15.93 9.156-19.818 17.36-3.887-8.204-10.933-14.646-19.818-17.36-16.437-5.022-33.955 4.227-39.584 21.448-4.516 13.818.362 29.097 11.555 37.88z" fill="#f9a7a7"/></g></g><g><g><path d="m147.938 160.575h-12.219v-12.219c0-2.762-2.239-5-5-5h-5.437c-2.761 0-5 2.238-5 5v12.219h-12.219c-2.761 0-5 2.239-5 5v5.438c0 2.761 2.239 5 5 5h12.219v12.219c0 2.762 2.239 5 5 5h5.437c2.761 0 5-2.238 5-5v-12.219h12.219c2.761 0 5-2.239 5-5v-5.438c0-2.761-2.239-5-5-5z" fill="#e0ebfc"/></g></g><g><g><path d="m214.628 39.832h-40c-2.206 0-4-1.794-4-4v-10c0-2.206 1.794-4 4-4h40c2.206 0 4 1.794 4 4v10c0 2.206-1.794 4-4 4zm-40-14h-.002l.002 10h40v-10z" fill="#3762cc"/></g></g><g><g><path d="m224.818 247.16h-193.636c-3.309 0-6-2.691-6-6v-10.819c0-3.309 2.691-6 6-6h193.636c3.309 0 6 2.691 6 6v10.819c0 3.309-2.692 6-6 6zm-193.636-18.819c-1.103 0-2 .897-2 2v10.819c0 1.103.897 2 2 2h193.636c1.103 0 2-.897 2-2v-10.819c0-1.103-.897-2-2-2z" fill="#3762cc"/></g></g><g><g><path d="m210.59 228.341h-165.18c-1.104 0-2-.896-2-2v-119.351c0-.556.231-1.087.639-1.466l82.59-76.679c.768-.712 1.954-.712 2.722 0l82.59 76.679c.408.378.639.91.639 1.466v119.351c0 1.104-.896 2-2 2zm-163.18-4h161.18v-116.479l-80.59-74.822-80.59 74.822z" fill="#3762cc"/></g></g><g><g><path d="m128.065 211.456c-1.664 0-3.326-.544-4.715-1.635l-44.463-34.89c-12.053-9.458-16.964-25.563-12.221-40.075 5.931-18.148 24.408-28.138 42.069-22.74 7.967 2.434 14.811 7.837 19.233 15.073 4.423-7.236 11.268-12.639 19.234-15.073 16.495-5.042 34.119 3.505 41.001 19.874 6.364 15.136 1.95 32.659-10.733 42.612l-44.677 35.209c-1.391 1.096-3.06 1.645-4.728 1.645zm-29.017-96.796c-12.617 0-24.29 8.312-28.58 21.439-4.223 12.92.153 27.261 10.889 35.686l44.463 34.89c1.346 1.056 3.154 1.054 4.498-.005l44.68-35.211c11.273-8.846 15.186-24.438 9.519-37.917-6.084-14.471-21.623-22.036-36.145-17.599-8.077 2.468-14.854 8.41-18.596 16.304-.331.698-1.034 1.144-1.807 1.144s-1.477-.445-1.808-1.144c-3.74-7.894-10.518-13.836-18.595-16.304-2.837-.869-5.703-1.283-8.518-1.283z" fill="#3762cc"/></g></g><g><g><path d="m130.719 195.231h-5.438c-3.86 0-7-3.14-7-7v-10.219h-10.219c-3.86 0-7-3.14-7-7v-5.438c0-3.86 3.14-7 7-7h10.219v-10.219c0-3.86 3.14-7 7-7h5.438c3.86 0 7 3.14 7 7v10.219h10.219c3.86 0 7 3.14 7 7v5.438c0 3.86-3.14 7-7 7h-10.219v10.219c0 3.86-3.14 7-7 7zm-22.657-32.656c-1.654 0-3 1.346-3 3v5.438c0 1.654 1.346 3 3 3h12.219c1.104 0 2 .896 2 2v12.219c0 1.654 1.346 3 3 3h5.438c1.654 0 3-1.346 3-3v-12.219c0-1.104.896-2 2-2h12.219c1.654 0 3-1.346 3-3v-5.438c0-1.654-1.346-3-3-3h-12.219c-1.104 0-2-.896-2-2v-12.219c0-1.654-1.346-3-3-3h-5.438c-1.654 0-3 1.346-3 3v12.219c0 1.104-.896 2-2 2z" fill="#3762cc"/></g></g><g><g><g><path d="m231.267 140.574-100.545-93.35c-1.535-1.425-3.909-1.425-5.443 0l-100.546 93.35c-2.428 2.255-6.225 2.114-8.479-.315l-10.172-10.956c-2.255-2.428-2.114-6.225.315-8.479l116.16-107.847c3.069-2.85 7.817-2.85 10.886 0l116.16 107.847c2.428 2.255 2.569 6.051.315 8.479l-10.172 10.956c-2.255 2.429-6.051 2.569-8.479.315z" fill="#4671c6"/></g></g></g><g><g><g><path d="m20.654 144.173c-2.148 0-4.292-.858-5.865-2.553l-10.172-10.956c-1.454-1.566-2.211-3.604-2.132-5.74.08-2.135.985-4.112 2.551-5.566l116.16-107.847c3.815-3.542 9.793-3.542 13.608 0l116.16 107.847c1.566 1.454 2.472 3.431 2.551 5.566s-.678 4.174-2.132 5.74l-10.171 10.956c-3.002 3.233-8.075 3.421-11.306.419l-100.545-93.349c-.763-.709-1.959-.709-2.722 0l-100.545 93.35c-1.537 1.427-3.491 2.133-5.44 2.133zm107.346-131.324c-1.469 0-2.938.531-4.083 1.594l-116.159 107.847c-1.616 1.501-1.71 4.037-.21 5.653l10.172 10.956c1.5 1.617 4.036 1.71 5.653.21l100.545-93.35c2.289-2.125 5.876-2.125 8.165 0l100.545 93.349c1.616 1.5 4.151 1.407 5.653-.21l10.171-10.956c1.501-1.616 1.407-4.152-.209-5.653l-116.16-107.846c-1.145-1.063-2.614-1.594-4.083-1.594z" fill="#3762cc"/></g></g></g></g></svg>