<svg clip-rule="evenodd" fill-rule="evenodd" height="1.707in" image-rendering="optimizeQuality" shape-rendering="geometricPrecision" text-rendering="geometricPrecision" viewBox="0 0 1707 1707" width="1.707in" xmlns="http://www.w3.org/2000/svg"><g id="Layer_x0020_1"><g id="_601813560"><g id="_195463560"><path d="m1279 1568h-851c-9 0-17-8-17-18v-1188c0-10 8-18 17-18h175c10 0 18 8 18 18v193h465v-193c0-10 8-18 17-18h176c9 0 17 8 17 18v1188c0 10-8 18-17 18zm-834-35h816v-1154h-140v178c0 18-15 32-32 32h-471c-18 0-32-14-32-32v-178h-141z"/></g><g id="_195461448"><path d="m1689 1674h-1672c-9 0-17-8-17-17v-107c0-9 8-17 17-17h1672c10 0 18 8 18 17v107c0 9-8 17-18 17zm-1654-35h1637v-71h-1637z"/></g><g id="_195463416"><path d="m1571 1568h-292c-10 0-18-8-18-18v-990c0-10 8-18 18-18h292c10 0 17 8 17 18v990c0 10-7 18-17 18zm-275-35h258v-956h-258z"/></g><g id="_195463824"><path d="m1624 577h-345c-10 0-18-8-18-17v-102c0-9 8-17 18-17h345c10 0 17 8 17 17v102c0 9-7 17-17 17zm-328-35h311v-66h-311z"/></g><g id="_195463872"><path d="m1039 1568h-372c-9 0-17-8-17-18v-408c0-10 8-17 17-17h372c10 0 18 7 18 17v408c0 10-8 18-18 18zm-354-35h337v-374h-337z"/></g><g id="_195463680"><path d="m1101 1159h-496c-9 0-17-7-17-17s8-17 17-17h496c10 0 18 7 18 17s-8 17-18 17z"/></g><g><g id="_195463920"><path d="m675 838h-126c-10 0-17-8-17-17v-140c0-10 7-18 17-18h126c9 0 17 8 17 18v140c0 9-8 17-17 17zm-109-35h91v-105h-91z"/></g><g id="_365284080"><path d="m675 1051h-126c-10 0-17-8-17-18v-140c0-9 7-17 17-17h126c9 0 17 8 17 17v140c0 10-8 18-17 18zm-109-35h91v-105h-91z"/></g><g id="_365283048"><path d="m916 838h-125c-10 0-18-8-18-17v-140c0-10 8-18 18-18h125c10 0 17 8 17 18v140c0 9-7 17-17 17zm-108-35h91v-105h-91z"/></g><g id="_365284152"><path d="m916 1051h-125c-10 0-18-8-18-18v-140c0-9 8-17 18-17h125c10 0 17 8 17 17v140c0 10-7 18-17 18zm-108-35h91v-105h-91z"/></g><g id="_194585544"><path d="m1158 838h-126c-9 0-17-8-17-17v-140c0-10 8-18 17-18h126c9 0 17 8 17 18v140c0 9-8 17-17 17zm-109-35h91v-105h-91z"/></g><g id="_194585472"><path d="m1158 1051h-126c-9 0-17-8-17-18v-140c0-9 8-17 17-17h126c9 0 17 8 17 17v140c0 10-8 18-17 18zm-109-35h91v-105h-91z"/></g></g><g id="_195447672"><path d="m1332 379h-229c-9 0-17-8-17-17v-95c0-9 8-17 17-17h229c9 0 17 8 17 17v95c0 9-8 17-17 17zm-211-35h193v-59h-193zm-518 35h-228c-10 0-17-8-17-17v-95c0-9 7-17 17-17h228c10 0 18 8 18 17v95c0 9-8 17-18 17zm-211-35h194v-59h-194z"/></g><g id="_194584848"><path d="m1089 589h-471c-18 0-32-14-32-32v-493c0-17 14-31 32-31h471c17 0 32 14 32 31v493c0 18-15 32-32 32zm-468-34h465v-488h-465z"/></g><g id="_195447792"><path d="m1492 846h-135c-10 0-17-7-17-17v-181c0-9 7-17 17-17h135c10 0 18 8 18 17v181c0 10-8 17-18 17zm-118-34h101v-147h-101z"/></g><g id="_195447864"><path d="m1492 1163h-135c-10 0-17-8-17-17v-181c0-10 7-18 17-18h135c10 0 18 8 18 18v181c0 9-8 17-18 17zm-118-35h101v-146h-101z"/></g><g id="_195447936"><path d="m1492 1479h-135c-10 0-17-7-17-17v-181c0-9 7-17 17-17h135c10 0 18 8 18 17v181c0 10-8 17-18 17zm-118-34h101v-147h-101z"/></g><g id="_195448008"><path d="m428 1568h-292c-10 0-18-8-18-18v-990c0-10 8-18 18-18h292c10 0 17 8 17 18v990c0 10-7 18-17 18zm-275-35h258v-956h-258z"/></g><g id="_195448080"><path d="m428 577h-345c-10 0-18-8-18-17v-102c0-9 8-17 18-17h345c10 0 17 8 17 17v102c0 9-7 17-17 17zm-328-35h311v-66h-311z"/></g><g id="_195448152"><path d="m350 846h-136c-9 0-17-7-17-17v-181c0-9 8-17 17-17h136c9 0 17 8 17 17v181c0 10-8 17-17 17zm-118-34h100v-147h-100z"/></g><g id="_195448224"><path d="m350 1163h-136c-9 0-17-8-17-17v-181c0-10 8-18 17-18h136c9 0 17 8 17 18v181c0 9-8 17-17 17zm-118-35h100v-146h-100z"/></g><g id="_195448296"><path d="m350 1479h-136c-9 0-17-7-17-17v-181c0-9 8-17 17-17h136c9 0 17 8 17 17v181c0 10-8 17-17 17zm-118-34h100v-147h-100z"/></g><g id="_195448392"><path d="m853 1554c-9 0-17-7-17-17v-395c0-10 8-17 17-17 10 0 18 7 18 17v395c0 10-8 17-18 17z"/></g><g id="_195448464"><path d="m906 477h-105c-10 0-18-8-18-18v-78h-78c-10 0-17-8-17-17v-106c0-9 7-17 17-17h78v-78c0-10 8-18 18-18h105c10 0 17 8 17 18v78h79c9 0 17 8 17 17v106c0 9-8 17-17 17h-79v78c0 10-7 18-17 18zm-88-35h71v-78c0-10 7-18 17-18h78v-70h-78c-10 0-17-8-17-18v-78h-71v78c0 10-8 18-17 18h-79v70h79c9 0 17 8 17 18z"/></g></g><path d="m411 542v-66h-311v66h36z" fill="#525c66"/><path d="m332 665h-100v147h100z" fill="#93c6dd"/><path d="m214 631h136c9 0 17 8 17 17v181c0 10-8 17-17 17h-136c-9 0-17-7-17-17v-181c0-9 8-17 17-17zm0 316h136c9 0 17 8 17 18v181c0 9-8 17-17 17h-136c-9 0-17-8-17-17v-181c0-10 8-18 17-18zm0 317h136c9 0 17 8 17 17v181c0 10-8 17-17 17h-136c-9 0-17-7-17-17v-181c0-9 8-17 17-17zm-61 269h258v-956h-258z" fill="#d8d8dd"/><path d="m332 1298h-100v147h100z" fill="#93c6dd"/><path d="m232 1128h100v-146h-100z" fill="#93c6dd"/><path d="m445 560v973h205v-374h-45c-9 0-17-7-17-17s8-17 17-17h62 186 186 1 61c10 0 18 7 18 17s-8 17-18 17h-44v374h204v-973-102-79h-140v178c0 18-15 32-32 32h-471c-18 0-32-14-32-32v-178h-141v79 101zm713 491h-126c-9 0-17-8-17-18v-140c0-9 8-17 17-17h126c9 0 17 8 17 17v140c0 10-8 18-17 18zm-242 0h-125c-10 0-18-8-18-18v-140c0-9 8-17 18-17h125c10 0 17 8 17 17v140c0 10-7 18-17 18zm-241 0h-126c-10 0-17-8-17-18v-140c0-9 7-17 17-17h126c9 0 17 8 17 17v140c0 10-8 18-17 18zm483-213h-126c-9 0-17-8-17-17v-140c0-10 8-18 17-18h126c9 0 17 8 17 18v140c0 9-8 17-17 17zm-242 0h-125c-10 0-18-8-18-17v-140c0-10 8-18 18-18h125c10 0 17 8 17 18v140c0 9-7 17-17 17zm-241 0h-126c-10 0-17-8-17-17v-140c0-10 7-18 17-18h126c9 0 17 8 17 18v140c0 9-8 17-17 17z" fill="#ecedf2"/><path d="m871 1159v374h151v-374z" fill="#93c6dd"/><path d="m1039 1568h-372-239-292-101v71h1637v-71h-101-292z" fill="#525c66"/><path d="m1121 344h158 35v-59h-193z" fill="#525c66"/><path d="m984 346v-70h-78c-10 0-17-8-17-18v-78h-71v78c0 10-8 18-17 18h-79v70h79c9 0 17 8 17 18v78h71v-78c0-10 7-18 17-18z" fill="#ed3237"/><path d="m923 241h79c9 0 17 8 17 17v106c0 9-8 17-17 17h-79v78c0 10-7 18-17 18h-105c-10 0-18-8-18-18v-78h-78c-10 0-17-8-17-17v-106c0-9 7-17 17-17h78v-78c0-10 8-18 18-18h105c10 0 17 8 17 18zm-302 314h465v-193-95-200h-465v200 94 1z" fill="#ecedf2"/><g fill="#93c6dd"><path d="m899 911h-91v105h91z"/><path d="m657 1016v-105h-91v105z"/><path d="m566 803h91v-105h-91z"/><path d="m808 698v105h91v-105z"/><path d="m1049 698v105h91v-105z"/><path d="m1374 665v147h101v-147z"/></g><path d="m1357 631h135c10 0 18 8 18 17v181c0 10-8 17-18 17h-135c-10 0-17-7-17-17v-181c0-9 7-17 17-17zm0 316h135c10 0 18 8 18 18v181c0 9-8 17-18 17h-135c-10 0-17-8-17-17v-181c0-10 7-18 17-18zm0 317h135c10 0 18 8 18 17v181c0 10-8 17-18 17h-135c-10 0-17-7-17-17v-181c0-9 7-17 17-17zm-61 269h258v-956h-258z" fill="#d8d8dd"/><path d="m1475 1298h-101v147h101z" fill="#93c6dd"/><path d="m1374 1128h101v-146h-101z" fill="#93c6dd"/><path d="m1296 542h275 36v-66h-311z" fill="#525c66"/><path d="m1140 1016v-105h-91v105z" fill="#93c6dd"/><path d="m685 1159v374h151v-374z" fill="#93c6dd"/><path d="m392 344h158 36v-59h-194z" fill="#525c66"/></g></svg>