<svg id="Layer_1" height="512" viewBox="0 0 256 256" width="512" xmlns="http://www.w3.org/2000/svg"><g><g><path d="m39.881 63.211v-45.702c0-2.118 1.724-3.842 3.842-3.842h60.245c2.118 0 3.842 1.724 3.842 3.842v45.702h4v-45.702c0-4.324-3.518-7.842-7.842-7.842h-60.245c-4.324 0-7.842 3.518-7.842 7.842v45.702z" fill="#414042"/><g><path d="m100.975 19.335h-54.26c-1.105 0-2-.895-2-2v-11.335c0-1.105.895-2 2-2h54.26c1.105 0 2 .895 2 2v11.335c0 1.105-.895 2-2 2z" fill="#ef7816"/></g><path d="m54.485 63.211v-4.138c0-2.118 1.724-3.842 3.842-3.842h31.035c2.119 0 3.843 1.724 3.843 3.842v4.138h4v-4.138c0-4.324-3.519-7.842-7.843-7.842h-31.035c-4.324 0-7.842 3.518-7.842 7.842v4.138z" fill="#414042"/><g><path d="m128.535 237.549h-109.38c-5.523 0-10-4.477-10-10v-154.338c0-5.523 4.477-10 10-10h109.38c5.523 0 10 4.477 10 10v154.337c0 5.523-4.477 10.001-10 10.001z" fill="#a54af4"/></g><g><path d="m15.155 205c-1.104 0-2-.896-2-2v-65c0-1.104.896-2 2-2s2 .896 2 2v65c0 1.104-.895 2-2 2zm0-73c-1.104 0-2-.896-2-2v-1c0-1.104.896-2 2-2s2 .896 2 2v1c0 1.104-.895 2-2 2z" fill="#b171f4"/></g><g><path d="m94.722 97.549h-41.754c-8.314 0-15.761-5.143-18.704-12.919l-8.109-21.419h95.38l-8.109 21.419c-2.943 7.775-10.39 12.919-18.704 12.919z" fill="#ffc91d"/></g><g><path d="m97.345 87.713h-47c-1.105 0-2-.895-2-2v-10.666c0-1.105.895-2 2-2h47c1.105 0 2 .895 2 2v10.667c0 1.104-.895 1.999-2 1.999z" fill="#f79219"/></g><g><path d="m43.345 63.211h-10.875v-6.711c0-1.105.895-2 2-2h6.875c1.105 0 2 .895 2 2z" fill="#ffa91a"/></g><g><path d="m115.247 63.211h-10.875v-6.711c0-1.105.895-2 2-2h6.875c1.105 0 2 .895 2 2z" fill="#ffa91a"/></g><g><path d="m128.535 63.211v154.337c0 5.523-4.477 10-10 10h-109.38c0 5.523 4.477 10 10 10h109.38c5.523 0 10-4.477 10-10v-154.337c0-5.522-4.477-10-10-10z" fill="#893add"/></g><g><path d="m132.645 64.102c.567 1.255.89 2.643.89 4.11v154.337c0 5.523-4.477 10-10 10h-109.38c-1.466 0-2.855-.323-4.11-.891 1.569 3.471 5.053 5.891 9.11 5.891h109.38c5.523 0 10-4.477 10-10v-154.338c0-4.056-2.419-7.541-5.89-9.109z" fill="#6c2bc1"/></g><g><g><g><path d="m47.315 237.549h-18.504v9.451c0 2.761 2.239 5 5 5h8.503c2.761 0 5-2.239 5-5v-9.451z" fill="#414042"/></g></g><g><g><path d="m118.879 237.549h-18.503v9.451c0 2.761 2.239 5 5 5h8.503c2.761 0 5-2.239 5-5z" fill="#414042"/></g></g></g><g><path d="m118.535 127.211h-89.38c-2.209 0-4-1.791-4-4s1.791-4 4-4h89.38c2.209 0 4 1.791 4 4s-1.791 4-4 4z" fill="#6c2bc1"/></g><g><path d="m118.535 147.211h-89.38c-2.209 0-4-1.791-4-4s1.791-4 4-4h89.38c2.209 0 4 1.791 4 4s-1.791 4-4 4z" fill="#6c2bc1"/></g><g><path d="m118.535 167.211h-89.38c-2.209 0-4-1.791-4-4s1.791-4 4-4h89.38c2.209 0 4 1.791 4 4s-1.791 4-4 4z" fill="#6c2bc1"/></g><g><path d="m118.535 187.211h-89.38c-2.209 0-4-1.791-4-4s1.791-4 4-4h89.38c2.209 0 4 1.791 4 4s-1.791 4-4 4z" fill="#6c2bc1"/></g><g><path d="m118.535 207.211h-89.38c-2.209 0-4-1.791-4-4s1.791-4 4-4h89.38c2.209 0 4 1.791 4 4s-1.791 4-4 4z" fill="#6c2bc1"/></g><g><path d="m34.535 237.549h-15.38c-5.523 0-10-4.477-10-10v-14.337h1.043c13.441-.001 24.337 10.896 24.337 24.337z" fill="#ffc91d"/></g><g><path d="m19.155 232.549c-5.523 0-10-4.477-10-10v5c0 5.523 4.477 10 10 10h15.38c0-1.714-.179-3.386-.516-5z" fill="#ffa91a"/></g><g><path d="m113.155 237.549h15.38c5.523 0 10-4.477 10-10v-14.337h-1.043c-13.441-.001-24.337 10.896-24.337 24.337z" fill="#ffc91d"/></g><g><path d="m137.492 213.211c-1.348 0-2.668.115-3.957.325v9.012c0 5.523-4.477 10-10 10h-9.864c-.337 1.614-.516 3.286-.516 5h15.38c5.523 0 10-4.477 10-10v-14.337z" fill="#ffa91a"/></g></g><g><g><path d="m71.332 118.681-19.577 23.228c-1 1.186-1.548 2.687-1.548 4.237v42.96c0 2.374 1.924 4.298 4.298 4.298h38.681c2.374 0 4.298-1.924 4.298-4.298v-42.96c0-1.551-.548-3.052-1.548-4.238l-19.577-23.228c-1.314-1.558-3.714-1.558-5.027.001z" fill="#91b56b"/></g><g><path d="m95.936 141.908-3.452-4.096v46.294c0 2.374-1.924 4.298-4.298 4.298h-37.98v.702c0 2.374 1.924 4.298 4.298 4.298h38.681c2.374 0 4.298-1.924 4.298-4.298v-42.96c.001-1.551-.547-3.052-1.547-4.238z" fill="#76a34f"/></g><g><path d="m71.136 176.906c-.773 0-1.52-.299-2.08-.838l-7.874-7.579c-1.194-1.149-1.23-3.048-.081-4.242s3.049-1.229 4.241-.081l5.484 5.279 9.157-11.654c1.023-1.303 2.909-1.528 4.213-.505 1.303 1.023 1.529 2.91.506 4.212l-11.207 14.263c-.524.667-1.306 1.081-2.151 1.139-.07.003-.139.006-.208.006z" fill="#fff"/></g><g><circle cx="73.845" cy="140.22" fill="#5a7a39" r="7.5"/></g><g><circle cx="73.845" cy="140.22" fill="#414042" r="4.546"/></g><g><g><path d="m73.845 141.22c-1.105 0-2-.895-2-2v-76.009h4v76.009c0 1.105-.896 2-2 2z" fill="#ef7816"/></g></g></g><g><g><g><path d="m203.841 131.512h23.962v12.488h-23.962z" fill="#58595b"/></g><g><path d="m222.804 131.512v5.488c0 1.105-.895 2-2 2h-16.962v5h23.962v-12.488z" fill="#414042"/></g><g><path d="m192.423 117.166c-.43 2.385-1.067 5.653-2.514 9.376-2.222 5.721-6.254 10.278-8.673 12.663-.883.871-.559 2.354.603 2.787l1.432.533c.566.211 1.194.111 1.661-.274 2.73-2.25 12.234-10.25 17.194-16.546-1.748-4.226-5.357-7.362-9.703-8.539z" fill="#939598"/></g><g><path d="m223.893 102.289 18.732 10.845c.832.482 1.344 1.37 1.344 2.332v8.34c0 1.137-.713 2.151-1.783 2.535l-14.383 5.171h-23.962l-1.1-4.046c-1.736-6.385-7.534-10.816-14.151-10.816h-6.304v-17.556h29.709c4.178 0 8.282 1.102 11.898 3.195z" fill="#e6e7e8"/></g><g><g><path d="m242.626 113.134-3.656-2.116v7.788c0 1.137-.713 2.151-1.783 2.536l-14.383 5.171h-20.365c.109.314.214.63.303.954l1.1 4.046h23.962l14.383-5.171c1.07-.385 1.783-1.399 1.783-2.536v-8.34c0-.961-.513-1.85-1.344-2.332z" fill="#d1d3d4"/></g></g><g><path d="m173.596 101.523 8.69-2.429v17.556l-8.69-2.429c-.56-.157-.948-.667-.948-1.249v-10.2c.001-.582.388-1.092.948-1.249z" fill="#414042"/></g><g><path d="m244.427 178.049-15.261-23.511c-.889-1.369-1.362-2.967-1.362-4.6v-5.939h-23.962v10.981c0 2.693-1.283 5.224-3.456 6.815l-15.693 11.496c-3.857 2.825-6.136 7.32-6.136 12.101v56.608c0 5.523 4.477 10 10 10h48.288c5.523 0 10-4.477 10-10v-55.784c0-2.899-.84-5.735-2.418-8.167z" fill="#893add"/></g><g><path d="m244.427 178.049-15.261-23.511c-.889-1.369-1.362-2.967-1.362-4.6v-5.938h-5v.939c0 1.633.473 3.23 1.362 4.6l15.261 23.511c1.578 2.432 2.418 5.268 2.418 8.167v55.783c0 5.523-4.477 10-10 10h-48.288c-1.466 0-2.855-.323-4.11-.89 1.569 3.471 5.053 5.89 9.11 5.89h48.288c5.523 0 10-4.477 10-10v-55.784c0-2.899-.84-5.735-2.418-8.167z" fill="#6c2bc1"/></g><g><path d="m227.691 229.776h-28.899c-2.761 0-5-2.239-5-5v-33.152c0-2.761 2.239-5 5-5h28.899c2.761 0 5 2.239 5 5v33.152c0 2.761-2.239 5-5 5z" fill="#f1f2f2"/></g><g><path d="m225.441 203.409h-7.409v-7.409c0-.716-.581-1.297-1.297-1.297h-6.989c-.716 0-1.297.581-1.297 1.297v7.409h-7.409c-.716 0-1.297.581-1.297 1.297v6.989c0 .716.581 1.297 1.297 1.297h7.409v7.409c0 .716.581 1.297 1.297 1.297h6.989c.716 0 1.297-.581 1.297-1.297v-7.409h7.409c.716 0 1.297-.581 1.297-1.297v-6.989c0-.717-.581-1.297-1.297-1.297z" fill="#ffc91d"/></g></g><g><g><path d="m165.816 109.872h-7c-1.104 0-2-.896-2-2s.896-2 2-2h7c1.104 0 2 .896 2 2s-.895 2-2 2zm-16 0h-7c-1.104 0-2-.896-2-2s.896-2 2-2h7c1.104 0 2 .896 2 2s-.895 2-2 2zm-16 0h-7c-1.104 0-2-.896-2-2s.896-2 2-2h7c1.104 0 2 .896 2 2s-.895 2-2 2z" fill="#5e9cf7"/></g><g><path d="m127.118 120.024c-.993 0-1.854-.739-1.981-1.75-.138-1.096.639-2.096 1.734-2.234l6.945-.874c1.094-.137 2.097.638 2.234 1.735.138 1.096-.639 2.096-1.734 2.234l-6.945.874c-.085.011-.169.015-.253.015zm15.875-1.996c-.993 0-1.854-.739-1.981-1.75-.138-1.096.639-2.096 1.734-2.234l6.945-.874c1.094-.138 2.097.638 2.234 1.735.138 1.096-.639 2.096-1.734 2.234l-6.945.874c-.085.01-.169.015-.253.015zm15.875-1.997c-.993 0-1.854-.739-1.981-1.75-.138-1.096.639-2.096 1.734-2.234l6.945-.874c1.088-.139 2.097.638 2.234 1.735.138 1.096-.639 2.096-1.734 2.234l-6.945.874c-.085.01-.169.015-.253.015z" fill="#5e9cf7"/></g><g><path d="m165.819 104.586c-.084 0-.168-.005-.253-.016l-6.945-.874c-1.096-.138-1.872-1.138-1.734-2.234.138-1.097 1.14-1.875 2.234-1.735l6.945.874c1.096.138 1.872 1.138 1.734 2.234-.126 1.012-.987 1.751-1.981 1.751zm-15.875-1.997c-.084 0-.168-.005-.253-.016l-6.945-.874c-1.096-.138-1.872-1.138-1.734-2.234.138-1.097 1.14-1.876 2.234-1.735l6.945.874c1.096.138 1.872 1.138 1.734 2.234-.126 1.012-.987 1.751-1.981 1.751zm-15.875-1.997c-.084 0-.168-.005-.253-.016l-6.945-.874c-1.096-.138-1.872-1.138-1.734-2.234.138-1.097 1.139-1.877 2.234-1.735l6.945.874c1.096.138 1.872 1.138 1.734 2.234-.126 1.012-.987 1.751-1.981 1.751z" fill="#5e9cf7"/></g></g></g></g></svg>