<svg width="52" height="52" viewBox="0 0 52 52" fill="none" xmlns="http://www.w3.org/2000/svg">
<path d="M47.12 5.54559H4.88C4.11657 5.54686 3.38476 5.8507 2.84493 6.39053C2.3051 6.93036 2.00127 7.66216 2 8.42559V39.3608C2.00127 40.1242 2.3051 40.856 2.84493 41.3959C3.38476 41.9357 4.11657 42.2395 4.88 42.2408H7.104V45.6544C7.104 45.8666 7.18829 46.07 7.33831 46.2201C7.48834 46.3701 7.69183 46.4544 7.904 46.4544H15.5376C15.7498 46.4544 15.9533 46.3701 16.1033 46.2201C16.2533 46.07 16.3376 45.8666 16.3376 45.6544V42.2408H35.6576V45.6544C35.6576 45.8666 35.7419 46.07 35.8919 46.2201C36.0419 46.3701 36.2454 46.4544 36.4576 46.4544H44.0912C44.3034 46.4544 44.5069 46.3701 44.6569 46.2201C44.8069 46.07 44.8912 45.8666 44.8912 45.6544V42.2408H47.12C47.8834 42.2395 48.6152 41.9357 49.1551 41.3959C49.6949 40.856 49.9987 40.1242 50 39.3608V8.42719C49.9992 7.66348 49.6955 6.93127 49.1556 6.39109C48.6158 5.85092 47.8837 5.54686 47.12 5.54559ZM14.74 44.856H8.7064V42.2408H14.74V44.856ZM43.2936 44.856H37.26V42.2408H43.2936V44.856ZM48.4 39.3608C48.4 39.7003 48.2651 40.0258 48.0251 40.2659C47.7851 40.5059 47.4595 40.6408 47.12 40.6408H4.88C4.54052 40.6408 4.21495 40.5059 3.9749 40.2659C3.73486 40.0258 3.6 39.7003 3.6 39.3608V8.42719C3.6 8.08772 3.73486 7.76214 3.9749 7.5221C4.21495 7.28205 4.54052 7.14719 4.88 7.14719H47.12C47.4595 7.14719 47.7851 7.28205 48.0251 7.5221C48.2651 7.76214 48.4 8.08772 48.4 8.42719V39.3608Z" fill="#afcb1e"/>
<path d="M33.944 9.90802H9.36C8.48025 9.90781 7.6364 10.2569 7.01387 10.8785C6.39134 11.5001 6.04106 12.3435 6.04 13.2232V34.5648C6.04106 35.4446 6.39134 36.2879 7.01387 36.9095C7.6364 37.5312 8.48025 37.8802 9.36 37.88H33.944C34.8231 37.8792 35.6659 37.5296 36.2876 36.9081C36.9092 36.2866 37.2589 35.4439 37.26 34.5648V13.2232C37.2589 12.3442 36.9092 11.5014 36.2876 10.8799C35.6659 10.2584 34.8231 9.90887 33.944 9.90802ZM35.66 34.5648C35.6592 35.0196 35.4781 35.4555 35.1564 35.777C34.8348 36.0985 34.3988 36.2794 33.944 36.28H9.36C8.90453 36.2804 8.46752 36.1 8.145 35.7784C7.82249 35.4568 7.64085 35.0203 7.64 34.5648V13.2232C7.64085 12.7677 7.82249 12.3312 8.145 12.0096C8.46752 11.688 8.90453 11.5076 9.36 11.508H33.944C34.3988 11.5087 34.8348 11.6895 35.1564 12.011C35.4781 12.3325 35.6592 12.7684 35.66 13.2232V34.5648Z" fill="#afcb1e"/>
<path d="M42.9032 10.052C41.959 10.0525 41.0362 10.3329 40.2513 10.8578C39.4665 11.3827 38.8549 12.1285 38.4939 13.001C38.1329 13.8734 38.0387 14.8333 38.2232 15.7593C38.4077 16.6853 38.8626 17.5358 39.5304 18.2033C40.1982 18.8707 41.049 19.3252 41.975 19.5092C42.9011 19.6933 43.861 19.5986 44.7332 19.2371C45.6055 18.8757 46.351 18.2638 46.8755 17.4787C47.4 16.6936 47.68 15.7706 47.68 14.8264C47.6785 13.5602 47.1747 12.3463 46.2791 11.4512C45.3836 10.5561 44.1694 10.0528 42.9032 10.052ZM42.9032 18.0008C42.2755 18.0003 41.662 17.8137 41.1403 17.4647C40.6185 17.1156 40.212 16.6196 39.9721 16.0395C39.7323 15.4594 39.6697 14.8213 39.7925 14.2056C39.9152 13.59 40.2178 13.0246 40.6618 12.5809C41.1058 12.1372 41.6715 11.8351 42.2872 11.7128C42.9029 11.5905 43.541 11.6535 44.1209 11.8939C44.7008 12.1342 45.1965 12.5411 45.5452 13.063C45.8939 13.585 46.08 14.1987 46.08 14.8264C46.0792 15.6685 45.7441 16.4758 45.1485 17.071C44.5528 17.6662 43.7453 18.0006 42.9032 18.0008Z" fill="#afcb1e"/>
<path d="M45.524 21.6808L39.64 24.2616C39.4521 24.3506 39.3062 24.5093 39.2333 24.704C39.1604 24.8987 39.1662 25.1142 39.2494 25.3047C39.3326 25.4953 39.4867 25.6459 39.6791 25.7248C39.8715 25.8036 40.087 25.8045 40.28 25.7272L46.164 23.1464C46.2634 23.1066 46.3539 23.0472 46.4299 22.9717C46.506 22.8963 46.5661 22.8063 46.6067 22.7072C46.6474 22.6081 46.6677 22.5018 46.6665 22.3947C46.6653 22.2876 46.6425 22.1818 46.5997 22.0836C46.5568 21.9854 46.4946 21.8969 46.4169 21.8232C46.3392 21.7495 46.2474 21.6921 46.1471 21.6546C46.0468 21.617 45.9399 21.6 45.8329 21.6045C45.7258 21.609 45.6208 21.6349 45.524 21.6808Z" fill="#afcb1e"/>
<path d="M45.524 25.8616L39.64 28.4424C39.4521 28.5315 39.3062 28.6901 39.2333 28.8849C39.1604 29.0796 39.1662 29.295 39.2494 29.4856C39.3326 29.6761 39.4867 29.8268 39.6791 29.9056C39.8715 29.9845 40.087 29.9854 40.28 29.908L46.164 27.3272C46.2634 27.2874 46.3539 27.228 46.4299 27.1526C46.506 27.0771 46.5661 26.9872 46.6067 26.888C46.6474 26.7889 46.6677 26.6827 46.6665 26.5755C46.6653 26.4684 46.6425 26.3626 46.5997 26.2645C46.5568 26.1663 46.4946 26.0777 46.4169 26.004C46.3392 25.9303 46.2474 25.873 46.1471 25.8354C46.0468 25.7978 45.9399 25.7808 45.8329 25.7853C45.7258 25.7898 45.6208 25.8158 45.524 25.8616Z" fill="#afcb1e"/>
<path d="M45.524 30.0424L39.64 32.6224C39.4713 32.6958 39.3331 32.8251 39.2486 32.9885C39.164 33.1518 39.1384 33.3394 39.176 33.5194C39.2135 33.6995 39.312 33.8611 39.4548 33.9771C39.5976 34.093 39.776 34.1562 39.96 34.156C40.0702 34.156 40.1792 34.1328 40.28 34.088L46.164 31.508C46.2634 31.4682 46.3539 31.4088 46.4299 31.3333C46.506 31.2579 46.5661 31.168 46.6067 31.0688C46.6474 30.9697 46.6677 30.8634 46.6665 30.7563C46.6653 30.6492 46.6425 30.5434 46.5997 30.4452C46.5568 30.3471 46.4946 30.2585 46.4169 30.1848C46.3392 30.1111 46.2474 30.0538 46.1471 30.0162C46.0468 29.9786 45.9399 29.9616 45.8329 29.9661C45.7258 29.9706 45.6208 29.9966 45.524 30.0424Z" fill="#afcb1e"/>
<path d="M25.92 15.0304C24.2728 15.2021 22.7505 15.9875 21.656 17.2304C20.5603 15.9852 19.0348 15.1995 17.3848 15.0304C15.2624 14.8336 12.6376 15.5608 11.5584 17.6352C9.604 21.4056 11.4736 24.9544 12.1184 26.18C14.5384 30.8064 19.4784 32.3304 21.4856 32.7704C21.5415 32.7829 21.5987 32.7891 21.656 32.7888C21.7144 32.7893 21.7727 32.7829 21.8296 32.7696C23.8416 32.3232 28.7808 30.7856 31.2184 26.1216C31.832 24.9544 33.6984 21.4016 31.7464 17.6344C30.6656 15.56 28.0472 14.8328 25.92 15.0304ZM29.7664 25.4408C27.736 29.3264 23.5416 30.7208 21.652 31.1688C19.7664 30.7296 15.572 29.3416 13.5 25.376C12.9824 24.392 11.4064 21.4 12.9752 18.3728C13.6016 17.1728 15.2472 16.6 16.7216 16.6C16.8944 16.6 17.0656 16.608 17.2312 16.6232C17.988 16.7158 18.7154 16.973 19.3621 17.3769C20.0088 17.7807 20.5591 18.3214 20.9744 18.9608C21.0461 19.0765 21.1461 19.1719 21.2649 19.2381C21.3838 19.3043 21.5175 19.3391 21.6536 19.3392H21.6584C21.7955 19.3385 21.9302 19.3025 22.0494 19.2346C22.1686 19.1668 22.2684 19.0695 22.3392 18.952C22.7476 18.3103 23.2944 17.768 23.9394 17.3648C24.5844 16.9616 25.3114 16.7077 26.0672 16.6216C27.6568 16.472 29.6248 17.0272 30.324 18.3704C31.8936 21.4 30.32 24.392 29.7664 25.4408Z" fill="#afcb1e"/>
</svg>
