<svg width="52" height="52" viewBox="0 0 52 52" fill="none" xmlns="http://www.w3.org/2000/svg">
<path d="M15.802 34.0463C14.1291 32.6917 12.2496 31.5811 10.2143 30.7671L2.44245 27.6587C2.10847 27.5251 1.84133 27.9571 2.11002 28.1962C4.38659 30.222 8.64285 34.47 10.8513 39.6225L11.4831 41.0964" stroke="#afcb1e" stroke-miterlimit="10" stroke-linecap="round" stroke-linejoin="round"/>
<path d="M13.2867 43.9556C15.4698 46.3185 18.7775 47.4085 21.9824 46.7319" stroke="#afcb1e" stroke-miterlimit="10" stroke-linecap="round" stroke-linejoin="round"/>
<path d="M30.9792 28.4111C30.9068 25.7915 30.4036 23.1776 29.4622 20.6787L26.1569 11.9037C26.0299 11.5663 25.5295 11.6621 25.5359 12.0225C25.5779 14.4036 25.4563 18.5975 24.4026 22.9" stroke="#afcb1e" stroke-miterlimit="10" stroke-linecap="round" stroke-linejoin="round"/>
<path d="M23.4088 26.1663C23.2094 26.7038 22.9922 27.2361 22.7551 27.7598L21.917 29.6109C21.9135 29.6189 21.9101 29.627 21.9065 29.6349" stroke="#afcb1e" stroke-miterlimit="10" stroke-linecap="round" stroke-linejoin="round"/>
<path d="M32.9712 26.148C28.5076 30.6117 26 36.6655 26 42.978V47.5577C31.6115 47.5577 36.1604 43.0087 36.1604 37.3973V35.3652C36.1604 29.0944 38.7101 22.8517 40.1183 19.8821C40.2727 19.5564 39.8565 19.2627 39.6016 19.5176L32.9712 26.148Z" stroke="#afcb1e" stroke-miterlimit="10" stroke-linecap="round" stroke-linejoin="round"/>
<path d="M19.0288 26.148C23.4924 30.6117 26 36.6655 26 42.978V47.5577C20.3886 47.5577 15.8397 43.0087 15.8397 37.3973V35.3652C15.8397 29.0944 13.29 22.8517 11.8817 19.8821C11.7273 19.5564 12.1436 19.2627 12.3984 19.5176L19.0288 26.148Z" stroke="#afcb1e" stroke-miterlimit="10" stroke-linecap="round" stroke-linejoin="round"/>
<path d="M16.5605 4.69128L14.008 9.1124C12.682 11.4093 14.3396 14.2803 16.9917 14.2803C19.6438 14.2803 21.3014 11.4093 19.9753 9.1124L17.4228 4.69128C17.2312 4.35934 16.7522 4.35934 16.5605 4.69128Z" stroke="#afcb1e" stroke-miterlimit="10" stroke-linecap="round" stroke-linejoin="round"/>
<path d="M35.2388 8.23334L32.914 12.26C31.7062 14.3519 33.2159 16.9668 35.6314 16.9668C38.047 16.9668 39.5567 14.3519 38.3489 12.26L36.024 8.23334C35.8496 7.93105 35.4133 7.93105 35.2388 8.23334Z" stroke="#afcb1e" stroke-miterlimit="10" stroke-linecap="round" stroke-linejoin="round"/>
<path d="M46.9271 15.4743L44.9062 18.9744C43.8564 20.7928 45.1687 23.0657 47.2684 23.0657C49.368 23.0657 50.6803 20.7927 49.6305 18.9744L47.6097 15.4743C47.4581 15.2115 47.0788 15.2115 46.9271 15.4743Z" stroke="#afcb1e" stroke-miterlimit="10" stroke-linecap="round" stroke-linejoin="round"/>
<path d="M4.39035 15.4743L2.36952 18.9744C1.31971 20.7928 2.63203 23.0657 4.73167 23.0657C6.83131 23.0657 8.14363 20.7927 7.09381 18.9744L5.07298 15.4743C4.92125 15.2115 4.54198 15.2115 4.39035 15.4743Z" stroke="#afcb1e" stroke-miterlimit="10" stroke-linecap="round" stroke-linejoin="round"/>
<path d="M30.0176 46.7318C34.2449 47.6244 38.6529 45.4454 40.4199 41.3228L41.1486 39.6226C43.3571 34.4701 47.6134 30.2219 49.8899 28.1962C50.1586 27.9572 49.8914 27.5252 49.5575 27.6587L42.2224 30.5924" stroke="#afcb1e" stroke-miterlimit="10" stroke-linecap="round" stroke-linejoin="round"/>
<path d="M39.1578 32.0303C38.1138 32.6218 37.1242 33.2964 36.1981 34.0463" stroke="#afcb1e" stroke-miterlimit="10" stroke-linecap="round" stroke-linejoin="round"/>
</svg>
