<svg id="Layer_1" enable-background="new 0 0 64 64" height="512" viewBox="0 0 64 64" width="512" xmlns="http://www.w3.org/2000/svg"><g><path d="m57.515 15.143-25-15c-.317-.191-.712-.191-1.029 0l-25 15c-.302.18-.486.506-.486.857v7c0 .552.448 1 1 1h3v39c0 .552.448 1 1 1h42c.552 0 1-.448 1-1v-39h3c.552 0 1-.448 1-1v-7c0-.351-.184-.677-.485-.857z" fill="#d8d8da"/><path d="m57.515 15.143-25-15c-.317-.191-.712-.191-1.029 0l-25 15c-.302.18-.486.506-.486.857v7c0 .552.448 1 1 1h4c.552 0 1-.448 1-1v-4.169l20-12 20 12v4.169c0 .552.448 1 1 1h4c.552 0 1-.448 1-1v-7c0-.351-.184-.677-.485-.857z" fill="#fc9377"/><path d="m45 36.127v-15.127c0-.552-.448-1-1-1s-1 .448-1 1c0 1.654-1.346 3-3 3h-14c-3.86 0-7 3.14-7 7v5.126c-1.723.445-3 2.013-3 3.874s1.277 3.428 3 3.874v3.126c0 4.526 3.386 8.362 7.876 8.923.041.005.082.008.124.008h10c.041 0 .083-.003.124-.008 4.49-.56 7.876-4.396 7.876-8.923v-3.126c1.723-.445 3-2.013 3-3.874s-1.277-3.428-3-3.873z" fill="#fc9377"/><path d="m44.555 36.168c-.46-.308-1.081-.182-1.387.277l-3.56 5.34-7.257-2.721c-.227-.085-.476-.085-.702 0l-7.257 2.721-3.56-5.34c-.307-.459-.927-.585-1.387-.277-.459.306-.583.927-.277 1.387l3.832 5.748v10.618c0 .357.19.687.499.865 1.371.794 2.927 1.214 4.501 1.214h8c1.574 0 3.13-.42 4.501-1.214.309-.178.499-.508.499-.865v-10.618l3.832-5.748c.306-.46.182-1.081-.277-1.387z" fill="#7fc7f1"/><g fill="#5b422c"><path d="m58 23v-7c0-.351-.184-.677-.485-.857l-25-15c-.317-.19-.712-.19-1.029 0l-25 15c-.302.181-.486.506-.486.857v7c0 .552.448 1 1 1h3v39c0 .552.448 1 1 1h42c.552 0 1-.448 1-1v-39h3c.552 0 1-.447 1-1zm-6 39h-40v-39-4.169l20-12 20 12v4.169zm4-40h-2v-3.735c0-.351-.184-.677-.485-.858l-21-12.6c-.317-.191-.712-.191-1.029 0l-21 12.6c-.302.181-.486.507-.486.858v3.735h-2v-5.434l24-14.4 24 14.4z"/><path d="m45 36.127v-15.127c0-.552-.448-1-1-1s-1 .448-1 1c0 1.654-1.346 3-3 3h-14c-3.86 0-7 3.14-7 7v5.127c-1.723.445-3 2.013-3 3.873s1.277 3.428 3 3.874v3.126c0 4.526 3.386 8.362 7.876 8.923.041.005.082.008.124.008h10c.041 0 .083-.003.124-.008 4.49-.56 7.876-4.396 7.876-8.923v-3.126c1.723-.445 3-2.013 3-3.874 0-1.86-1.277-3.428-3-3.873zm-19-10.127h14c1.124 0 2.164-.374 3-1.002v11.7l-3.392 5.088-7.257-2.721c-.227-.085-.476-.085-.702 0l-7.257 2.721-3.392-5.088v-5.698c0-2.756 2.243-5 5-5zm-5 21v-4c0-.552-.448-1-1-1-1.103 0-2-.897-2-2 0-.933.645-1.712 1.51-1.932l3.49 5.235v8.58c-1.239-1.269-2-2.996-2-4.883zm15.936 6.931h-9.871c-.733-.098-1.425-.314-2.064-.618v-9.619l7-2.625 7 2.625v9.619c-.64.304-1.332.52-2.065.618zm7.064-11.931c-.552 0-1 .448-1 1v4c0 1.886-.761 3.614-2 4.882v-8.58l3.49-5.235c.866.221 1.51 1 1.51 1.933 0 1.103-.897 2-2 2z"/></g></g></svg>