<svg width="52" height="52" viewBox="0 0 52 52" fill="none" xmlns="http://www.w3.org/2000/svg">
<path d="M37.2974 50.2792H5.07717C3.47612 50.2792 2.17305 48.9766 2.17305 47.3751V7.10937C2.17305 5.50785 3.47612 4.20526 5.07717 4.20526H13.5155C13.9217 4.20526 14.2513 4.53486 14.2513 4.94111C14.2513 5.34736 13.9217 5.67696 13.5155 5.67696H5.07717C4.28766 5.67696 3.64475 6.31939 3.64475 7.10937V47.3751C3.64475 48.1651 4.28766 48.8075 5.07717 48.8075H37.2974C37.6969 48.8075 38.0639 48.6504 38.3293 48.3653C38.6052 48.0664 39.0719 48.051 39.3689 48.3279C39.6669 48.6048 39.6832 49.0705 39.4063 49.3675C38.8668 49.9472 38.0984 50.2792 37.2974 50.2792Z" fill="#afcb1e"/>
<path d="M39.4657 24.2595C39.0594 24.2595 38.7298 23.9299 38.7298 23.5237V7.10937C38.7298 6.31939 38.0869 5.67696 37.2974 5.67696H28.86C28.4538 5.67696 28.1242 5.34736 28.1242 4.94111C28.1242 4.53486 28.4538 4.20526 28.86 4.20526H37.2974C38.8984 4.20526 40.2015 5.50785 40.2015 7.10937V23.5237C40.2015 23.9299 39.8719 24.2595 39.4657 24.2595Z" fill="#afcb1e"/>
<path d="M21.1978 15.3508C19.0631 15.3508 17.2848 13.801 16.9341 11.7698H10.8269C9.74521 11.7698 8.86469 10.8897 8.86469 9.80749V4.94111C8.86469 4.53486 9.19428 4.20526 9.60053 4.20526H13.5155C13.9217 4.20526 14.2513 4.53486 14.2513 4.94111C14.2513 5.34736 13.9217 5.67696 13.5155 5.67696H10.3364V9.80749C10.3364 10.0782 10.5568 10.2981 10.8269 10.2981H17.6067C18.013 10.2981 18.3426 10.6277 18.3426 11.0339C18.3426 12.6029 19.6236 13.8791 21.1978 13.8791C22.7663 13.8791 24.0425 12.6029 24.0425 11.0339C24.0425 10.6277 24.3721 10.2981 24.7784 10.2981H31.5582C31.8283 10.2981 32.0487 10.0782 32.0487 9.80749V5.67696H28.86C28.4538 5.67696 28.1242 5.34736 28.1242 4.94111C28.1242 4.53486 28.4538 4.20526 28.86 4.20526H32.7846C33.1908 4.20526 33.5204 4.53486 33.5204 4.94111V9.80749C33.5204 10.8897 32.6399 11.7698 31.5582 11.7698H25.4519C25.1013 13.801 23.3268 15.3508 21.1978 15.3508Z" fill="#afcb1e"/>
<path d="M28.3685 8.64285H14.0089C13.3315 8.64285 12.7806 8.09145 12.7806 7.41404V2.94433C12.7806 2.26693 13.3315 1.716 14.0089 1.716H28.3685C29.0459 1.716 29.5978 2.26693 29.5978 2.94433V7.41404C29.5978 8.09145 29.0459 8.64285 28.3685 8.64285ZM14.2523 7.17116H28.1261V3.1877H14.2523V7.17116Z" fill="#afcb1e"/>
<path d="M11.8617 28.1596C8.85222 28.1596 6.40418 25.7116 6.40418 22.7025C6.40418 19.693 8.85222 17.245 11.8617 17.245C14.8712 17.245 17.3193 19.693 17.3193 22.7025C17.3193 25.7116 14.8712 28.1596 11.8617 28.1596ZM11.8617 18.7167C9.66376 18.7167 7.87588 20.5046 7.87588 22.7025C7.87588 24.9 9.66376 26.6879 11.8617 26.6879C14.0597 26.6879 15.8476 24.9 15.8476 22.7025C15.8476 20.5046 14.0597 18.7167 11.8617 18.7167Z" fill="#afcb1e"/>
<path d="M34.4038 19.716H23.1821C22.7759 19.716 22.4463 19.3864 22.4463 18.9802C22.4463 18.5739 22.7759 18.2443 23.1821 18.2443H34.4038C34.8101 18.2443 35.1397 18.5739 35.1397 18.9802C35.1397 19.3864 34.8101 19.716 34.4038 19.716Z" fill="#afcb1e"/>
<path d="M28.793 23.4384H23.1821C22.7759 23.4384 22.4463 23.1088 22.4463 22.7025C22.4463 22.2963 22.7759 21.9667 23.1821 21.9667H28.793C29.1992 21.9667 29.5288 22.2963 29.5288 22.7025C29.5288 23.1088 29.1992 23.4384 28.793 23.4384Z" fill="#afcb1e"/>
<path d="M28.793 27.1602H23.1821C22.7759 27.1602 22.4463 26.8306 22.4463 26.4244C22.4463 26.0181 22.7759 25.6885 23.1821 25.6885H28.793C29.1992 25.6885 29.5288 26.0181 29.5288 26.4244C29.5288 26.8306 29.1992 27.1602 28.793 27.1602Z" fill="#afcb1e"/>
<path d="M30.5176 33.8371H9.59766C9.19141 33.8371 8.86181 33.5075 8.86181 33.1012C8.86181 32.695 9.19141 32.3654 9.59766 32.3654H30.5176C30.9239 32.3654 31.2535 32.695 31.2535 33.1012C31.2535 33.5075 30.9239 33.8371 30.5176 33.8371Z" fill="#afcb1e"/>
<path d="M20.6862 46.9789C20.3805 46.9789 20.1065 46.7901 19.9982 46.5041L17.9756 41.1783L15.6521 44.0182C15.5132 44.1888 15.3034 44.2879 15.083 44.2879H11.2198C10.8135 44.2879 10.4839 43.9583 10.4839 43.5521C10.4839 43.1458 10.8135 42.8162 11.2198 42.8162H14.7342L17.6431 39.2615C17.8098 39.0584 18.0724 38.9607 18.3301 39.0014C18.5898 39.0436 18.8073 39.2208 18.9002 39.4666L20.6536 44.0853L23.0844 37.0574C23.1831 36.7723 23.4456 36.5764 23.7465 36.563C24.0636 36.5505 24.3271 36.7206 24.4507 36.9956L26.8135 42.2346H31.1577C31.5639 42.2346 31.8935 42.5642 31.8935 42.9705C31.8935 43.3767 31.5639 43.7063 31.1577 43.7063H26.3382C26.0489 43.7063 25.7863 43.5368 25.6675 43.2728L23.8701 39.2879L21.3818 46.4835C21.2802 46.7762 21.0071 46.9741 20.6967 46.9789C20.6938 46.9789 20.69 46.9789 20.6862 46.9789Z" fill="#afcb1e"/>
<path d="M41.5276 50.2839C38.0706 50.2839 35.2585 47.4713 35.2585 44.0144V28.3143C35.2585 27.9081 35.5881 27.5785 35.9943 27.5785H47.0618C47.468 27.5785 47.7976 27.9081 47.7976 28.3143V44.0144C47.7976 47.4713 44.9845 50.2839 41.5276 50.2839ZM36.7302 29.0502V44.0144C36.7302 46.6598 38.8821 48.8122 41.5276 48.8122C44.173 48.8122 46.3259 46.6598 46.3259 44.0144V29.0502H36.7302Z" fill="#afcb1e"/>
<path d="M41.5276 50.2835C38.0706 50.2835 35.2585 47.4713 35.2585 44.0144V38.1846C35.2585 37.7783 35.5881 37.4487 35.9943 37.4487H47.0618C47.468 37.4487 47.7976 37.7783 47.7976 38.1846V44.0144C47.7976 47.4713 44.9845 50.2835 41.5276 50.2835ZM36.7302 38.9204V44.0144C36.7302 46.6598 38.8821 48.8118 41.5276 48.8118C44.173 48.8118 46.3259 46.6598 46.3259 44.0144V38.9204H36.7302Z" fill="#afcb1e"/>
<path d="M48.5047 29.0502H34.5504C33.8222 29.0502 33.2291 28.4571 33.2291 27.7285V24.1134C33.2291 23.3848 33.8222 22.7917 34.5504 22.7917H48.5047C49.2339 22.7917 49.8269 23.3848 49.8269 24.1134V27.7285C49.8269 28.4571 49.2339 29.0502 48.5047 29.0502ZM34.7008 27.5785H48.3552V24.2634H34.7008V27.5785Z" fill="#afcb1e"/>
</svg>
