<svg width="600" height="450" viewBox="0 0 600 450" fill="none" xmlns="http://www.w3.org/2000/svg">
<g clip-path="url(#clip0_5_636)">
<path d="M600 0H0V450H600V0Z" fill="#E1E7F1"/>
<path d="M421.305 401.287C438.842 401.287 453.059 399.69 453.059 397.719C453.059 395.749 438.842 394.151 421.305 394.151C403.767 394.151 389.551 395.749 389.551 397.719C389.551 399.69 403.767 401.287 421.305 401.287Z" fill="#C2D5E6"/>
<path d="M519.49 400.277C534.371 400.277 546.434 398.906 546.434 397.214C546.434 395.523 534.371 394.151 519.49 394.151C504.609 394.151 492.546 395.523 492.546 397.214C492.546 398.906 504.609 400.277 519.49 400.277Z" fill="#C2D5E6"/>
<path d="M525.446 388.729C527.382 389.021 529.117 389.902 529.971 388.094C530.424 387.135 530.035 385.837 531.031 384.973C531.471 384.591 532.336 384.252 533.104 384.112L531.243 374.371L519.708 372.978C519.708 372.978 518.382 381.978 517.46 387.872C518.194 388.056 518.925 388.288 519.596 388.355C521.533 388.548 523.515 388.439 525.446 388.729Z" fill="#EFA895"/>
<path d="M533.167 384.443L533.104 384.112C532.336 384.252 531.471 384.59 531.031 384.972C530.035 385.837 530.424 387.135 529.971 388.094C529.117 389.902 527.382 389.021 525.446 388.729C523.515 388.439 521.533 388.548 519.596 388.354C518.925 388.287 518.194 388.056 517.46 387.872C517.226 389.363 517.019 390.655 516.865 391.552C516.104 395.998 518.871 397.879 518.871 397.879H547.562C550.301 391.736 533.167 384.443 533.167 384.443Z" fill="#79819B"/>
<path d="M507.388 382.019L506.561 373.552L494.653 372.978L493.816 382.019H507.388Z" fill="#EFA895"/>
<path d="M510.195 390.57C509.756 389.034 508.296 383.613 507.31 381.137C506.674 381.602 505.969 381.766 505.269 381.702C505.142 381.69 505.015 381.671 504.889 381.645C504.883 381.644 504.878 381.643 504.872 381.641C504.479 381.557 504.093 381.404 503.726 381.193C503.724 381.192 503.721 381.191 503.719 381.189C503.608 381.125 503.5 381.054 503.393 380.98C503.367 380.962 503.341 380.943 503.315 380.924C503.232 380.864 503.151 380.8 503.071 380.734C503.039 380.708 503.007 380.681 502.976 380.654C502.901 380.589 502.828 380.52 502.756 380.45C502.727 380.421 502.697 380.394 502.669 380.365C502.572 380.265 502.477 380.163 502.387 380.055C502.343 380.002 502.307 379.945 502.269 379.889L500.619 379.89L498.35 379.888C498.349 379.889 498.348 379.89 498.347 379.891C498.248 380.081 498.11 380.256 497.943 380.408C497.888 380.459 497.829 380.508 497.767 380.553C497.198 380.971 496.616 381.288 496.01 381.505V381.508C495.29 381.764 494.535 381.87 493.725 381.803C492.758 384.477 491.495 389.16 491.092 390.57C490.507 392.618 488.899 396.936 491.092 397.775C492.376 398.266 497.016 398.182 500.644 398.028C504.272 398.182 508.911 398.266 510.195 397.775C512.388 396.936 510.78 392.618 510.195 390.57Z" fill="#79819B"/>
<path d="M490.1 340.228C491.237 359.793 492.093 374.788 492.093 374.788C492.093 374.788 498.509 376.769 509.698 374.901L509.92 340.228H490.1Z" fill="#769ACD"/>
<path d="M515.155 340.228C516.292 359.793 517.148 374.788 517.148 374.788C517.148 374.788 523.564 376.769 534.753 374.901L534.975 340.228H515.155Z" fill="#769ACD"/>
<path d="M541.308 226.766C548.334 222.35 551.404 183.436 551.157 170.584C550.951 159.861 543.181 155.378 540.611 154.186C540.239 153.955 540.001 153.88 539.954 153.867C533.929 150.197 524.34 149.672 524.34 149.672L513.176 163.955L500.643 149.672C500.643 149.672 492.696 150.107 486.726 152.953C486.726 152.953 475.608 156.843 475.362 169.696C475.12 182.308 478.072 220.012 484.822 225.591L481.002 341.709C481.002 341.709 485.391 344.697 512.554 344.697C539.718 344.697 547.136 341.709 547.136 341.709L538.858 227.442C539.853 227.373 540.684 227.158 541.308 226.766Z" fill="#9FC1E6"/>
<path d="M526.363 212.468L530.088 211.741L532.671 211.686L534.5 205.685C534.5 205.685 532.838 202.605 530.931 202.637C529.024 202.67 523.698 204.822 523.698 204.822L526.363 212.468Z" fill="#EFA895"/>
<path d="M486.117 173.915C486.117 173.915 485.475 173.163 485.768 174.752C487.307 183.093 493.407 209.747 494.783 209.319C496.422 208.81 523.086 203.135 523.086 203.135L523.698 204.822C523.698 204.822 525.051 202.465 523.698 202.093C522.346 201.721 495.114 207.553 495.114 207.553C495.114 207.553 486.708 177.558 486.117 173.915Z" fill="#769ACD"/>
<path d="M484.588 225.386C484.588 225.386 489.203 226.446 492.692 225.374C496.182 224.302 525.546 212.397 525.546 212.397L525.699 213.428L492.384 227.12C492.384 227.12 485.769 228.229 484.803 225.432" fill="#769ACD"/>
<path d="M533.827 226.262C531.979 225.694 513.85 218.415 513.642 218.27C513.605 218.255 512.383 218.756 511.87 219.009L533.07 227.568C533.07 227.568 539.916 228.895 541.932 226.274C541.932 226.274 537.317 227.334 533.827 226.262Z" fill="#769ACD"/>
<path d="M540.665 175.5C540.003 175.5 538.366 184.124 536.446 192.974C534.403 202.39 532.092 212.067 532.092 212.067C532.092 212.067 532.504 212.99 533.195 211.278C533.556 210.382 535.423 201.606 537.288 193.078C539.232 184.192 541.362 175.5 540.665 175.5Z" fill="#769ACD"/>
<path d="M501.786 207.119L503.97 202.467L512.029 205.624L512.951 204.677L503.489 200.972L499.244 207.936" fill="#769ACD"/>
<path d="M502.964 201.882C502.937 201.851 502.91 201.82 502.885 201.788C502.156 200.893 501.307 199.955 500.302 199.475L500.522 199.365C499.68 199.433 498.262 197.497 497.768 196.825C497.057 195.86 496.591 194.852 496.035 193.834C494.906 191.767 493.377 189.837 490.849 189.581C490.236 189.519 487.955 189.572 487.839 190.35C487.695 191.323 489.942 191.4 490.518 191.518C491.648 191.75 492.235 192.031 492.92 192.95C493.352 193.528 494.284 194.654 494.231 195.381C493.384 195.466 492.467 194.525 491.598 194.319C490.866 194.144 489.998 194.111 489.261 194.266C488.545 194.417 484.874 195.902 485.972 197.029C486.492 197.562 489.489 196.114 490.386 196.17C491.922 196.264 493.258 197.472 493.994 198.69C493.128 198.736 492.2 198.199 491.286 198.153C490.53 198.114 489.683 198.068 488.93 198.153C488.122 198.243 485.099 199.662 486.308 200.694C487.075 201.348 489.674 199.839 490.631 199.805C491.95 199.758 493.426 200.188 494.344 201.157C493.975 201.293 485.163 201.855 487.296 203.994C487.878 204.577 490.185 203.626 490.913 203.527C492.031 203.374 492.907 203.437 493.807 204.185C494.8 205.01 495.928 206.21 497.158 207.119C498.82 207.056 500.438 207.023 500.769 206.358C501.509 204.87 502.254 203.385 502.964 201.882Z" fill="#EFA895"/>
<path d="M510.592 102.047C510.592 102.047 498.497 99.588 499.186 120.91L499.326 120.93C499.35 121.076 499.373 121.223 499.399 121.38L500.643 127.99C501.107 130.054 501.621 131.862 502.118 132.627C502.647 133.441 503.318 134.523 504.189 135.58L504.713 149.305L500.641 149.672L513.196 164.022L524.342 149.672L521.125 149.203L521.687 134.506C522.379 133.376 522.973 131.991 523.443 130.287C523.673 129.453 523.886 128.656 524.085 127.893L525.585 121.377C525.585 121.377 525.678 118.199 525.618 117.038C525.618 117.038 527.296 100.45 510.592 102.047Z" fill="#EFA895"/>
<path d="M525.649 121.311C525.66 121.258 525.671 121.208 525.682 121.157C525.636 121.231 525.601 121.305 525.585 121.377C525.585 121.377 525.608 121.353 525.649 121.311Z" fill="#FAC2AE"/>
<path d="M500.643 127.99L499.399 121.38C499.698 123.227 500.141 125.757 500.643 127.99Z" fill="#FAC2AE"/>
<path d="M525.585 121.377L524.085 127.893C524.779 125.229 525.289 123.009 525.649 121.311C525.608 121.353 525.585 121.377 525.585 121.377Z" fill="#FAC2AE"/>
<path d="M498.334 120.468C498.325 120.461 498.316 120.454 498.306 120.448C498.309 120.45 498.319 120.46 498.319 120.46L498.334 120.468Z" fill="#563B2A"/>
<path d="M512.102 127.236C512.052 127.236 512.001 127.228 511.951 127.211C511.189 126.956 510.605 126.246 510.464 125.4C510.337 124.645 510.59 123.943 511.14 123.52C511.65 123.129 511.696 121.225 511.566 120.061C511.537 119.799 511.726 119.564 511.987 119.534C512.246 119.512 512.484 119.694 512.513 119.956C512.577 120.527 512.837 123.419 511.72 124.276C511.337 124.57 511.371 125.05 511.403 125.242C511.487 125.745 511.821 126.163 512.253 126.307C512.503 126.391 512.637 126.66 512.554 126.91C512.488 127.11 512.302 127.236 512.102 127.236Z" fill="#563B2A"/>
<path d="M506.979 119.198C507.443 119.198 507.818 118.584 507.818 117.827C507.818 117.069 507.443 116.455 506.979 116.455C506.516 116.455 506.141 117.069 506.141 117.827C506.141 118.584 506.516 119.198 506.979 119.198Z" fill="#563B2A"/>
<path d="M518.046 117.725C518.046 118.482 517.671 119.096 517.207 119.096C516.744 119.096 516.369 118.482 516.369 117.725C516.369 116.967 516.744 116.353 517.207 116.353C517.671 116.353 518.046 116.967 518.046 117.725Z" fill="#563B2A"/>
<path d="M498.928 120.348C498.932 120.467 498.933 120.586 498.942 120.705C498.948 120.582 498.94 120.465 498.928 120.348Z" fill="#563B2A"/>
<path d="M519.91 113.533C519.897 113.523 519.882 113.515 519.867 113.508C518.684 112.943 516.417 113.206 516.321 113.217C516.15 113.238 516.027 113.393 516.048 113.565C516.068 113.736 516.224 113.859 516.395 113.838C516.417 113.836 518.578 113.586 519.598 114.072C519.754 114.147 519.94 114.081 520.015 113.925C520.082 113.784 520.034 113.619 519.91 113.533Z" fill="#563B2A"/>
<path d="M504.756 113.564C504.77 113.554 504.784 113.546 504.799 113.538C505.973 112.954 508.243 113.178 508.339 113.188C508.511 113.205 508.636 113.359 508.619 113.531C508.601 113.703 508.448 113.828 508.276 113.81C508.254 113.808 506.09 113.594 505.078 114.098C504.923 114.175 504.736 114.112 504.659 113.958C504.589 113.818 504.633 113.652 504.756 113.564Z" fill="#563B2A"/>
<path d="M516.585 120.944C516.559 121.514 516.17 122.014 515.918 122.504C515.823 122.689 516.113 122.828 516.208 122.644C516.431 122.21 516.712 121.795 516.84 121.327C516.878 121.3 516.907 121.257 516.907 121.197V120.924C516.907 120.712 516.595 120.742 516.585 120.944Z" fill="#DC9F8E"/>
<path d="M517.405 121.081C517.396 121.478 517.272 121.857 517.148 122.231C517.083 122.425 517.372 122.567 517.438 122.37C517.581 121.941 517.716 121.517 517.727 121.06C517.732 120.852 517.41 120.875 517.405 121.081Z" fill="#DC9F8E"/>
<path d="M518.772 120.671C518.754 121.268 518.513 121.835 518.364 122.406C518.312 122.608 518.628 122.668 518.68 122.468C518.838 121.865 519.074 121.279 519.093 120.65C519.099 120.442 518.778 120.466 518.772 120.671Z" fill="#DC9F8E"/>
<path d="M507.567 120.808V122.584C507.567 122.793 507.888 122.77 507.888 122.563V120.787C507.888 120.579 507.567 120.601 507.567 120.808Z" fill="#DC9F8E"/>
<path d="M506.337 120.944V122.721C506.337 122.929 506.658 122.907 506.658 122.7V120.924C506.658 120.715 506.337 120.738 506.337 120.944Z" fill="#DC9F8E"/>
<path d="M505.146 120.692C504.979 120.892 504.972 121.102 504.97 121.354C504.968 121.846 504.977 122.34 504.836 122.816C504.778 123.016 505.094 123.075 505.153 122.878C505.231 122.613 505.267 122.342 505.279 122.066C505.293 121.75 505.178 121.157 505.39 120.902C505.523 120.743 505.279 120.533 505.146 120.692Z" fill="#DC9F8E"/>
<path d="M500.609 128.133C500.609 128.133 505.476 123.428 511.614 122.986C517.751 122.543 523.448 125.559 523.448 125.559C523.448 125.559 522.446 132.161 522.333 133.107C522.219 134.054 518.474 138.245 512.471 138.245C506.468 138.245 503.325 134.963 503.325 134.963C503.325 134.963 500.998 130.466 500.609 128.133Z" fill="#FFF5E9"/>
<path d="M501.734 128.178C501.525 128.178 501.336 128.032 501.291 127.819C500.798 125.521 498.173 121 498.146 120.955C498.02 120.738 498.094 120.46 498.31 120.333C498.528 120.207 498.805 120.28 498.932 120.497C499.043 120.688 501.656 125.189 502.179 127.628C502.232 127.874 502.076 128.116 501.83 128.168C501.798 128.175 501.766 128.178 501.734 128.178Z" fill="#FFF5E9"/>
<path d="M522.253 128.178C522.221 128.178 522.189 128.175 522.157 128.168C521.912 128.115 521.755 127.874 521.808 127.629C522.33 125.189 524.944 120.688 525.055 120.497C525.182 120.281 525.459 120.208 525.676 120.333C525.893 120.46 525.966 120.738 525.84 120.955C525.814 121 523.189 125.521 522.696 127.818C522.651 128.032 522.463 128.178 522.253 128.178Z" fill="#FFF5E9"/>
<path d="M503.818 129.026C503.746 129.026 503.678 128.981 503.652 128.91C503.619 128.818 503.666 128.717 503.758 128.683C503.801 128.668 508.112 127.117 511.764 127.117C515.4 127.117 521.006 127.995 521.062 128.004C521.158 128.019 521.224 128.109 521.209 128.206C521.194 128.302 521.104 128.369 521.007 128.353C520.951 128.344 515.372 127.47 511.764 127.47C508.173 127.47 503.921 129 503.879 129.015C503.859 129.022 503.838 129.026 503.818 129.026Z" fill="#CDCDCE"/>
<path d="M503.818 132.017C503.746 132.017 503.678 131.972 503.652 131.9C503.619 131.809 503.666 131.708 503.758 131.674C503.801 131.658 508.112 130.108 511.764 130.108C515.4 130.108 521.006 130.986 521.062 130.995C521.158 131.01 521.224 131.1 521.209 131.197C521.194 131.293 521.104 131.359 521.007 131.343C520.951 131.335 515.372 130.461 511.764 130.461C508.173 130.461 503.921 131.991 503.879 132.006C503.859 132.013 503.838 132.017 503.818 132.017Z" fill="#CDCDCE"/>
<path d="M510.382 134.502C506.203 134.502 504.108 133.875 504.075 133.865C503.982 133.836 503.93 133.737 503.959 133.644C503.988 133.551 504.086 133.499 504.18 133.527C504.234 133.544 509.708 135.174 520.737 133.09C520.833 133.072 520.925 133.135 520.943 133.231C520.961 133.327 520.898 133.419 520.802 133.437C516.494 134.251 513.022 134.502 510.382 134.502Z" fill="#CDCDCE"/>
<path d="M522.025 97.1993C513.267 92.1006 504.223 96.3344 503.957 96.4606C495.267 100.703 494.214 108.882 494.798 119.323C495.512 132.105 503.939 135.959 502.089 132.195C500.891 129.756 500.443 122.17 500.955 116.352C500.963 116.31 502.442 108.796 512.307 109.373V109.386C512.355 109.383 512.399 109.383 512.446 109.38C512.493 109.383 512.538 109.383 512.585 109.386V109.373C519.951 108.942 522.641 113.022 523.535 115.134C524.232 121.06 523.809 129.582 522.525 132.195C520.675 135.959 529.102 132.105 529.817 119.323C530.368 109.458 529.457 101.613 522.025 97.1993Z" fill="#9FC1E6"/>
<path d="M191.987 401.287C209.524 401.287 223.741 399.69 223.741 397.719C223.741 395.749 209.524 394.152 191.987 394.152C174.449 394.152 160.232 395.749 160.232 397.719C160.232 399.69 174.449 401.287 191.987 401.287Z" fill="#C2D5E6"/>
<path d="M183.079 384.539L183.492 376.131L172.221 374.92L170.478 384.539H183.079Z" fill="#FFF5E9"/>
<path d="M185.205 393.021C184.892 391.122 184.668 386.149 183.001 383.656C181.632 384.657 179.905 384.108 178.369 383.9C177.554 383.789 176.646 383.626 176.164 382.959C175.947 382.661 175.846 382.294 175.776 381.931C175.753 381.811 175.722 381.673 175.614 381.614C175.557 381.583 175.49 381.58 175.425 381.579C173.767 381.541 172.106 381.622 170.46 381.821C170.356 381.834 170.247 381.848 170.163 381.911C170.069 381.981 170.025 382.097 169.984 382.207C169.539 383.427 169.322 384.695 168.613 385.78C168.075 386.604 167.48 387.392 166.88 388.171C165.318 390.201 163.671 392.164 162.056 394.152C161.404 394.954 160.75 395.757 160.131 396.587C159.82 397.004 159.378 397.488 159.232 398.002C158.647 400.049 160.281 400.482 164.07 400.668C165.442 400.735 179.695 400.32 181.069 400.295C185.42 400.214 185.551 395.122 185.205 393.021Z" fill="#79819B"/>
<path d="M202.718 384.539L202.305 376.131L213.576 374.92L215.319 384.539H202.718Z" fill="#FFF5E9"/>
<path d="M200.592 393.021C200.905 391.122 201.129 386.149 202.796 383.656C204.165 384.657 205.892 384.108 207.428 383.9C208.244 383.789 209.151 383.626 209.634 382.959C209.85 382.661 209.951 382.294 210.021 381.931C210.044 381.811 210.075 381.673 210.183 381.614C210.24 381.583 210.308 381.58 210.373 381.579C212.031 381.541 213.691 381.622 215.338 381.821C215.442 381.834 215.551 381.848 215.634 381.911C215.728 381.981 215.773 382.097 215.813 382.207C216.258 383.427 216.475 384.695 217.184 385.78C217.723 386.604 218.317 387.392 218.917 388.171C220.479 390.201 222.126 392.164 223.741 394.152C224.393 394.954 225.048 395.757 225.666 396.587C225.977 397.004 226.419 397.488 226.566 398.002C227.15 400.049 225.517 400.482 221.728 400.668C220.355 400.735 206.103 400.32 204.728 400.295C200.377 400.214 200.246 395.122 200.592 393.021Z" fill="#79819B"/>
<path d="M200.909 150.474H182.349L177.685 154.618L178 241.47H209.02L209.549 154.952L200.909 150.474Z" fill="#9FC1E6"/>
<path d="M190.84 160.669C198.831 160.669 203.476 155.397 205.528 151.837L200.662 150.238L201.199 137.871L201.224 136.806L201.185 136.817C201.955 135.584 202.615 134.059 203.135 132.174C203.382 131.276 203.612 130.417 203.826 129.595L205.442 122.577C205.442 122.577 205.542 119.154 205.478 117.904C205.478 117.904 207.285 100.036 189.293 101.756C189.293 101.756 176.266 99.1079 177.008 122.074L177.159 122.095C177.184 122.253 177.21 122.411 177.237 122.58L178.577 129.699C179.077 131.923 179.631 133.87 180.166 134.695C180.735 135.571 181.458 136.737 182.396 137.876L182.926 150.106L178.541 151.664C179.352 154.545 181.841 160.669 190.84 160.669Z" fill="#EFA895"/>
<path d="M205.511 122.505C205.523 122.449 205.534 122.395 205.546 122.339C205.497 122.419 205.459 122.499 205.442 122.577C205.442 122.577 205.466 122.55 205.511 122.505Z" fill="#FAC2AD"/>
<path d="M177.357 122.533C177.357 122.533 176.884 122.024 176.211 121.553L176.195 121.545C176.195 121.545 176.184 121.535 176.181 121.532C175.175 120.838 173.737 120.248 172.747 121.545C171.079 123.732 173.137 125.809 174.373 127.666C175.609 129.523 176.954 131.031 178.7 129.67L178.698 129.655C178.157 127.25 177.68 124.525 177.358 122.536L177.357 122.533Z" fill="#EFA895"/>
<path d="M209.801 121.589C208.283 119.599 205.71 122.049 205.261 122.505C204.872 124.335 204.323 126.726 203.576 129.595L203.573 129.606C205.319 130.968 206.939 129.566 208.176 127.71C209.412 125.853 211.469 123.776 209.801 121.589Z" fill="#EFA895"/>
<path d="M176.09 121.597C176.08 121.59 176.071 121.583 176.061 121.576C176.063 121.578 176.074 121.589 176.074 121.589L176.09 121.597Z" fill="#7D453D"/>
<path d="M190.919 128.887C190.866 128.887 190.811 128.879 190.757 128.861C189.936 128.587 189.307 127.821 189.155 126.91C189.018 126.097 189.291 125.34 189.883 124.885C190.432 124.464 190.482 122.413 190.342 121.159C190.311 120.877 190.514 120.624 190.796 120.592C191.075 120.568 191.331 120.764 191.363 121.046C191.431 121.661 191.711 124.777 190.509 125.7C190.096 126.017 190.132 126.533 190.167 126.74C190.257 127.282 190.617 127.732 191.082 127.887C191.351 127.977 191.496 128.268 191.406 128.536C191.334 128.751 191.134 128.887 190.919 128.887Z" fill="#7D453D"/>
<path d="M186.305 118.753C186.305 119.569 185.901 120.23 185.402 120.23C184.903 120.23 184.499 119.569 184.499 118.753C184.499 117.937 184.903 117.275 185.402 117.275C185.901 117.276 186.305 117.937 186.305 118.753Z" fill="#7D453D"/>
<path d="M197.322 118.643C197.322 119.459 196.917 120.12 196.418 120.12C195.92 120.12 195.515 119.459 195.515 118.643C195.515 117.827 195.92 117.166 196.418 117.166C196.917 117.166 197.322 117.827 197.322 118.643Z" fill="#7D453D"/>
<path d="M176.73 121.469C176.734 121.597 176.735 121.725 176.745 121.853C176.752 121.721 176.742 121.594 176.73 121.469Z" fill="#7D453D"/>
<path d="M199.33 115.049C199.315 115.038 199.3 115.029 199.283 115.021C198.008 114.413 195.567 114.696 195.464 114.708C195.279 114.73 195.147 114.898 195.169 115.083C195.191 115.267 195.359 115.399 195.544 115.377C195.567 115.375 197.894 115.105 198.993 115.63C199.161 115.71 199.362 115.639 199.442 115.471C199.514 115.319 199.463 115.141 199.33 115.049Z" fill="#7D453D"/>
<path d="M183.007 115.082C183.022 115.072 183.037 115.062 183.054 115.054C184.318 114.425 186.763 114.667 186.867 114.677C187.052 114.696 187.187 114.861 187.168 115.047C187.149 115.232 186.983 115.367 186.798 115.348C186.775 115.345 184.444 115.115 183.354 115.658C183.187 115.741 182.985 115.673 182.902 115.506C182.827 115.356 182.875 115.177 183.007 115.082Z" fill="#7D453D"/>
<path d="M209.088 114.424C209.576 110.689 209.495 105.821 207.077 102.76C204.638 99.6725 199.475 94.2849 192.286 94.2985C188.278 94.306 184.498 97.1487 184.498 97.1487C184.498 97.1487 182.584 96.2623 181.133 96.642C176.868 97.7594 174.495 101.587 173.271 105.577C172.532 107.985 172.272 109.805 172.656 112.302C173.066 114.965 173.625 117.602 174.183 120.237C174.253 120.57 174.328 120.912 174.515 121.196C174.951 121.858 176.713 121.983 176.904 122.885C177.042 123.534 177.201 124.256 177.381 125.042C177.587 121.933 177.84 118.673 177.964 115.485C178.057 115.091 178.163 114.702 178.307 114.33C178.902 112.794 180.695 107.809 185.027 106.599C186.8 108.527 196.418 112.425 203.728 113.713C204.625 113.871 204.196 115.895 204.302 116.689C204.397 117.4 204.534 118.123 204.651 118.853C204.771 120.784 204.912 122.708 205.036 124.578C205.216 123.791 205.375 123.069 205.512 122.42C205.637 121.834 206.935 121.4 207.282 120.923C207.955 119.998 208.244 118.381 208.532 117.288C208.77 116.384 208.959 115.42 209.088 114.424Z" fill="#71443D"/>
<path d="M195.749 122.111C195.721 122.724 195.301 123.263 195.03 123.791C194.927 123.989 195.24 124.14 195.342 123.941C195.582 123.474 195.885 123.027 196.022 122.523C196.064 122.493 196.095 122.448 196.095 122.383V122.088C196.095 121.861 195.758 121.892 195.749 122.111Z" fill="#E29F98"/>
<path d="M196.631 122.258C196.622 122.686 196.488 123.094 196.354 123.496C196.284 123.705 196.596 123.859 196.666 123.647C196.82 123.184 196.966 122.727 196.978 122.236C196.983 122.011 196.637 122.036 196.631 122.258Z" fill="#E29F98"/>
<path d="M198.103 121.816C198.084 122.459 197.825 123.07 197.664 123.685C197.608 123.902 197.949 123.967 198.005 123.752C198.174 123.103 198.429 122.472 198.449 121.794C198.456 121.57 198.11 121.595 198.103 121.816Z" fill="#E29F98"/>
<path d="M186.034 121.964V123.877C186.034 124.101 186.381 124.077 186.381 123.855V121.941C186.381 121.717 186.034 121.741 186.034 121.964Z" fill="#E29F98"/>
<path d="M184.71 122.111V124.024C184.71 124.248 185.056 124.224 185.056 124.002V122.088C185.056 121.864 184.71 121.888 184.71 122.111Z" fill="#E29F98"/>
<path d="M183.427 121.839C183.247 122.054 183.24 122.28 183.238 122.552C183.235 123.082 183.245 123.614 183.094 124.127C183.03 124.342 183.371 124.406 183.434 124.193C183.519 123.908 183.557 123.616 183.57 123.319C183.586 122.979 183.461 122.339 183.69 122.065C183.833 121.894 183.57 121.667 183.427 121.839Z" fill="#E29F98"/>
<path d="M178.541 129.853C178.541 129.853 183.783 124.785 190.393 124.309C197.004 123.833 203.14 127.081 203.14 127.081C203.14 127.081 202.061 134.192 201.939 135.211C201.816 136.231 197.782 140.745 191.316 140.745C184.851 140.745 181.466 137.21 181.466 137.21C181.466 137.21 178.96 132.366 178.541 129.853Z" fill="#D0E8CE"/>
<path d="M179.753 129.902C179.527 129.902 179.324 129.744 179.275 129.515C178.744 127.04 175.917 122.17 175.888 122.122C175.752 121.888 175.831 121.588 176.065 121.452C176.299 121.316 176.598 121.395 176.734 121.629C176.854 121.834 179.669 126.683 180.232 129.31C180.288 129.574 180.12 129.834 179.856 129.891C179.821 129.899 179.787 129.902 179.753 129.902Z" fill="#D0E8CE"/>
<path d="M201.853 129.902C201.819 129.902 201.784 129.898 201.75 129.891C201.486 129.834 201.317 129.574 201.374 129.31C201.936 126.683 204.751 121.834 204.871 121.629C205.007 121.396 205.306 121.317 205.54 121.452C205.774 121.588 205.852 121.888 205.717 122.122C205.688 122.171 202.861 127.04 202.331 129.515C202.281 129.745 202.079 129.902 201.853 129.902Z" fill="#D0E8CE"/>
<path d="M181.997 130.815C181.92 130.815 181.846 130.767 181.818 130.69C181.782 130.591 181.834 130.482 181.932 130.446C181.978 130.429 186.622 128.759 190.556 128.759C194.472 128.759 200.51 129.704 200.57 129.714C200.674 129.73 200.745 129.828 200.728 129.932C200.712 130.035 200.615 130.108 200.511 130.09C200.45 130.08 194.442 129.139 190.556 129.139C186.688 129.139 182.108 130.787 182.062 130.803C182.04 130.812 182.018 130.815 181.997 130.815Z" fill="#A8CEA6"/>
<path d="M181.997 134.036C181.92 134.036 181.846 133.988 181.818 133.911C181.782 133.812 181.834 133.704 181.932 133.668C181.978 133.651 186.622 131.98 190.556 131.98C194.472 131.98 200.51 132.926 200.57 132.936C200.674 132.952 200.745 133.049 200.728 133.153C200.712 133.257 200.615 133.328 200.511 133.311C200.45 133.302 194.442 132.36 190.556 132.36C186.688 132.36 182.108 134.008 182.062 134.025C182.04 134.033 182.018 134.036 181.997 134.036Z" fill="#A8CEA6"/>
<path d="M189.066 136.713C184.566 136.713 182.31 136.038 182.273 136.027C182.173 135.996 182.117 135.889 182.148 135.789C182.179 135.689 182.286 135.633 182.386 135.664C182.444 135.682 188.341 137.438 200.22 135.193C200.323 135.174 200.422 135.241 200.442 135.344C200.462 135.448 200.394 135.547 200.29 135.566C195.65 136.444 191.91 136.713 189.066 136.713Z" fill="#A8CEA6"/>
<path d="M205.681 112.283V113.495L209.581 113.373L209.505 110.953L205.661 111.059V112.283H205.681Z" fill="#FDF0EF"/>
<path d="M176.67 110.953L172.377 110.734L172.582 113.198L176.67 113.506V112.283V110.953Z" fill="#FDF0EF"/>
<path opacity="0.34" d="M205.661 113.496V113.521C205.661 113.521 205.501 113.532 205.2 113.55V137.959C205.2 139.507 202.789 142.282 202.789 142.282V113.68C200.097 113.81 195.774 113.972 190.937 113.972C186.142 113.972 182.011 113.813 179.446 113.683V142.479C179.446 142.479 177.034 140.188 177.034 137.443V113.545C176.798 113.53 176.67 113.521 176.67 113.521V136.854C176.67 141.189 180.184 144.702 184.518 144.702H197.833C202.167 144.702 205.681 141.189 205.681 136.854V113.495L205.661 113.496Z" fill="#CAE8F6"/>
<path d="M205.681 112.283H205.661V113.495H205.681V112.283Z" fill="#D5E2EF"/>
<path opacity="0.34" d="M205.681 112.283H205.661V113.495H205.681V112.283Z" fill="#CAE8F6"/>
<path opacity="0.34" d="M178.166 113.615L178.163 113.615C177.668 113.586 177.288 113.562 177.035 113.545V137.444C177.035 140.189 179.446 142.479 179.446 142.479V113.683C178.96 113.659 178.533 113.636 178.166 113.615Z" fill="#CAE8F6"/>
<path opacity="0.34" d="M178.166 113.615L178.163 113.615C177.668 113.586 177.288 113.562 177.035 113.545V137.444C177.035 140.189 179.446 142.479 179.446 142.479V113.683C178.96 113.659 178.533 113.636 178.166 113.615Z" fill="white"/>
<path opacity="0.34" d="M204.221 113.606C203.818 113.628 203.337 113.654 202.789 113.68V142.282C202.789 142.282 205.2 139.506 205.2 137.959V113.55C204.961 113.564 204.631 113.584 204.221 113.606L204.221 113.606Z" fill="#CAE8F6"/>
<path opacity="0.34" d="M204.221 113.606C203.818 113.628 203.337 113.654 202.789 113.68V142.282C202.789 142.282 205.2 139.506 205.2 137.959V113.55C204.961 113.564 204.631 113.584 204.221 113.606L204.221 113.606Z" fill="white"/>
<path d="M178.167 112.283H202.789V111.967H204.185L204.167 111.18L205.661 111.059V110.141C205.661 109.368 205.012 108.754 204.24 108.796C201.842 108.926 196.685 109.164 190.937 109.164C185.26 109.164 180.394 108.932 178.092 108.801C177.319 108.757 176.67 109.372 176.67 110.145V110.953L178.168 111.001L178.167 112.283Z" fill="#769ACD"/>
<path d="M204.185 111.966H205.201V112.283H205.661V111.059L204.167 111.18L204.185 111.966Z" fill="#769ACD"/>
<path d="M177.11 112.283C177.11 112.271 177.108 112.26 177.108 112.248C177.108 111.973 177.292 111.749 177.519 111.749C177.747 111.749 177.931 111.973 177.931 112.248C177.931 112.26 177.929 112.271 177.928 112.283H178.167L178.168 111L176.67 110.953V112.283H177.11Z" fill="#769ACD"/>
<path d="M178.167 112.283L178.167 113.015H179.446V113.683C182.011 113.813 186.142 113.972 190.937 113.972C195.774 113.972 200.098 113.81 202.789 113.68V112.283H178.167V112.283Z" fill="#769ACD"/>
<path d="M205.2 113.55C205.501 113.532 205.661 113.521 205.661 113.521V113.496L205.2 113.531V113.55Z" fill="#769ACD"/>
<path d="M177.035 113.533L176.67 113.506V113.52C176.67 113.52 176.798 113.53 177.035 113.545V113.533Z" fill="#769ACD"/>
<path d="M205.2 112.283V113.531L205.661 113.496V112.283H205.2Z" fill="#769ACD"/>
<path d="M177.035 113.015H178.166L178.167 112.283H177.928C177.913 112.542 177.737 112.747 177.519 112.747C177.302 112.747 177.126 112.542 177.11 112.283H176.67V113.507L177.035 113.533V113.015Z" fill="#769ACD"/>
<path d="M178.166 113.015L178.166 113.614C178.534 113.636 178.96 113.659 179.446 113.683V113.015H178.166Z" fill="#769ACD"/>
<path d="M177.035 113.533V113.545C177.288 113.562 177.668 113.586 178.163 113.614L177.035 113.533Z" fill="#769ACD"/>
<path d="M178.166 113.614L178.166 113.015H177.035V113.533L178.163 113.614C178.164 113.614 178.165 113.614 178.166 113.614Z" fill="#769ACD"/>
<path d="M204.185 111.967H202.789V112.283H204.191L204.185 111.967Z" fill="#769ACD"/>
<path d="M204.422 112.283C204.494 112.137 204.624 112.039 204.774 112.039C204.924 112.039 205.054 112.137 205.126 112.283H205.2V111.967H204.185L204.192 112.283H204.422Z" fill="#769ACD"/>
<path d="M204.222 113.606C204.631 113.584 204.961 113.564 205.201 113.55V113.531L204.222 113.606Z" fill="#769ACD"/>
<path d="M204.191 112.283H202.789V113.68C203.337 113.654 203.818 113.629 204.221 113.607L204.191 112.283Z" fill="#769ACD"/>
<path d="M205.186 112.537C205.186 112.813 205.001 113.036 204.774 113.036C204.547 113.036 204.362 112.813 204.362 112.537C204.362 112.444 204.385 112.358 204.422 112.283H204.192L204.221 113.606H204.222L205.201 113.531V112.283H205.127C205.163 112.358 205.186 112.444 205.186 112.537Z" fill="#769ACD"/>
<path d="M177.519 111.749C177.292 111.749 177.108 111.973 177.108 112.248C177.108 112.26 177.11 112.271 177.111 112.283H177.928C177.929 112.271 177.931 112.26 177.931 112.248C177.931 111.973 177.747 111.749 177.519 111.749Z" fill="#CAE8F6"/>
<path d="M177.519 112.747C177.737 112.747 177.913 112.542 177.928 112.283H177.111C177.125 112.542 177.302 112.747 177.519 112.747Z" fill="#CAE8F6"/>
<path d="M204.774 112.039C204.624 112.039 204.494 112.137 204.422 112.283H205.127C205.054 112.137 204.924 112.039 204.774 112.039Z" fill="#CAE8F6"/>
<path d="M204.774 113.036C205.001 113.036 205.186 112.813 205.186 112.538C205.186 112.444 205.163 112.358 205.126 112.283H204.422C204.385 112.358 204.362 112.444 204.362 112.538C204.362 112.813 204.546 113.036 204.774 113.036Z" fill="#CAE8F6"/>
<path d="M214.461 241.777L214.303 240.473H167.117C167.117 240.473 164.827 249.571 165.375 252.569C165.923 255.567 169.175 376.666 169.175 376.666C169.175 376.666 175.529 378.838 186.769 377.311L188.233 337.354L189.486 274.003L189.619 262.47L198.586 377.821C209.734 379.392 216.053 377.281 216.053 377.281C216.053 377.281 215.391 256.207 215.96 253.213C216.436 250.711 214.959 243.935 214.461 241.777Z" fill="#769ACD"/>
<path d="M227.973 165.753C224.397 160.001 216.301 155.825 210.332 153.386C210.256 153.362 210.174 153.33 210.082 153.285C209.263 152.953 208.487 152.655 207.771 152.391C205.652 151.685 203.193 151.041 203.193 151.041L201.294 225.385L208.023 312.249C215.53 313.313 225.875 308.229 225.875 308.229C226.431 283.547 218.032 222.844 218.032 222.844L219.225 182.645C224.356 189.619 233.111 212.593 233.254 213.315C233.397 214.037 224.104 223.34 224.104 223.34L235.452 232.409C235.452 232.409 247.164 218.255 247.989 214.414C248.815 210.574 233.982 175.415 227.973 165.753Z" fill="#FFF5E9"/>
<path d="M180.087 151.025C179.268 151.22 178.267 151.46 177.932 151.542C172.831 153.234 160.067 158.099 155.307 165.753C149.298 175.415 134.466 210.574 135.291 214.414C136.117 218.255 147.829 232.409 147.829 232.409L159.176 223.34C159.176 223.34 149.884 214.037 150.027 213.315C150.17 212.593 158.924 189.619 164.055 182.645L165.248 222.844C165.248 222.844 156.849 283.547 157.406 308.229C157.406 308.229 167.75 313.313 175.258 312.249L181.987 225.385L180.087 151.025Z" fill="#FFF5E9"/>
<path d="M158.804 223.638C160.111 225.084 163.401 228.678 163.931 228.816C164.04 228.844 164.215 228.872 164.438 228.906C165.58 229.079 167.991 229.407 169.246 230.725C170.745 232.301 178.249 241.581 178.249 241.581C178.249 241.581 176.098 242.646 173.935 240.898C171.771 239.15 170.772 238.1 170.772 238.1L170.616 240.21L162.999 240.244L162.558 239.789L152.115 228.984L158.804 223.638Z" fill="#80A5D5"/>
<path d="M162.999 240.244L173.086 240.199L174.26 241.139L162.883 241.19" fill="#DBD3C8"/>
<path d="M169.704 154.803L181.987 225.385" stroke="#DDD5C9" stroke-width="4.0434" stroke-miterlimit="10" stroke-linecap="round"/>
<path d="M161.548 190.672L161.548 190.673L161.548 190.672Z" fill="#5E5E5E"/>
<path d="M224.477 223.638C223.169 225.084 219.879 228.678 219.349 228.816C219.241 228.844 219.065 228.872 218.843 228.906C217.7 229.079 215.289 229.407 214.034 230.725C212.535 232.301 205.031 241.581 205.031 241.581C205.031 241.581 207.182 242.646 209.345 240.898C211.509 239.15 212.509 238.1 212.509 238.1L212.665 240.21L220.281 240.244L220.722 239.789L231.165 228.984L224.477 223.638Z" fill="#80A5D5"/>
<path d="M220.281 240.244L210.194 240.199L209.02 241.139L220.397 241.19" fill="#DBD3C8"/>
<path d="M141.948 224.955L142.357 225.495L152.845 216.789L152.056 215.927C152.155 216.037 141.948 224.955 141.948 224.955Z" fill="#DDD5C9"/>
<path d="M231.224 215.927L230.436 216.789L240.923 225.495L241.333 224.955C241.332 224.955 231.125 216.037 231.224 215.927Z" fill="#DDD5C9"/>
<path d="M213.577 154.803L201.294 225.385" stroke="#DDD5C9" stroke-width="4.0434" stroke-miterlimit="10" stroke-linecap="round"/>
<path d="M301.438 403.082C326.038 403.082 345.981 401.083 345.981 398.617C345.981 396.151 326.038 394.151 301.438 394.151C276.837 394.151 256.895 396.151 256.895 398.617C256.895 401.083 276.837 403.082 301.438 403.082Z" fill="#C2D5E6"/>
<path d="M269.336 380.137C269.336 380.137 268.184 382.778 265.206 385.225C262.214 387.685 257.395 389.956 256.329 391.929C254.202 395.867 255.67 398.398 258.802 400.02C261.933 401.642 275.81 401.775 278.706 400.02C281.602 398.266 289.183 389.795 288.619 387.644C288.055 385.492 286.806 379.265 286.806 379.265" fill="#79819B"/>
<path d="M285.223 387.36C283.908 389.988 282.522 392.553 280.268 394.505C278.097 396.385 275.447 397.382 272.675 398.006C269.714 398.673 266.876 398.829 263.881 398.252C261.023 397.702 258.296 396.532 255.847 394.973C255.282 394.613 254.835 395.554 255.396 395.911C258.032 397.59 260.952 398.748 264.021 399.34C267.077 399.928 269.994 399.633 273.007 398.993C276.022 398.353 278.788 397.153 281.125 395.13C283.412 393.15 284.828 390.475 286.161 387.811C286.461 387.211 285.523 386.759 285.223 387.36Z" fill="#6F7994"/>
<path d="M343.533 380.137C343.533 380.137 343.629 381.905 346.058 383.844C349.335 386.46 355.319 389.668 356.541 391.929C358.668 395.867 357.199 398.398 354.068 400.02C350.937 401.642 337.059 401.775 334.164 400.02C331.268 398.266 323.686 389.795 324.251 387.644C324.815 385.492 326.064 379.265 326.064 379.265" fill="#79819B"/>
<path d="M327.647 387.36C328.962 389.988 330.348 392.553 332.602 394.505C334.773 396.385 337.423 397.382 340.195 398.006C343.156 398.673 345.994 398.829 348.989 398.252C351.847 397.702 354.574 396.532 357.023 394.973C357.588 394.613 358.035 395.554 357.474 395.911C354.838 397.59 351.918 398.748 348.849 399.34C345.793 399.928 342.876 399.633 339.863 398.993C336.848 398.353 334.081 397.153 331.745 395.13C329.458 393.15 328.042 390.475 326.709 387.811C326.409 387.211 327.346 386.759 327.647 387.36Z" fill="#6F7994"/>
<path d="M368.218 195.132C367.315 188.91 362.824 183.784 362.146 177.945H356.335C355.897 175.702 355.483 173.508 355.108 171.406C351.889 153.349 337.58 139.028 331.979 135.284C326.378 131.54 324.725 127.457 324.683 126.151C324.641 124.845 324.609 118.795 323.543 104.31C322.476 89.8253 306.831 88.6368 306.831 88.6368H306.315C306.315 88.6368 290.67 89.8255 289.603 104.31C288.536 118.794 288.505 124.845 288.463 126.151C288.421 127.457 286.768 131.54 281.167 135.284C275.566 139.028 261.257 153.349 258.037 171.406C254.818 189.463 253.557 205.58 252.728 212.493C251.853 219.796 250.708 233.137 250.636 235.535C250.563 237.933 249.251 242.369 253.413 245.401C253.413 245.401 252.719 249.275 255.26 249.455C257.8 249.634 266.869 251.902 266.869 251.902C266.869 251.902 264.795 317.748 264.834 323.928C264.874 330.107 266.282 366.727 266.23 368.836C266.178 370.945 266.869 381.322 269.93 381.372C272.991 381.423 282.535 383.728 288.235 381.382C293.936 379.035 295.459 366.407 296.002 361.946C296.545 357.485 303.608 267.245 303.608 266.57C303.608 265.92 304.656 254.096 306.573 253.496C308.49 254.096 309.538 265.92 309.538 266.57C309.538 267.245 316.601 357.485 317.144 361.946C317.686 366.407 319.21 379.035 324.911 381.382C330.611 383.728 340.155 381.422 343.216 381.372C346.277 381.322 346.967 370.945 346.915 368.836C346.864 366.727 348.271 330.107 348.311 323.927C348.365 315.511 348.143 307.085 347.997 298.67C347.796 287.043 347.59 275.412 347.139 263.791C346.947 258.829 346.854 253.861 346.517 248.905C346.357 246.546 346.44 243.763 345.76 241.49C345.327 240.04 344.216 238.288 344.388 236.702C345.18 229.426 344.043 228.298 344.331 220.989C344.346 220.608 343.731 213.65 343.844 209.463C347.983 214.065 361.411 220.434 365.099 215.319C369.259 209.551 369.195 201.87 368.218 195.132Z" fill="#FFF5E9"/>
<path d="M268.199 249.016C268.199 249.016 270.242 254.998 270.895 256.354C271.549 257.71 272.724 261.142 271.458 260.902C270.193 260.661 266.125 256.195 266.125 256.195C266.125 256.195 265.396 255.636 265.521 257.072C265.646 258.508 267.779 271.414 266.646 271.499C265.512 271.584 264.097 269.515 264.097 269.515C264.097 269.515 264.78 271.265 264.097 271.666C263.413 272.067 260.781 270.073 260.781 270.073C260.781 270.073 262.217 271.531 261.738 271.719C261.259 271.907 255.936 270.689 254.799 265.684C253.661 260.679 254.799 249.495 254.799 249.495" fill="#769ACD"/>
<path d="M265.088 269.933C264.556 269.307 264.227 268.264 264.067 267.464C263.821 266.236 263.595 265.009 263.382 263.775C263.205 262.753 262.973 261.742 262.813 260.718C262.633 259.568 262.209 258.464 262.154 257.297C262.123 256.624 261.084 256.694 261.115 257.364C261.17 258.542 261.616 259.624 261.774 260.785C261.949 262.072 262.27 263.337 262.471 264.62C262.637 265.685 262.869 266.739 263.08 267.796C263.26 268.694 263.622 269.805 264.225 270.515C264.655 271.021 265.522 270.444 265.088 269.933Z" fill="#6089C4"/>
<path d="M261.523 270.662C260.841 269.069 260.254 267.463 259.693 265.826C259.417 265.022 259.274 264.175 259.132 263.341C258.969 262.38 258.575 261.504 258.528 260.52C258.495 259.848 257.456 259.918 257.489 260.587C257.526 261.361 257.724 262.075 257.94 262.816C258.198 263.706 258.3 264.642 258.525 265.542C258.994 267.412 259.78 269.227 260.537 270.994C260.799 271.608 261.788 271.279 261.523 270.662Z" fill="#6089C4"/>
<path d="M276.941 176.172C276.656 174.546 275.988 172.915 275.467 171.353C275.227 170.634 275.049 169.895 274.637 169.254C274.204 168.581 273.656 167.978 273.584 167.145C273.526 166.475 272.487 166.543 272.544 167.212C272.666 168.623 273.785 169.6 274.22 170.903C274.785 172.599 275.385 174.298 275.85 176.024C276.081 176.885 276.016 177.788 276.016 178.669C276.016 179.133 276.038 179.537 275.85 179.973C275.702 180.313 275.429 180.605 275.331 180.967C274.98 182.26 275.292 183.607 275.322 184.919C275.324 184.985 275.337 185.042 275.357 185.094C275.322 186.077 275.087 187.038 275.064 188.02C275.045 188.8 275.048 189.582 275.051 190.362C274.796 192.183 274.906 194.043 274.958 195.881C275.033 198.607 275 201.363 274.765 204.08C274.531 206.766 273.938 209.437 273.584 212.111C273.23 214.786 272.957 217.471 272.745 220.16C272.341 225.282 272.454 230.351 272.533 235.481C272.553 236.758 272.59 238.003 272.149 239.22C271.803 240.175 271.189 241.017 270.608 241.84C269.984 242.724 269.376 243.621 268.819 244.55C268.242 245.513 267.862 246.529 267.114 247.388C266.673 247.894 267.463 248.573 267.904 248.066C268.562 247.311 268.991 246.515 269.417 245.626C269.945 244.523 270.696 243.513 271.399 242.517C272.516 240.936 273.435 239.394 273.567 237.418C273.732 234.963 273.501 232.444 273.453 229.986C273.398 227.17 273.487 224.375 273.678 221.566C273.862 218.876 274.127 216.193 274.453 213.517C274.797 210.692 275.369 207.894 275.705 205.072C276.008 202.529 276.012 199.957 276.014 197.4C276.015 195.52 275.841 193.605 275.959 191.721C276.04 191.633 276.094 191.515 276.094 191.365V190.434C276.158 190.004 276.241 189.575 276.353 189.151C276.424 188.881 276.288 188.691 276.094 188.606V188.311C276.094 187.185 276.373 186.079 276.4 184.951C276.402 184.864 276.385 184.789 276.356 184.727C276.334 184.077 276.262 183.431 276.222 182.782C276.164 181.849 276.348 181.235 276.788 180.424C277.094 179.86 277.056 179.222 277.056 178.603C277.056 177.785 277.083 176.979 276.941 176.172Z" fill="#E0E5F0"/>
<path d="M317.666 105.987C316.927 105.899 316.189 105.812 315.45 105.725C313.647 105.511 311.843 105.298 310.04 105.085C308.244 104.872 306.483 104.599 304.669 104.814C304.157 104.875 303.644 104.935 303.132 104.996C301.357 105.206 299.582 105.416 297.807 105.626C296.79 105.746 295.773 105.866 294.756 105.987C294.756 105.987 293.978 112.359 294.756 113.193C295.534 114.026 302.848 114.313 306.363 113.955C309.877 114.313 316.927 114.107 317.666 113.193C318.404 112.278 317.666 105.987 317.666 105.987Z" fill="url(#paint0_linear_5_636)"/>
<path d="M300.864 110.683C301.459 110.658 301.915 110.003 301.883 109.22C301.85 108.436 301.341 107.822 300.745 107.847C300.15 107.871 299.694 108.526 299.727 109.31C299.759 110.093 300.268 110.707 300.864 110.683Z" fill="#684E40"/>
<path d="M311.148 110.683C311.743 110.658 312.199 110.003 312.166 109.22C312.134 108.436 311.624 107.822 311.029 107.847C310.434 107.871 309.977 108.526 310.01 109.31C310.043 110.093 310.552 110.707 311.148 110.683Z" fill="#684E40"/>
<path d="M293.26 104.048L289.569 104.65L289.566 105.51L293.26 104.93" fill="#769ACD"/>
<path d="M318.287 103.316L323.541 103.919L323.545 104.779L318.287 104.198" fill="#769ACD"/>
<path d="M306.382 111.161C304.853 111.161 294.756 113.193 294.756 113.193C294.756 113.193 295.306 121.384 296.022 122.998C296.61 124.322 299.933 126.272 306.553 126.272C313.173 126.272 316.155 124.322 316.742 122.998C317.459 121.384 317.76 112.579 317.76 112.579C317.76 112.579 307.911 111.161 306.382 111.161Z" fill="white"/>
<path d="M318.355 105.097L318.454 105.922C319.491 106.518 319.176 111.481 318.828 112.716C318.289 114.626 316.872 114.671 315.114 114.671C313.045 114.672 310.733 114.721 308.892 113.56C308.429 113.268 307.388 112.334 306.34 112.341C305.34 112.348 304.332 113.281 303.89 113.56C302.049 114.721 299.737 114.672 297.668 114.671C295.91 114.671 294.493 114.626 293.954 112.716C293.606 111.481 293.188 107.122 294.226 106.526L294.324 105.701C291.273 105.446 291.964 114.85 294.496 115.909C296.182 116.614 299.18 116.213 300.924 115.911C301.939 115.735 303.518 115.422 304.373 114.834C305.416 114.115 307.366 114.115 308.409 114.834C309.264 115.422 310.843 115.735 311.858 115.911C313.602 116.213 316.6 116.614 318.286 115.909C320.818 114.85 321.406 104.842 318.355 105.097Z" fill="#A2A2A3"/>
<path d="M292.843 106.55L319.579 105.907L318.985 102.652L292.861 103.104L292.843 106.55Z" fill="#769ACD"/>
<path d="M312.004 116.795C309.46 116.385 306.937 116.257 304.366 116.432C303.17 116.513 302.003 116.803 300.815 116.898C300.419 116.93 299.783 117.004 299.716 117.483C299.679 117.749 300.087 117.829 300.125 117.563C300.156 117.338 301.838 117.153 301.965 117.129C303.03 116.926 304.122 116.862 305.202 116.795C307.452 116.655 309.703 116.845 311.925 117.204C312.19 117.247 312.27 116.838 312.004 116.795Z" fill="#E4E0DB"/>
<path d="M314.919 118.014C312.184 117.889 309.477 118.298 306.755 118.483C303.9 118.677 301.02 118.639 298.162 118.712C297.892 118.719 297.921 119.134 298.188 119.127C300.92 119.058 303.659 119.049 306.391 118.921C309.25 118.786 312.075 118.299 314.946 118.429C315.214 118.441 315.184 118.026 314.919 118.014Z" fill="#E4E0DB"/>
<path d="M312.999 119.759C310.768 120.014 308.538 120.269 306.298 120.428C305.134 120.51 303.966 120.557 302.801 120.602C301.733 120.644 300.241 120.88 299.225 120.478C298.977 120.379 298.794 120.754 299.044 120.853C299.741 121.129 300.549 121.048 301.284 121.045C302.57 121.04 303.855 120.973 305.139 120.913C307.777 120.791 310.403 120.475 313.025 120.175C313.292 120.144 313.265 119.729 312.999 119.759Z" fill="#E4E0DB"/>
<path d="M335.907 155.903L331.675 200.018H360.867L364.291 155.903H335.907Z" fill="#6680BE"/>
<path d="M367.182 191.479L367.18 191.48C367.166 191.376 367.152 191.273 367.133 191.171C366.366 189.387 365.396 187.083 365.141 186.246C364.702 184.807 363.239 181.487 362.472 182.522C361.704 183.556 361.742 189.598 361.742 189.598C361.742 189.598 361.585 190.502 360.704 189.362C359.822 188.222 352.641 177.288 351.75 177.994C350.859 178.7 351.221 181.181 351.221 181.181C351.221 181.181 350.537 179.43 349.763 179.599C348.988 179.768 348.405 183.018 348.405 183.018C348.405 183.018 348.472 180.973 347.993 181.159C347.514 181.345 344.426 185.849 346.983 190.3C348.375 192.724 351.504 196.035 354.066 198.55C354.403 198.869 355.242 199.607 356.366 200.215L356.366 200.215C356.366 200.215 359.613 202.952 362.951 200.215C366.289 197.478 368.074 194.66 367.182 191.479Z" fill="#769ACD"/>
<path d="M355.824 154.042H345.98V157.792H355.824V154.042Z" fill="white"/>
<path d="M309.664 237.429C309.664 203.811 309.351 169.466 308.823 135.635C315.144 135.623 324.079 135.294 331.068 134.646C330.245 134.045 329.518 133.439 328.88 132.842C315.106 134.025 298.739 133.655 285.365 131.733C284.839 132.307 284.235 132.896 283.542 133.49C290.882 134.626 298.224 135.324 305.652 135.583C305.555 169.42 306.583 203.742 307.403 237.569C296.192 237.372 284.848 236.349 273.616 234.683C273.632 235.459 273.625 236.233 273.587 237.002C298.18 240.179 319.784 241.069 344.34 237.55C344.382 236.829 344.421 236.108 344.457 235.387C331.736 237.251 321.982 237.275 309.664 237.429Z" fill="#769ACD"/>
<path d="M351.666 180.201C351.699 181.022 352.165 182.012 352.589 182.708C353.241 183.777 353.907 184.833 354.586 185.885C355.149 186.756 355.664 187.656 356.241 188.518C356.888 189.485 357.324 190.584 358.076 191.479C358.509 191.995 357.697 192.648 357.266 192.135C356.508 191.231 356.102 190.133 355.431 189.173C354.687 188.108 354.066 186.961 353.344 185.881C352.745 184.985 352.2 184.053 351.639 183.133C351.162 182.351 350.675 181.289 350.637 180.358C350.61 179.695 351.639 179.531 351.666 180.201Z" fill="#6089C4"/>
<path d="M348.551 182.081C349.13 183.715 349.787 185.293 350.484 186.878C350.826 187.656 351.295 188.375 351.757 189.085C352.288 189.902 352.592 190.813 353.224 191.568C353.657 192.084 352.845 192.737 352.415 192.223C351.918 191.629 351.58 190.969 351.236 190.279C350.822 189.449 350.263 188.693 349.818 187.878C348.895 186.185 348.242 184.319 347.6 182.506C347.378 181.877 348.327 181.449 348.551 182.081Z" fill="#6089C4"/>
<path d="M403.625 383.844L402.799 375.377L390.89 374.803L390.053 383.844H403.625Z" fill="#EFA895"/>
<path d="M406.432 392.395C405.993 390.859 404.534 385.438 403.548 382.962C402.912 383.427 402.206 383.591 401.506 383.527C401.379 383.516 401.252 383.496 401.126 383.47C401.12 383.469 401.115 383.468 401.11 383.467C400.717 383.383 400.33 383.23 399.964 383.019C399.961 383.017 399.959 383.016 399.957 383.015C399.846 382.951 399.737 382.88 399.63 382.806C399.604 382.787 399.578 382.768 399.552 382.749C399.469 382.689 399.388 382.626 399.309 382.56C399.277 382.533 399.245 382.507 399.213 382.479C399.138 382.414 399.065 382.345 398.993 382.275C398.964 382.247 398.935 382.219 398.906 382.19C398.809 382.091 398.715 381.988 398.625 381.88C398.581 381.827 398.544 381.77 398.506 381.714L396.856 381.715L394.587 381.714C394.586 381.715 394.585 381.716 394.585 381.717H394.584C394.484 381.907 394.347 382.082 394.18 382.234C394.125 382.285 394.065 382.333 394.003 382.379C393.435 382.796 392.853 383.114 392.247 383.331V383.333C391.527 383.589 390.772 383.695 389.962 383.628C388.995 386.303 387.732 390.985 387.329 392.396C386.744 394.443 385.135 398.761 387.329 399.6C388.613 400.091 393.253 400.007 396.881 399.854C400.509 400.008 405.148 400.091 406.432 399.6C408.626 398.761 407.017 394.443 406.432 392.395Z" fill="#79819B"/>
<path d="M389.229 341.415C389.02 361.012 388.845 376.03 388.845 376.03C388.845 376.03 395.11 378.447 406.401 377.351L407.551 342.675L389.229 341.415Z" fill="#79819B"/>
<path d="M436.067 383.5V375.032L447.976 374.459L449.639 383.5H436.067Z" fill="#EFA895"/>
<path d="M433.261 392.051C433.7 390.515 435.16 385.094 436.145 382.618C436.781 383.083 437.487 383.246 438.187 383.183C438.314 383.171 438.441 383.152 438.567 383.126C438.573 383.125 438.578 383.124 438.584 383.122C438.976 383.038 439.363 382.885 439.73 382.674C439.732 382.673 439.734 382.672 439.736 382.67C439.847 382.606 439.956 382.535 440.063 382.461C440.089 382.443 440.115 382.424 440.141 382.404C440.224 382.344 440.305 382.281 440.384 382.215C440.416 382.188 440.448 382.162 440.48 382.135C440.555 382.07 440.628 382.001 440.7 381.931C440.729 381.902 440.758 381.875 440.787 381.846C440.884 381.746 440.978 381.644 441.068 381.536C441.112 381.483 441.149 381.426 441.187 381.369L442.837 381.37L445.106 381.369C445.107 381.37 445.108 381.371 445.108 381.372C445.208 381.562 445.346 381.737 445.512 381.889C445.568 381.94 445.627 381.988 445.689 382.034C446.258 382.451 446.84 382.769 447.446 382.986V382.988C448.166 383.244 448.921 383.35 449.731 383.283C450.698 385.958 451.961 390.641 452.364 392.051C452.949 394.098 454.557 398.416 452.364 399.256C451.08 399.746 446.44 399.663 442.812 399.509C439.184 399.663 434.544 399.746 433.261 399.256C431.067 398.417 432.676 394.099 433.261 392.051Z" fill="#79819B"/>
<path d="M448.36 341.709C449.306 361.089 450.652 376.269 450.652 376.269C450.652 376.269 444.236 378.25 433.046 376.382L429.886 341.709H448.36Z" fill="#79819B"/>
<path d="M469.129 217.373C471.082 214.528 463.74 194.06 459.024 180.901C459 180.892 458.976 180.882 458.952 180.872C449.012 156.637 441.503 155.469 441.503 155.469C441.336 155.38 441.169 155.293 441.002 155.209C432.62 150.959 424.054 151.132 424.054 151.132L416.703 153.702L409.352 151.132C409.352 151.132 400.785 150.959 392.403 155.209C391.613 155.61 390.824 156.05 390.043 156.534C388.595 157.531 386.739 159.152 385.244 161.587C384.745 162.491 384.206 163.595 383.671 164.916C383.558 165.24 383.452 165.511 383.354 165.729C382.529 167.919 381.739 170.64 381.152 173.969C380.974 174.978 380.84 176.238 380.743 177.695C377.692 200.604 376.219 253.232 376.219 253.232L388.635 252.968L385.641 342.193C385.641 342.193 394.497 345.572 417.383 345.572C440.269 345.572 451.775 342.193 451.775 342.193L444.307 240.644L448.807 245.274C448.807 245.274 466.689 220.925 469.129 217.373ZM455.195 210.181C454.787 211.049 449.541 218.449 444.978 224.829C445.521 218.567 446.702 204.668 447.546 192.572C451.296 200.166 455.617 209.286 455.195 210.181Z" fill="#FFF5E9"/>
<path d="M386.52 253.143H378.753C378.594 256.598 378.223 265.988 378.816 267.597C379.545 269.576 385.066 275.514 385.69 276.034C386.316 276.555 387.388 275.771 387.388 275.771L387.531 271.091C387.531 271.091 384.753 266.764 384.649 264.889C384.545 263.014 385.17 260.514 385.17 260.514C385.17 260.514 385.548 266.459 386.068 267.918C386.589 269.376 388.004 269.922 388.004 269.922C388.004 269.922 387.982 257.493 387.982 256.139C387.982 255.238 387.107 253.923 386.52 253.143Z" fill="#EFA895"/>
<path d="M405.319 151.563L417.459 206.695L429.923 151.587L425.854 151.138L417.615 168.969L409.389 151.121" fill="#9FC1E6"/>
<path d="M389.544 192.622C391.222 192.41 387.954 295.356 387.212 295.356C386.471 295.356 388.254 253.26 389.026 222.267C389.41 206.858 388.987 192.692 389.544 192.622Z" fill="#DDD5C9"/>
<path d="M456.071 209.297L446.143 189.007L441.401 178.119C441.401 178.119 441.088 177.516 440.736 177.66C440.383 177.803 440.713 178.494 440.713 178.494L455.081 209.142L437.373 233.533L437.927 234.043L455.433 210.339L455.403 210.271L456.071 209.297Z" fill="#DDD5C9"/>
<path d="M416.732 206.462V345.572H418.033V205.343C418.033 205.343 416.732 204.02 416.732 206.462Z" fill="#DDD5C9"/>
<path d="M415.23 103.872C415.23 103.872 403.136 101.413 403.825 122.735L403.965 122.755C403.988 122.901 404.012 123.048 404.037 123.205L405.281 129.815C405.745 131.879 406.259 133.687 406.757 134.452C407.095 134.973 407.492 135.604 407.962 136.268H408.653L409.351 151.132L417.406 158.387H417.803L425.816 151.132L426.382 136.235C427.049 135.123 427.625 133.769 428.081 132.112C428.311 131.278 428.524 130.481 428.723 129.718L430.223 123.202C430.223 123.202 430.316 120.024 430.257 118.864C430.257 118.864 431.935 102.275 415.23 103.872Z" fill="#EFA895"/>
<path d="M446.81 276.009H430.879L430.352 247.154H444.762L444.691 245.575H429.391L428.921 246.051V247.154H428.945V274.921L428.921 274.906V278.398L446.933 278.337L446.81 276.009Z" fill="#DDD5C9"/>
<path d="M387.997 276.009H403.928L404.455 247.154H390.045L390.117 245.575H405.416L405.887 246.051V247.154H405.863V274.921L405.887 274.906V278.398L387.875 278.337L387.997 276.009Z" fill="#DDD5C9"/>
<path d="M441.304 237.498C440.525 238.002 439.714 238.581 439.117 239.279C438.952 239.452 438.779 239.687 438.696 239.803L438.695 239.802C438.668 239.842 438.641 239.882 438.611 239.921C438.397 240.199 438.255 240.388 437.979 240.571C437.296 241.195 436.248 241.801 435.776 242.075C434.731 242.681 433.672 243.036 432.592 243.481C431.314 244.008 430.07 244.678 429.147 245.639H429.167C428.261 246.435 427.217 247.509 427.334 247.773C427.725 248.658 430.456 247.298 430.932 247.05C431.751 246.624 432.708 246.076 433.526 245.467C433.677 245.44 433.818 245.434 433.943 245.457C433.943 245.518 433.935 245.578 433.925 245.639H443.945C443.982 245.639 444.017 245.643 444.053 245.645C444.992 244.832 446.001 243.944 446.713 242.96L441.304 237.498Z" fill="#EFA895"/>
<path d="M409.351 151.132C407.727 151.084 405.239 151.408 405.239 151.408L412.527 170.805L417.59 158.273L409.351 151.132Z" fill="#9FC1E6"/>
<path d="M425.816 151.132L417.578 158.273L422.641 170.805L429.886 151.577L425.816 151.132Z" fill="#9FC1E6"/>
<path d="M420.844 162.773L418.584 157.18H416.181L413.921 162.773L415.703 167.353L413.753 189.864L417.152 205.301H417.762L421.305 189.691L419.062 167.353L420.844 162.773Z" fill="#769ACD"/>
<path d="M435.226 188.974C435.124 165.803 431.453 155.458 429.489 151.533C429.344 151.02 428.496 150.756 428.087 150.71C427.662 150.662 426.839 150.897 427.005 151.262C428.268 153.286 433.088 162.638 433.204 188.976C432.094 189.389 431.3 190.456 431.3 191.708C431.3 193.317 432.609 194.626 434.218 194.626C435.827 194.626 437.136 193.317 437.136 191.708C437.136 190.454 436.339 189.386 435.226 188.974ZM434.218 192.605C433.724 192.605 433.322 192.203 433.322 191.708C433.322 191.214 433.724 190.812 434.218 190.812C434.712 190.812 435.114 191.214 435.114 191.708C435.114 192.203 434.712 192.605 434.218 192.605Z" fill="#929497"/>
<path d="M407.451 150.536C407.083 150.553 406.624 150.639 406.207 151.301C404.22 155.371 400.569 165.97 400.468 188.765C397.11 189.923 396.966 196.465 396.965 197.492L396.861 199.452C396.846 199.729 396.946 200 397.137 200.201C397.328 200.402 397.593 200.516 397.87 200.516H400.138C400.696 200.516 401.149 200.064 401.149 199.505C401.149 198.947 400.696 198.494 400.138 198.494H398.936L399.049 196.357C399.051 196.313 399.046 196.271 399.043 196.228C399.233 193.89 399.93 190.647 401.502 190.608C401.825 190.601 402.079 190.709 402.333 190.961C403.282 191.904 403.705 194.399 403.809 196.33L403.847 198.775H403.403C402.845 198.775 402.392 199.228 402.392 199.786C402.392 200.344 402.844 200.797 403.403 200.797H404.874C405.145 200.797 405.404 200.688 405.594 200.495C405.784 200.302 405.889 200.041 405.884 199.77L405.85 197.564H405.853C405.856 197.409 405.861 196.932 405.829 196.277L405.826 196.063C405.825 196.014 405.817 195.966 405.809 195.918C405.687 194.018 405.251 191.013 403.76 189.529C403.385 189.156 402.955 188.893 402.49 188.741C402.61 162.957 407.307 153.371 408.643 151.139C408.776 150.506 407.885 150.517 407.451 150.536Z" fill="#929497"/>
<path d="M527.15 112.283V113.495L530.055 113.404L529.857 110.984L527.13 111.059V112.283H527.15Z" fill="#FDF0EF"/>
<path d="M498.14 110.953L494.665 110.776L494.515 113.233L498.14 113.506V112.283V110.953Z" fill="#FDF0EF"/>
<path opacity="0.34" d="M527.13 113.496V113.521C527.13 113.521 526.97 113.532 526.67 113.55V137.959C526.67 139.507 524.258 142.282 524.258 142.282V113.68C521.567 113.81 517.243 113.972 512.406 113.972C507.612 113.972 503.48 113.813 500.915 113.683V142.479C500.915 142.479 498.504 140.188 498.504 137.443V113.545C498.268 113.53 498.14 113.521 498.14 113.521V136.854C498.14 141.189 501.653 144.702 505.988 144.702H519.302C523.637 144.702 527.15 141.189 527.15 136.854V113.495L527.13 113.496Z" fill="#CAE8F6"/>
<path d="M527.15 112.283H527.13V113.495H527.15V112.283Z" fill="#D5E2EF"/>
<path opacity="0.34" d="M527.15 112.283H527.13V113.495H527.15V112.283Z" fill="#CAE8F6"/>
<path opacity="0.34" d="M499.635 113.615L499.632 113.615C499.137 113.586 498.757 113.562 498.504 113.545V137.444C498.504 140.189 500.916 142.479 500.916 142.479V113.683C500.429 113.659 500.003 113.636 499.635 113.615Z" fill="#CAE8F6"/>
<path opacity="0.34" d="M499.635 113.615L499.632 113.615C499.137 113.586 498.757 113.562 498.504 113.545V137.444C498.504 140.189 500.916 142.479 500.916 142.479V113.683C500.429 113.659 500.003 113.636 499.635 113.615Z" fill="white"/>
<path opacity="0.34" d="M525.69 113.606C525.287 113.628 524.806 113.654 524.258 113.68V142.282C524.258 142.282 526.67 139.506 526.67 137.959V113.55C526.43 113.564 526.1 113.584 525.691 113.606L525.69 113.606Z" fill="#CAE8F6"/>
<path opacity="0.34" d="M525.69 113.606C525.287 113.628 524.806 113.654 524.258 113.68V142.282C524.258 142.282 526.67 139.506 526.67 137.959V113.55C526.43 113.564 526.1 113.584 525.691 113.606L525.69 113.606Z" fill="white"/>
<path d="M499.636 112.283H524.258V111.967H525.654L525.636 111.18L527.13 111.059V110.141C527.13 109.368 526.482 108.754 525.71 108.796C523.311 108.926 518.154 109.164 512.406 109.164C506.729 109.164 501.864 108.932 499.561 108.801C498.788 108.757 498.14 109.372 498.14 110.145V110.953L499.637 111.001L499.636 112.283Z" fill="#769ACD"/>
<path d="M525.654 111.966H526.67V112.283H527.13V111.059L525.636 111.18L525.654 111.966Z" fill="#769ACD"/>
<path d="M498.58 112.283C498.579 112.271 498.577 112.26 498.577 112.248C498.577 111.973 498.761 111.749 498.989 111.749C499.216 111.749 499.4 111.973 499.4 112.248C499.4 112.26 499.398 112.271 499.398 112.283H499.636L499.637 111L498.14 110.953V112.283H498.58Z" fill="#769ACD"/>
<path d="M499.636 112.283L499.636 113.015H500.916V113.683C503.48 113.813 507.612 113.972 512.406 113.972C517.243 113.972 521.567 113.81 524.258 113.68V112.283H499.636V112.283Z" fill="#769ACD"/>
<path d="M526.67 113.55C526.97 113.532 527.13 113.521 527.13 113.521V113.496L526.67 113.531V113.55Z" fill="#769ACD"/>
<path d="M498.504 113.533L498.14 113.506V113.52C498.14 113.52 498.268 113.53 498.504 113.545V113.533Z" fill="#769ACD"/>
<path d="M526.67 112.283V113.531L527.13 113.496V112.283H526.67Z" fill="#769ACD"/>
<path d="M498.504 113.015H499.636L499.636 112.283H499.398C499.382 112.542 499.206 112.747 498.989 112.747C498.771 112.747 498.595 112.542 498.58 112.283H498.14V113.507L498.504 113.533L498.504 113.015Z" fill="#769ACD"/>
<path d="M499.636 113.015L499.635 113.614C500.003 113.636 500.429 113.659 500.916 113.683V113.015H499.636Z" fill="#769ACD"/>
<path d="M498.504 113.533V113.545C498.757 113.562 499.138 113.586 499.632 113.614L498.504 113.533Z" fill="#769ACD"/>
<path d="M499.635 113.614L499.636 113.015H498.504V113.533L499.632 113.614C499.633 113.614 499.634 113.614 499.635 113.614Z" fill="#769ACD"/>
<path d="M525.654 111.967H524.258V112.283H525.661L525.654 111.967Z" fill="#769ACD"/>
<path d="M525.891 112.283C525.963 112.137 526.093 112.039 526.243 112.039C526.394 112.039 526.524 112.137 526.596 112.283H526.67V111.967H525.654L525.661 112.283H525.891Z" fill="#769ACD"/>
<path d="M525.691 113.606C526.1 113.584 526.43 113.564 526.67 113.55V113.531L525.691 113.606Z" fill="#769ACD"/>
<path d="M525.661 112.283H524.258V113.68C524.806 113.654 525.287 113.629 525.691 113.607L525.661 112.283Z" fill="#769ACD"/>
<path d="M526.655 112.537C526.655 112.813 526.471 113.036 526.243 113.036C526.016 113.036 525.832 112.813 525.832 112.537C525.832 112.444 525.854 112.358 525.891 112.283H525.661L525.691 113.606H525.691L526.67 113.531V112.283H526.596C526.632 112.358 526.655 112.444 526.655 112.537Z" fill="#769ACD"/>
<path d="M498.989 111.749C498.761 111.749 498.577 111.973 498.577 112.248C498.577 112.26 498.579 112.271 498.58 112.283H499.398C499.398 112.271 499.4 112.26 499.4 112.248C499.4 111.973 499.216 111.749 498.989 111.749Z" fill="#CAE8F6"/>
<path d="M498.989 112.747C499.206 112.747 499.383 112.542 499.398 112.283H498.58C498.595 112.542 498.771 112.747 498.989 112.747Z" fill="#CAE8F6"/>
<path d="M526.243 112.039C526.093 112.039 525.963 112.137 525.891 112.283H526.596C526.524 112.137 526.394 112.039 526.243 112.039Z" fill="#CAE8F6"/>
<path d="M526.243 113.036C526.471 113.036 526.655 112.813 526.655 112.538C526.655 112.444 526.632 112.358 526.596 112.283H525.891C525.854 112.358 525.831 112.444 525.831 112.538C525.832 112.813 526.016 113.036 526.243 113.036Z" fill="#CAE8F6"/>
<path opacity="0.17" d="M317.315 112.716C316.776 114.626 315.36 114.671 313.601 114.672C311.533 114.672 309.22 114.721 307.379 113.56C306.925 113.274 305.884 112.336 304.85 112.341C303.823 112.346 302.805 113.291 302.377 113.56C300.537 114.721 298.224 114.672 296.155 114.672C294.397 114.671 292.981 114.626 292.442 112.716C292.093 111.482 291.675 107.122 292.713 106.526L292.714 106.517L316.973 105.934L317.044 106.526C318.082 107.122 317.663 111.482 317.315 112.716Z" fill="#769ACD"/>
<path opacity="0.34" d="M295.909 114.116C295.909 114.116 294.336 113.749 293.96 112.992C293.584 112.234 293.492 111.263 293.492 109.554C293.492 107.846 294.005 106.635 294.005 106.635H295.811L295.909 114.116Z" fill="white"/>
<path opacity="0.34" d="M314.475 114.116C314.475 114.116 316.048 113.749 316.424 112.992C316.8 112.234 316.892 111.263 316.892 109.554C316.892 107.846 316.379 106.635 316.379 106.635H314.573L314.475 114.116Z" fill="white"/>
<path d="M419.962 135.625C418.278 135.965 416.104 136.21 414.76 135.916C413.426 135.624 412.708 136.128 413.026 137.507C413.028 137.516 413.028 137.522 413.03 137.531C413.364 138.93 415.224 140.233 417.448 139.955C419.475 139.702 421.417 138.37 421.666 137.084C421.69 136.959 421.704 136.83 421.694 136.691C421.655 136.12 421.645 135.285 419.962 135.625Z" fill="#573B2A"/>
<path d="M93.554 401.287C112.761 401.287 128.331 399.69 128.331 397.719C128.331 395.749 112.761 394.152 93.554 394.152C74.3474 394.152 58.7773 395.749 58.7773 397.719C58.7773 399.69 74.3474 401.287 93.554 401.287Z" fill="#C2D5E6"/>
<path d="M79.7999 384.539L80.2125 376.131L68.9416 374.92L67.199 384.539H79.7999Z" fill="#EFA895"/>
<path d="M81.926 393.021C81.6134 391.122 81.3891 386.149 79.7223 383.656C78.3529 384.657 76.626 384.108 75.09 383.9C74.2745 383.789 73.3671 383.626 72.8845 382.959C72.6678 382.661 72.5671 382.294 72.4974 381.931C72.474 381.811 72.4429 381.673 72.3351 381.614C72.2783 381.583 72.2105 381.58 72.1456 381.579C70.4876 381.541 68.8269 381.622 67.1805 381.821C67.0767 381.834 66.9676 381.848 66.8838 381.911C66.79 381.981 66.7456 382.097 66.7054 382.207C66.26 383.427 66.0434 384.695 65.334 385.78C64.7956 386.604 64.2009 387.392 63.6009 388.171C62.0389 390.201 60.3923 392.164 58.7771 394.152C58.1247 394.954 57.4705 395.757 56.8523 396.587C56.5411 397.004 56.0994 397.488 55.9527 398.002C55.3678 400.049 57.0016 400.482 60.7905 400.668C62.1634 400.735 76.4156 400.32 77.79 400.295C82.1407 400.214 82.272 395.122 81.926 393.021Z" fill="#79819B"/>
<path d="M106.478 384.539L106.065 376.131L117.336 374.92L119.079 384.539H106.478Z" fill="#EFA895"/>
<path d="M104.352 393.021C104.665 391.122 104.889 386.149 106.556 383.656C107.925 384.657 109.652 384.108 111.188 383.9C112.003 383.789 112.911 383.626 113.394 382.959C113.61 382.661 113.711 382.294 113.781 381.931C113.804 381.811 113.835 381.673 113.943 381.614C114 381.583 114.068 381.58 114.133 381.579C115.791 381.541 117.451 381.622 119.098 381.821C119.201 381.834 119.311 381.848 119.394 381.911C119.488 381.981 119.532 382.097 119.573 382.207C120.018 383.427 120.235 384.695 120.944 385.78C121.482 386.604 122.077 387.392 122.677 388.171C124.239 390.201 125.886 392.164 127.501 394.152C128.153 394.954 128.807 395.757 129.426 396.587C129.737 397.004 130.179 397.488 130.325 398.002C130.91 400.049 129.276 400.482 125.487 400.668C124.114 400.735 109.862 400.32 108.488 400.295C104.137 400.214 104.006 395.122 104.352 393.021Z" fill="#79819B"/>
<path d="M89.7887 273.034L90.0965 271.022L67.5525 269.41C67.4163 303.058 65.4834 376.799 65.4834 376.799C65.4834 376.799 71.751 379.202 83.0405 378.106L86.001 338.373L89.6281 275.335L89.7887 273.034Z" fill="#9FC1E6"/>
<path d="M96.4645 273.034L96.1567 271.022L118.701 269.41C118.837 303.058 120.77 376.799 120.77 376.799C120.77 376.799 114.502 379.202 103.213 378.106L100.252 338.373L96.6252 275.335L96.4645 273.034Z" fill="#9FC1E6"/>
<path d="M67.4637 280.395C67.4568 281.013 67.4546 281.204 67.447 281.834L89.2295 282.268L89.3372 280.395H67.4637Z" fill="#769ACD"/>
<path d="M96.9163 280.395L97.024 282.268L118.807 281.904C118.8 281.273 118.796 281.013 118.79 280.395H96.9163Z" fill="#769ACD"/>
<path d="M131.18 179.75C130.671 174.443 129.932 170.229 129.092 166.879C129.09 166.867 129.088 166.859 129.088 166.859L129.088 166.865C128.358 163.963 127.552 161.709 126.751 159.966C126.687 159.785 126.618 159.61 126.549 159.436C125.811 157.693 123.86 156.447 122.615 155.8C117.277 153.243 110.935 151.47 107.121 150.536C106.979 150.501 106.839 150.467 106.704 150.434L106.766 150.523L85.402 149.766L85.4702 150.091L85.1502 149.766C79.35 151.06 69.1889 153.168 65.2597 157.614C61.4624 161.911 37.2233 188.877 34.4886 203.436C34.3951 203.935 40.3751 205.422 43.7202 205.694C48.7902 206.106 50.1691 204.882 50.1691 204.882C50.1691 204.879 50.168 204.876 50.168 204.873C50.168 203.216 62.6224 185.44 67.8944 177.989L68.2689 210.797L64.6426 280.396C64.6426 280.396 73.2126 281.083 93.6257 281.083C114.039 281.083 120.396 280.396 120.396 280.396L119.28 212.497C120.364 213.424 121.634 213.883 123.109 213.866C125.538 213.838 128.366 212.928 130.542 211.838C132.724 210.744 133.34 208.132 133.461 205.802C133.484 205.674 133.506 205.545 133.528 205.41C134.175 201.392 132.623 189.325 131.18 179.75Z" fill="#9FC1E6"/>
<path d="M125.466 189.38C125.466 189.38 132.906 201.292 133.528 205.41C134.149 209.527 130.753 212.98 126.344 214.108C121.936 215.235 119.108 212.932 119.108 212.932L116.78 189.391" fill="#FFF5E9"/>
<path d="M131.825 184.171L123.819 188.12L133.135 208.768C135.137 206.404 131.825 184.171 131.825 184.171Z" fill="#FDECE7"/>
<path d="M125.191 191.508L132.873 208.768" stroke="#DDD5C9" stroke-width="4.0434" stroke-miterlimit="10" stroke-linecap="round"/>
<path d="M118.871 179.841C116.118 175.147 114.147 182.382 114.234 184.448C114.275 185.408 114.922 188.332 115.938 188.672C117.74 189.273 119.18 182.598 119.26 181.4L118.871 179.841Z" fill="#769ACD"/>
<path d="M118.837 195.579C118.837 195.579 117.01 194.475 116.768 191.859C116.526 189.244 117.609 181.001 117.803 179.529C117.996 178.057 119.373 173.028 121.169 173.137C122.965 173.246 127.555 176.995 128.767 178.701C129.978 180.406 128.632 184.353 128.026 185.884C127.42 187.415 124.974 194.279 123.6 194.935C122.226 195.591 119.836 196.695 118.837 195.579Z" fill="#80A5D5"/>
<path d="M92.3519 102.941C92.3519 102.941 80.2576 100.482 80.9463 121.805L81.0867 121.824C81.1101 121.97 81.1339 122.117 81.1592 122.274L82.4032 128.884C82.8672 130.949 83.3812 132.756 83.8783 133.522C84.1381 133.921 84.4336 134.387 84.7696 134.881L85.1503 149.766L82.0456 150.535C86.6387 161.399 94.4301 163.762 94.4301 163.762L94.4299 163.681C94.4301 163.681 94.4303 163.681 94.4305 163.681L94.4301 163.762C94.4301 163.762 102.221 161.399 106.815 150.535L103.71 149.766L104.108 134.177C104.523 133.307 104.891 132.315 105.203 131.182C105.433 130.347 105.646 129.55 105.845 128.787L107.345 122.271C107.345 122.271 107.438 119.093 107.378 117.933C107.379 117.933 109.057 101.344 92.3519 102.941Z" fill="#EFA895"/>
<path d="M82.4032 128.884L81.1589 122.274C81.4587 124.121 81.9014 126.651 82.4032 128.884Z" fill="#FAC2AE"/>
<path d="M107.345 122.271L105.845 128.787C106.539 126.123 107.049 123.903 107.409 122.205C107.368 122.247 107.345 122.271 107.345 122.271Z" fill="#FAC2AE"/>
<path d="M80.0947 121.362C80.0854 121.355 80.0764 121.349 80.0669 121.342C80.0693 121.344 80.0799 121.354 80.0799 121.354L80.0947 121.362Z" fill="#563B2A"/>
<path d="M93.8624 128.13C93.8126 128.13 93.7615 128.122 93.7117 128.105C92.9495 127.851 92.3653 127.14 92.224 126.295C92.0973 125.54 92.3506 124.837 92.9006 124.414C93.4102 124.024 93.4564 122.119 93.3264 120.955C93.2975 120.694 93.486 120.458 93.7475 120.429C94.0062 120.406 94.2446 120.588 94.274 120.85C94.3373 121.421 94.5977 124.314 93.4808 125.171C93.0977 125.465 93.1313 125.944 93.1635 126.137C93.2477 126.64 93.5815 127.057 94.0137 127.202C94.2633 127.285 94.3977 127.555 94.3144 127.804C94.2477 128.004 94.062 128.13 93.8624 128.13Z" fill="#633A36"/>
<path d="M89.5782 118.721C89.5782 119.478 89.2027 120.092 88.7395 120.092C88.2764 120.092 87.9009 119.478 87.9009 118.721C87.9009 117.963 88.2762 117.349 88.7395 117.349C89.2029 117.35 89.5782 117.964 89.5782 118.721Z" fill="#633A36"/>
<path d="M99.8062 118.619C99.8062 119.376 99.4309 119.99 98.9676 119.99C98.5045 119.99 98.1289 119.376 98.1289 118.619C98.1289 117.862 98.5045 117.248 98.9676 117.248C99.4309 117.248 99.8062 117.862 99.8062 118.619Z" fill="#633A36"/>
<path d="M80.6885 121.242C80.6923 121.361 80.6929 121.48 80.7023 121.6C80.7085 121.476 80.6998 121.359 80.6885 121.242Z" fill="#563B2A"/>
<path d="M101.671 115.282C101.657 115.272 101.643 115.264 101.627 115.257C100.443 114.692 98.1773 114.954 98.0813 114.966C97.9099 114.986 97.7873 115.142 97.8079 115.314C97.8282 115.485 97.9839 115.608 98.1555 115.588C98.1773 115.585 100.338 115.335 101.358 115.822C101.514 115.896 101.7 115.83 101.775 115.674C101.842 115.533 101.795 115.368 101.671 115.282Z" fill="#633A36"/>
<path d="M86.5161 115.313C86.5296 115.303 86.5439 115.295 86.5592 115.287C87.733 114.703 90.0034 114.927 90.0996 114.937C90.2714 114.954 90.3965 115.108 90.3787 115.28C90.3614 115.452 90.2076 115.577 90.0359 115.56C90.0141 115.557 87.8496 115.344 86.8381 115.847C86.6834 115.924 86.4956 115.861 86.4185 115.707C86.3492 115.567 86.3936 115.401 86.5161 115.313Z" fill="#633A36"/>
<path d="M98.3456 121.839C98.3196 122.408 97.9301 122.908 97.6781 123.398C97.583 123.583 97.8732 123.723 97.9683 123.538C98.1912 123.104 98.4725 122.689 98.5998 122.222C98.6385 122.194 98.6672 122.152 98.6672 122.091V121.818C98.667 121.607 98.3547 121.636 98.3456 121.839Z" fill="#DC9F8E"/>
<path d="M99.1654 121.975C99.1562 122.372 99.032 122.751 98.9078 123.125C98.8431 123.319 99.1325 123.461 99.198 123.264C99.3409 122.835 99.4762 122.41 99.4869 121.954C99.4916 121.746 99.1702 121.769 99.1654 121.975Z" fill="#DC9F8E"/>
<path d="M100.532 121.565C100.514 122.162 100.273 122.73 100.125 123.301C100.072 123.502 100.389 123.562 100.441 123.362C100.598 122.76 100.835 122.174 100.853 121.544C100.859 121.336 100.538 121.36 100.532 121.565Z" fill="#DC9F8E"/>
<path d="M89.3271 121.702V123.478C89.3271 123.687 89.6487 123.664 89.6487 123.458V121.681C89.6485 121.473 89.3271 121.496 89.3271 121.702Z" fill="#DC9F8E"/>
<path d="M88.0972 121.839V123.615C88.0972 123.824 88.4187 123.801 88.4187 123.594V121.818C88.4185 121.61 88.0972 121.632 88.0972 121.839Z" fill="#DC9F8E"/>
<path d="M86.906 121.587C86.7393 121.786 86.7322 121.996 86.7309 122.248C86.7284 122.74 86.7375 123.234 86.5969 123.71C86.538 123.91 86.8546 123.97 86.9129 123.772C86.9911 123.507 87.0271 123.236 87.0393 122.96C87.0533 122.644 86.938 122.051 87.1504 121.796C87.2833 121.637 87.0393 121.427 86.906 121.587Z" fill="#DC9F8E"/>
<path d="M82.3694 129.027C82.3694 129.027 87.2363 124.322 93.3738 123.88C99.5114 123.437 105.208 126.453 105.208 126.453C105.208 126.453 104.206 133.055 104.093 134.001C103.979 134.948 100.234 139.139 94.2307 139.139C88.2278 139.139 85.0852 135.856 85.0852 135.856C85.0852 135.856 82.7585 131.36 82.3694 129.027Z" fill="#FFF5E9"/>
<path d="M83.4949 129.072C83.2851 129.072 83.0969 128.926 83.0511 128.713C82.5582 126.415 79.9336 121.894 79.9069 121.849C79.7809 121.632 79.854 121.354 80.0707 121.228C80.288 121.102 80.5653 121.175 80.6922 121.391C80.8031 121.582 83.4167 126.084 83.9393 128.523C83.9922 128.768 83.836 129.01 83.5907 129.062C83.5585 129.069 83.5265 129.072 83.4949 129.072Z" fill="#FFF5E9"/>
<path d="M104.013 129.072C103.982 129.072 103.95 129.069 103.918 129.062C103.672 129.01 103.516 128.768 103.569 128.523C104.091 126.083 106.704 121.582 106.815 121.391C106.942 121.175 107.22 121.102 107.437 121.227C107.654 121.354 107.727 121.632 107.601 121.849C107.574 121.894 104.95 126.415 104.457 128.713C104.411 128.926 104.223 129.072 104.013 129.072Z" fill="#FFF5E9"/>
<path d="M85.5786 129.92C85.5066 129.92 85.4389 129.876 85.4129 129.804C85.3793 129.712 85.4269 129.611 85.5184 129.578C85.5615 129.562 89.8722 128.011 93.5249 128.011C97.1604 128.011 102.766 128.889 102.823 128.898C102.919 128.913 102.985 129.003 102.969 129.1C102.954 129.196 102.864 129.263 102.767 129.247C102.712 129.238 97.1326 128.364 93.5249 128.364C89.9338 128.364 85.6815 129.894 85.6391 129.909C85.6189 129.917 85.5986 129.92 85.5786 129.92Z" fill="#CDCDCE"/>
<path d="M85.5786 132.911C85.5066 132.911 85.4389 132.866 85.4129 132.795C85.3793 132.703 85.4269 132.602 85.5184 132.568C85.5615 132.553 89.8722 131.002 93.5249 131.002C97.1604 131.002 102.766 131.88 102.823 131.889C102.919 131.904 102.985 131.994 102.969 132.091C102.954 132.187 102.864 132.254 102.767 132.238C102.712 132.229 97.1326 131.355 93.5249 131.355C89.9338 131.355 85.6815 132.885 85.6391 132.9C85.6189 132.907 85.5986 132.911 85.5786 132.911Z" fill="#CDCDCE"/>
<path d="M103.785 98.0936C95.0275 92.9949 85.9828 97.2287 85.7172 97.3549C77.0277 101.598 75.9741 109.776 76.5577 120.218C77.2721 132.999 85.6988 136.853 83.8495 133.089C82.6512 130.65 82.2026 123.064 82.715 117.246C82.7232 117.204 84.2019 109.691 94.067 110.267V110.28C94.1148 110.277 94.159 110.277 94.2061 110.274C94.2535 110.277 94.2977 110.277 94.3452 110.28V110.267C101.711 109.837 104.401 113.916 105.295 116.029C105.992 121.954 105.569 130.476 104.285 133.089C102.435 136.853 110.862 132.999 111.577 120.218C112.128 110.352 111.217 102.508 103.785 98.0936Z" fill="#769ACD"/>
<path d="M91.5122 135.727C87.3339 135.727 85.2391 135.1 85.2055 135.09C85.1124 135.061 85.0604 134.962 85.0893 134.869C85.1182 134.776 85.2166 134.724 85.3102 134.752C85.3644 134.769 90.8388 136.399 101.867 134.315C101.963 134.297 102.056 134.36 102.074 134.456C102.092 134.552 102.029 134.644 101.933 134.662C97.6244 135.476 94.1522 135.727 91.5122 135.727Z" fill="#CDCDCE"/>
<path d="M34.4886 203.436C34.4886 203.436 34.033 206.107 36.8199 210.975C41.2484 218.711 62.8379 242.736 62.8379 242.736L68.2868 239.523L68.8835 235.381C68.8835 235.381 51.5626 211.658 50.1688 204.881C50.1688 204.881 48.5679 205.63 44.005 205.344C38.6493 205.01 34.4886 203.436 34.4886 203.436Z" fill="#FFF5E9"/>
<path d="M84.9016 149.766L93.7891 155.126L103.71 149.766L107.351 150.592C107.351 150.592 101.424 166.965 93.46 169.443C93.46 169.443 85.5687 166.679 80.9182 150.816" fill="#FFF5E9"/>
<path d="M77.683 231.53C78.5806 231.475 81.5779 232.923 82.0977 232.389C83.1954 231.263 79.5241 229.778 78.8088 229.627C78.0719 229.472 77.2034 229.505 76.471 229.679C75.6026 229.886 74.6857 230.827 73.8386 230.742C73.7857 230.014 74.7174 228.889 75.149 228.311C75.8343 227.392 76.4219 227.111 77.5514 226.879C78.1272 226.76 80.3746 226.684 80.2301 225.71C80.1146 224.932 77.8334 224.88 77.2208 224.942C74.6923 225.198 73.1637 227.127 72.0346 229.194C71.5848 230.018 71.1921 230.834 70.683 231.626C70.683 231.626 68.1139 234.385 67.0537 237.453C65.9934 240.521 62.8379 242.736 62.8379 242.736C64.7732 244.466 66.9366 244.294 68.6812 243.632C69.7303 243.359 70.7274 242.669 71.6583 241.884C71.9117 241.678 72.055 241.543 72.055 241.543L72.0543 241.542C72.8457 240.843 73.5857 240.107 74.2621 239.546C75.1621 238.798 76.0381 238.734 77.1568 238.887C77.8843 238.986 80.1914 239.938 80.7732 239.354C82.9063 237.215 74.095 236.654 73.7257 236.518C74.6434 235.548 76.1197 235.119 77.4381 235.166C78.395 235.2 80.9948 236.709 81.7612 236.055C82.9708 235.022 79.9479 233.603 79.1399 233.513C78.3868 233.429 77.5397 233.474 76.783 233.513C75.8701 233.56 74.9414 234.096 74.0754 234.05C74.8114 232.833 76.1472 231.625 77.683 231.53Z" fill="#80A5D5"/>
<path d="M112.611 187.542C112.509 164.371 108.838 154.026 106.874 150.101C106.729 149.588 105.881 149.324 105.472 149.278C105.047 149.23 104.224 149.465 104.39 149.83C105.653 151.854 110.473 161.206 110.589 187.543C109.479 187.956 108.685 189.024 108.685 190.276C108.685 191.885 109.994 193.194 111.603 193.194C113.212 193.194 114.521 191.885 114.521 190.276C114.521 189.022 113.724 187.953 112.611 187.542ZM111.603 191.173C111.109 191.173 110.707 190.771 110.707 190.276C110.707 189.782 111.109 189.38 111.603 189.38C112.097 189.38 112.499 189.782 112.499 190.276C112.499 190.771 112.097 191.173 111.603 191.173Z" fill="#929497"/>
<path d="M82.879 149.433C82.5103 149.45 82.0512 149.536 81.6341 150.197C79.6474 154.267 75.997 164.867 75.8959 187.662C72.5374 188.82 72.3934 195.361 72.3921 196.388L72.2885 198.349C72.2739 198.626 72.3736 198.897 72.5645 199.098C72.7554 199.299 73.0205 199.413 73.2979 199.413H75.5654C76.1236 199.413 76.5763 198.96 76.5763 198.402C76.5763 197.844 76.1239 197.391 75.5654 197.391H74.3634L74.4763 195.254C74.4785 195.21 74.4734 195.167 74.4701 195.124C74.6601 192.786 75.3574 189.544 76.9294 189.505C77.253 189.497 77.5065 189.605 77.7605 189.858C78.7094 190.801 79.1327 193.296 79.2361 195.227L79.2745 197.672H78.8303C78.2721 197.672 77.8194 198.124 77.8194 198.683C77.8194 199.241 78.2719 199.694 78.8303 199.694H80.3012C80.5721 199.694 80.8314 199.585 81.0214 199.392C81.2114 199.199 81.3161 198.938 81.3119 198.667L81.2774 196.461H81.281C81.2841 196.305 81.289 195.829 81.2572 195.173L81.2539 194.96C81.253 194.91 81.2445 194.863 81.237 194.815C81.1143 192.915 80.6792 189.91 79.1874 188.425C78.8127 188.053 78.3823 187.79 77.9174 187.637C78.0381 161.854 82.7345 152.267 84.0703 150.036C84.2032 149.403 83.3121 149.413 82.879 149.433Z" fill="#929497"/>
<path d="M87.5153 123.327C84.6338 123.327 82.2893 121.285 82.2893 118.776C82.2893 116.267 84.6338 114.225 87.5153 114.225C90.3969 114.225 92.7413 116.267 92.7413 118.776C92.7413 121.285 90.3969 123.327 87.5153 123.327ZM87.5153 115.053C85.1578 115.053 83.2395 116.723 83.2395 118.776C83.2395 120.829 85.1578 122.499 87.5153 122.499C89.8729 122.499 91.7911 120.829 91.7911 118.776C91.7909 116.723 89.8729 115.053 87.5153 115.053Z" fill="#929497"/>
<path d="M100.619 123.179C97.7375 123.179 95.3931 121.171 95.3931 118.702C95.3931 116.234 97.7373 114.225 100.619 114.225C103.501 114.225 105.845 116.233 105.845 118.702C105.845 121.17 103.501 123.179 100.619 123.179ZM100.619 115.039C98.2615 115.039 96.3433 116.682 96.3433 118.702C96.3433 120.721 98.2613 122.365 100.619 122.365C102.977 122.365 104.895 120.721 104.895 118.702C104.895 116.682 102.977 115.039 100.619 115.039Z" fill="#929497"/>
<path d="M95.8685 118.36H91.845V119.239H95.8685V118.36Z" fill="#929497"/>
<path d="M415.375 103.543C415.375 103.543 402.28 100.881 403.026 123.967L403.178 123.988C403.203 124.146 403.229 124.306 403.257 124.476L404.604 131.632C405.106 133.867 405.662 135.824 406.201 136.653C407.809 139.13 410.632 143.909 416.073 143.909C421.514 143.909 427.328 142.873 429.726 134.173C429.975 133.27 430.229 132.319 430.444 131.493L431.608 124.473C431.608 124.473 431.709 121.032 431.644 119.775C431.644 119.775 433.461 101.814 415.375 103.543Z" fill="#F0A996"/>
<path d="M431.678 124.401C431.69 124.344 431.701 124.29 431.713 124.234C431.664 124.314 431.626 124.394 431.608 124.473C431.608 124.473 431.633 124.446 431.678 124.401Z" fill="#FBC3AE"/>
<path d="M403.634 124.131C403.634 124.131 403.158 123.619 402.482 123.146L402.466 123.138C402.466 123.138 402.454 123.127 402.451 123.124C401.44 122.426 399.995 121.833 399 123.138C397.323 125.336 399.391 127.424 400.634 129.29C401.877 131.156 403.228 132.673 404.984 131.305L404.981 131.29C404.438 128.873 403.959 126.133 403.634 124.134L403.634 124.131Z" fill="#F0A996"/>
<path d="M436.217 123.48C434.631 121.479 431.945 123.942 431.475 124.401C431.069 126.24 430.496 128.643 429.715 131.527L429.712 131.539C431.536 132.907 433.228 131.498 434.52 129.632C435.811 127.766 437.96 125.678 436.217 123.48Z" fill="#F0A996"/>
<path d="M402.104 123.488C402.094 123.481 402.084 123.473 402.074 123.466C402.076 123.469 402.088 123.479 402.088 123.479L402.104 123.488Z" fill="#573B2A"/>
<path d="M417.01 130.816C416.956 130.816 416.901 130.807 416.847 130.789C416.022 130.514 415.389 129.744 415.236 128.828C415.099 128.011 415.373 127.25 415.969 126.793C416.521 126.37 416.57 124.308 416.43 123.048C416.399 122.764 416.603 122.509 416.886 122.478C417.166 122.453 417.424 122.65 417.456 122.934C417.524 123.552 417.806 126.684 416.597 127.612C416.182 127.93 416.219 128.449 416.253 128.658C416.345 129.202 416.706 129.654 417.174 129.81C417.444 129.901 417.59 130.193 417.5 130.463C417.427 130.679 417.227 130.816 417.01 130.816Z" fill="#573B2A"/>
<path d="M412.372 122.058C412.372 122.878 411.965 123.543 411.464 123.543C410.962 123.543 410.556 122.878 410.556 122.058C410.556 121.238 410.962 120.573 411.464 120.573C411.965 120.573 412.372 121.238 412.372 122.058Z" fill="#573B2A"/>
<path d="M423.446 121.948C423.446 122.768 423.039 123.433 422.538 123.433C422.036 123.433 421.63 122.768 421.63 121.948C421.63 121.128 422.036 120.463 422.538 120.463C423.039 120.463 423.446 121.128 423.446 121.948Z" fill="#573B2A"/>
<path d="M402.747 123.359C402.751 123.488 402.751 123.616 402.762 123.745C402.769 123.612 402.759 123.485 402.747 123.359Z" fill="#573B2A"/>
<path d="M425.447 115.943H422.092C421.665 115.943 421.711 116.602 422.135 116.602H422.3C422.357 116.686 422.445 116.748 422.573 116.748C423.157 116.748 423.739 116.744 424.323 116.775C424.765 116.799 425.278 116.822 425.653 116.547C425.925 116.346 425.775 115.943 425.447 115.943Z" fill="#573B2A"/>
<path d="M409.234 115.943H412.588C413.016 115.943 412.969 116.602 412.545 116.602H412.381C412.324 116.686 412.235 116.748 412.108 116.748C411.524 116.748 410.941 116.744 410.358 116.775C409.916 116.799 409.402 116.822 409.028 116.547C408.755 116.346 408.905 115.943 409.234 115.943Z" fill="#573B2A"/>
<path d="M436.05 111.261C435.829 108.743 434.061 102.898 430.984 102.246C428.267 98.0544 420.037 97.4338 415.699 97.6075C412.637 97.7302 408.699 98.506 406.009 100.055C403.512 101.493 401.896 104.003 400.721 106.696C399.441 109.628 399.36 112.732 399.437 115.886C399.466 117.063 399.464 118.31 399.576 119.471C399.608 119.8 400.1 122.692 400.358 122.724C401.418 122.857 402.495 123.646 403.281 124.328C403.079 122.869 403.232 121.719 403.666 120.362C404.008 119.291 404.325 118.211 404.655 117.135C404.767 116.771 405.665 112.862 405.978 112.823C406.245 112.789 406.509 112.744 406.766 112.682C407.675 112.463 408.512 112.034 409.185 111.381C409.876 110.709 410.382 109.892 411.177 109.32C411.235 109.278 411.303 109.235 411.373 109.252C411.478 109.278 411.503 109.413 411.517 109.52C411.793 111.723 413.924 112.648 415.677 113.516C417.783 114.558 420.211 114.954 422.535 114.594C422.159 114.029 421.784 113.464 421.409 112.9C422.779 113.375 424.202 113.695 425.644 113.854C425.894 113.881 426.157 113.902 426.386 113.798C426.615 113.694 426.787 113.421 426.693 113.188C426.765 113.367 428.871 113.117 429.081 113.093C429.21 113.822 429.629 114.611 429.851 115.343C430.123 116.243 430.396 117.143 430.668 118.042C430.954 118.986 431.67 120.338 431.665 121.332C431.659 122.567 431.622 123.979 431.611 124.366C431.637 124.374 431.661 124.383 431.687 124.392C431.998 124.077 433.231 122.909 434.47 122.734C435.685 119.184 436.359 114.79 436.05 111.261Z" fill="#71443D"/>
<path d="M406.139 131.732C405.909 131.732 405.704 131.572 405.654 131.34C405.116 128.83 402.248 123.891 402.22 123.842C402.082 123.604 402.162 123.301 402.398 123.162C402.636 123.025 402.939 123.105 403.078 123.341C403.199 123.55 406.054 128.467 406.625 131.132C406.682 131.4 406.512 131.664 406.244 131.721C406.208 131.728 406.173 131.732 406.139 131.732Z" fill="#D0E8DC"/>
<path d="M428.552 131.732C428.518 131.732 428.483 131.729 428.448 131.721C428.18 131.664 428.009 131.399 428.066 131.132C428.637 128.467 431.492 123.55 431.613 123.341C431.751 123.105 432.054 123.026 432.292 123.162C432.528 123.301 432.608 123.604 432.471 123.841C432.442 123.891 429.575 128.829 429.037 131.339C428.987 131.572 428.781 131.732 428.552 131.732Z" fill="#D0E8DC"/>
<path d="M404.909 131.682C404.909 131.682 410.226 126.542 416.93 126.06C423.635 125.577 429.858 128.871 429.858 128.871C429.858 128.871 428.763 136.082 428.639 137.116C428.515 138.15 424.424 142.729 417.866 142.729C411.309 142.729 407.876 139.143 407.876 139.143C407.876 139.143 405.335 134.231 404.909 131.682Z" fill="#D0E8DC"/>
<path d="M408.415 132.658C408.336 132.658 408.262 132.609 408.234 132.531C408.197 132.431 408.249 132.32 408.349 132.284C408.396 132.267 413.105 130.573 417.095 130.573C421.066 130.573 427.19 131.532 427.251 131.541C427.357 131.558 427.429 131.657 427.412 131.762C427.395 131.867 427.297 131.941 427.191 131.922C427.13 131.913 421.036 130.958 417.095 130.958C413.172 130.958 408.527 132.63 408.481 132.647C408.459 132.655 408.437 132.658 408.415 132.658Z" fill="#A8CEB8"/>
<path d="M408.415 135.925C408.336 135.925 408.262 135.876 408.234 135.798C408.197 135.698 408.249 135.587 408.349 135.551C408.396 135.534 413.105 133.84 417.095 133.84C421.066 133.84 427.19 134.799 427.251 134.808C427.357 134.825 427.429 134.924 427.412 135.029C427.395 135.134 427.297 135.207 427.191 135.189C427.13 135.18 421.036 134.225 417.095 134.225C413.172 134.225 408.527 135.897 408.481 135.914C408.459 135.921 408.437 135.925 408.415 135.925Z" fill="#A8CEB8"/>
<path d="M415.585 138.64C411.02 138.64 408.732 137.955 408.695 137.944C408.593 137.913 408.537 137.805 408.568 137.703C408.6 137.601 408.707 137.544 408.81 137.576C408.869 137.594 414.849 139.375 426.896 137.098C427.001 137.079 427.102 137.147 427.122 137.252C427.141 137.357 427.073 137.457 426.968 137.477C422.261 138.367 418.468 138.64 415.585 138.64Z" fill="#A8CEB8"/>
</g>
<defs>
<linearGradient id="paint0_linear_5_636" x1="306.202" y1="114.121" x2="306.202" y2="104.736" gradientUnits="userSpaceOnUse">
<stop stop-color="#FAC2AE"/>
<stop offset="1" stop-color="#F5957D"/>
</linearGradient>
<clipPath id="clip0_5_636">
<rect width="600" height="450" fill="white"/>
</clipPath>
</defs>
</svg>
