<svg width="90" height="56" viewBox="0 0 90 56" fill="none" xmlns="http://www.w3.org/2000/svg">
<path d="M72.0905 12.6598C76.9222 13.5705 81.1834 17.7252 82.8152 23.1164C83.5588 25.5739 83.4423 30.2902 82.5765 32.7594C81.1061 36.9534 78.5078 39.9742 74.9022 41.6818C72.8819 42.6387 72.4991 42.7299 70.1043 42.826C66.9465 42.9525 65.1375 42.6072 62.7807 41.4281C60.4548 40.2646 58.4821 38.1474 57.0868 35.3177C55.6588 32.421 55.1845 30.0321 55.3548 26.5921C55.5746 22.1473 56.7898 19.207 59.5867 16.3548C62.2372 13.6516 64.9967 12.4645 68.7328 12.4206C69.8142 12.4079 71.3252 12.5156 72.0905 12.6598Z" fill="#AFCB1E"/>
<path fill-rule="evenodd" clip-rule="evenodd" d="M50.8733 17.9507C53.6475 12.3767 58.2119 8.83355 64.3335 7.50236C67.375 6.84115 71.8389 6.94111 75.1284 7.74437C80.6521 9.09338 85.375 13.0668 87.8204 18.209C89.3264 21.3753 90.0115 22.6505 89.9999 27.5641C89.8717 31.7307 89.7089 32.2229 88.8909 34.596C87.8849 37.5144 86.7044 39.5316 84.7929 41.5963C81.8567 44.7677 78.8384 46.5659 74.6919 47.6143L72.3338 48.2101L73.2951 48.6714C75.5257 49.7415 78.1622 50.4507 80.197 50.528C81.3072 50.5702 81.8898 50.5595 82.0638 50.8209C82.2646 51.1226 81.9212 51.7865 81.2164 53.312L80.3104 55.2726H78.6821C76.8607 55.2726 74.7578 54.6651 71.8028 53.2854C66.5085 50.8131 63.6733 50.3345 61.3361 51.5177C59.9424 52.2233 59.7892 52.1717 59.0237 50.7382L58.5131 49.782L59.3974 49.0439C59.884 48.6376 60.6948 48.1737 61.1995 48.0128C62.5668 47.5766 62.6546 47.3555 61.5988 47.007C60.4602 46.6312 57.8188 45.1665 56.5777 44.2227C55.2974 43.2493 53.0124 40.8627 52.1187 39.5656C49.9231 36.3789 48.7228 32.1093 48.729 27.5072C48.7342 23.4981 49.2448 21.2231 50.8733 17.9507ZM10.4605 12.5267L10.3861 10.1376L10.312 7.7485H26.9808H43.6499V13.689V19.6295H41.1962H38.7425V16.1393V12.6489L30.1546 12.7171L21.5667 12.785L21.4936 18.0798C21.4533 20.992 21.4845 23.636 21.563 23.9558L21.7056 24.5369H29.0618H36.4179V26.9906V29.4443H29.0845C22.6357 29.4443 21.7322 29.4936 21.5943 29.8529C21.405 30.346 21.382 41.9134 21.5692 42.4019C21.6762 42.6803 23.2631 42.733 29.8989 42.6785C34.4077 42.6415 38.2422 42.6124 38.4196 42.6139C38.6627 42.616 38.7425 41.721 38.7425 38.991V35.3654L41.1316 35.4396L43.5207 35.514L43.59 41.519C43.6445 46.2317 43.5889 47.5252 43.3317 47.5293C43.1517 47.5324 35.6818 47.5329 26.7323 47.5308L10.4605 47.5272L10.3861 45.2011C10.3303 43.4492 10.3941 42.8678 10.6444 42.8458C10.8275 42.8296 11.965 42.8006 13.1724 42.7813L15.3679 42.7459L15.4345 27.7102L15.5011 12.6747L12.9808 12.6006L10.4605 12.5267ZM82.8152 23.1164C81.1834 17.7252 76.9222 13.5705 72.0905 12.6598C71.3252 12.5156 69.8142 12.4079 68.7328 12.4206C64.9967 12.4645 62.2372 13.6516 59.5867 16.3548C56.7898 19.207 55.5746 22.1473 55.3548 26.5921C55.1845 30.0321 55.6588 32.421 57.0868 35.3177C58.4821 38.1474 60.4548 40.2646 62.7807 41.4281C65.1375 42.6072 66.9465 42.9525 70.1043 42.826C72.4991 42.7299 72.8819 42.6387 74.9022 41.6818C78.5078 39.9742 81.1061 36.9534 82.5765 32.7594C83.4423 30.2902 83.5588 25.5739 82.8152 23.1164Z" fill="black"/>
<path d="M0 27.5072V55.0143H31.898H63.796V54.2395C63.796 53.7942 63.6588 53.4628 63.4731 53.4602C63.2957 53.4579 49.4073 53.4481 32.6101 53.4385C15.8129 53.4287 2.0097 53.3239 1.93635 53.2051C1.78758 52.9643 1.74832 2.03992 1.89683 1.89141C1.94849 1.83975 7.64131 1.79765 14.5473 1.79791L27.1037 1.79843L27.0699 0.899082L27.0361 0H13.518H0V27.5072Z" fill="#119DD2"/>
<path d="M84.2962 6.09659V2.9517H85.8686C86.022 2.9517 86.1754 2.99006 86.3288 3.06676C86.4851 3.14062 86.6143 3.25426 86.7166 3.40767C86.8217 3.55824 86.8743 3.74574 86.8743 3.97017C86.8743 4.19744 86.8203 4.39062 86.7124 4.54972C86.6044 4.70881 86.4695 4.82955 86.3075 4.91193C86.1456 4.99432 85.9837 5.03551 85.8217 5.03551H84.7053V4.49432H85.6257C85.728 4.49432 85.8288 4.45028 85.9283 4.36222C86.0305 4.27415 86.0817 4.14347 86.0817 3.97017C86.0817 3.78835 86.0305 3.66335 85.9283 3.59517C85.8288 3.52699 85.7322 3.4929 85.6385 3.4929H85.0291V6.09659H84.2962ZM86.2308 4.62216L86.9936 6.09659H86.1882L85.4553 4.62216H86.2308ZM85.5021 7.97159C85.0305 7.97159 84.5888 7.88352 84.1768 7.70739C83.7649 7.53125 83.4027 7.28693 83.0902 6.97443C82.7777 6.66193 82.5334 6.29972 82.3572 5.88778C82.1811 5.47585 82.093 5.03409 82.093 4.5625C82.093 4.09091 82.1811 3.64915 82.3572 3.23722C82.5334 2.82528 82.7777 2.46307 83.0902 2.15057C83.4027 1.83807 83.7649 1.59375 84.1768 1.41761C84.5888 1.24148 85.0305 1.15341 85.5021 1.15341C85.9737 1.15341 86.4155 1.24148 86.8274 1.41761C87.2393 1.59375 87.6016 1.83807 87.9141 2.15057C88.2266 2.46307 88.4709 2.82528 88.647 3.23722C88.8232 3.64915 88.9112 4.09091 88.9112 4.5625C88.9112 5.03409 88.8232 5.47585 88.647 5.88778C88.4709 6.29972 88.2266 6.66193 87.9141 6.97443C87.6016 7.28693 87.2393 7.53125 86.8274 7.70739C86.4155 7.88352 85.9737 7.97159 85.5021 7.97159ZM85.5021 7.12784C85.9737 7.12784 86.4027 7.01278 86.7891 6.78267C87.1783 6.54972 87.4879 6.24006 87.718 5.85369C87.9482 5.46449 88.0632 5.03409 88.0632 4.5625C88.0632 4.09091 87.9482 3.66193 87.718 3.27557C87.4879 2.88636 87.1783 2.5767 86.7891 2.34659C86.4027 2.11364 85.9737 1.99716 85.5021 1.99716C85.0305 1.99716 84.6001 2.11364 84.2109 2.34659C83.8217 2.5767 83.5121 2.88636 83.282 3.27557C83.0518 3.66193 82.9368 4.09091 82.9368 4.5625C82.9368 5.03409 83.0518 5.46449 83.282 5.85369C83.5121 6.24006 83.8217 6.54972 84.2109 6.78267C84.6001 7.01278 85.0305 7.12784 85.5021 7.12784Z" fill="black"/>
</svg>
