<svg xmlns="http://www.w3.org/2000/svg" xmlns:xlink="http://www.w3.org/1999/xlink" width="52" zoomAndPan="magnify" viewBox="0 0 39 38.999999" height="52" preserveAspectRatio="xMidYMid meet" version="1.0"><defs><clipPath id="97b58d2408"><path d="M 6 13 L 35.925781 13 L 35.925781 39 L 6 39 Z M 6 13 " clip-rule="nonzero"/></clipPath></defs><path fill="#60baba" d="M 18.460938 24.25 C 18.628906 24.445312 18.871094 24.558594 19.125 24.5625 C 20.179688 24.570312 22.195312 24.128906 23.992188 22.378906 C 26.035156 20.386719 27.875 17.332031 27.875 17.332031 C 27.875 17.332031 28.039062 16.292969 26.085938 15.925781 C 24.132812 15.554688 22.160156 14.167969 20.816406 12.472656 C 20.816406 12.472656 21.386719 9.019531 20.085938 7.550781 C 18.78125 6.078125 16.933594 4.117188 16.464844 3.011719 C 15.996094 1.910156 14.550781 2.542969 14.714844 3.933594 C 14.878906 5.320312 14.917969 6.507812 16.160156 7.9375 C 16.160156 7.9375 6.382812 0.00390625 4.867188 1.277344 C 2.925781 2.90625 7.859375 7.078125 7.859375 7.078125 C 7.859375 7.078125 7.429688 7.792969 7.878906 8.773438 C 7.878906 8.773438 4.199219 7.914062 6.839844 12.714844 C 6.839844 12.714844 4.210938 13.214844 5.675781 15.621094 C 6.230469 16.539062 8.082031 18.625 10.808594 19.558594 C 14.085938 20.683594 16.925781 22.449219 18.460938 24.25 Z M 18.460938 24.25 " fill-opacity="1" fill-rule="nonzero"/><path fill="#55a5a3" d="M 7.859375 7.078125 C 8.085938 7.210938 8.300781 7.355469 8.511719 7.503906 C 8.71875 7.652344 8.925781 7.800781 9.132812 7.949219 C 9.339844 8.097656 9.546875 8.246094 9.753906 8.390625 C 9.964844 8.53125 10.175781 8.671875 10.402344 8.8125 C 10.136719 8.789062 9.882812 8.703125 9.640625 8.59375 C 9.398438 8.484375 9.175781 8.347656 8.960938 8.191406 C 8.746094 8.039062 8.546875 7.867188 8.359375 7.683594 C 8.175781 7.5 8 7.300781 7.859375 7.078125 Z M 7.859375 7.078125 " fill-opacity="1" fill-rule="nonzero"/><path fill="#55a5a3" d="M 7.878906 8.773438 C 7.929688 9.074219 8.011719 9.355469 8.117188 9.625 C 8.222656 9.894531 8.347656 10.152344 8.503906 10.390625 C 8.542969 10.453125 8.585938 10.507812 8.625 10.566406 L 8.6875 10.65625 L 8.753906 10.738281 L 8.886719 10.910156 C 8.9375 10.960938 8.984375 11.015625 9.035156 11.070312 L 9.105469 11.152344 L 9.183594 11.226562 C 9.234375 11.277344 9.289062 11.332031 9.339844 11.382812 C 9.390625 11.4375 9.449219 11.484375 9.503906 11.535156 C 9.558594 11.585938 9.613281 11.640625 9.667969 11.695312 C 9.597656 11.667969 9.527344 11.636719 9.457031 11.605469 C 9.421875 11.589844 9.390625 11.570312 9.355469 11.554688 C 9.320312 11.539062 9.285156 11.523438 9.253906 11.5 C 9.1875 11.460938 9.125 11.421875 9.058594 11.378906 L 8.964844 11.3125 L 8.875 11.242188 C 8.8125 11.191406 8.753906 11.140625 8.699219 11.089844 C 8.640625 11.039062 8.589844 10.980469 8.539062 10.921875 L 8.460938 10.835938 L 8.390625 10.742188 C 8.34375 10.679688 8.292969 10.617188 8.253906 10.550781 C 8.085938 10.289062 7.964844 9.996094 7.894531 9.691406 C 7.824219 9.390625 7.804688 9.070312 7.878906 8.773438 Z M 7.878906 8.773438 " fill-opacity="1" fill-rule="nonzero"/><path fill="#55a5a3" d="M 6.839844 12.714844 C 7.042969 12.941406 7.25 13.148438 7.464844 13.34375 C 7.679688 13.539062 7.90625 13.710938 8.148438 13.847656 C 8.429688 14.007812 8.660156 14.242188 8.824219 14.507812 C 8.984375 14.773438 9.097656 15.066406 9.128906 15.371094 C 8.980469 15.109375 8.816406 14.863281 8.632812 14.644531 C 8.449219 14.425781 8.238281 14.246094 8.003906 14.109375 C 7.730469 13.953125 7.492188 13.742188 7.296875 13.507812 C 7.101562 13.269531 6.941406 13.003906 6.839844 12.714844 Z M 6.839844 12.714844 " fill-opacity="1" fill-rule="nonzero"/><path fill="#55a5a3" d="M 15.527344 8.773438 C 15.792969 8.863281 16.039062 9 16.277344 9.144531 C 16.515625 9.292969 16.746094 9.457031 16.957031 9.640625 C 17.390625 10 17.777344 10.417969 18.113281 10.867188 C 18.441406 11.308594 18.78125 11.742188 19.136719 12.160156 C 19.496094 12.578125 19.863281 12.988281 20.265625 13.371094 C 20.023438 13.234375 19.800781 13.0625 19.582031 12.886719 C 19.371094 12.707031 19.160156 12.519531 18.964844 12.320312 C 18.570312 11.925781 18.207031 11.492188 17.875 11.046875 C 17.546875 10.609375 17.191406 10.199219 16.804688 9.8125 C 16.605469 9.625 16.40625 9.4375 16.191406 9.265625 C 15.980469 9.085938 15.761719 8.921875 15.527344 8.773438 Z M 15.527344 8.773438 " fill-opacity="1" fill-rule="nonzero"/><path fill="#55a5a3" d="M 15.914062 20.621094 C 16.117188 20.3125 16.363281 20.035156 16.628906 19.777344 C 16.898438 19.519531 17.195312 19.289062 17.527344 19.105469 L 17.652344 19.035156 L 17.78125 18.976562 C 17.824219 18.957031 17.867188 18.9375 17.910156 18.917969 L 18.046875 18.871094 L 18.300781 18.78125 L 18.363281 18.757812 L 18.421875 18.730469 L 18.542969 18.675781 C 18.863281 18.527344 19.160156 18.332031 19.433594 18.105469 C 19.710938 17.882812 19.96875 17.628906 20.203125 17.359375 C 20.4375 17.089844 20.652344 16.796875 20.835938 16.492188 C 20.859375 16.453125 20.878906 16.414062 20.902344 16.375 C 20.921875 16.335938 20.945312 16.296875 20.96875 16.253906 L 21.042969 16.128906 L 21.128906 16.011719 C 21.25 15.859375 21.386719 15.726562 21.539062 15.613281 C 21.695312 15.503906 21.859375 15.410156 22.03125 15.339844 C 22.203125 15.269531 22.382812 15.214844 22.5625 15.1875 C 22.390625 15.246094 22.222656 15.324219 22.066406 15.414062 C 21.910156 15.507812 21.765625 15.609375 21.632812 15.726562 C 21.5 15.847656 21.382812 15.980469 21.289062 16.125 L 21.21875 16.238281 L 21.160156 16.351562 C 21.140625 16.390625 21.121094 16.433594 21.101562 16.476562 C 21.078125 16.519531 21.058594 16.5625 21.039062 16.605469 C 20.867188 16.941406 20.65625 17.25 20.417969 17.542969 C 20.179688 17.832031 19.914062 18.097656 19.621094 18.339844 C 19.328125 18.574219 19.007812 18.78125 18.65625 18.933594 L 18.457031 19.015625 L 18.390625 19.039062 L 18.125 19.121094 L 17.996094 19.160156 C 17.957031 19.175781 17.917969 19.195312 17.875 19.207031 L 17.75 19.257812 L 17.628906 19.3125 C 17.46875 19.386719 17.316406 19.480469 17.164062 19.574219 C 17.085938 19.621094 17.011719 19.675781 16.9375 19.722656 C 16.867188 19.777344 16.792969 19.828125 16.722656 19.886719 C 16.4375 20.109375 16.167969 20.355469 15.914062 20.621094 Z M 15.914062 20.621094 " fill-opacity="1" fill-rule="nonzero"/><path fill="#55a5a3" d="M 16.339844 21.3125 C 16.542969 21.003906 16.789062 20.726562 17.054688 20.46875 C 17.324219 20.210938 17.621094 19.980469 17.953125 19.796875 L 18.078125 19.726562 L 18.207031 19.667969 C 18.25 19.648438 18.292969 19.628906 18.335938 19.609375 L 18.472656 19.5625 L 18.726562 19.472656 L 18.789062 19.449219 L 18.847656 19.421875 L 18.96875 19.367188 C 19.289062 19.21875 19.585938 19.019531 19.863281 18.796875 C 20.136719 18.574219 20.394531 18.320312 20.628906 18.050781 C 20.863281 17.78125 21.078125 17.488281 21.261719 17.183594 C 21.285156 17.144531 21.304688 17.105469 21.328125 17.066406 C 21.347656 17.027344 21.371094 16.988281 21.394531 16.945312 L 21.46875 16.820312 L 21.554688 16.703125 C 21.675781 16.550781 21.8125 16.417969 21.964844 16.304688 C 22.121094 16.195312 22.285156 16.101562 22.457031 16.03125 C 22.628906 15.960938 22.808594 15.90625 22.988281 15.878906 C 22.816406 15.9375 22.648438 16.015625 22.492188 16.105469 C 22.335938 16.199219 22.191406 16.300781 22.058594 16.417969 C 21.925781 16.539062 21.808594 16.671875 21.714844 16.816406 L 21.644531 16.929688 L 21.585938 17.042969 C 21.566406 17.082031 21.546875 17.125 21.527344 17.167969 C 21.503906 17.210938 21.484375 17.253906 21.464844 17.292969 C 21.292969 17.632812 21.082031 17.941406 20.84375 18.230469 C 20.605469 18.523438 20.339844 18.789062 20.046875 19.027344 C 19.753906 19.265625 19.433594 19.472656 19.082031 19.625 L 18.949219 19.679688 L 18.886719 19.707031 L 18.816406 19.730469 L 18.550781 19.8125 L 18.421875 19.851562 C 18.382812 19.863281 18.34375 19.882812 18.300781 19.898438 L 18.175781 19.949219 L 18.054688 20.003906 C 17.894531 20.078125 17.742188 20.171875 17.589844 20.265625 C 17.511719 20.3125 17.4375 20.367188 17.363281 20.414062 C 17.292969 20.46875 17.21875 20.519531 17.148438 20.578125 C 16.863281 20.800781 16.59375 21.046875 16.339844 21.3125 Z M 16.339844 21.3125 " fill-opacity="1" fill-rule="nonzero"/><g clip-path="url(#97b58d2408)"><path fill="#6dc7cc" d="M 9.160156 38.601562 C 9.507812 38.980469 10.101562 38.996094 10.480469 38.644531 C 11.5 37.699219 14.011719 35.65625 16.589844 35.679688 C 19.949219 35.710938 23.121094 35.527344 25.472656 33.351562 C 27.714844 31.273438 31.042969 32.214844 34.207031 28.699219 C 34.484375 28.390625 34.542969 27.941406 34.367188 27.566406 C 34.101562 27.019531 33.433594 26.816406 32.914062 27.125 C 31.933594 27.707031 30.332031 28.546875 28.800781 28.839844 C 28.648438 28.867188 28.578125 28.660156 28.710938 28.589844 C 30.128906 27.839844 33.429688 26.007812 35.246094 24.238281 C 35.804688 23.695312 35.925781 22.839844 35.558594 22.152344 C 35.261719 21.597656 34.546875 21.433594 34.042969 21.804688 C 32.546875 22.910156 29.640625 24.976562 27.960938 25.640625 C 27.828125 25.691406 27.714844 25.523438 27.820312 25.421875 C 28.925781 24.316406 32.070312 21.136719 33.433594 19.371094 C 33.769531 18.933594 33.808594 18.335938 33.539062 17.847656 C 33.101562 17.054688 32.039062 16.886719 31.378906 17.503906 C 29.808594 18.972656 27.203125 21.363281 25.894531 22.300781 C 25.769531 22.390625 25.617188 22.226562 25.714844 22.105469 C 26.734375 20.878906 29.082031 17.988281 30.171875 16.117188 C 30.523438 15.515625 30.402344 14.75 29.902344 14.269531 L 29.890625 14.261719 C 29.289062 13.6875 28.347656 13.695312 27.761719 14.285156 C 25.660156 16.394531 20.792969 21.03125 17.109375 22.660156 C 17.003906 22.707031 16.894531 22.597656 16.933594 22.488281 C 17.175781 21.808594 17.761719 20.066406 17.90625 18.601562 C 17.996094 17.671875 17.355469 17.671875 16.691406 17.90625 C 15.84375 18.203125 15.152344 18.832031 14.71875 19.621094 C 14.441406 20.128906 14.144531 20.753906 14.027344 21.300781 C 13.972656 21.550781 13.839844 21.953125 13.722656 22.183594 C 13.464844 22.707031 13.074219 23.730469 13.074219 25.324219 C 13.074219 26.949219 12.910156 27.164062 7.519531 28.695312 C 7.09375 28.816406 6.761719 29.050781 6.632812 29.476562 C 5.859375 31.925781 8.292969 37.65625 9.160156 38.601562 Z M 9.160156 38.601562 " fill-opacity="1" fill-rule="nonzero"/></g><path fill="#55a5a3" d="M 13.070312 29.03125 C 13.203125 29.070312 13.328125 29.128906 13.449219 29.195312 C 13.570312 29.265625 13.683594 29.34375 13.792969 29.425781 C 14.015625 29.597656 14.210938 29.800781 14.378906 30.023438 C 14.722656 30.46875 14.957031 30.996094 15.089844 31.539062 C 15.109375 31.605469 15.125 31.675781 15.136719 31.742188 C 15.148438 31.8125 15.167969 31.878906 15.175781 31.949219 C 15.195312 32.085938 15.21875 32.226562 15.226562 32.363281 C 15.253906 32.640625 15.253906 32.917969 15.242188 33.195312 C 15.21875 33.75 15.125 34.296875 14.972656 34.820312 C 15.003906 34.273438 15.027344 33.730469 15.007812 33.195312 C 14.988281 32.660156 14.929688 32.125 14.800781 31.613281 C 14.671875 31.097656 14.472656 30.605469 14.1875 30.160156 L 14.136719 30.074219 L 14.078125 29.996094 C 14.039062 29.941406 14 29.890625 13.960938 29.835938 C 13.921875 29.78125 13.875 29.734375 13.832031 29.679688 C 13.789062 29.632812 13.746094 29.582031 13.695312 29.535156 C 13.605469 29.4375 13.503906 29.347656 13.402344 29.261719 C 13.300781 29.179688 13.191406 29.097656 13.070312 29.03125 Z M 13.070312 29.03125 " fill-opacity="1" fill-rule="nonzero"/><path fill="#55a5a3" d="M 12.171875 29.25 C 12.300781 29.289062 12.429688 29.347656 12.546875 29.417969 C 12.667969 29.484375 12.785156 29.5625 12.894531 29.648438 C 13.113281 29.816406 13.308594 30.023438 13.480469 30.246094 C 13.820312 30.691406 14.054688 31.214844 14.191406 31.757812 C 14.210938 31.828125 14.222656 31.894531 14.234375 31.964844 C 14.25 32.03125 14.265625 32.101562 14.273438 32.167969 C 14.292969 32.308594 14.316406 32.445312 14.324219 32.585938 C 14.351562 32.863281 14.351562 33.140625 14.34375 33.417969 C 14.316406 33.96875 14.222656 34.515625 14.070312 35.042969 C 14.101562 34.492188 14.128906 33.953125 14.109375 33.414062 C 14.085938 32.878906 14.027344 32.347656 13.898438 31.832031 C 13.773438 31.316406 13.570312 30.824219 13.289062 30.378906 L 13.234375 30.296875 L 13.175781 30.214844 C 13.140625 30.160156 13.097656 30.109375 13.058594 30.054688 C 13.019531 30.003906 12.972656 29.953125 12.933594 29.902344 C 12.886719 29.855469 12.84375 29.800781 12.796875 29.753906 C 12.703125 29.65625 12.601562 29.570312 12.5 29.484375 C 12.398438 29.398438 12.289062 29.320312 12.171875 29.25 Z M 12.171875 29.25 " fill-opacity="1" fill-rule="nonzero"/><path fill="#55a5a3" d="M 25.359375 21.171875 C 25.421875 21.378906 25.46875 21.578125 25.527344 21.765625 C 25.554688 21.859375 25.589844 21.953125 25.625 22.035156 C 25.660156 22.121094 25.703125 22.199219 25.75 22.257812 C 25.796875 22.316406 25.863281 22.367188 25.945312 22.410156 C 26.023438 22.457031 26.109375 22.492188 26.199219 22.53125 C 26.382812 22.601562 26.578125 22.660156 26.777344 22.726562 C 26.570312 22.785156 26.355469 22.789062 26.140625 22.757812 C 26.03125 22.742188 25.925781 22.710938 25.816406 22.667969 C 25.710938 22.621094 25.605469 22.554688 25.523438 22.453125 C 25.441406 22.351562 25.390625 22.242188 25.355469 22.132812 C 25.324219 22.027344 25.304688 21.917969 25.296875 21.808594 C 25.28125 21.59375 25.296875 21.378906 25.359375 21.171875 Z M 25.359375 21.171875 " fill-opacity="1" fill-rule="nonzero"/><path fill="#55a5a3" d="M 16.539062 21.519531 C 16.601562 21.726562 16.652344 21.925781 16.707031 22.113281 C 16.738281 22.210938 16.769531 22.300781 16.804688 22.386719 C 16.839844 22.472656 16.882812 22.550781 16.933594 22.609375 C 16.976562 22.664062 17.046875 22.714844 17.125 22.761719 C 17.203125 22.804688 17.289062 22.84375 17.382812 22.878906 C 17.5625 22.949219 17.757812 23.007812 17.960938 23.078125 C 17.753906 23.132812 17.535156 23.136719 17.320312 23.105469 C 17.214844 23.089844 17.105469 23.0625 17 23.015625 C 16.894531 22.96875 16.789062 22.902344 16.703125 22.800781 C 16.621094 22.703125 16.570312 22.59375 16.539062 22.484375 C 16.503906 22.375 16.484375 22.265625 16.476562 22.15625 C 16.464844 21.941406 16.476562 21.726562 16.539062 21.519531 Z M 16.539062 21.519531 " fill-opacity="1" fill-rule="nonzero"/><path fill="#55a5a3" d="M 27.535156 24.335938 C 27.574219 24.546875 27.601562 24.746094 27.636719 24.945312 C 27.65625 25.042969 27.675781 25.136719 27.703125 25.222656 C 27.726562 25.3125 27.761719 25.394531 27.804688 25.457031 C 27.84375 25.519531 27.90625 25.578125 27.980469 25.628906 C 28.054688 25.683594 28.136719 25.730469 28.222656 25.777344 C 28.394531 25.867188 28.582031 25.945312 28.773438 26.039062 C 28.5625 26.070312 28.347656 26.050781 28.136719 25.996094 C 28.03125 25.96875 27.929688 25.929688 27.828125 25.871094 C 27.726562 25.816406 27.628906 25.738281 27.554688 25.625 C 27.484375 25.515625 27.449219 25.402344 27.425781 25.289062 C 27.40625 25.179688 27.398438 25.070312 27.402344 24.960938 C 27.414062 24.742188 27.453125 24.53125 27.535156 24.335938 Z M 27.535156 24.335938 " fill-opacity="1" fill-rule="nonzero"/><path fill="#55a5a3" d="M 28.699219 27.597656 C 28.6875 27.8125 28.664062 28.015625 28.652344 28.210938 C 28.644531 28.3125 28.644531 28.40625 28.644531 28.5 C 28.648438 28.59375 28.664062 28.679688 28.6875 28.75 C 28.710938 28.820312 28.757812 28.894531 28.816406 28.960938 C 28.875 29.03125 28.945312 29.097656 29.015625 29.164062 C 29.164062 29.292969 29.324219 29.414062 29.492188 29.550781 C 29.277344 29.53125 29.074219 29.460938 28.882812 29.355469 C 28.785156 29.300781 28.695312 29.238281 28.609375 29.15625 C 28.527344 29.078125 28.453125 28.976562 28.40625 28.851562 C 28.367188 28.730469 28.355469 28.609375 28.363281 28.496094 C 28.371094 28.382812 28.390625 28.277344 28.421875 28.171875 C 28.480469 27.964844 28.570312 27.769531 28.699219 27.597656 Z M 28.699219 27.597656 " fill-opacity="1" fill-rule="nonzero"/></svg>