<svg xmlns="http://www.w3.org/2000/svg" xmlns:xlink="http://www.w3.org/1999/xlink" width="52" zoomAndPan="magnify" viewBox="0 0 39 38.999999" height="52" preserveAspectRatio="xMidYMid meet" version="1.0"><defs><clipPath id="65a5a47c35"><path d="M 0 22 L 16 22 L 16 38.183594 L 0 38.183594 Z M 0 22 " clip-rule="nonzero"/></clipPath><clipPath id="51a438f3fb"><path d="M 0 22 L 16 22 L 16 38.183594 L 0 38.183594 Z M 0 22 " clip-rule="nonzero"/></clipPath><clipPath id="171de7f79a"><path d="M 3 0.683594 L 18 0.683594 L 18 15 L 3 15 Z M 3 0.683594 " clip-rule="nonzero"/></clipPath><clipPath id="d97d262d91"><path d="M 21 0.683594 L 36 0.683594 L 36 15 L 21 15 Z M 21 0.683594 " clip-rule="nonzero"/></clipPath></defs><path fill="#1c0d3c" d="M 26.847656 21.621094 C 26.847656 21.410156 26.804688 21.199219 26.722656 21 C 26.640625 20.800781 26.519531 20.621094 26.371094 20.472656 C 26.21875 20.320312 26.039062 20.199219 25.839844 20.117188 C 25.640625 20.039062 25.429688 19.996094 25.214844 19.996094 L 15.492188 19.996094 C 14.742188 19.996094 14 20.140625 13.304688 20.429688 C 12.609375 20.714844 11.980469 21.136719 11.449219 21.664062 L 7.964844 25.136719 C 7.703125 25.398438 7.277344 25.398438 7.015625 25.136719 C 6.753906 24.875 6.753906 24.453125 7.015625 24.191406 L 10.5 20.71875 C 11.15625 20.066406 11.933594 19.546875 12.789062 19.195312 C 13.648438 18.839844 14.566406 18.65625 15.492188 18.65625 L 25.214844 18.65625 C 25.605469 18.65625 25.992188 18.734375 26.351562 18.882812 C 26.714844 19.03125 27.042969 19.25 27.320312 19.527344 C 27.59375 19.800781 27.8125 20.128906 27.964844 20.488281 C 28.113281 20.847656 28.191406 21.234375 28.191406 21.621094 C 28.191406 22.011719 28.113281 22.398438 27.964844 22.757812 C 27.8125 23.117188 27.59375 23.445312 27.320312 23.71875 C 27.042969 23.996094 26.714844 24.214844 26.351562 24.363281 C 25.992188 24.511719 25.605469 24.589844 25.214844 24.589844 L 17.625 24.589844 C 17.253906 24.589844 16.953125 24.289062 16.953125 23.917969 C 16.953125 23.550781 17.253906 23.25 17.625 23.25 L 25.214844 23.25 C 25.429688 23.25 25.640625 23.207031 25.839844 23.128906 C 26.039062 23.046875 26.21875 22.925781 26.371094 22.773438 C 26.519531 22.625 26.640625 22.445312 26.722656 22.246094 C 26.804688 22.046875 26.847656 21.835938 26.847656 21.621094 Z M 26.847656 21.621094 " fill-opacity="1" fill-rule="nonzero"/><path fill="#1c0d3c" d="M 37.652344 17.449219 C 37.652344 16.953125 37.453125 16.476562 37.097656 16.121094 C 36.746094 15.769531 36.265625 15.570312 35.765625 15.570312 C 35.265625 15.570312 34.785156 15.769531 34.433594 16.121094 L 27.9375 22.59375 C 27.675781 22.855469 27.253906 22.855469 26.992188 22.59375 C 26.726562 22.332031 26.726562 21.90625 26.992188 21.648438 L 33.484375 15.175781 C 34.089844 14.574219 34.910156 14.234375 35.765625 14.234375 C 36.621094 14.234375 37.441406 14.574219 38.046875 15.175781 C 38.652344 15.78125 38.992188 16.597656 38.992188 17.449219 C 38.992188 18.304688 38.652344 19.121094 38.046875 19.726562 L 29.867188 27.878906 C 28.542969 29.199219 26.746094 29.941406 24.871094 29.941406 L 16.769531 29.941406 C 15.84375 29.941406 14.953125 30.308594 14.296875 30.960938 L 14.054688 31.203125 C 13.792969 31.464844 13.367188 31.464844 13.105469 31.207031 C 12.84375 30.945312 12.84375 30.519531 13.105469 30.257812 L 13.347656 30.015625 L 13.523438 29.851562 C 14.410156 29.050781 15.566406 28.601562 16.769531 28.601562 L 24.871094 28.601562 L 25.15625 28.597656 C 26.570312 28.527344 27.910156 27.9375 28.917969 26.933594 L 37.097656 18.78125 C 37.453125 18.425781 37.652344 17.949219 37.652344 17.449219 Z M 37.652344 17.449219 " fill-opacity="1" fill-rule="nonzero"/><g clip-path="url(#65a5a47c35)"><path fill="#1c0d3c" d="M 15.496094 31.699219 C 15.757812 31.960938 15.757812 32.382812 15.496094 32.644531 L 10.203125 37.921875 C 9.941406 38.179688 9.515625 38.179688 9.253906 37.921875 L 0.269531 28.96875 C 0.0078125 28.707031 0.0078125 28.28125 0.269531 28.019531 L 5.5625 22.746094 C 5.824219 22.484375 6.25 22.484375 6.511719 22.746094 Z M 1.691406 28.496094 L 9.726562 36.503906 L 14.074219 32.171875 L 6.039062 24.164062 Z M 1.691406 28.496094 " fill-opacity="1" fill-rule="nonzero"/></g><path fill="#1c0d3c" d="M 26.847656 21.621094 C 26.847656 21.410156 26.804688 21.199219 26.722656 21 C 26.640625 20.800781 26.519531 20.621094 26.371094 20.472656 C 26.21875 20.320312 26.039062 20.199219 25.839844 20.117188 C 25.640625 20.039062 25.429688 19.996094 25.214844 19.996094 L 15.492188 19.996094 C 14.742188 19.996094 14 20.140625 13.304688 20.429688 C 12.609375 20.714844 11.980469 21.136719 11.449219 21.664062 L 7.964844 25.136719 C 7.703125 25.398438 7.277344 25.398438 7.015625 25.136719 C 6.753906 24.875 6.753906 24.453125 7.015625 24.191406 L 10.5 20.71875 C 11.15625 20.066406 11.933594 19.546875 12.789062 19.195312 C 13.648438 18.839844 14.566406 18.65625 15.492188 18.65625 L 25.214844 18.65625 C 25.605469 18.65625 25.992188 18.734375 26.351562 18.882812 C 26.714844 19.03125 27.042969 19.25 27.320312 19.527344 C 27.59375 19.800781 27.8125 20.128906 27.964844 20.488281 C 28.113281 20.847656 28.191406 21.234375 28.191406 21.621094 C 28.191406 22.011719 28.113281 22.398438 27.964844 22.757812 C 27.8125 23.117188 27.59375 23.445312 27.320312 23.71875 C 27.042969 23.996094 26.714844 24.214844 26.351562 24.363281 C 25.992188 24.511719 25.605469 24.589844 25.214844 24.589844 L 17.625 24.589844 C 17.253906 24.589844 16.953125 24.289062 16.953125 23.917969 C 16.953125 23.550781 17.253906 23.25 17.625 23.25 L 25.214844 23.25 C 25.429688 23.25 25.640625 23.207031 25.839844 23.128906 C 26.039062 23.046875 26.21875 22.925781 26.371094 22.773438 C 26.519531 22.625 26.640625 22.445312 26.722656 22.246094 C 26.804688 22.046875 26.847656 21.835938 26.847656 21.621094 Z M 26.847656 21.621094 " fill-opacity="1" fill-rule="nonzero"/><path fill="#1c0d3c" d="M 37.652344 17.449219 C 37.652344 16.953125 37.453125 16.476562 37.097656 16.121094 C 36.746094 15.769531 36.265625 15.570312 35.765625 15.570312 C 35.265625 15.570312 34.785156 15.769531 34.433594 16.121094 L 27.9375 22.59375 C 27.675781 22.855469 27.253906 22.855469 26.992188 22.59375 C 26.726562 22.332031 26.726562 21.90625 26.992188 21.648438 L 33.484375 15.175781 C 34.089844 14.574219 34.910156 14.234375 35.765625 14.234375 C 36.621094 14.234375 37.441406 14.574219 38.046875 15.175781 C 38.652344 15.78125 38.992188 16.597656 38.992188 17.449219 C 38.992188 18.304688 38.652344 19.121094 38.046875 19.726562 L 29.867188 27.878906 C 28.542969 29.199219 26.746094 29.941406 24.871094 29.941406 L 16.769531 29.941406 C 15.84375 29.941406 14.953125 30.308594 14.296875 30.960938 L 14.054688 31.203125 C 13.792969 31.464844 13.367188 31.464844 13.105469 31.207031 C 12.84375 30.945312 12.84375 30.519531 13.105469 30.257812 L 13.347656 30.015625 L 13.523438 29.851562 C 14.410156 29.050781 15.566406 28.601562 16.769531 28.601562 L 24.871094 28.601562 L 25.15625 28.597656 C 26.570312 28.527344 27.910156 27.9375 28.917969 26.933594 L 37.097656 18.78125 C 37.453125 18.425781 37.652344 17.949219 37.652344 17.449219 Z M 37.652344 17.449219 " fill-opacity="1" fill-rule="nonzero"/><g clip-path="url(#51a438f3fb)"><path fill="#1c0d3c" d="M 15.496094 31.699219 C 15.757812 31.960938 15.757812 32.382812 15.496094 32.644531 L 10.203125 37.921875 C 9.941406 38.179688 9.515625 38.179688 9.253906 37.921875 L 0.269531 28.96875 C 0.0078125 28.707031 0.0078125 28.28125 0.269531 28.019531 L 5.5625 22.746094 C 5.824219 22.484375 6.25 22.484375 6.511719 22.746094 Z M 1.691406 28.496094 L 9.726562 36.503906 L 14.074219 32.171875 L 6.039062 24.164062 Z M 1.691406 28.496094 " fill-opacity="1" fill-rule="nonzero"/></g><path fill="#604cc3" d="M 12.40625 9.148438 C 12.40625 8.957031 12.332031 8.773438 12.195312 8.636719 C 12.058594 8.5 11.875 8.425781 11.679688 8.425781 L 10.003906 8.425781 C 9.734375 8.425781 9.464844 8.371094 9.210938 8.269531 C 8.960938 8.164062 8.734375 8.011719 8.542969 7.820312 C 8.347656 7.628906 8.195312 7.402344 8.09375 7.152344 C 7.988281 6.902344 7.9375 6.632812 7.9375 6.363281 C 7.9375 6.09375 7.988281 5.824219 8.09375 5.574219 C 8.195312 5.324219 8.351562 5.097656 8.542969 4.90625 C 8.734375 4.714844 8.960938 4.5625 9.210938 4.457031 C 9.464844 4.355469 9.734375 4.300781 10.003906 4.300781 L 12.519531 4.300781 C 12.890625 4.300781 13.191406 4.601562 13.191406 4.96875 C 13.191406 5.339844 12.890625 5.640625 12.519531 5.640625 L 10.003906 5.640625 C 9.910156 5.640625 9.8125 5.65625 9.726562 5.695312 C 9.636719 5.730469 9.558594 5.785156 9.492188 5.851562 C 9.421875 5.917969 9.371094 6 9.332031 6.085938 C 9.296875 6.175781 9.277344 6.269531 9.277344 6.363281 C 9.277344 6.457031 9.296875 6.554688 9.332031 6.640625 C 9.371094 6.726562 9.421875 6.808594 9.492188 6.875 C 9.558594 6.941406 9.636719 6.996094 9.726562 7.03125 C 9.8125 7.070312 9.910156 7.085938 10.003906 7.085938 L 11.679688 7.085938 C 12.230469 7.085938 12.757812 7.304688 13.144531 7.691406 C 13.53125 8.078125 13.75 8.601562 13.75 9.148438 C 13.75 9.695312 13.53125 10.21875 13.144531 10.605469 C 12.757812 10.992188 12.230469 11.210938 11.679688 11.210938 L 9.164062 11.210938 C 8.796875 11.210938 8.496094 10.910156 8.496094 10.542969 C 8.496094 10.171875 8.796875 9.875 9.164062 9.875 L 11.679688 9.875 C 11.875 9.875 12.058594 9.796875 12.195312 9.660156 C 12.332031 9.523438 12.40625 9.339844 12.40625 9.148438 Z M 12.40625 9.148438 " fill-opacity="1" fill-rule="nonzero"/><path fill="#604cc3" d="M 10.171875 12.027344 L 10.171875 3.484375 C 10.171875 3.117188 10.472656 2.816406 10.84375 2.816406 C 11.214844 2.816406 11.511719 3.117188 11.511719 3.484375 L 11.511719 12.027344 C 11.511719 12.394531 11.214844 12.695312 10.84375 12.695312 C 10.472656 12.695312 10.171875 12.394531 10.171875 12.027344 Z M 10.171875 12.027344 " fill-opacity="1" fill-rule="nonzero"/><g clip-path="url(#171de7f79a)"><path fill="#1c0d3c" d="M 16.597656 7.757812 C 16.597656 4.585938 14.019531 2.019531 10.84375 2.019531 C 7.664062 2.019531 5.085938 4.585938 5.085938 7.757812 C 5.085938 10.925781 7.664062 13.492188 10.84375 13.492188 C 14.019531 13.492188 16.597656 10.925781 16.597656 7.757812 Z M 17.941406 7.757812 C 17.941406 11.664062 14.761719 14.832031 10.84375 14.832031 C 6.921875 14.832031 3.742188 11.664062 3.742188 7.757812 C 3.742188 3.847656 6.921875 0.683594 10.84375 0.683594 C 14.761719 0.683594 17.941406 3.847656 17.941406 7.757812 Z M 17.941406 7.757812 " fill-opacity="1" fill-rule="nonzero"/><path fill="#604cc3" d="M 16.597656 7.757812 C 16.597656 4.585938 14.019531 2.019531 10.84375 2.019531 C 7.664062 2.019531 5.085938 4.585938 5.085938 7.757812 C 5.085938 10.925781 7.664062 13.492188 10.84375 13.492188 C 14.019531 13.492188 16.597656 10.925781 16.597656 7.757812 Z M 17.941406 7.757812 C 17.941406 11.664062 14.761719 14.832031 10.84375 14.832031 C 6.921875 14.832031 3.742188 11.664062 3.742188 7.757812 C 3.742188 3.847656 6.921875 0.683594 10.84375 0.683594 C 14.761719 0.683594 17.941406 3.847656 17.941406 7.757812 Z M 17.941406 7.757812 " fill-opacity="1" fill-rule="nonzero"/></g><g clip-path="url(#d97d262d91)"><path fill="#1c0d3c" d="M 33.980469 7.757812 C 33.980469 4.585938 31.402344 2.019531 28.222656 2.019531 C 25.042969 2.019531 22.46875 4.585938 22.46875 7.757812 C 22.46875 10.925781 25.042969 13.492188 28.222656 13.492188 C 31.402344 13.492188 33.980469 10.925781 33.980469 7.757812 Z M 35.320312 7.757812 C 35.320312 11.664062 32.144531 14.832031 28.222656 14.832031 C 24.304688 14.832031 21.125 11.664062 21.125 7.757812 C 21.125 3.847656 24.304688 0.683594 28.222656 0.683594 C 32.144531 0.683594 35.320312 3.847656 35.320312 7.757812 Z M 35.320312 7.757812 " fill-opacity="1" fill-rule="nonzero"/><path fill="#8fd14f" d="M 33.980469 7.757812 C 33.980469 4.585938 31.402344 2.019531 28.222656 2.019531 C 25.042969 2.019531 22.46875 4.585938 22.46875 7.757812 C 22.46875 10.925781 25.042969 13.492188 28.222656 13.492188 C 31.402344 13.492188 33.980469 10.925781 33.980469 7.757812 Z M 35.320312 7.757812 C 35.320312 11.664062 32.144531 14.832031 28.222656 14.832031 C 24.304688 14.832031 21.125 11.664062 21.125 7.757812 C 21.125 3.847656 24.304688 0.683594 28.222656 0.683594 C 32.144531 0.683594 35.320312 3.847656 35.320312 7.757812 Z M 35.320312 7.757812 " fill-opacity="1" fill-rule="nonzero"/></g><path fill="#8fd14f" d="M 29.460938 3.636719 C 29.832031 3.636719 30.132812 3.9375 30.132812 4.304688 L 30.132812 5.851562 L 31.6875 5.851562 C 32.058594 5.851562 32.355469 6.152344 32.355469 6.523438 L 32.355469 8.988281 C 32.355469 9.359375 32.058594 9.660156 31.6875 9.660156 L 30.132812 9.660156 L 30.132812 11.207031 C 30.132812 11.574219 29.832031 11.875 29.460938 11.875 L 26.984375 11.875 C 26.613281 11.875 26.3125 11.574219 26.3125 11.207031 L 26.3125 9.660156 L 24.761719 9.660156 C 24.390625 9.660156 24.089844 9.359375 24.089844 8.988281 L 24.089844 6.523438 C 24.089844 6.152344 24.390625 5.851562 24.761719 5.851562 L 26.3125 5.851562 L 26.3125 4.304688 C 26.3125 3.9375 26.613281 3.636719 26.984375 3.636719 Z M 27.65625 6.523438 C 27.65625 6.890625 27.355469 7.191406 26.984375 7.191406 L 25.433594 7.191406 L 25.433594 8.320312 L 26.984375 8.320312 C 27.355469 8.320312 27.65625 8.621094 27.65625 8.988281 L 27.65625 10.539062 L 28.789062 10.539062 L 28.789062 8.988281 C 28.792969 8.621094 29.089844 8.320312 29.460938 8.320312 L 31.015625 8.320312 L 31.015625 7.191406 L 29.460938 7.191406 C 29.089844 7.191406 28.792969 6.890625 28.789062 6.523438 L 28.789062 4.972656 L 27.65625 4.972656 Z M 27.65625 6.523438 " fill-opacity="1" fill-rule="nonzero"/></svg>