<svg xmlns="http://www.w3.org/2000/svg" xmlns:xlink="http://www.w3.org/1999/xlink" width="52" zoomAndPan="magnify" viewBox="0 0 39 38.999999" height="52" preserveAspectRatio="xMidYMid meet" version="1.0"><defs><clipPath id="3ccff18a41"><path d="M 0 0.871094 L 38.863281 0.871094 L 38.863281 38.371094 L 0 38.371094 Z M 0 0.871094 " clip-rule="nonzero"/></clipPath></defs><g clip-path="url(#3ccff18a41)"><path fill="#000000" d="M 35.3125 0.882812 C 35.304688 0.882812 35.296875 0.882812 35.285156 0.882812 C 35.285156 0.882812 11.152344 0.882812 11.152344 0.882812 C 8.308594 0.882812 5.996094 3.226562 5.996094 6.109375 L 5.996094 29.128906 L 0.347656 29.128906 C 0.0820312 29.128906 -0.136719 29.347656 -0.136719 29.621094 L -0.136719 34.757812 C -0.136719 36.742188 1.457031 38.359375 3.414062 38.359375 C 3.480469 38.359375 3.542969 38.355469 3.609375 38.351562 L 3.609375 38.359375 L 30.652344 38.359375 C 31.800781 38.359375 32.730469 37.414062 32.730469 36.25 L 32.730469 10.109375 C 32.730469 10.109375 38.378906 10.109375 38.378906 10.109375 C 38.644531 10.109375 38.863281 9.890625 38.863281 9.617188 L 38.863281 4.480469 C 38.863281 2.496094 37.269531 0.882812 35.3125 0.882812 Z M 0.835938 34.757812 L 0.835938 30.113281 L 5.996094 30.113281 L 5.996094 34.757812 C 5.996094 36.199219 4.835938 37.375 3.414062 37.375 C 1.992188 37.375 0.835938 36.199219 0.835938 34.757812 Z M 30.652344 37.375 L 5.851562 37.375 C 6.535156 36.71875 6.964844 35.789062 6.964844 34.757812 L 6.964844 29.621094 C 6.964844 29.613281 6.964844 29.605469 6.964844 29.597656 L 6.964844 6.109375 C 6.964844 3.769531 8.84375 1.867188 11.15625 1.867188 L 32.875 1.867188 C 32.191406 2.523438 31.761719 3.453125 31.761719 4.480469 L 31.761719 9.617188 C 31.761719 9.625 31.761719 9.628906 31.761719 9.632812 L 31.761719 36.25 C 31.761719 36.867188 31.265625 37.375 30.652344 37.375 Z M 37.890625 9.125 L 32.730469 9.125 L 32.730469 4.480469 C 32.730469 3.039062 33.890625 1.867188 35.3125 1.867188 C 36.734375 1.867188 37.890625 3.039062 37.890625 4.480469 Z M 29.539062 13.503906 L 28.398438 13.503906 C 28.429688 13.195312 28.449219 12.882812 28.449219 12.574219 C 28.449219 7.542969 24.410156 3.453125 19.449219 3.453125 C 14.484375 3.453125 10.449219 7.542969 10.449219 12.574219 C 10.449219 12.882812 10.464844 13.195312 10.496094 13.503906 L 9.355469 13.503906 C 8.878906 13.503906 8.492188 13.894531 8.492188 14.378906 L 8.492188 20.953125 C 8.492188 21.4375 8.878906 21.832031 9.355469 21.832031 L 12.015625 21.832031 C 12.484375 21.832031 12.871094 21.445312 12.878906 20.96875 L 13.660156 20.96875 C 13.808594 20.96875 13.921875 21.015625 14.027344 21.117188 L 16.65625 23.636719 C 16.925781 23.890625 17.265625 24.019531 17.605469 24.019531 C 17.96875 24.019531 18.335938 23.875 18.617188 23.589844 C 18.621094 23.585938 18.621094 23.582031 18.625 23.578125 C 18.726562 23.472656 18.808594 23.351562 18.867188 23.222656 L 19.25 23.585938 C 19.488281 23.816406 19.855469 23.949219 20.234375 23.949219 C 20.285156 23.949219 20.335938 23.945312 20.390625 23.941406 C 20.765625 23.902344 21.074219 23.738281 21.257812 23.480469 C 21.339844 23.367188 21.402344 23.25 21.453125 23.132812 C 21.675781 23.273438 21.960938 23.351562 22.25 23.351562 C 22.304688 23.351562 22.355469 23.347656 22.40625 23.34375 C 22.78125 23.308594 23.09375 23.144531 23.277344 22.882812 C 23.351562 22.777344 23.410156 22.667969 23.457031 22.558594 L 23.464844 22.566406 C 23.703125 22.792969 24.015625 22.914062 24.34375 22.914062 C 24.480469 22.914062 24.621094 22.894531 24.757812 22.851562 C 25.28125 22.695312 25.691406 22.277344 25.804688 21.789062 C 25.871094 21.507812 25.839844 21.226562 25.714844 20.96875 L 26.019531 20.96875 C 26.023438 21.445312 26.410156 21.832031 26.882812 21.832031 L 29.539062 21.832031 C 30.015625 21.832031 30.40625 21.441406 30.40625 20.957031 L 30.40625 14.378906 C 30.40625 13.898438 30.019531 13.503906 29.539062 13.503906 Z M 26.882812 13.503906 C 26.40625 13.503906 26.015625 13.894531 26.015625 14.378906 L 26.015625 14.414062 L 25.652344 14.414062 C 25.476562 14.414062 25.339844 14.355469 25.214844 14.230469 L 24.421875 13.425781 C 24.4375 13.144531 24.445312 12.859375 24.445312 12.574219 C 24.445312 12.039062 24.421875 11.515625 24.375 11.007812 L 27.328125 11.007812 C 27.425781 11.515625 27.476562 12.039062 27.476562 12.574219 C 27.476562 12.886719 27.457031 13.195312 27.425781 13.503906 Z M 20.015625 14.871094 C 19.757812 14.601562 19.425781 14.457031 19.054688 14.453125 C 19.050781 14.453125 19.042969 14.453125 19.039062 14.453125 C 18.675781 14.453125 18.34375 14.589844 18.085938 14.855469 L 16.972656 15.980469 C 16.828125 16.125 16.59375 16.125 16.449219 15.980469 C 16.304688 15.832031 16.304688 15.59375 16.449219 15.449219 L 18.496094 13.382812 C 18.910156 12.960938 19.398438 12.757812 19.984375 12.757812 L 21.382812 12.757812 C 22.058594 12.757812 22.621094 12.992188 23.097656 13.476562 L 24.527344 14.925781 C 24.832031 15.234375 25.21875 15.398438 25.648438 15.398438 L 26.015625 15.398438 L 26.015625 19.984375 L 24.875 19.984375 L 20.011719 14.875 Z M 15.425781 12.246094 C 15.433594 11.824219 15.457031 11.410156 15.5 11.007812 L 18.960938 11.007812 L 18.960938 11.808594 L 17.097656 11.808594 C 16.484375 11.808594 15.925781 11.957031 15.425781 12.246094 Z M 23.472656 12.5 C 22.875 12.015625 22.175781 11.773438 21.382812 11.773438 L 19.988281 11.773438 C 19.96875 11.773438 19.949219 11.773438 19.933594 11.773438 L 19.933594 11.007812 L 23.398438 11.007812 C 23.445312 11.492188 23.472656 11.992188 23.476562 12.5 Z M 19.933594 10.023438 L 19.933594 7.941406 C 20.832031 7.890625 21.703125 7.710938 22.53125 7.40625 C 22.851562 8.175781 23.101562 9.0625 23.265625 10.023438 Z M 19.933594 6.953125 L 19.933594 4.5 C 20.753906 4.707031 21.507812 5.4375 22.105469 6.515625 C 21.410156 6.761719 20.679688 6.910156 19.933594 6.953125 Z M 22.214844 4.933594 C 22.757812 5.136719 23.269531 5.394531 23.75 5.707031 C 23.511719 5.859375 23.265625 6 23.015625 6.125 C 22.773438 5.679688 22.503906 5.28125 22.214844 4.933594 Z M 18.960938 4.5 L 18.960938 6.953125 C 18.214844 6.910156 17.488281 6.761719 16.792969 6.515625 C 17.390625 5.4375 18.144531 4.707031 18.960938 4.5 Z M 15.882812 6.125 C 15.632812 6 15.386719 5.859375 15.144531 5.707031 C 15.625 5.394531 16.140625 5.136719 16.679688 4.933594 C 16.390625 5.28125 16.125 5.679688 15.882812 6.125 Z M 18.960938 7.941406 L 18.960938 10.023438 L 15.632812 10.023438 C 15.796875 9.0625 16.046875 8.175781 16.367188 7.40625 C 17.195312 7.710938 18.066406 7.890625 18.960938 7.9375 Z M 27.074219 10.023438 L 24.253906 10.023438 C 24.085938 8.914062 23.804688 7.898438 23.4375 7.011719 C 23.832031 6.8125 24.214844 6.585938 24.582031 6.324219 C 25.722656 7.289062 26.597656 8.566406 27.070312 10.023438 Z M 14.3125 6.324219 C 14.679688 6.585938 15.066406 6.8125 15.460938 7.011719 C 15.09375 7.898438 14.8125 8.914062 14.640625 10.023438 L 11.824219 10.023438 C 12.300781 8.566406 13.171875 7.289062 14.3125 6.324219 Z M 11.417969 12.574219 C 11.417969 12.039062 11.46875 11.515625 11.566406 11.007812 L 14.519531 11.007812 C 14.472656 11.515625 14.449219 12.039062 14.449219 12.574219 C 14.449219 12.734375 14.453125 12.890625 14.457031 13.050781 L 13.492188 14.007812 C 13.367188 14.128906 13.230469 14.183594 13.058594 14.183594 L 12.855469 14.183594 C 12.769531 13.792969 12.425781 13.503906 12.015625 13.503906 L 11.472656 13.503906 C 11.4375 13.195312 11.417969 12.882812 11.417969 12.574219 Z M 11.90625 20.847656 L 9.460938 20.847656 L 9.460938 14.488281 L 11.90625 14.488281 Z M 24.859375 21.558594 C 24.828125 21.703125 24.664062 21.851562 24.480469 21.90625 C 24.378906 21.9375 24.238281 21.953125 24.132812 21.851562 L 23.179688 20.9375 L 20.480469 18.351562 C 20.289062 18.164062 19.980469 18.175781 19.796875 18.371094 C 19.613281 18.570312 19.621094 18.882812 19.816406 19.066406 L 22.511719 21.652344 C 22.71875 21.851562 22.59375 22.15625 22.488281 22.304688 C 22.472656 22.324219 22.402344 22.359375 22.28125 22.367188 C 22.125 22.375 21.984375 22.324219 21.933594 22.273438 L 21.160156 21.535156 L 18.863281 19.332031 C 18.667969 19.144531 18.359375 19.152344 18.175781 19.351562 C 17.992188 19.550781 18 19.859375 18.195312 20.046875 L 20.496094 22.25 C 20.699219 22.449219 20.578125 22.753906 20.46875 22.902344 C 20.457031 22.921875 20.382812 22.957031 20.261719 22.964844 C 20.105469 22.96875 19.964844 22.921875 19.914062 22.871094 L 17.453125 20.511719 C 17.257812 20.324219 16.949219 20.335938 16.765625 20.53125 C 16.582031 20.730469 16.589844 21.042969 16.785156 21.226562 L 17.902344 22.296875 C 17.984375 22.375 18.03125 22.480469 18.035156 22.597656 C 18.039062 22.710938 18 22.816406 17.925781 22.898438 C 17.746094 23.074219 17.496094 23.082031 17.324219 22.917969 L 14.695312 20.402344 C 14.40625 20.125 14.058594 19.984375 13.660156 19.984375 L 12.878906 19.984375 L 12.878906 15.167969 L 13.058594 15.167969 C 13.484375 15.167969 13.867188 15.007812 14.167969 14.710938 L 15.402344 13.492188 C 15.875 13.019531 16.429688 12.789062 17.09375 12.789062 L 17.703125 12.789062 L 15.765625 14.75 C 15.242188 15.28125 15.238281 16.140625 15.761719 16.671875 C 16.285156 17.203125 17.136719 17.203125 17.660156 16.675781 L 18.769531 15.550781 C 18.847656 15.472656 18.933594 15.433594 19.042969 15.4375 C 19.152344 15.4375 19.238281 15.476562 19.3125 15.554688 L 24.695312 21.210938 C 24.699219 21.21875 24.707031 21.222656 24.710938 21.230469 C 24.894531 21.40625 24.867188 21.519531 24.859375 21.558594 Z M 29.433594 20.847656 L 26.988281 20.847656 L 26.988281 14.488281 L 29.433594 14.488281 Z M 12.539062 26.828125 C 12.269531 26.828125 12.050781 26.609375 12.050781 26.335938 C 12.050781 26.066406 12.269531 25.84375 12.539062 25.84375 L 26.359375 25.84375 C 26.625 25.84375 26.84375 26.066406 26.84375 26.335938 C 26.84375 26.609375 26.625 26.828125 26.359375 26.828125 Z M 29.101562 28.5 C 29.101562 28.773438 28.882812 28.992188 28.617188 28.992188 L 10.28125 28.992188 C 10.011719 28.992188 9.792969 28.773438 9.792969 28.5 C 9.792969 28.230469 10.011719 28.007812 10.28125 28.007812 L 28.617188 28.007812 C 28.882812 28.007812 29.101562 28.230469 29.101562 28.5 Z M 29.101562 30.808594 C 29.101562 31.078125 28.882812 31.300781 28.617188 31.300781 L 10.28125 31.300781 C 10.011719 31.300781 9.792969 31.078125 9.792969 30.808594 C 9.792969 30.535156 10.011719 30.316406 10.28125 30.316406 L 28.617188 30.316406 C 28.882812 30.316406 29.101562 30.535156 29.101562 30.808594 Z M 29.101562 33.117188 C 29.101562 33.386719 28.882812 33.609375 28.617188 33.609375 L 10.28125 33.609375 C 10.011719 33.609375 9.792969 33.386719 9.792969 33.117188 C 9.792969 32.84375 10.011719 32.625 10.28125 32.625 L 28.617188 32.625 C 28.882812 32.625 29.101562 32.84375 29.101562 33.117188 Z M 29.101562 35.425781 C 29.101562 35.695312 28.882812 35.917969 28.617188 35.917969 L 10.28125 35.917969 C 10.011719 35.917969 9.792969 35.695312 9.792969 35.425781 C 9.792969 35.152344 10.011719 34.933594 10.28125 34.933594 L 28.617188 34.933594 C 28.882812 34.933594 29.101562 35.152344 29.101562 35.425781 Z M 29.101562 35.425781 " fill-opacity="1" fill-rule="nonzero"/></g></svg>