<svg xmlns="http://www.w3.org/2000/svg" xmlns:xlink="http://www.w3.org/1999/xlink" width="52" zoomAndPan="magnify" viewBox="0 0 39 38.999999" height="52" preserveAspectRatio="xMidYMid meet" version="1.0"><defs><clipPath id="2be69a12f8"><path d="M 4 0.683594 L 35 0.683594 L 35 38.183594 L 4 38.183594 Z M 4 0.683594 " clip-rule="nonzero"/></clipPath></defs><g clip-path="url(#2be69a12f8)"><path fill="#afcb1e" d="M 24.601562 24.992188 L 30.300781 19.289062 C 30.550781 19.039062 30.851562 18.917969 31.203125 18.917969 L 31.273438 18.917969 C 31.601562 18.933594 31.882812 19.058594 32.113281 19.289062 C 32.261719 19.433594 32.367188 19.605469 32.4375 19.800781 C 32.457031 19.863281 32.472656 19.925781 32.476562 19.992188 C 32.210938 20.125 31.96875 20.296875 31.757812 20.503906 L 25.8125 26.445312 C 25.679688 26.054688 25.46875 25.714844 25.175781 25.421875 C 25.003906 25.253906 24.8125 25.109375 24.601562 24.992188 Z M 13.125 14.222656 C 11.9375 10.863281 14.625 6.902344 16.585938 4.007812 C 17.394531 2.8125 18.308594 1.703125 19.332031 0.683594 C 20.277344 1.667969 21.128906 2.722656 21.890625 3.851562 C 23.890625 6.8125 26.628906 10.863281 25.441406 14.226562 C 24.535156 16.804688 21.695312 18.183594 19.359375 18.210938 C 17.046875 18.238281 14.054688 16.851562 13.125 14.222656 Z M 15.550781 11.808594 C 15.996094 12.261719 16.96875 13.238281 17.421875 13.683594 C 17.445312 13.707031 17.464844 13.730469 17.492188 13.75 C 17.632812 13.871094 17.796875 13.925781 17.980469 13.914062 C 18.167969 13.898438 18.320312 13.824219 18.441406 13.683594 C 19.539062 12.585938 21.578125 10.550781 22.671875 9.453125 C 22.828125 9.324219 22.914062 9.15625 22.925781 8.953125 C 22.9375 8.75 22.871094 8.574219 22.726562 8.429688 C 22.582031 8.289062 22.40625 8.222656 22.203125 8.234375 C 22 8.246094 21.835938 8.328125 21.707031 8.488281 L 19.769531 10.429688 C 19.164062 11.035156 18.558594 11.640625 17.925781 12.273438 C 17.621094 11.964844 16.808594 11.144531 16.515625 10.855469 C 16.496094 10.832031 16.472656 10.808594 16.449219 10.789062 C 16.308594 10.664062 16.144531 10.609375 15.957031 10.621094 C 15.769531 10.632812 15.613281 10.707031 15.488281 10.851562 C 15.363281 10.992188 15.308594 11.15625 15.320312 11.34375 C 15.332031 11.53125 15.40625 11.6875 15.550781 11.8125 Z M 34.582031 21.523438 C 34.347656 21.289062 34.070312 21.164062 33.738281 21.152344 L 33.675781 21.152344 C 33.320312 21.148438 33.019531 21.273438 32.773438 21.527344 L 25.597656 28.699219 C 25.484375 28.90625 25.34375 29.097656 25.175781 29.269531 C 24.648438 29.804688 24.007812 30.070312 23.253906 30.066406 L 14.972656 30.066406 C 14.777344 30.0625 14.613281 29.988281 14.476562 29.847656 C 14.339844 29.710938 14.273438 29.542969 14.273438 29.347656 C 14.273438 29.152344 14.339844 28.984375 14.476562 28.84375 C 14.613281 28.703125 14.777344 28.632812 14.972656 28.628906 L 23.253906 28.628906 C 23.605469 28.628906 23.90625 28.503906 24.152344 28.25 C 24.40625 28 24.53125 27.699219 24.53125 27.34375 L 24.53125 27.265625 C 24.511719 26.941406 24.386719 26.667969 24.152344 26.441406 L 24.105469 26.390625 C 23.863281 26.175781 23.582031 26.066406 23.253906 26.066406 L 11.257812 26.070312 C 11.066406 26.054688 10.882812 26.078125 10.707031 26.144531 C 10.542969 26.207031 10.402344 26.296875 10.277344 26.414062 L 4.019531 32.671875 L 4.019531 38.332031 L 8.867188 38.332031 L 10.199219 36.941406 C 10.296875 36.828125 10.417969 36.753906 10.5625 36.722656 L 24.121094 33.3125 C 24.441406 33.191406 24.734375 33.023438 25 32.808594 C 25.371094 32.527344 25.714844 32.214844 26.039062 31.878906 L 34.582031 23.335938 C 34.832031 23.085938 34.957031 22.785156 34.957031 22.429688 L 34.957031 22.363281 C 34.9375 22.035156 34.8125 21.753906 34.582031 21.523438 Z M 34.582031 21.523438 " fill-opacity="1" fill-rule="nonzero"/></g></svg>