<svg xmlns="http://www.w3.org/2000/svg" xmlns:xlink="http://www.w3.org/1999/xlink" width="52" zoomAndPan="magnify" viewBox="0 0 39 38.999999" height="52" preserveAspectRatio="xMidYMid meet" version="1.0"><defs><clipPath id="79c065f45d"><path d="M 1.101562 4.390625 L 38.601562 4.390625 L 38.601562 35.140625 L 1.101562 35.140625 Z M 1.101562 4.390625 " clip-rule="nonzero"/></clipPath></defs><g clip-path="url(#79c065f45d)"><path fill="#ffffff" d="M 26.394531 21.050781 C 26.21875 22.519531 25.550781 23.898438 24.511719 24.9375 L 14.53125 34.917969 C 14.421875 35.027344 14.269531 35.089844 14.113281 35.089844 C 13.957031 35.089844 13.804688 35.027344 13.695312 34.917969 L 3.714844 24.9375 C 1.136719 22.359375 1.136719 18.164062 3.714844 15.585938 C 6.292969 13.007812 10.488281 13.007812 13.066406 15.585938 L 14.113281 16.632812 L 15.160156 15.585938 C 15.394531 15.351562 15.640625 15.140625 15.886719 14.957031 C 16.152344 14.765625 16.523438 14.820312 16.714844 15.082031 C 16.910156 15.34375 16.855469 15.714844 16.589844 15.910156 C 16.386719 16.058594 16.1875 16.234375 15.992188 16.425781 L 14.53125 17.886719 C 14.421875 17.996094 14.269531 18.058594 14.113281 18.058594 C 13.957031 18.058594 13.804688 17.996094 13.695312 17.886719 L 12.230469 16.421875 C 10.113281 14.304688 6.667969 14.304688 4.550781 16.421875 C 2.4375 18.539062 2.4375 21.984375 4.550781 24.101562 L 14.113281 33.660156 L 23.671875 24.101562 C 24.539062 23.234375 25.074219 22.132812 25.21875 20.914062 C 25.257812 20.585938 25.550781 20.355469 25.875 20.394531 C 26.199219 20.433594 26.433594 20.726562 26.394531 21.050781 Z M 9.058594 17.539062 C 8.898438 17.824219 8.996094 18.1875 9.277344 18.347656 C 9.453125 18.449219 9.613281 18.570312 9.753906 18.710938 C 9.867188 18.828125 10.023438 18.886719 10.175781 18.886719 C 10.324219 18.886719 10.476562 18.832031 10.589844 18.71875 C 10.824219 18.488281 10.824219 18.113281 10.59375 17.878906 C 10.382812 17.664062 10.136719 17.476562 9.867188 17.320312 C 9.582031 17.160156 9.222656 17.257812 9.058594 17.539062 Z M 7.382812 16.957031 C 6.746094 17.101562 6.167969 17.417969 5.707031 17.875 C 5.21875 18.363281 4.890625 18.984375 4.761719 19.671875 C 4.703125 19.992188 4.914062 20.300781 5.234375 20.363281 C 5.273438 20.371094 5.308594 20.375 5.34375 20.375 C 5.625 20.375 5.875 20.175781 5.925781 19.890625 C 6.011719 19.4375 6.226562 19.03125 6.542969 18.714844 C 6.84375 18.414062 7.226562 18.207031 7.644531 18.109375 C 7.960938 18.039062 8.164062 17.722656 8.089844 17.402344 C 8.019531 17.082031 7.703125 16.882812 7.382812 16.957031 Z M 38.445312 9.070312 L 38.445312 19.730469 C 38.445312 20.054688 38.183594 20.320312 37.855469 20.320312 L 33.945312 20.320312 C 33.617188 20.320312 33.355469 20.054688 33.355469 19.730469 L 33.355469 18.441406 C 31.664062 18.863281 29.480469 19.300781 27.320312 19.300781 C 26.984375 19.300781 26.644531 19.292969 26.3125 19.269531 C 23.289062 19.058594 21.078125 17.863281 19.734375 15.710938 C 17.28125 14.546875 15.945312 13.910156 15.730469 13.808594 C 15.042969 13.574219 14.566406 13.167969 14.308594 12.609375 C 14.113281 12.179688 14.078125 11.730469 14.121094 11.332031 L 13.398438 11.503906 L 7.726562 12.816406 C 6.441406 13.160156 5.179688 13.015625 4.171875 12.417969 C 3.261719 11.875 2.601562 10.972656 2.359375 9.949219 C 2.285156 9.648438 2.457031 9.34375 2.753906 9.25 C 2.753906 9.25 6.375 8.089844 13.617188 5.769531 C 14.070312 5.625 14.46875 5.492188 14.820312 5.375 C 17.8125 4.386719 17.996094 4.402344 21.328125 5.988281 C 23.160156 6.859375 25.519531 7.984375 29.191406 9.734375 C 29.367188 9.816406 29.527344 9.894531 29.675781 9.964844 C 30.933594 10.570312 31.234375 10.714844 32.804688 10.890625 L 33.355469 10.953125 L 33.355469 9.070312 C 33.355469 8.742188 33.617188 8.480469 33.945312 8.480469 L 37.855469 8.480469 C 38.183594 8.480469 38.445312 8.742188 38.445312 9.070312 Z M 33.355469 17.21875 L 33.355469 12.144531 L 32.675781 12.066406 C 30.902344 11.871094 30.464844 11.660156 29.164062 11.03125 C 29.015625 10.960938 28.859375 10.882812 28.683594 10.800781 C 25.011719 9.054688 22.648438 7.929688 20.820312 7.058594 C 19.277344 6.324219 18.503906 5.953125 17.847656 5.890625 C 17.214844 5.832031 16.539062 6.054688 15.191406 6.5 C 14.835938 6.617188 14.433594 6.75 13.976562 6.898438 C 8.402344 8.683594 4.972656 9.78125 3.6875 10.191406 C 3.921875 10.6875 4.300781 11.113281 4.78125 11.398438 C 5.523438 11.84375 6.441406 11.9375 7.429688 11.671875 C 7.4375 11.667969 7.441406 11.667969 7.449219 11.667969 L 13.125 10.351562 L 14.613281 9.996094 C 15.304688 9.113281 16.585938 8.785156 17.648438 9.289062 L 23.777344 12.203125 C 24.070312 12.34375 24.199219 12.695312 24.058594 12.992188 C 23.957031 13.203125 23.742188 13.328125 23.523438 13.328125 C 23.4375 13.328125 23.351562 13.3125 23.269531 13.273438 L 17.140625 10.359375 C 16.503906 10.058594 15.726562 10.3125 15.421875 10.917969 C 15.265625 11.378906 15.246094 11.816406 15.386719 12.117188 C 15.507812 12.378906 15.753906 12.570312 16.140625 12.699219 C 16.164062 12.707031 16.183594 12.714844 16.207031 12.726562 C 16.207031 12.726562 17.605469 13.390625 20.402344 14.71875 C 20.507812 14.769531 20.597656 14.851562 20.660156 14.953125 C 21.796875 16.871094 23.671875 17.898438 26.394531 18.085938 C 28.828125 18.257812 31.457031 17.707031 33.355469 17.21875 Z M 37.261719 9.664062 L 34.539062 9.664062 L 34.539062 19.136719 L 37.261719 19.136719 Z M 37.261719 9.664062 " fill-opacity="1" fill-rule="nonzero"/></g></svg>