<svg xmlns="http://www.w3.org/2000/svg" xmlns:xlink="http://www.w3.org/1999/xlink" width="52" zoomAndPan="magnify" viewBox="0 0 39 38.999999" height="52" preserveAspectRatio="xMidYMid meet" version="1.0"><defs><clipPath id="16e746480e"><path d="M 15 2.183594 L 24 2.183594 L 24 15 L 15 15 Z M 15 2.183594 " clip-rule="nonzero"/></clipPath><clipPath id="d28490e9a4"><path d="M 0.878906 21 L 38.378906 21 L 38.378906 23 L 0.878906 23 Z M 0.878906 21 " clip-rule="nonzero"/></clipPath><clipPath id="0bf361bcaa"><path d="M 14 33 L 19 33 L 19 36.683594 L 14 36.683594 Z M 14 33 " clip-rule="nonzero"/></clipPath><clipPath id="0095eeda78"><path d="M 27 33 L 32 33 L 32 36.683594 L 27 36.683594 Z M 27 33 " clip-rule="nonzero"/></clipPath></defs><g clip-path="url(#16e746480e)"><path fill="#ffffff" d="M 19.496094 14.777344 C 17.171875 14.777344 15.28125 12.886719 15.28125 10.566406 C 15.28125 9.441406 16.710938 6.769531 18.300781 3.898438 C 18.636719 3.289062 18.929688 2.765625 19.105469 2.417969 C 19.179688 2.273438 19.332031 2.183594 19.496094 2.183594 C 19.65625 2.183594 19.808594 2.273438 19.882812 2.417969 C 20.058594 2.765625 20.351562 3.289062 20.6875 3.894531 C 22.277344 6.769531 23.707031 9.441406 23.707031 10.566406 C 23.707031 12.886719 21.816406 14.777344 19.496094 14.777344 Z M 19.496094 14.777344 " fill-opacity="1" fill-rule="evenodd"/></g><path fill="#ffffff" d="M 10.726562 17.5 C 9.195312 17.5 7.953125 16.253906 7.953125 14.726562 C 7.953125 13.988281 8.808594 12.382812 9.84375 10.519531 C 10.050781 10.144531 10.226562 9.820312 10.335938 9.609375 C 10.410156 9.464844 10.5625 9.371094 10.726562 9.371094 C 10.886719 9.371094 11.039062 9.464844 11.113281 9.609375 C 11.222656 9.820312 11.398438 10.144531 11.609375 10.519531 C 12.640625 12.386719 13.496094 13.988281 13.496094 14.726562 C 13.496094 16.253906 12.253906 17.5 10.726562 17.5 Z M 10.726562 17.5 " fill-opacity="1" fill-rule="evenodd"/><path fill="#ffffff" d="M 28.265625 17.5 C 26.734375 17.5 25.492188 16.253906 25.492188 14.726562 C 25.492188 13.988281 26.347656 12.386719 27.378906 10.519531 C 27.589844 10.144531 27.765625 9.820312 27.875 9.609375 C 27.949219 9.464844 28.101562 9.371094 28.265625 9.371094 C 28.429688 9.371094 28.578125 9.464844 28.652344 9.609375 C 28.761719 9.820312 28.941406 10.144531 29.148438 10.519531 C 30.179688 12.386719 31.035156 13.988281 31.035156 14.726562 C 31.035156 16.253906 29.792969 17.5 28.265625 17.5 Z M 28.265625 17.5 " fill-opacity="1" fill-rule="evenodd"/><path fill="#ffffff" d="M 35.152344 20.375 L 3.839844 20.375 C 3.597656 20.375 3.402344 20.179688 3.402344 19.941406 C 3.402344 19.699219 3.597656 19.503906 3.839844 19.503906 L 35.152344 19.503906 C 35.390625 19.503906 35.585938 19.699219 35.585938 19.941406 C 35.585938 20.179688 35.390625 20.375 35.152344 20.375 Z M 35.152344 20.375 " fill-opacity="1" fill-rule="evenodd"/><g clip-path="url(#d28490e9a4)"><path fill="#ffffff" d="M 37.671875 22.542969 L 1.316406 22.542969 C 1.074219 22.542969 0.878906 22.347656 0.878906 22.109375 C 0.878906 21.867188 1.074219 21.671875 1.316406 21.671875 L 37.671875 21.671875 C 37.914062 21.671875 38.109375 21.867188 38.109375 22.109375 C 38.109375 22.347656 37.914062 22.542969 37.671875 22.542969 Z M 37.671875 22.542969 " fill-opacity="1" fill-rule="evenodd"/></g><path fill="#ffffff" d="M 6.535156 27.929688 C 5.273438 27.929688 4.25 26.90625 4.25 25.644531 C 4.25 24.382812 5.273438 23.355469 6.535156 23.355469 C 7.796875 23.355469 8.824219 24.382812 8.824219 25.644531 C 8.824219 26.90625 7.796875 27.929688 6.535156 27.929688 Z M 6.535156 27.929688 " fill-opacity="1" fill-rule="evenodd"/><path fill="#ffffff" d="M 15.105469 31.316406 C 13.84375 31.316406 12.816406 30.289062 12.816406 29.027344 C 12.816406 27.765625 13.84375 26.742188 15.105469 26.742188 C 16.367188 26.742188 17.390625 27.765625 17.390625 29.027344 C 17.390625 30.289062 16.367188 31.316406 15.105469 31.316406 Z M 15.105469 31.316406 " fill-opacity="1" fill-rule="evenodd"/><path fill="#ffffff" d="M 23.8125 27.929688 C 22.550781 27.929688 21.523438 26.90625 21.523438 25.644531 C 21.523438 24.382812 22.550781 23.355469 23.8125 23.355469 C 25.074219 23.355469 26.101562 24.382812 26.101562 25.644531 C 26.101562 26.90625 25.074219 27.929688 23.8125 27.929688 Z M 23.8125 27.929688 " fill-opacity="1" fill-rule="evenodd"/><path fill="#ffffff" d="M 32.453125 31.316406 C 31.191406 31.316406 30.167969 30.289062 30.167969 29.027344 C 30.167969 27.765625 31.191406 26.742188 32.453125 26.742188 C 33.714844 26.742188 34.742188 27.765625 34.742188 29.027344 C 34.742188 30.289062 33.714844 31.316406 32.453125 31.316406 Z M 32.453125 31.316406 " fill-opacity="1" fill-rule="evenodd"/><path fill="#ffffff" d="M 9.683594 34.25 C 8.667969 34.25 7.84375 33.425781 7.84375 32.410156 C 7.84375 31.398438 8.667969 30.574219 9.683594 30.574219 C 10.695312 30.574219 11.519531 31.398438 11.519531 32.410156 C 11.519531 33.425781 10.695312 34.25 9.683594 34.25 Z M 9.683594 34.25 " fill-opacity="1" fill-rule="evenodd"/><g clip-path="url(#0bf361bcaa)"><path fill="#ffffff" d="M 16.171875 36.8125 C 15.15625 36.8125 14.332031 35.988281 14.332031 34.972656 C 14.332031 33.960938 15.15625 33.136719 16.171875 33.136719 C 17.183594 33.136719 18.007812 33.960938 18.007812 34.972656 C 18.007812 35.988281 17.183594 36.8125 16.171875 36.8125 Z M 16.171875 36.8125 " fill-opacity="1" fill-rule="evenodd"/></g><path fill="#ffffff" d="M 22.761719 34.25 C 21.75 34.25 20.925781 33.425781 20.925781 32.410156 C 20.925781 31.398438 21.75 30.574219 22.761719 30.574219 C 23.777344 30.574219 24.601562 31.398438 24.601562 32.410156 C 24.601562 33.425781 23.777344 34.25 22.761719 34.25 Z M 22.761719 34.25 " fill-opacity="1" fill-rule="evenodd"/><g clip-path="url(#0095eeda78)"><path fill="#ffffff" d="M 29.304688 36.8125 C 28.292969 36.8125 27.46875 35.988281 27.46875 34.972656 C 27.46875 33.960938 28.292969 33.136719 29.304688 33.136719 C 30.320312 33.136719 31.144531 33.960938 31.144531 34.972656 C 31.144531 35.988281 30.320312 36.8125 29.304688 36.8125 Z M 29.304688 36.8125 " fill-opacity="1" fill-rule="evenodd"/></g><path fill="#ffffff" d="M 4.464844 15.394531 C 4.226562 15.394531 4.027344 15.199219 4.027344 14.957031 L 4.027344 9.019531 C 4.027344 8.777344 4.226562 8.582031 4.464844 8.582031 C 4.707031 8.582031 4.902344 8.777344 4.902344 9.019531 L 4.902344 14.957031 C 4.902344 15.199219 4.707031 15.394531 4.464844 15.394531 Z M 4.464844 15.394531 " fill-opacity="1" fill-rule="evenodd"/><path fill="#ffffff" d="M 4.464844 15.394531 C 4.34375 15.394531 4.226562 15.34375 4.144531 15.253906 L 2.660156 13.621094 C 2.5 13.441406 2.511719 13.167969 2.691406 13.003906 C 2.871094 12.84375 3.144531 12.855469 3.308594 13.035156 L 4.464844 14.308594 L 5.625 13.035156 C 5.785156 12.855469 6.0625 12.84375 6.238281 13.003906 C 6.417969 13.167969 6.433594 13.441406 6.269531 13.621094 L 4.789062 15.25 C 4.707031 15.34375 4.589844 15.394531 4.464844 15.394531 Z M 4.464844 15.394531 " fill-opacity="1" fill-rule="evenodd"/><path fill="#ffffff" d="M 34.523438 15.394531 C 34.28125 15.394531 34.085938 15.199219 34.085938 14.957031 L 34.085938 9.019531 C 34.085938 8.777344 34.28125 8.582031 34.523438 8.582031 C 34.765625 8.582031 34.960938 8.777344 34.960938 9.019531 L 34.960938 14.957031 C 34.960938 15.199219 34.765625 15.394531 34.523438 15.394531 Z M 34.523438 15.394531 " fill-opacity="1" fill-rule="evenodd"/><path fill="#ffffff" d="M 34.523438 15.394531 C 34.398438 15.394531 34.28125 15.34375 34.199219 15.253906 L 32.71875 13.621094 C 32.558594 13.441406 32.570312 13.167969 32.75 13.003906 C 32.925781 12.84375 33.203125 12.855469 33.363281 13.035156 L 34.523438 14.308594 L 35.679688 13.035156 C 35.84375 12.855469 36.121094 12.84375 36.296875 13.003906 C 36.476562 13.167969 36.488281 13.441406 36.328125 13.621094 L 34.847656 15.253906 C 34.761719 15.34375 34.644531 15.394531 34.523438 15.394531 Z M 34.523438 15.394531 " fill-opacity="1" fill-rule="evenodd"/></svg>