<svg width="75" height="75" viewBox="0 0 75 75" fill="none" xmlns="http://www.w3.org/2000/svg">
<path fill-rule="evenodd" clip-rule="evenodd" d="M38.449 54.5744C38.449 55.1007 38.0258 55.5238 37.4996 55.5238C36.9733 55.5238 36.5502 55.1007 36.5502 54.5744V51.4658L16.6615 51.4631V53.7037C16.6615 54.2299 16.2383 54.6531 15.7121 54.6531C15.1859 54.6531 14.7627 54.23 14.7627 53.7037V50.5137C14.7627 49.9875 15.1859 49.5643 15.7121 49.5643H36.55V48.6828C36.55 48.1565 36.9732 47.7334 37.4994 47.7334C38.0257 47.7334 38.4488 48.1565 38.4488 48.6828V49.5643H59.2868C59.813 49.5643 60.2362 49.9875 60.2362 50.5137V53.7037C60.2362 54.2299 59.813 54.6531 59.2868 54.6531C58.7605 54.6531 58.3374 54.23 58.3374 53.7037V51.4631H38.4487L38.449 54.5744ZM59.2869 55.4343C57.9741 55.4343 56.7859 55.966 55.9233 56.8286C54.0463 58.7056 54.0679 61.7491 55.9721 63.6045C55.0716 63.9137 54.2307 64.345 53.4603 64.8794C51.7731 66.0485 50.4494 67.7113 49.7007 69.6481C49.4023 70.3479 49.9123 71.0016 50.5606 71.0016H68.0188V70.9989C68.6671 70.9989 69.1418 70.3397 68.9058 69.7185C67.8235 66.8514 65.488 64.5972 62.6073 63.6044C63.4969 62.7364 64.0503 61.532 64.0503 60.192C64.0449 57.5635 61.9127 55.4343 59.2869 55.4343ZM61.3078 58.1686C62.4254 59.2862 62.4254 61.0954 61.3078 62.2103C59.5121 64.006 56.428 62.7284 56.428 60.1894C56.428 57.6532 59.5121 56.3729 61.3078 58.1686ZM52.061 69.1C52.6849 68.0422 53.5312 67.1307 54.5348 66.4336C58.5549 63.6478 64.0476 64.9092 66.5135 69.1H52.061ZM39.4421 11.7186H44.1023C44.6285 11.7186 45.0517 12.1418 45.0517 12.668V19.7698C45.0517 20.296 44.6285 20.7192 44.1023 20.7192H39.4421C38.9159 20.7192 38.4927 20.296 38.4927 19.7698V12.668C38.4927 12.1418 38.9186 11.7186 39.4421 11.7186ZM43.1529 13.6174H40.3915V18.8201H43.1529V13.6174ZM30.8979 11.7186H35.5581C36.0843 11.7186 36.5075 12.1418 36.5075 12.668V19.7698C36.5075 20.296 36.0843 20.7192 35.5581 20.7192H30.8979C30.3717 20.7192 29.9485 20.296 29.9485 19.7698V12.668C29.9485 12.1418 30.3744 11.7186 30.8979 11.7186ZM34.6087 13.6174H31.8473V18.8201H34.6087V13.6174ZM36.5509 41.128V28.8237H31.4297V41.128H36.5509ZM38.4497 28.8237V41.128H43.571V28.8237H38.4497ZM29.5307 41.128V27.8744C29.5307 27.3482 29.9539 26.925 30.4801 26.925H44.5177C45.0439 26.925 45.4671 27.3482 45.4671 27.8744V41.128H47.6371L47.6398 5.89763H27.3637V41.128H29.5307ZM60.2258 41.128V17.2304C60.2258 16.7042 60.649 16.281 61.1752 16.281H64.9403C65.4665 16.281 65.8897 16.7042 65.8897 17.2304V41.128H69.1013V13.6278H49.5383V41.128H52.5981L52.5953 17.2304C52.5953 16.7042 53.0185 16.281 53.5447 16.281H57.3098C57.836 16.281 58.2592 16.7042 58.2592 17.2304V41.128H60.2258ZM63.9882 41.128H62.1219L62.1246 18.1797H63.9909L63.9882 41.128ZM56.358 41.128H54.4944V18.1797H56.3607L56.358 41.128ZM16.6188 41.128V17.2304C16.6188 16.7042 17.042 16.281 17.5682 16.281H21.3332C21.8595 16.281 22.2826 16.7042 22.2826 17.2304V41.128H25.4617V13.6278H5.89873V41.128H8.99102V17.2304C8.99102 16.7042 9.41418 16.281 9.94042 16.281H13.7055C14.2317 16.281 14.6549 16.7042 14.6549 17.2304V41.128H16.6188ZM20.3838 41.128H18.5176L18.5203 18.1797H20.3865L20.3838 41.128ZM12.7564 41.128H10.8902V18.1797H12.7564V41.128ZM26.4113 3.99841C25.8851 3.99841 25.4619 4.42157 25.4619 4.94781V11.7292H24.3389V9.28789C24.3389 8.76166 23.9158 8.33849 23.3895 8.33849H7.40971C6.88347 8.33849 6.4603 8.76165 6.4603 9.28789V11.7292H4.9494C4.42317 11.7292 4 12.1523 4 12.6786V46.1458C4 46.672 4.42316 47.0952 4.9494 47.0952H70.0506C70.5768 47.0952 71 46.672 71 46.1458V12.6786C71 12.1523 70.5768 11.7292 70.0506 11.7292H68.4882V9.28789C68.4882 8.76166 68.065 8.33849 67.5388 8.33849H51.5562C51.0299 8.33849 50.6068 8.76165 50.6068 9.28789V11.7292H49.538V4.94781C49.538 4.42158 49.1148 3.99841 48.5886 3.99841H26.4113ZM45.3883 43.0265H69.1011V45.1992L5.89839 45.1965V43.0238L45.3883 43.0265ZM52.506 11.7293V10.2374H66.5894V11.7293H52.506ZM8.35661 11.7293V10.2374H22.44V11.7293H8.35661ZM37.5004 56.6085C39.9471 56.6085 41.93 58.5914 41.93 61.0381C41.93 62.2371 41.4526 63.3248 40.6795 64.1223C43.2808 65.0581 45.383 67.1115 46.365 69.7156C46.5983 70.3394 46.1263 70.9959 45.478 70.9959V70.9986H29.5225C28.8742 70.9986 28.3615 70.3476 28.6626 69.6451C29.3543 67.8602 30.5723 66.3304 32.1293 65.2508C32.802 64.7842 33.5398 64.4017 34.3238 64.1196C32.6365 62.3836 32.6583 59.6141 34.3726 57.9025C35.17 57.105 36.2771 56.6085 37.5004 56.6085ZM39.2907 59.2478C37.7011 57.6583 34.9696 58.7894 34.9696 61.0381C34.9696 63.2868 37.6984 64.4179 39.2907 62.8284C40.2781 61.841 40.2781 60.2352 39.2907 59.2478ZM31.039 69.1002H43.9613C40.9938 64.2664 34.0062 64.2664 31.039 69.1002ZM15.7133 55.4341C14.4004 55.4341 13.2123 55.9658 12.3497 56.8284C10.4726 58.7054 10.4943 61.7489 12.3985 63.6043C11.4979 63.9135 10.6571 64.3448 9.88668 64.8792C8.19947 66.0483 6.87578 67.7111 6.12706 69.6479C5.82868 70.3477 6.33864 71.0014 6.98696 71.0014H24.4452V70.9987C25.0935 70.9987 25.5682 70.3395 25.3322 69.7183C24.2498 66.8512 21.9143 64.597 19.0336 63.6042C19.9233 62.7362 20.4767 61.5318 20.4767 60.1918C20.4713 57.5633 18.3418 55.4341 15.7133 55.4341ZM17.7369 58.1684C18.8545 59.286 18.8545 61.0952 17.7369 62.2101C15.9412 64.0057 12.857 62.7282 12.857 60.1892C12.857 57.653 15.9412 56.3727 17.7369 58.1684ZM8.48729 69.0998C9.11118 68.042 9.95751 67.1305 10.9611 66.4334C14.9812 63.6476 20.4739 64.909 22.9398 69.0998H8.48729Z" fill="white"/>
</svg>
