<svg width="75" height="75" viewBox="0 0 75 75" fill="none" xmlns="http://www.w3.org/2000/svg">
<path d="M71 26.5628V70.2523C71 70.6623 70.6685 70.9967 70.2556 70.9967H59.0131C58.6002 70.9967 58.2687 70.6623 58.2687 70.2523C58.2687 69.8423 58.6002 69.5078 59.0131 69.5078H69.5111V27.3072H59.0131C58.6002 27.3072 58.2687 26.9728 58.2687 26.5628C58.2687 26.1528 58.6002 25.8184 59.0131 25.8184H70.2556C70.6685 25.8184 71 26.1528 71 26.5628ZM60.3538 36.9469V32.4803C60.3538 32.0703 60.6853 31.7359 61.0983 31.7359H65.5649C65.9778 31.7359 66.3093 32.0703 66.3093 32.4803V36.9469C66.3093 37.357 65.9778 37.6914 65.5649 37.6914H61.0983C60.6853 37.6914 60.3538 37.357 60.3538 36.9469ZM61.8427 36.2025H64.8204V33.2248H61.8427V36.2025ZM60.3538 41.6084C60.3538 41.1984 60.6853 40.8639 61.0983 40.8639H65.5649C65.9778 40.8639 66.3093 41.1984 66.3093 41.6084V46.075C66.3093 46.485 65.9778 46.8194 65.5649 46.8194H61.0983C60.6853 46.8194 60.3538 46.485 60.3538 46.075V41.6084ZM61.8427 45.3306H64.8204V42.3528H61.8427V45.3306ZM60.3538 50.7393C60.3538 50.3293 60.6853 49.9949 61.0983 49.9949H65.5649C65.9778 49.9949 66.3093 50.3293 66.3093 50.7393V55.206C66.3093 55.616 65.9778 55.9504 65.5649 55.9504H61.0983C60.6853 55.9504 60.3538 55.616 60.3538 55.206V50.7393ZM61.8427 54.4615H64.8204V51.4838H61.8427V54.4615ZM60.3538 59.8703C60.3538 59.4603 60.6853 59.1259 61.0983 59.1259H65.5649C65.9778 59.1259 66.3093 59.4603 66.3093 59.8703V64.3369C66.3093 64.7469 65.9778 65.0814 65.5649 65.0814H61.0983C60.6853 65.0814 60.3538 64.7469 60.3538 64.3369V59.8703ZM61.8427 63.5925H64.8204V60.6147H61.8427V63.5925ZM16.7313 26.5627C16.7313 26.1527 16.3998 25.8183 15.9869 25.8183H4.74444C4.3315 25.8183 4 26.1527 4 26.5627V70.2522C4 70.6622 4.3315 70.9966 4.74444 70.9966H15.9869C16.3998 70.9966 16.7313 70.6622 16.7313 70.2522C16.7313 69.8422 16.3998 69.5078 15.9869 69.5078H5.48887V27.3072H15.9869C16.3998 27.3072 16.7313 26.9728 16.7313 26.5627ZM14.6463 36.9469C14.6463 37.3569 14.3148 37.6913 13.9019 37.6913H9.43528C9.02235 37.6913 8.69084 37.3569 8.69084 36.9469V32.4803C8.69084 32.0702 9.02235 31.7358 9.43528 31.7358H13.9019C14.3148 31.7358 14.6463 32.0702 14.6463 32.4803V36.9469ZM13.1575 33.2247H10.1797V36.2024H13.1575V33.2247ZM14.6463 46.0752C14.6463 46.4852 14.3148 46.8196 13.9019 46.8196H9.43528C9.02235 46.8196 8.69084 46.4852 8.69084 46.0752V41.6085C8.69084 41.1985 9.02235 40.8641 9.43528 40.8641H13.9019C14.3148 40.8641 14.6463 41.1985 14.6463 41.6085V46.0752ZM13.1575 42.353H10.1797V45.3307H13.1575V42.353ZM14.6463 55.2064C14.6463 55.6164 14.3148 55.9508 13.9019 55.9508H9.43528C9.02235 55.9508 8.69084 55.6164 8.69084 55.2064V50.7398C8.69084 50.3298 9.02235 49.9953 9.43528 49.9953H13.9019C14.3148 49.9953 14.6463 50.3298 14.6463 50.7398V55.2064ZM13.1575 51.4842H10.1797V54.462H13.1575V51.4842ZM14.6463 59.871V64.3377C14.6463 64.7477 14.3148 65.0821 13.9019 65.0821H9.43528C9.02235 65.0821 8.69084 64.7477 8.69084 64.3377V59.871C8.69084 59.461 9.02235 59.1266 9.43528 59.1266H13.9019C14.3148 59.1266 14.6463 59.461 14.6463 59.871ZM13.1575 60.6155H10.1797V63.5932H13.1575V60.6155ZM24.2689 32.0038V27.5372C24.2689 27.1272 24.6004 26.7928 25.0133 26.7928H29.48C29.8929 26.7928 30.2244 27.1272 30.2244 27.5372V32.0038C30.2244 32.4138 29.8929 32.7483 29.48 32.7483H25.0133C24.6004 32.7483 24.2689 32.4138 24.2689 32.0038ZM25.7578 31.2594H28.7355V28.2816H25.7578V31.2594ZM34.522 32.0038V27.5372C34.522 27.1272 34.8535 26.7928 35.2665 26.7928H39.7331C40.146 26.7928 40.4775 27.1272 40.4775 27.5372V32.0038C40.4775 32.4138 40.146 32.7483 39.7331 32.7483H35.2665C34.8535 32.7483 34.522 32.4138 34.522 32.0038ZM36.0109 31.2594H38.9886V28.2816H36.0109V31.2594ZM44.7752 32.0038V27.5372C44.7752 27.1272 45.1067 26.7928 45.5196 26.7928H49.9862C50.3991 26.7928 50.7306 27.1272 50.7306 27.5372V32.0038C50.7306 32.4138 50.3991 32.7483 49.9862 32.7483H45.5196C45.1067 32.7483 44.7752 32.4138 44.7752 32.0038ZM46.264 31.2594H49.2418V28.2816H46.264V31.2594ZM24.2682 41.7574V37.2908C24.2682 36.8808 24.5997 36.5464 25.0126 36.5464H29.4792C29.8922 36.5464 30.2237 36.8808 30.2237 37.2908V41.7574C30.2237 42.1674 29.8922 42.5019 29.4792 42.5019H25.0126C24.5997 42.5019 24.2682 42.1674 24.2682 41.7574ZM25.757 41.013H28.7348V38.0352H25.757V41.013ZM34.5213 41.7574V37.2908C34.5213 36.8808 34.8528 36.5464 35.2657 36.5464H39.7323C40.1453 36.5464 40.4768 36.8808 40.4768 37.2908V41.7574C40.4768 42.1674 40.1453 42.5019 39.7323 42.5019H35.2657C34.8528 42.5019 34.5213 42.1674 34.5213 41.7574ZM36.0102 41.013H38.9879V38.0352H36.0102V41.013ZM44.7744 41.7574V37.2908C44.7744 36.8808 45.1059 36.5464 45.5188 36.5464H49.9855C50.3984 36.5464 50.7299 36.8808 50.7299 37.2908V41.7574C50.7299 42.1674 50.3984 42.5019 49.9855 42.5019H45.5188C45.1059 42.5019 44.7744 42.1674 44.7744 41.7574ZM46.2633 41.013H49.241V38.0352H46.2633V41.013ZM24.2674 51.508V47.0414C24.2674 46.6314 24.5989 46.297 25.0119 46.297H29.4785C29.8914 46.297 30.2229 46.6314 30.2229 47.0414V51.508C30.2229 51.9181 29.8914 52.2525 29.4785 52.2525H25.0119C24.5989 52.2525 24.2674 51.9181 24.2674 51.508ZM25.7563 50.7636H28.734V47.7859H25.7563V50.7636ZM34.5205 51.508V47.0414C34.5205 46.6314 34.852 46.297 35.265 46.297H39.7316C40.1445 46.297 40.476 46.6314 40.476 47.0414V51.508C40.476 51.9181 40.1445 52.2525 39.7316 52.2525H35.265C34.852 52.2525 34.5205 51.9181 34.5205 51.508ZM36.0094 50.7636H38.9872V47.7859H36.0094V50.7636ZM44.7737 51.508V47.0414C44.7737 46.6314 45.1052 46.297 45.5181 46.297H49.9847C50.3977 46.297 50.7292 46.6314 50.7292 47.0414V51.508C50.7292 51.9181 50.3977 52.2525 49.9847 52.2525H45.5181C45.1052 52.2525 44.7737 51.9181 44.7737 51.508ZM46.2625 50.7636H49.2403V47.7859H46.2625V50.7636ZM29.3966 9.5695C28.9778 7.32167 30.0305 5.23665 32.0253 4.38465C33.9708 3.55296 36.1983 4.13166 37.4981 5.66121C38.798 4.13161 41.0226 3.55006 42.9709 4.38465C44.9629 5.23665 46.0185 7.32167 45.5997 9.5695C45.2217 11.5935 42.9069 13.6697 41.3744 15.0452L41.1069 15.2866C39.0771 17.1127 38.2571 17.8339 37.8122 18.0695V18.0724C37.7017 18.1247 37.6115 18.1654 37.5039 18.1654H37.4952C37.3876 18.1654 37.2975 18.1247 37.187 18.0724V18.0695C36.742 17.8368 35.9191 17.1157 33.8922 15.2866L33.6247 15.0452C32.0922 13.6697 29.7745 11.5906 29.3965 9.56659L29.3966 9.5695ZM30.8622 9.29615C31.1472 10.8228 33.3224 12.7741 34.6193 13.9402L34.8898 14.1844C35.5586 14.7893 36.8265 15.8739 37.4982 16.4381C38.1699 15.8739 39.4378 14.7893 40.1066 14.1844L40.3771 13.9402C41.674 12.7741 43.8492 10.8257 44.1342 9.29905C44.3755 8.0108 43.9277 6.41726 42.3835 5.75717C40.7725 5.06799 38.8853 5.78334 38.1729 7.35071C38.0507 7.61825 37.7861 7.78691 37.4953 7.78691C37.2045 7.78691 36.937 7.61534 36.8178 7.35071C36.2914 6.18753 35.1166 5.49543 33.8865 5.49543C33.4591 5.49543 33.0228 5.57976 32.607 5.75714C31.0658 6.41725 30.6179 8.01077 30.8564 9.29902L30.8622 9.29615ZM57.8942 21.2161H57.1498V70.2528C57.1498 70.6628 56.8183 70.9972 56.4053 70.9972H18.5902C18.1773 70.9972 17.8458 70.6628 17.8458 70.2528V21.2161H17.1013C16.6884 21.2161 16.3569 20.8816 16.3569 20.4716V15.973C16.3569 15.563 16.6884 15.2286 17.1013 15.2286H31.4466C31.8595 15.2286 32.1911 15.563 32.1911 15.973C32.1911 16.383 31.8595 16.7174 31.4466 16.7174H17.8458V19.7272H57.1527V16.7174H42.8075C42.3945 16.7174 42.063 16.383 42.063 15.973C42.063 15.563 42.3945 15.2286 42.8075 15.2286H57.8972C58.3101 15.2286 58.6416 15.563 58.6416 15.973V20.4716C58.6416 20.8816 58.3101 21.2161 57.8972 21.2161H57.8942ZM44.2271 64.2043C44.2271 60.7467 41.6042 57.8911 38.2425 57.5189V69.5058H44.2271V64.2017V64.2043ZM36.7537 57.5189C33.3921 57.8911 30.7691 60.7438 30.7691 64.2043V69.5084H36.7537V57.5189ZM55.6609 21.2157H19.3346V69.508H29.2796V64.2039C29.2796 59.6733 32.9668 55.9861 37.4974 55.9861C42.028 55.9861 45.7152 59.6733 45.7152 64.2039V69.508H55.6601L55.6609 21.2157Z" fill="white"/>
</svg>
