<svg width="75" height="75" viewBox="0 0 75 75" fill="none" xmlns="http://www.w3.org/2000/svg">
<path d="M7.44467 64.8651H22.0495V65.6335H21.6108C21.3961 65.6335 21.2236 65.809 21.2236 66.0207V67.0644H17.5724C17.0369 67.0644 16.6013 67.5 16.6013 68.0354V70.029C16.6013 70.5644 17.037 71 17.5724 71H56.844C57.3795 71 57.8151 70.5644 57.8151 70.029V68.0354C57.8151 67.5 57.3795 67.0644 56.844 67.0644H53.1474V66.0237C53.1474 65.8089 52.972 65.6365 52.7602 65.6365H52.3216V64.8681H67.556C68.0945 64.8681 68.5301 64.4325 68.5301 63.9001L68.527 38.9885C68.527 38.4561 68.0884 38.0205 67.553 38.0205H51.7346V36.9557H55.4071C55.4797 36.9557 55.5432 36.9315 55.6007 36.8952C55.6158 36.8861 55.6249 36.8801 55.637 36.871C55.6915 36.8286 55.7399 36.7772 55.7641 36.7107L55.7671 36.7076C55.7731 36.6895 55.7731 36.6713 55.7762 36.6532C55.7822 36.626 55.7943 36.5987 55.7943 36.5685V36.5624C55.7943 36.5352 55.7852 36.511 55.7792 36.4868C55.7731 36.4626 55.7731 36.4384 55.7641 36.4142C55.758 36.396 55.7429 36.3839 55.7338 36.3688C55.7187 36.3416 55.7035 36.3144 55.6824 36.2932C55.6703 36.2811 55.6521 36.275 55.64 36.2629C55.6128 36.2418 55.5886 36.2236 55.5553 36.2085C55.5523 36.2085 55.5523 36.2055 55.5493 36.2055L48.3012 33.4163C48.3042 33.3982 48.3133 33.38 48.3133 33.3619L48.3072 24.432V24.426C48.3586 21.0953 46.831 18.3274 44.0085 16.6361C42.2237 15.5682 40.0669 15.0146 37.8888 14.9753V11.0275C38.2004 10.843 39.5012 10.2198 41.649 11.1183C44.5259 12.3193 46.0233 11.1092 46.0838 11.0578C46.1716 10.9852 46.223 10.8763 46.223 10.7613V5.3404C46.223 5.14679 46.0778 4.98646 45.8872 4.95924C45.6936 4.92898 45.5121 5.05301 45.4577 5.24057C45.4516 5.25569 45.3366 5.63987 44.895 5.81835C44.4412 5.99684 43.5518 6.00288 41.8941 5.01063C40.3362 4.07893 39.0838 3.78852 38.1672 4.15149C37.3474 4.4782 37.1327 5.20726 37.1265 5.23746C37.1175 5.27074 37.1114 5.30704 37.1114 5.34334V14.9872C35.1239 15.0628 33.1485 15.568 31.4575 16.5088C28.4385 18.1877 26.7475 20.998 26.69 24.4288V24.4318V24.4348V33.3678C26.69 33.3859 26.6991 33.4041 26.7021 33.4222L19.454 36.2114C19.451 36.2114 19.451 36.2144 19.448 36.2144C19.4207 36.2265 19.3965 36.2447 19.3723 36.2628C19.3542 36.2749 19.336 36.284 19.3209 36.2991C19.3058 36.3142 19.2967 36.3354 19.2816 36.3536C19.2665 36.3747 19.2483 36.3959 19.2362 36.4201C19.2302 36.4352 19.2302 36.4564 19.2241 36.4715C19.215 36.5018 19.206 36.5351 19.206 36.5684C19.2029 36.5653 19.2029 36.5653 19.2029 36.5684C19.2029 36.5926 19.212 36.6107 19.215 36.6349C19.2181 36.6591 19.2181 36.6833 19.2271 36.7105C19.2271 36.7136 19.2302 36.7136 19.2302 36.7166C19.2423 36.7438 19.2574 36.765 19.2755 36.7862C19.2876 36.8043 19.2967 36.8285 19.3149 36.8436C19.33 36.8588 19.3512 36.8709 19.3723 36.883C19.3935 36.8981 19.4117 36.9162 19.4359 36.9253C19.4601 36.9344 19.4843 36.9374 19.5085 36.9435C19.5327 36.9495 19.5569 36.9586 19.5811 36.9586C19.5841 36.9586 19.5871 36.9616 19.5901 36.9616H23.2626V38.0264L7.44428 38.0204C6.90582 38.0204 6.47021 38.456 6.47021 38.9884V63.8969C6.47021 64.4323 6.90924 64.8651 7.44467 64.8651ZM37.8864 5.4105C37.9318 5.3016 38.086 5.01119 38.4672 4.86599C38.9361 4.68751 39.8375 4.68448 41.4922 5.67371C43.0562 6.61146 44.3056 6.89884 45.201 6.52681C45.2888 6.49051 45.3704 6.45119 45.443 6.40581V10.5502C45.0619 10.768 43.9123 11.2218 41.9461 10.3989C40.9961 10.0027 40.1794 9.86653 39.5079 9.86653C38.797 9.86653 38.2525 10.0178 37.8864 10.163V5.4105ZM11.8558 64.0907V53.2279C11.8558 51.5278 13.2291 50.7534 14.5027 50.7534C15.7793 50.7534 17.1497 51.5278 17.1497 53.2279V64.0907H11.8558ZM17.9302 64.0907V53.2279C17.9302 51.0922 16.2059 49.976 14.5058 49.976C12.8057 49.976 11.0814 51.0922 11.0814 53.2279V64.0907H7.44823C7.33933 64.0907 7.24858 64.006 7.24858 63.9001V42.4796H18.5474V43.7592C18.5474 44.2947 18.983 44.7303 19.5184 44.7303H21.2246V45.7951C21.2246 46.0099 21.4 46.1823 21.6118 46.1823H22.0504V64.0877L17.9302 64.0907ZM55.4803 40.2982C55.5892 40.2982 55.6739 40.3859 55.6739 40.4918V43.7589C55.6739 43.8648 55.5862 43.9525 55.4803 43.9525H19.5177C19.4088 43.9525 19.3241 43.8648 19.3241 43.7589V40.4918C19.3241 40.3829 19.4119 40.2982 19.5177 40.2982H55.4803ZM47.4883 45.4076V44.7299H52.3708V45.4076H47.4883ZM47.1011 65.6331C46.8863 65.6331 46.7139 65.8086 46.7139 66.0203V67.064L44.6507 67.067V66.0233C44.6507 65.8086 44.4753 65.6361 44.2635 65.6361H43.8249L43.8218 46.185H44.2605C44.4753 46.185 44.6477 46.0096 44.6477 45.7978V44.733H46.7078V45.7978C46.7078 46.0126 46.8833 46.185 47.095 46.185H47.5337V65.6361L47.1011 65.6331ZM27.272 65.6331H26.8334L26.8304 46.1851H27.269C27.4838 46.1851 27.6562 46.0096 27.6562 45.7979V44.733H29.7163V45.7979C29.7163 46.0126 29.8918 46.1851 30.1035 46.1851H30.5422V65.6362H30.1035C29.8887 65.6362 29.7163 65.8117 29.7163 66.0234V67.0671H27.6593V66.0234C27.6593 65.8086 27.4868 65.6331 27.272 65.6331ZM22.0023 45.4076V44.7299H26.8848V45.4076H22.0023ZM31.3256 65.6331V46.1851H34.5503V65.6362L31.3256 65.6331ZM30.4967 45.4076V44.7299H35.3792V45.4076H30.4967ZM30.4967 66.4106H35.3792V67.0671H30.4967V66.4106ZM35.7664 65.6332H35.3278V46.1852H35.7664C35.9812 46.1852 36.1536 46.0097 36.1536 45.798V44.7331H38.2137V45.798C38.2137 46.0127 38.3862 46.1852 38.6009 46.1852H39.0396V65.6363H38.6009C38.3862 65.6363 38.2137 65.8117 38.2137 66.0235V67.0672H36.1536V66.0235C36.1566 65.8087 35.9812 65.6332 35.7664 65.6332ZM39.82 65.6332V46.1852H43.0448V65.6363L39.82 65.6332ZM38.9942 45.4076V44.73H43.8767V45.4076H38.9942ZM38.9942 66.4107H43.8767V67.0672H38.9942V66.4107ZM22.8282 46.1852H26.0529V65.6363H22.8282V46.1852ZM22.0023 66.4107H26.8848V67.0672H22.0023V66.4107ZM57.0387 68.0382V70.0317C57.0387 70.1407 56.9509 70.2254 56.8451 70.2254H17.5703C17.4614 70.2254 17.3767 70.1376 17.3767 70.0317V68.0382C17.3767 67.9293 17.4644 67.8446 17.5703 67.8446H56.842C56.9509 67.8446 57.0387 67.9324 57.0387 68.0382ZM52.371 67.0672H47.4885V66.4107H52.371V67.0672ZM48.3174 65.6333V46.1852H51.5421V65.6364L48.3174 65.6333ZM57.2658 64.0905V53.2277C57.2658 51.5276 58.6392 50.7532 59.9128 50.7532C61.1893 50.7532 62.5597 51.5276 62.5597 53.2277V64.0905H57.2658ZM67.5509 64.0905H63.3339L63.337 53.2277C63.337 51.092 61.6126 49.9757 59.9126 49.9757C58.2094 49.9757 56.4881 51.092 56.4881 53.2277V64.0905H52.3196V46.1851H52.7582C52.973 46.1851 53.1454 46.0096 53.1454 45.7979V44.733H55.4778C56.0132 44.733 56.4488 44.2974 56.4488 43.762V42.4824L67.7507 42.4794V63.8968C67.7507 64.0027 67.6628 64.0905 67.5509 64.0905ZM67.5509 38.7979C67.6598 38.7979 67.7505 38.8826 67.7505 38.9885V41.702H56.4517V40.4919C56.4517 39.9565 56.0161 39.5209 55.4807 39.5209H51.7357V38.7979H67.5509ZM21.6843 36.1812L37.4995 30.0977L53.3147 36.1812H21.6843ZM31.833 17.187C35.3694 15.2206 40.2123 15.269 43.6066 17.3019C45.3702 18.3577 47.4393 20.3815 47.521 24.0418H27.4953C27.6677 21.0863 29.1861 18.6572 31.833 17.187ZM27.4679 24.8193H47.53V33.1234L37.6383 29.3208C37.5476 29.2875 37.4508 29.2875 37.36 29.3208L27.4683 33.1264L27.4679 24.8193ZM50.9576 36.956V39.5213H24.0403V36.956H50.9576ZM7.44444 38.7983H23.2628V39.5213H19.5177C18.9823 39.5213 18.5467 39.9569 18.5467 40.4923V41.7023H7.24789V38.9888C7.24789 38.883 7.33553 38.7983 7.44444 38.7983Z" fill="white"/>
</svg>
