<svg width="75" height="75" viewBox="0 0 75 75" fill="none" xmlns="http://www.w3.org/2000/svg">
<path fill-rule="evenodd" clip-rule="evenodd" d="M32.2324 62.6102C32.2115 62.6102 32.1836 62.6102 32.1626 62.6067C31.7789 62.5683 31.4998 62.2264 31.5346 61.8427C31.5486 61.7031 32.8359 47.7097 25.8548 44.8034C25.8409 44.7999 25.8269 44.7895 25.8095 44.786C25.6211 44.6953 21.1729 42.4764 18.5004 39.6226L18.4969 39.6191C18.319 39.4237 18.1341 39.2214 17.9387 39.0086C16.5746 37.4944 14.872 35.607 13.18 35.5581C12.7125 35.5442 12.2554 35.6698 11.8019 35.9454C11.7112 36.064 11.5856 36.1547 11.4391 36.1931C11.289 36.3047 11.1425 36.4373 10.9925 36.5873C10.5459 37.0339 9.99816 37.5816 9.96681 37.8189C9.95286 37.9165 10.075 38.1712 10.7309 38.8271L22.3273 50.0753C22.6029 50.3439 22.6099 50.787 22.3413 51.0626C22.0727 51.3382 21.6296 51.3452 21.3539 51.0766L9.75388 39.8249C9.7504 39.8214 9.7504 39.8214 9.74691 39.8179C9.07008 39.1411 8.46999 38.4642 8.58163 37.6339C8.67234 36.9675 9.15728 36.4512 10.0086 35.6069L10.0121 35.6034C10.1865 35.429 10.3645 35.272 10.5424 35.1325V23.5458C10.5424 22.1503 9.36318 20.9746 7.97113 20.9746H6.6175C5.95462 20.9746 5.3964 21.5328 5.3964 22.1957V37.3718V38.08C5.38943 40.264 5.38943 40.4908 6.54426 42.769C8.3968 46.3834 10.0471 47.7859 12.5451 49.9036C13.3894 50.6188 14.3522 51.4352 15.4234 52.4295C17.0596 53.9262 18.9331 56.7905 18.6121 61.9718C18.5842 62.3555 18.2598 62.6486 17.8725 62.6277C17.4887 62.5998 17.1957 62.2753 17.2166 61.888C17.5062 57.2619 15.8874 54.7534 14.4779 53.4626C14.4779 53.4626 14.4744 53.4626 14.4744 53.4591C13.4243 52.4822 12.4788 51.6798 11.6415 50.9715C9.11211 48.8259 7.28395 47.2734 5.30226 43.4077C3.99042 40.826 3.994 40.4073 4.00096 38.0768V37.3755V22.1994C4.00096 21.5051 4.27658 20.8527 4.77199 20.3538C5.27089 19.8549 5.93726 19.5828 6.62801 19.5828H7.98165C9.0318 19.5828 10.0261 19.9979 10.7832 20.7515C11.5367 21.5051 11.9519 22.4994 11.9519 23.553V34.3716C12.3706 34.232 12.7927 34.1692 13.2288 34.1832C15.5175 34.2495 17.4434 36.3811 18.9853 38.0906C19.1772 38.3 19.3552 38.5023 19.5296 38.6872C21.9438 41.2585 26.106 43.3832 26.42 43.5402C28.2864 44.3252 29.7901 45.8079 30.8856 47.9535C31.7404 49.6247 32.3509 51.7005 32.6998 54.1253C33.2894 58.2072 32.944 61.839 32.9266 61.9925C32.8882 62.3554 32.5812 62.624 32.2288 62.624L32.2324 62.6102Z" fill="white"/>
<path fill-rule="evenodd" clip-rule="evenodd" d="M34.4546 66.8392C34.0708 66.8392 33.7568 66.5252 33.7568 66.1415V64.0028C33.7568 63.2493 33.0974 62.6073 32.3159 62.6073H17.9248C17.1852 62.6073 16.5293 63.2632 16.5293 64.0028V66.1415C16.5293 66.5252 16.2153 66.8392 15.8316 66.8392C15.4478 66.8392 15.1338 66.5252 15.1338 66.1415V64.0028C15.1338 62.4887 16.4107 61.2118 17.9248 61.2118H32.3159C33.066 61.2118 33.7777 61.5048 34.3185 62.0352C34.8558 62.5655 35.1523 63.2667 35.1523 64.0028V66.1414C35.1523 66.5252 34.8384 66.8392 34.4546 66.8392Z" fill="white"/>
<path fill-rule="evenodd" clip-rule="evenodd" d="M6.63122 29.9903H4.71241C4.32864 29.9903 4.01465 29.6763 4.01465 29.2926C4.01465 28.9088 4.32864 28.5948 4.71241 28.5948H6.63122C7.25572 28.5948 7.72326 28.1273 7.72326 27.5028V20.3507C7.72326 19.9669 8.03725 19.653 8.42102 19.653C8.80479 19.653 9.11878 19.9669 9.11878 20.3507V27.5028C9.11878 28.8983 8.02675 29.9903 6.63122 29.9903Z" fill="white"/>
<path fill-rule="evenodd" clip-rule="evenodd" d="M57.0903 62.6103C56.7239 62.6103 56.4169 62.3277 56.3925 61.9543C56.0715 56.7769 57.9485 53.9092 59.5813 52.4121C60.6558 51.4178 61.6152 50.6014 62.4596 49.8862C64.9541 47.765 66.6077 46.366 68.4604 42.7516C69.6152 40.4734 69.6152 40.2466 69.6082 38.0626V37.3544V22.1782C69.6082 21.5153 69.05 20.9571 68.3871 20.9571H67.037C65.6414 20.9571 64.4657 22.1363 64.4657 23.5284V35.1213C64.6437 35.2643 64.8251 35.4213 64.996 35.5923L64.9995 35.5958C65.8508 36.447 66.3357 36.9564 66.4265 37.6227C66.5381 38.4531 65.9415 39.1334 65.2612 39.8067C65.2577 39.8102 65.2577 39.8102 65.2542 39.8137L53.6542 51.0654C53.3786 51.3341 52.9355 51.3271 52.6668 51.0515C52.3982 50.7758 52.4052 50.3328 52.6808 50.0641L64.2772 38.8159C64.9331 38.16 65.0552 37.9089 65.0413 37.8077C65.0099 37.5704 64.4587 37.0227 64.0156 36.5761C63.8656 36.4261 63.7191 36.3005 63.569 36.1819C63.419 36.1365 63.2934 36.0493 63.2062 35.9342C62.7527 35.6586 62.2957 35.533 61.8281 35.5469C60.1361 35.5958 58.4335 37.4833 57.0694 38.9974C56.8775 39.2102 56.6961 39.4161 56.5112 39.6079L56.5077 39.6114C53.8352 42.4653 49.387 44.6842 49.1986 44.7748C49.1847 44.7818 49.1707 44.7888 49.1533 44.7923C42.1757 47.6984 43.463 61.685 43.4735 61.8315C43.5118 62.2153 43.2292 62.5572 42.8455 62.5956C42.4617 62.6339 42.1198 62.3513 42.0814 61.9676C42.0675 61.8141 41.7186 58.1822 42.3082 54.1003C42.6571 51.6756 43.2676 49.5997 44.1223 47.9286C45.2213 45.783 46.7215 44.2967 48.588 43.5152C48.902 43.3582 53.0642 41.2335 55.4784 38.6623C55.6528 38.4739 55.8308 38.275 56.0226 38.0657C57.5682 36.3526 59.4905 34.2245 61.7792 34.1582C62.2153 34.1443 62.6374 34.2105 63.0561 34.3466V23.5209C63.0561 22.4708 63.4713 21.4764 64.2248 20.7194C64.9784 19.9658 65.9727 19.5507 67.0263 19.5507H68.3765C69.0708 19.5507 69.7232 19.8263 70.2221 20.3217C70.721 20.8206 70.9931 21.473 70.9931 22.1673V37.3434V38.0447C71.0001 40.3752 71.0071 40.7938 69.6918 43.3756C67.7066 47.2447 65.8786 48.7937 63.3526 50.9429C62.5188 51.6511 61.5733 52.457 60.5197 53.4305C60.5197 53.4305 60.5162 53.4305 60.5162 53.4339C59.1067 54.7248 57.4844 57.2333 57.7775 61.8594C57.8054 62.2432 57.5088 62.5746 57.1216 62.599C57.1181 62.5956 57.1006 62.5956 57.0867 62.5956L57.0903 62.6103Z" fill="white"/>
<path fill-rule="evenodd" clip-rule="evenodd" d="M59.1826 66.8392H40.5625C40.1787 66.8392 39.8647 66.5252 39.8647 66.1414V64.0028C39.8647 63.2667 40.1613 62.5619 40.6986 62.0352C41.2358 61.5049 41.9475 61.2118 42.7012 61.2118H57.0923C58.6064 61.2118 59.8833 62.4887 59.8833 64.0028V66.1415C59.8833 66.5252 59.5693 66.8392 59.1855 66.8392L59.1826 66.8392ZM41.2574 65.4437H58.4851V64.0028C58.4851 63.2632 57.8292 62.6073 57.0895 62.6073H42.6984C41.9169 62.6073 41.2575 63.2492 41.2575 64.0028L41.2574 65.4437Z" fill="white"/>
<path fill-rule="evenodd" clip-rule="evenodd" d="M70.3024 29.9903H68.3836C66.988 29.9903 65.896 28.8983 65.896 27.5028V20.3507C65.896 19.9669 66.21 19.653 66.5938 19.653C66.9775 19.653 67.2915 19.9669 67.2915 20.3507V27.5028C67.2915 28.1273 67.759 28.5948 68.3836 28.5948H70.3024C70.6861 28.5948 71.0001 28.9088 71.0001 29.2926C71.0001 29.6763 70.6861 29.9903 70.3024 29.9903Z" fill="white"/>
<path fill-rule="evenodd" clip-rule="evenodd" d="M34.4546 66.8392H15.8345C15.4507 66.8392 15.1367 66.5253 15.1367 66.1415C15.1367 65.7577 15.4507 65.4437 15.8345 65.4437H34.4546C34.8383 65.4437 35.1523 65.7577 35.1523 66.1415C35.1523 66.5253 34.8383 66.8392 34.4546 66.8392Z" fill="white"/>
<path fill-rule="evenodd" clip-rule="evenodd" d="M37.5072 41.283C37.3188 41.283 37.1443 41.2098 37.0153 41.0772L22.7108 26.7281L22.5782 26.5955C20.5303 24.5685 19.3999 21.8507 19.3999 18.9515C19.3999 16.0523 20.5303 13.3345 22.5852 11.304C24.6122 9.27706 27.3265 8.16064 30.2292 8.16064C32.9574 8.16064 35.5287 9.15149 37.5103 10.9621C39.4955 9.15149 42.0632 8.16064 44.7914 8.16064C47.6906 8.16064 50.4084 9.27706 52.4354 11.3075C54.4833 13.3345 55.6137 16.0523 55.6137 18.9515C55.6137 21.8507 54.4833 24.5685 52.4284 26.599L52.3028 26.7246L37.9984 41.0737C37.8623 41.2063 37.6879 41.2795 37.4995 41.2795L37.5072 41.283ZM30.2261 9.54189C27.8153 9.54189 25.4046 10.4594 23.566 12.2945C21.7797 14.0669 20.7923 16.4288 20.7923 18.9546C20.7923 21.4805 21.7797 23.8425 23.5625 25.6078L23.6985 25.7438L37.5109 39.5946L51.3232 25.7438L51.4558 25.6113C53.2421 23.8389 54.2294 21.477 54.2294 18.9512C54.2294 16.4253 53.2421 14.0633 51.4593 12.298C47.7821 8.6208 41.8125 8.6208 38.1391 12.2945L38.0065 12.4271C37.7378 12.6957 37.2913 12.6957 37.0191 12.4271L36.8865 12.2945C35.0479 10.4594 32.6337 9.54188 30.2229 9.54188L30.2261 9.54189Z" fill="white"/>
</svg>
