<svg xmlns="http://www.w3.org/2000/svg" xmlns:xlink="http://www.w3.org/1999/xlink" width="52" zoomAndPan="magnify" viewBox="0 0 39 38.999999" height="52" preserveAspectRatio="xMidYMid meet" version="1.0"><defs><clipPath id="b8795ee58c"><path d="M 0.359375 3.898438 L 38.609375 3.898438 L 38.609375 35.398438 L 0.359375 35.398438 Z M 0.359375 3.898438 " clip-rule="nonzero"/></clipPath></defs><g clip-path="url(#b8795ee58c)"><path fill="#000000" d="M 35.449219 20.425781 L 35.449219 9.65625 C 35.449219 9.566406 35.421875 9.480469 35.378906 9.410156 C 35.378906 9.410156 32.253906 4.136719 32.253906 4.136719 C 32.167969 3.992188 32.015625 3.902344 31.847656 3.902344 L 11 3.902344 C 10.832031 3.902344 10.679688 3.992188 10.59375 4.136719 L 7.46875 9.410156 C 7.425781 9.480469 7.398438 9.566406 7.398438 9.65625 L 7.398438 13.988281 L 6.175781 15.226562 C 5.351562 16.054688 4.347656 16.476562 3.1875 16.476562 L 0.839844 16.476562 C 0.578125 16.476562 0.363281 16.691406 0.363281 16.957031 L 0.363281 28.203125 C 0.363281 28.46875 0.578125 28.683594 0.839844 28.683594 L 1.601562 28.683594 C 2.164062 28.683594 2.628906 28.820312 3.105469 29.121094 L 3.421875 29.324219 C 4.050781 29.726562 4.6875 29.914062 5.433594 29.914062 L 7.398438 29.914062 L 7.398438 31.753906 C 7.398438 32.019531 7.613281 32.234375 7.875 32.234375 L 23.796875 32.234375 C 25.324219 34.164062 27.667969 35.398438 30.292969 35.398438 C 34.875 35.398438 38.601562 31.632812 38.601562 27.003906 C 38.601562 24.34375 37.367188 21.964844 35.445312 20.425781 Z M 34.132812 9.175781 L 21.898438 9.175781 L 21.898438 4.863281 L 31.578125 4.863281 Z M 18.265625 10.136719 L 24.582031 10.136719 L 24.582031 14.152344 L 18.265625 14.152344 Z M 11.269531 4.863281 L 20.949219 4.863281 L 20.949219 9.175781 L 8.714844 9.175781 Z M 3.1875 17.4375 C 4.609375 17.4375 5.84375 16.921875 6.847656 15.90625 L 7.402344 15.347656 L 7.402344 16.945312 L 6.175781 18.183594 C 5.355469 19.011719 4.347656 19.433594 3.1875 19.433594 L 1.316406 19.433594 L 1.316406 17.4375 Z M 3.929688 28.511719 L 3.613281 28.308594 C 2.984375 27.90625 2.347656 27.722656 1.601562 27.722656 L 1.316406 27.722656 L 1.316406 20.394531 L 3.1875 20.394531 C 4.609375 20.394531 5.84375 19.878906 6.847656 18.863281 L 10.101562 15.574219 L 10.234375 15.707031 C 10.460938 15.941406 10.589844 16.25 10.589844 16.578125 C 10.589844 16.90625 10.460938 17.214844 10.234375 17.445312 L 8.128906 19.574219 C 7.992188 19.710938 7.949219 19.917969 8.023438 20.097656 C 8.097656 20.277344 8.273438 20.394531 8.464844 20.394531 L 14.917969 20.394531 C 15.304688 20.394531 15.617188 20.710938 15.617188 21.101562 C 15.617188 21.492188 15.304688 21.8125 14.917969 21.8125 L 10.355469 21.8125 C 10.09375 21.8125 9.882812 22.027344 9.882812 22.292969 C 9.882812 22.558594 10.09375 22.773438 10.355469 22.773438 L 16.0625 22.773438 C 16.449219 22.773438 16.765625 23.089844 16.765625 23.480469 C 16.765625 23.871094 16.449219 24.191406 16.0625 24.191406 L 10.355469 24.191406 C 10.09375 24.191406 9.882812 24.40625 9.882812 24.671875 C 9.882812 24.9375 10.09375 25.152344 10.355469 25.152344 L 14.917969 25.152344 C 15.304688 25.152344 15.617188 25.46875 15.617188 25.859375 C 15.617188 26.25 15.304688 26.570312 14.917969 26.570312 L 10.355469 26.570312 C 10.09375 26.570312 9.882812 26.785156 9.882812 27.050781 C 9.882812 27.316406 10.09375 27.53125 10.355469 27.53125 L 12.582031 27.53125 C 12.96875 27.53125 13.285156 27.851562 13.285156 28.238281 C 13.285156 28.628906 12.96875 28.949219 12.582031 28.949219 L 5.433594 28.949219 C 4.871094 28.949219 4.40625 28.8125 3.929688 28.511719 Z M 8.351562 31.273438 L 8.351562 29.910156 L 12.582031 29.910156 C 13.496094 29.910156 14.238281 29.164062 14.238281 28.242188 C 14.238281 27.988281 14.179688 27.746094 14.082031 27.53125 L 14.917969 27.53125 C 15.828125 27.53125 16.570312 26.785156 16.570312 25.863281 C 16.570312 25.597656 16.507812 25.34375 16.398438 25.121094 C 17.148438 24.960938 17.714844 24.289062 17.714844 23.484375 C 17.714844 22.679688 17.148438 22.003906 16.398438 21.847656 C 16.507812 21.625 16.570312 21.371094 16.570312 21.105469 C 16.570312 20.183594 15.828125 19.433594 14.917969 19.433594 L 9.613281 19.433594 L 10.90625 18.128906 C 11.316406 17.714844 11.539062 17.167969 11.539062 16.578125 C 11.539062 15.992188 11.316406 15.445312 10.90625 15.03125 L 10.4375 14.554688 C 10.25 14.367188 9.949219 14.367188 9.765625 14.554688 L 8.351562 15.984375 L 8.351562 10.136719 L 17.3125 10.136719 L 17.3125 14.632812 C 17.3125 14.898438 17.527344 15.113281 17.789062 15.113281 L 25.058594 15.113281 C 25.320312 15.113281 25.53125 14.898438 25.53125 14.632812 L 25.53125 10.136719 L 34.496094 10.136719 L 34.496094 19.765625 C 33.261719 19.03125 31.824219 18.609375 30.292969 18.609375 C 25.710938 18.609375 21.984375 22.375 21.984375 27.003906 C 21.984375 28.5625 22.40625 30.019531 23.140625 31.273438 Z M 30.292969 34.4375 C 26.238281 34.4375 22.9375 31.101562 22.9375 27.003906 C 22.9375 22.90625 26.238281 19.570312 30.292969 19.570312 C 34.351562 19.570312 37.648438 22.90625 37.648438 27.003906 C 37.648438 31.101562 34.351562 34.4375 30.292969 34.4375 Z M 32.21875 23.5 L 29.152344 26.796875 L 28.292969 25.980469 C 27.589844 25.3125 26.480469 25.347656 25.816406 26.058594 C 25.15625 26.769531 25.191406 27.890625 25.894531 28.558594 L 28.03125 30.585938 C 28.367188 30.90625 28.796875 31.066406 29.226562 31.066406 C 29.695312 31.066406 30.160156 30.878906 30.503906 30.507812 L 34.769531 25.921875 C 35.429688 25.210938 35.394531 24.089844 34.691406 23.421875 C 33.988281 22.753906 32.878906 22.789062 32.21875 23.5 Z M 34.078125 25.265625 L 29.8125 29.851562 C 29.511719 30.175781 29.003906 30.191406 28.683594 29.886719 L 26.546875 27.859375 C 26.226562 27.554688 26.210938 27.042969 26.511719 26.71875 C 26.667969 26.546875 26.882812 26.464844 27.09375 26.464844 C 27.292969 26.464844 27.488281 26.535156 27.640625 26.683594 L 28.847656 27.828125 C 28.941406 27.914062 29.0625 27.960938 29.1875 27.957031 C 29.316406 27.953125 29.433594 27.898438 29.519531 27.804688 L 32.910156 24.160156 C 33.214844 23.832031 33.722656 23.816406 34.042969 24.125 C 34.363281 24.429688 34.378906 24.941406 34.078125 25.265625 Z M 34.078125 25.265625 " fill-opacity="1" fill-rule="nonzero"/></g></svg>