<svg xmlns="http://www.w3.org/2000/svg" xmlns:xlink="http://www.w3.org/1999/xlink" width="52" zoomAndPan="magnify" viewBox="0 0 39 38.999999" height="52" preserveAspectRatio="xMidYMid meet" version="1.0"><defs><clipPath id="30d8115e57"><path d="M 0.335938 16 L 38.585938 16 L 38.585938 21 L 0.335938 21 Z M 0.335938 16 " clip-rule="nonzero"/></clipPath><clipPath id="a54a7e6cea"><path d="M 0.335938 35 L 38.585938 35 L 38.585938 36 L 0.335938 36 Z M 0.335938 35 " clip-rule="nonzero"/></clipPath><clipPath id="4b955e3433"><path d="M 25 4 L 38.585938 4 L 38.585938 6 L 25 6 Z M 25 4 " clip-rule="nonzero"/></clipPath></defs><path fill="#000000" d="M 16.054688 30.292969 L 9.976562 30.292969 C 9.058594 30.292969 8.429688 28.992188 7.9375 27.78125 C 7.914062 27.667969 7.871094 27.578125 7.847656 27.511719 C 7.847656 27.511719 7.824219 27.511719 7.824219 27.511719 L 6.839844 24.976562 C 6.773438 24.777344 6.863281 24.574219 7.0625 24.484375 C 7.242188 24.417969 7.46875 24.507812 7.535156 24.707031 L 8.519531 27.21875 C 8.566406 27.308594 8.589844 27.398438 8.632812 27.488281 C 9.195312 28.855469 9.640625 29.550781 9.976562 29.550781 L 16.054688 29.550781 C 16.257812 29.550781 16.4375 29.730469 16.4375 29.933594 C 16.4375 30.136719 16.257812 30.292969 16.054688 30.292969 Z M 16.054688 30.292969 " fill-opacity="1" fill-rule="evenodd"/><path fill="#000000" d="M 28.945312 32.871094 L 9.976562 32.871094 C 7.445312 32.871094 6.300781 30.605469 5.449219 28.476562 L 1.996094 19.820312 C 1.929688 19.621094 2.019531 19.417969 2.222656 19.328125 C 2.398438 19.261719 2.625 19.351562 2.691406 19.550781 L 6.144531 28.207031 C 6.953125 30.179688 7.894531 32.128906 9.976562 32.128906 L 28.945312 32.128906 C 31.03125 32.128906 31.996094 30.179688 32.78125 28.207031 L 36.210938 19.550781 C 36.300781 19.351562 36.503906 19.261719 36.703125 19.328125 C 36.882812 19.417969 36.996094 19.621094 36.90625 19.820312 L 33.476562 28.476562 C 32.625 30.605469 31.503906 32.871094 28.945312 32.871094 Z M 28.945312 32.871094 " fill-opacity="1" fill-rule="evenodd"/><g clip-path="url(#30d8115e57)"><path fill="#000000" d="M 36.769531 20.046875 L 2.152344 20.046875 C 1.144531 20.046875 0.335938 19.238281 0.335938 18.230469 C 0.335938 17.242188 1.167969 16.390625 2.152344 16.390625 L 36.769531 16.390625 C 37.78125 16.390625 38.585938 17.21875 38.585938 18.230469 C 38.585938 19.238281 37.78125 20.046875 36.769531 20.046875 Z M 2.152344 17.152344 C 1.570312 17.152344 1.101562 17.644531 1.101562 18.230469 C 1.101562 18.8125 1.570312 19.304688 2.152344 19.304688 L 36.769531 19.304688 C 37.355469 19.304688 37.847656 18.8125 37.847656 18.230469 C 37.847656 17.644531 37.355469 17.152344 36.769531 17.152344 Z M 2.152344 17.152344 " fill-opacity="1" fill-rule="evenodd"/></g><path fill="#000000" d="M 10.335938 35.785156 C 9.441406 35.785156 8.722656 35.066406 8.722656 34.191406 L 8.722656 32.421875 C 8.722656 32.21875 8.902344 32.039062 9.105469 32.039062 C 9.304688 32.039062 9.484375 32.21875 9.484375 32.421875 L 9.484375 34.191406 C 9.484375 34.640625 9.867188 35.046875 10.335938 35.046875 C 10.808594 35.046875 11.1875 34.640625 11.1875 34.191406 L 11.1875 32.511719 C 11.1875 32.308594 11.367188 32.128906 11.570312 32.128906 C 11.773438 32.128906 11.953125 32.308594 11.953125 32.511719 L 11.953125 34.191406 C 11.953125 35.066406 11.210938 35.785156 10.335938 35.785156 Z M 10.335938 35.785156 " fill-opacity="1" fill-rule="evenodd"/><path fill="#000000" d="M 28.609375 35.785156 C 27.714844 35.785156 26.996094 35.066406 26.996094 34.191406 L 26.996094 32.511719 C 26.996094 32.308594 27.175781 32.128906 27.378906 32.128906 C 27.578125 32.128906 27.734375 32.308594 27.734375 32.511719 L 27.734375 34.191406 C 27.734375 34.664062 28.140625 35.046875 28.609375 35.046875 C 29.082031 35.046875 29.460938 34.640625 29.460938 34.191406 L 29.460938 32.421875 C 29.460938 32.21875 29.640625 32.039062 29.84375 32.039062 C 30.046875 32.039062 30.203125 32.21875 30.203125 32.421875 L 30.203125 34.191406 C 30.203125 35.066406 29.484375 35.785156 28.609375 35.785156 Z M 28.609375 35.785156 " fill-opacity="1" fill-rule="evenodd"/><path fill="#000000" d="M 6.617188 15.089844 C 6.414062 15.089844 6.234375 14.910156 6.234375 14.710938 L 6.234375 8.566406 C 6.234375 7.914062 6.503906 7.332031 6.953125 6.882812 C 7.398438 6.4375 7.984375 6.167969 8.632812 6.167969 C 9.285156 6.167969 9.867188 6.4375 10.316406 6.882812 C 10.761719 7.332031 11.03125 7.914062 11.03125 8.566406 C 11.03125 8.769531 10.851562 8.945312 10.652344 8.945312 C 10.449219 8.945312 10.269531 8.769531 10.269531 8.566406 C 10.269531 8.117188 10.113281 7.714844 9.777344 7.421875 C 9.777344 7.421875 9.777344 7.421875 9.777344 7.398438 C 9.460938 7.085938 9.082031 6.929688 8.632812 6.929688 C 8.183594 6.929688 7.78125 7.085938 7.488281 7.398438 C 7.488281 7.421875 7.488281 7.421875 7.46875 7.421875 C 7.152344 7.714844 6.996094 8.117188 6.996094 8.566406 L 6.996094 14.710938 C 6.996094 14.910156 6.816406 15.089844 6.617188 15.089844 Z M 4.464844 15.089844 C 4.261719 15.089844 4.082031 14.910156 4.082031 14.710938 L 4.082031 8.566406 C 4.082031 7.355469 4.574219 6.1875 5.425781 5.359375 C 6.257812 4.507812 7.421875 4.015625 8.632812 4.015625 C 9.820312 4.015625 10.964844 4.507812 11.839844 5.359375 C 12.691406 6.1875 13.183594 7.355469 13.183594 8.566406 C 13.183594 8.769531 13.003906 8.945312 12.804688 8.945312 C 12.601562 8.945312 12.421875 8.769531 12.421875 8.566406 C 12.421875 7.558594 12.019531 6.59375 11.300781 5.898438 C 10.582031 5.15625 9.621094 4.777344 8.632812 4.777344 C 7.625 4.777344 6.660156 5.179688 5.964844 5.898438 C 5.246094 6.59375 4.84375 7.558594 4.84375 8.566406 L 4.84375 14.710938 C 4.84375 14.910156 4.664062 15.089844 4.464844 15.089844 Z M 4.464844 15.089844 " fill-opacity="1" fill-rule="evenodd"/><path fill="#000000" d="M 12.558594 10.5625 L 10.875 10.5625 C 10.539062 10.5625 10.269531 10.292969 10.269531 9.957031 L 10.269531 8.566406 C 10.269531 8.363281 10.449219 8.183594 10.652344 8.183594 L 12.804688 8.183594 C 13.003906 8.183594 13.183594 8.363281 13.183594 8.566406 L 13.183594 9.957031 C 13.183594 10.269531 12.894531 10.5625 12.558594 10.5625 Z M 11.03125 9.800781 L 12.421875 9.800781 L 12.421875 8.945312 L 11.03125 8.945312 Z M 11.03125 9.800781 " fill-opacity="1" fill-rule="evenodd"/><path fill="#000000" d="M 25.15625 17.152344 C 25.113281 17.152344 25.066406 17.128906 25.023438 17.109375 C 24.820312 17.042969 24.730469 16.839844 24.796875 16.636719 C 24.84375 16.523438 24.867188 16.390625 24.867188 16.210938 C 24.867188 15.316406 24.171875 14.621094 23.273438 14.621094 C 23.027344 14.621094 22.871094 14.640625 22.757812 14.6875 C 22.625 14.753906 22.46875 14.730469 22.355469 14.640625 C 22.265625 14.550781 22.199219 14.417969 22.21875 14.285156 C 22.242188 14.195312 22.242188 14.105469 22.242188 14.015625 C 22.242188 13.117188 21.546875 12.421875 20.652344 12.421875 C 19.777344 12.421875 19.082031 13.074219 19.035156 13.945312 C 19.035156 14.082031 18.96875 14.195312 18.835938 14.261719 C 18.699219 14.328125 18.566406 14.304688 18.453125 14.214844 C 18.160156 14.015625 17.824219 13.902344 17.488281 13.902344 C 16.792969 13.902344 16.210938 14.304688 15.988281 14.933594 C 15.941406 15.046875 15.851562 15.136719 15.742188 15.179688 C 15.628906 15.203125 15.492188 15.179688 15.40625 15.113281 C 15.066406 14.867188 14.710938 14.753906 14.351562 14.753906 C 13.453125 14.753906 12.757812 15.449219 12.757812 16.347656 C 12.757812 16.457031 12.757812 16.570312 12.78125 16.703125 L 12.421875 16.773438 L 12.042969 16.839844 L 12.421875 16.773438 L 12.042969 16.816406 C 12.019531 16.683594 11.996094 16.523438 11.996094 16.347656 C 11.996094 15.023438 13.027344 13.992188 14.351562 13.992188 C 14.730469 13.992188 15.113281 14.082031 15.472656 14.285156 C 15.875 13.566406 16.636719 13.140625 17.488281 13.140625 C 17.804688 13.140625 18.09375 13.207031 18.386719 13.339844 C 18.679688 12.355469 19.574219 11.660156 20.652344 11.660156 C 21.90625 11.660156 22.914062 12.625 22.984375 13.878906 C 23.09375 13.855469 23.183594 13.855469 23.273438 13.855469 C 24.574219 13.855469 25.605469 14.886719 25.605469 16.210938 C 25.605469 16.480469 25.582031 16.703125 25.492188 16.90625 C 25.449219 17.042969 25.3125 17.152344 25.15625 17.152344 Z M 25.15625 17.152344 " fill-opacity="1" fill-rule="evenodd"/><g clip-path="url(#a54a7e6cea)"><path fill="#000000" d="M 38.230469 35.785156 L 0.71875 35.785156 C 0.515625 35.785156 0.335938 35.628906 0.335938 35.425781 C 0.335938 35.203125 0.515625 35.046875 0.71875 35.046875 L 38.230469 35.046875 C 38.429688 35.046875 38.585938 35.203125 38.585938 35.425781 C 38.585938 35.628906 38.429688 35.785156 38.230469 35.785156 Z M 38.230469 35.785156 " fill-opacity="1" fill-rule="evenodd"/></g><path fill="#000000" d="M 8.925781 17.152344 C 8.722656 17.152344 8.542969 16.972656 8.542969 16.773438 L 8.542969 15.742188 C 8.542969 15.382812 8.253906 15.089844 7.894531 15.089844 L 3.207031 15.089844 C 2.847656 15.089844 2.535156 15.382812 2.535156 15.742188 L 2.535156 16.773438 C 2.535156 16.972656 2.355469 17.152344 2.152344 17.152344 C 1.953125 17.152344 1.773438 16.972656 1.773438 16.773438 L 1.773438 15.742188 C 1.773438 14.957031 2.421875 14.328125 3.207031 14.328125 L 7.894531 14.328125 C 8.65625 14.328125 9.304688 14.976562 9.304688 15.742188 L 9.304688 16.773438 C 9.304688 16.972656 9.125 17.152344 8.925781 17.152344 Z M 8.925781 17.152344 " fill-opacity="1" fill-rule="evenodd"/><path fill="#000000" d="M 34.820312 13.183594 L 29.507812 13.183594 C 28.585938 13.183594 27.847656 12.445312 27.847656 11.546875 L 27.847656 4.777344 C 27.847656 3.878906 28.585938 3.140625 29.507812 3.140625 L 34.820312 3.140625 C 35.71875 3.140625 36.433594 3.878906 36.433594 4.777344 L 36.433594 11.546875 C 36.433594 12.445312 35.71875 13.183594 34.820312 13.183594 Z M 29.507812 3.902344 C 29.015625 3.902344 28.585938 4.285156 28.585938 4.777344 L 28.585938 11.546875 C 28.585938 12.042969 29.015625 12.421875 29.507812 12.421875 L 34.820312 12.421875 C 35.292969 12.421875 35.695312 12.042969 35.695312 11.546875 L 35.695312 4.777344 C 35.695312 4.285156 35.292969 3.902344 34.820312 3.902344 Z M 29.507812 3.902344 " fill-opacity="1" fill-rule="evenodd"/><path fill="#000000" d="M 34.730469 10.269531 C 33.789062 10.269531 32.871094 10.046875 32.199219 9.621094 C 30.539062 8.632812 28.410156 9.621094 28.386719 9.640625 C 28.207031 9.730469 27.984375 9.640625 27.894531 9.460938 C 27.804688 9.285156 27.871094 9.058594 28.050781 8.96875 C 28.160156 8.925781 30.582031 7.78125 32.578125 8.992188 C 33.453125 9.53125 34.796875 9.6875 35.988281 9.375 C 36.167969 9.304688 36.390625 9.441406 36.433594 9.640625 C 36.480469 9.84375 36.367188 10.046875 36.167969 10.089844 C 35.695312 10.203125 35.203125 10.269531 34.730469 10.269531 Z M 34.730469 10.269531 " fill-opacity="1" fill-rule="evenodd"/><path fill="#000000" d="M 34.753906 11.75 C 33.8125 11.75 32.894531 11.527344 32.199219 11.097656 C 30.539062 10.113281 28.410156 11.097656 28.386719 11.121094 C 28.207031 11.210938 27.984375 11.121094 27.894531 10.941406 C 27.804688 10.761719 27.871094 10.539062 28.050781 10.449219 C 28.160156 10.40625 30.582031 9.261719 32.578125 10.472656 C 33.476562 11.011719 34.820312 11.144531 35.988281 10.851562 C 36.167969 10.785156 36.390625 10.921875 36.433594 11.121094 C 36.480469 11.324219 36.367188 11.527344 36.167969 11.570312 C 35.71875 11.683594 35.222656 11.75 34.753906 11.75 Z M 34.753906 11.75 " fill-opacity="1" fill-rule="evenodd"/><path fill="#000000" d="M 29.507812 14.417969 C 29.304688 14.417969 29.125 14.238281 29.125 14.035156 L 29.125 12.804688 C 29.125 12.601562 29.304688 12.421875 29.507812 12.421875 C 29.707031 12.421875 29.867188 12.601562 29.867188 12.804688 L 29.867188 14.035156 C 29.867188 14.238281 29.707031 14.417969 29.507812 14.417969 Z M 29.507812 14.417969 " fill-opacity="1" fill-rule="evenodd"/><path fill="#000000" d="M 31.277344 14.417969 C 31.078125 14.417969 30.898438 14.238281 30.898438 14.035156 L 30.898438 12.804688 C 30.898438 12.601562 31.078125 12.421875 31.277344 12.421875 C 31.480469 12.421875 31.636719 12.601562 31.636719 12.804688 L 31.636719 14.035156 C 31.636719 14.238281 31.480469 14.417969 31.277344 14.417969 Z M 31.277344 14.417969 " fill-opacity="1" fill-rule="evenodd"/><path fill="#000000" d="M 33.050781 14.417969 C 32.847656 14.417969 32.667969 14.238281 32.667969 14.035156 L 32.667969 12.804688 C 32.667969 12.601562 32.847656 12.421875 33.050781 12.421875 C 33.25 12.421875 33.410156 12.601562 33.410156 12.804688 L 33.410156 14.035156 C 33.410156 14.238281 33.25 14.417969 33.050781 14.417969 Z M 33.050781 14.417969 " fill-opacity="1" fill-rule="evenodd"/><path fill="#000000" d="M 34.820312 14.417969 C 34.617188 14.417969 34.441406 14.238281 34.441406 14.035156 L 34.441406 12.804688 C 34.441406 12.601562 34.617188 12.421875 34.820312 12.421875 C 35.023438 12.421875 35.179688 12.601562 35.179688 12.804688 L 35.179688 14.035156 C 35.179688 14.238281 35.023438 14.417969 34.820312 14.417969 Z M 34.820312 14.417969 " fill-opacity="1" fill-rule="evenodd"/><g clip-path="url(#4b955e3433)"><path fill="#000000" d="M 38.230469 5.628906 L 36.078125 5.628906 C 35.851562 5.628906 35.695312 5.449219 35.695312 5.246094 C 35.695312 5.046875 35.851562 4.867188 36.078125 4.867188 L 38.230469 4.867188 C 38.429688 4.867188 38.585938 5.046875 38.585938 5.246094 C 38.585938 5.449219 38.429688 5.628906 38.230469 5.628906 Z M 28.230469 5.628906 L 26.078125 5.628906 C 25.875 5.628906 25.695312 5.449219 25.695312 5.246094 C 25.695312 5.046875 25.875 4.867188 26.078125 4.867188 L 28.230469 4.867188 C 28.429688 4.867188 28.585938 5.046875 28.585938 5.246094 C 28.585938 5.449219 28.429688 5.628906 28.230469 5.628906 Z M 28.230469 5.628906 " fill-opacity="1" fill-rule="evenodd"/></g><path fill="#000000" d="M 17.21875 12.019531 C 16.523438 12.019531 15.988281 11.480469 15.988281 10.808594 C 15.988281 10.136719 16.546875 9.574219 17.21875 9.574219 C 17.871094 9.574219 18.429688 10.136719 18.429688 10.808594 C 18.429688 11.457031 17.871094 12.019531 17.21875 12.019531 Z M 17.21875 10.335938 C 16.953125 10.335938 16.75 10.539062 16.75 10.808594 C 16.75 11.054688 16.953125 11.257812 17.21875 11.257812 C 17.46875 11.257812 17.667969 11.054688 17.667969 10.808594 C 17.667969 10.539062 17.46875 10.335938 17.21875 10.335938 Z M 17.21875 10.335938 " fill-opacity="1" fill-rule="evenodd"/><path fill="#000000" d="M 22.355469 10.496094 C 21.480469 10.496094 20.761719 9.753906 20.761719 8.878906 C 20.761719 8.003906 21.480469 7.289062 22.355469 7.289062 C 23.230469 7.289062 23.925781 8.003906 23.925781 8.878906 C 23.925781 9.753906 23.230469 10.496094 22.355469 10.496094 Z M 22.355469 8.050781 C 21.882812 8.050781 21.503906 8.410156 21.503906 8.878906 C 21.503906 9.351562 21.882812 9.730469 22.355469 9.730469 C 22.804688 9.730469 23.183594 9.351562 23.183594 8.878906 C 23.183594 8.410156 22.824219 8.050781 22.355469 8.050781 Z M 22.355469 8.050781 " fill-opacity="1" fill-rule="evenodd"/><path fill="#000000" d="M 18.609375 7.914062 C 17.46875 7.914062 16.546875 6.972656 16.546875 5.851562 C 16.546875 4.710938 17.46875 3.789062 18.609375 3.789062 C 19.730469 3.789062 20.652344 4.710938 20.652344 5.851562 C 20.671875 6.972656 19.730469 7.914062 18.609375 7.914062 Z M 18.609375 4.550781 C 17.894531 4.550781 17.308594 5.136719 17.308594 5.851562 C 17.308594 6.570312 17.894531 7.152344 18.609375 7.152344 C 19.328125 7.152344 19.910156 6.570312 19.910156 5.851562 C 19.910156 5.136719 19.328125 4.550781 18.609375 4.550781 Z M 18.609375 4.550781 " fill-opacity="1" fill-rule="evenodd"/></svg>