<svg xmlns="http://www.w3.org/2000/svg" xmlns:xlink="http://www.w3.org/1999/xlink" width="52" zoomAndPan="magnify" viewBox="0 0 39 38.999999" height="52" preserveAspectRatio="xMidYMid meet" version="1.0"><defs><clipPath id="d9f6311727"><path d="M 9 5.558594 L 39 5.558594 L 39 31 L 9 31 Z M 9 5.558594 " clip-rule="nonzero"/></clipPath><clipPath id="29967b1564"><path d="M 0 11 L 32 11 L 32 33.308594 L 0 33.308594 Z M 0 11 " clip-rule="nonzero"/></clipPath></defs><g clip-path="url(#d9f6311727)"><path fill="#dbccc6" d="M 10.027344 12.449219 C 10.183594 12.195312 10.492188 12.125 10.609375 12.097656 C 11.9375 11.789062 13.222656 11.3125 14.554688 11.039062 C 15.808594 10.78125 15.617188 10.515625 17.765625 9.667969 C 22.082031 7.96875 22.917969 9.015625 24.757812 7.546875 C 25.445312 7 26.1875 6.640625 27.664062 5.929688 C 27.902344 5.8125 28.449219 5.558594 28.792969 5.785156 C 28.863281 5.832031 28.929688 5.902344 29.222656 6.46875 C 29.378906 6.773438 29.457031 6.925781 29.53125 7.09375 C 29.949219 8.058594 32.945312 11.574219 34.554688 14.789062 C 35.644531 16.964844 35.210938 17.226562 36.285156 18.835938 C 37.003906 19.917969 37.566406 21.109375 38.371094 22.128906 C 38.703125 22.542969 38.988281 22.867188 38.910156 23.230469 C 38.75 23.964844 37.253906 24.109375 35.90625 24.417969 C 32.53125 25.195312 32.972656 26.363281 28.476562 27.925781 C 26.640625 28.566406 25.625 28.699219 24.335938 29.464844 C 23.6875 29.847656 22.972656 30.113281 22.316406 30.476562 C 21.652344 30.839844 21.324219 31.050781 20.988281 30.929688 C 20.59375 30.785156 20.492188 30.292969 20.246094 29.589844 C 19.964844 28.800781 19.496094 28.085938 19.167969 27.320312 C 18.457031 25.660156 16.679688 23.398438 15.121094 21.425781 C 15.121094 21.425781 12.265625 17.808594 10.171875 13.613281 C 10.046875 13.359375 9.796875 12.824219 10.027344 12.449219 Z M 10.027344 12.449219 " fill-opacity="1" fill-rule="nonzero"/></g><g clip-path="url(#29967b1564)"><path fill="#a99b1e" d="M 24.757812 24.214844 C 22.675781 23.429688 20.472656 24.40625 20.277344 23.890625 C 20.269531 23.867188 20.269531 23.851562 20.265625 23.816406 C 20.214844 23.019531 22.683594 22.128906 25.230469 21.191406 C 29.570312 19.601562 31.121094 18.992188 31.15625 18.101562 C 31.171875 17.742188 30.929688 17.464844 30.894531 17.421875 C 30.511719 16.988281 29.78125 16.96875 27.375 17.429688 C 26.683594 17.5625 25.78125 17.75 24.726562 18 C 27.84375 16.6875 30.082031 15.59375 30.539062 15.195312 C 30.648438 15.097656 30.917969 14.855469 30.953125 14.5 C 30.957031 14.449219 30.972656 14.238281 30.855469 14.027344 C 30.675781 13.714844 30.316406 13.613281 30.175781 13.574219 C 28.839844 13.207031 24.425781 15.039062 24.425781 15.039062 C 24.425781 15.039062 25.335938 14.550781 26.113281 14.058594 C 27.527344 13.160156 27.664062 12.773438 27.640625 12.519531 C 27.617188 12.222656 27.371094 12.019531 27.3125 11.96875 C 27.214844 11.886719 26.800781 11.59375 25.796875 11.824219 C 23.949219 12.242188 19.535156 14.921875 19.152344 15.152344 C 20.5 14.191406 21.597656 13.394531 22.414062 12.8125 C 22.644531 12.648438 23.132812 12.300781 23.097656 11.890625 C 23.074219 11.597656 22.792969 11.402344 22.71875 11.347656 C 21.695312 10.625 17.363281 12.984375 11.910156 17.179688 C 10.960938 17.910156 10.21875 18.507812 9.835938 18.820312 L 0.855469 21.113281 C 0.550781 22.128906 0.0117188 24.445312 0.75 27.21875 C 1.683594 30.730469 4.058594 32.699219 4.855469 33.308594 L 15.878906 27.769531 C 18.300781 28.023438 19.996094 27.742188 21.066406 27.453125 C 22.4375 27.085938 22.597656 26.757812 23.933594 26.566406 C 24.785156 26.441406 25.695312 26.433594 25.96875 25.882812 C 26.101562 25.613281 26.03125 25.328125 26.015625 25.265625 C 25.859375 24.640625 25.101562 24.34375 24.757812 24.214844 Z M 24.757812 24.214844 " fill-opacity="1" fill-rule="nonzero"/></g><path fill="#897c1a" d="M 21.523438 16.625 C 21.5 16.625 21.476562 16.613281 21.46875 16.589844 C 21.449219 16.558594 21.460938 16.519531 21.492188 16.503906 C 21.890625 16.289062 22.292969 16.078125 22.695312 15.875 C 23.191406 15.621094 23.695312 15.371094 24.199219 15.132812 C 24.230469 15.117188 24.269531 15.132812 24.285156 15.164062 C 24.300781 15.195312 24.285156 15.234375 24.253906 15.25 C 23.75 15.484375 23.246094 15.734375 22.75 15.988281 C 22.351562 16.191406 21.949219 16.402344 21.554688 16.617188 C 21.546875 16.625 21.535156 16.625 21.523438 16.625 Z M 21.523438 16.625 " fill-opacity="1" fill-rule="nonzero"/><path fill="#897c1a" d="M 18.238281 15.867188 C 18.21875 15.867188 18.199219 15.859375 18.1875 15.84375 C 18.164062 15.816406 18.167969 15.773438 18.195312 15.753906 C 18.328125 15.648438 18.46875 15.539062 18.613281 15.4375 C 18.777344 15.320312 18.949219 15.207031 19.117188 15.101562 C 19.148438 15.082031 19.1875 15.09375 19.207031 15.121094 C 19.226562 15.152344 19.214844 15.191406 19.1875 15.210938 C 19.019531 15.316406 18.851562 15.425781 18.6875 15.542969 C 18.546875 15.644531 18.410156 15.75 18.277344 15.851562 C 18.265625 15.863281 18.25 15.867188 18.238281 15.867188 Z M 18.238281 15.867188 " fill-opacity="1" fill-rule="nonzero"/><path fill="#897c1a" d="M 22.644531 18.8125 C 22.621094 18.8125 22.597656 18.800781 22.585938 18.777344 C 22.570312 18.742188 22.585938 18.707031 22.617188 18.691406 C 22.839844 18.589844 23.066406 18.492188 23.292969 18.398438 C 23.695312 18.234375 24.109375 18.085938 24.519531 17.953125 C 24.554688 17.945312 24.589844 17.960938 24.601562 17.996094 C 24.613281 18.03125 24.59375 18.066406 24.558594 18.078125 C 24.152344 18.207031 23.742188 18.359375 23.34375 18.519531 C 23.117188 18.609375 22.894531 18.707031 22.671875 18.808594 C 22.664062 18.8125 22.65625 18.8125 22.644531 18.8125 Z M 22.644531 18.8125 " fill-opacity="1" fill-rule="nonzero"/></svg>